<svg xmlns="http://www.w3.org/2000/svg" xmlns:xlink="http://www.w3.org/1999/xlink" width="626" zoomAndPan="magnify" viewBox="0 0 469.5 456.749982" height="609" preserveAspectRatio="xMidYMid meet" version="1.2"><defs><clipPath id="21735d9512"><path d="M 0 0.117188 L 469 0.117188 L 469 455.898438 L 0 455.898438 Z M 0 0.117188 "/></clipPath><clipPath id="ce923591e2"><path d="M 56.9375 0.117188 L 411.566406 0.117188 C 443.011719 0.117188 468.503906 25.609375 468.503906 57.058594 L 468.503906 398.960938 C 468.503906 430.40625 443.011719 455.898438 411.566406 455.898438 L 56.9375 455.898438 C 25.492188 455.898438 0 430.40625 0 398.960938 L 0 57.058594 C 0 25.609375 25.492188 0.117188 56.9375 0.117188 Z M 56.9375 0.117188 "/></clipPath><clipPath id="c5a321f845"><path d="M 380.464844 110.171875 L 421.957031 110.171875 L 421.957031 158.441406 L 380.464844 158.441406 Z M 380.464844 110.171875 "/></clipPath><clipPath id="e6cb0f09fc"><path d="M 254.265625 389.554688 L 263 389.554688 L 263 395.550781 L 254.265625 395.550781 Z M 254.265625 389.554688 "/></clipPath></defs><g id="df72ad8cad"><g clip-rule="nonzero" clip-path="url(#21735d9512)"><g clip-rule="nonzero" clip-path="url(#ce923591e2)"><path style=" stroke:none;fill-rule:nonzero;fill:#d455c3;fill-opacity:1;" d="M 0 0.117188 L 468.242188 0.117188 L 468.242188 455.898438 L 0 455.898438 Z M 0 0.117188 "/></g></g><path style=" stroke:none;fill-rule:nonzero;fill:#f04156;fill-opacity:1;" d="M 176.253906 117.554688 C 176.691406 116.417969 162.125 105.15625 160.308594 99.160156 C 158.492188 93.164062 162.222656 74.796875 162.222656 74.796875 C 162.222656 74.796875 140.132812 79.601562 123.953125 103.121094 C 107.777344 126.636719 120.863281 141.546875 146.804688 152.890625 C 146.804688 152.890625 167.792969 139.378906 176.253906 117.554688 "/><path style=" stroke:none;fill-rule:nonzero;fill:#6152ae;fill-opacity:1;" d="M 171.742188 113.089844 C 171.742188 113.089844 148.09375 116.75 134.789062 147.113281 L 156.121094 156.324219 C 156.121094 156.324219 175.367188 146.683594 184.382812 123.171875 L 171.742188 113.089844 "/><path style=" stroke:none;fill-rule:nonzero;fill:#6152ae;fill-opacity:1;" d="M 165.964844 106.984375 C 165.964844 106.984375 153.171875 103.652344 138.898438 113.761719 C 124.628906 123.871094 121.058594 135.175781 121.058594 135.175781 C 121.058594 135.175781 114.761719 124.289062 117.777344 114.671875 C 117.777344 114.671875 129.972656 92.59375 161.375 101.132812 C 161.375 101.132812 163.539062 104.652344 165.964844 106.984375 "/><path style=" stroke:none;fill-rule:nonzero;fill:#6152ae;fill-opacity:1;" d="M 159.863281 95.761719 C 159.394531 95.039062 153.171875 85.539062 139.671875 86.039062 C 139.671875 86.039062 144.964844 82.019531 147.898438 80.847656 C 147.898438 80.847656 156.960938 78.390625 160.132812 90.78125 L 159.863281 95.761719 "/><path style=" stroke:none;fill-rule:nonzero;fill:#6152ae;fill-opacity:1;" d="M 160.78125 82.890625 C 160.78125 82.890625 161.148438 77.738281 153.917969 77.480469 C 153.917969 77.480469 157.539062 75.152344 162.585938 74.5625 C 162.585938 74.5625 162.53125 76.542969 160.78125 82.890625 "/><path style=" stroke:none;fill-rule:nonzero;fill:#d0d0ce;fill-opacity:1;" d="M 117.523438 115.574219 C 116.328125 119.601562 116.09375 123.546875 117.324219 127.125 C 117.457031 127.515625 117.601562 127.902344 117.75 128.285156 C 116.957031 125.675781 116.675781 122.917969 116.960938 119.992188 C 116.984375 118.527344 117.152344 117.042969 117.523438 115.574219 M 144.566406 82.554688 C 140.042969 84.304688 122.800781 99.773438 117.84375 114.554688 C 117.9375 114.402344 118.117188 114.101562 118.394531 113.691406 C 119.554688 110.371094 121.386719 106.855469 123.953125 103.121094 C 129.050781 95.710938 134.738281 90.15625 140.132812 86.027344 C 139.980469 86.03125 139.828125 86.035156 139.671875 86.039062 C 139.671875 86.039062 141.871094 84.371094 144.21875 82.867188 C 144.441406 82.660156 144.566406 82.554688 144.566406 82.554688 "/><path style=" stroke:none;fill-rule:nonzero;fill:#d13745;fill-opacity:1;" d="M 139.214844 149.023438 C 139.726562 149.289062 140.230469 149.542969 140.734375 149.789062 C 140.75 149.761719 140.765625 149.730469 140.78125 149.703125 L 139.214844 149.023438 M 131.414062 120.015625 C 124.65625 126.707031 121.964844 132.789062 121.261719 134.621094 C 124.871094 139.617188 129.890625 143.589844 134.988281 146.667969 C 137.042969 142.054688 139.335938 138.058594 141.75 134.613281 C 136.3125 129.742188 133.085938 124.808594 131.414062 120.015625 M 116.960938 119.992188 C 116.675781 122.917969 116.957031 125.675781 117.75 128.285156 C 118.246094 129.535156 118.828125 130.730469 119.488281 131.882812 C 118.308594 129.019531 116.898438 124.613281 116.960938 119.992188 M 140.699219 86.019531 C 140.511719 86.019531 140.324219 86.023438 140.132812 86.027344 C 134.738281 90.15625 129.050781 95.710938 123.953125 103.121094 C 121.386719 106.855469 119.554688 110.371094 118.394531 113.691406 C 119.851562 111.539062 123.941406 106.304688 131.300781 102.746094 C 133.519531 95.507812 138.011719 89.546875 141.148438 86.023438 C 141 86.023438 140.851562 86.019531 140.699219 86.019531 "/><path style=" stroke:none;fill-rule:nonzero;fill:#5444a4;fill-opacity:1;" d="M 141.75 134.613281 C 139.335938 138.058594 137.042969 142.054688 134.988281 146.667969 C 136.398438 147.523438 137.820312 148.304688 139.214844 149.023438 L 140.78125 149.703125 C 142.785156 146.019531 145 142.476562 147.453125 139.109375 C 145.328125 137.621094 143.429688 136.117188 141.75 134.613281 "/><path style=" stroke:none;fill-rule:nonzero;fill:#5444a4;fill-opacity:1;" d="M 131.300781 102.746094 C 123.941406 106.304688 119.851562 111.539062 118.394531 113.691406 C 118.117188 114.101562 117.9375 114.402344 117.84375 114.554688 C 117.730469 114.894531 117.625 115.238281 117.523438 115.574219 C 117.152344 117.042969 116.984375 118.527344 116.960938 119.992188 C 116.898438 124.613281 118.308594 129.019531 119.488281 131.882812 C 120.03125 132.828125 120.625 133.738281 121.261719 134.621094 C 121.964844 132.789062 124.65625 126.707031 131.414062 120.015625 C 129.28125 113.878906 129.695312 107.976562 131.300781 102.746094 "/><path style=" stroke:none;fill-rule:nonzero;fill:#5444a4;fill-opacity:1;" d="M 144.21875 82.867188 C 141.871094 84.371094 139.671875 86.039062 139.671875 86.039062 C 139.828125 86.035156 139.980469 86.03125 140.132812 86.027344 C 140.324219 86.023438 140.511719 86.019531 140.699219 86.019531 C 140.851562 86.019531 141 86.023438 141.148438 86.023438 C 142.546875 84.457031 143.675781 83.371094 144.21875 82.867188 "/><path style=" stroke:none;fill-rule:nonzero;fill:#f36378;fill-opacity:1;" d="M 158.253906 78.550781 C 157.234375 79.609375 156.117188 80.859375 154.988281 82.277344 C 156.164062 83.09375 157.320312 84.300781 158.3125 86.066406 C 158.761719 84.378906 159.359375 82.5 160.140625 80.414062 C 159.769531 79.761719 159.179688 79.089844 158.253906 78.550781 "/><path style=" stroke:none;fill-rule:nonzero;fill:#f36378;fill-opacity:1;" d="M 160.621094 106.457031 C 157.246094 106.457031 152.523438 107 147.191406 109.179688 C 148.082031 113.3125 150.039062 117.644531 153.457031 122.085938 C 160.117188 116.832031 166.234375 114.554688 169.425781 113.640625 C 167.207031 111.273438 165.035156 108.847656 163.15625 106.566406 C 162.429688 106.503906 161.582031 106.457031 160.621094 106.457031 M 150.941406 88.242188 C 149.121094 91.46875 147.625 95.152344 146.960938 99.175781 C 147.167969 99.171875 147.378906 99.171875 147.589844 99.171875 C 150.984375 99.171875 154.699219 99.566406 158.757812 100.484375 C 158.242188 99.597656 157.851562 98.789062 157.621094 98.082031 C 157.265625 96.992188 156.957031 95.214844 157.152344 92.542969 C 155.695312 91.132812 153.640625 89.515625 150.941406 88.242188 "/><path style=" stroke:none;fill-rule:nonzero;fill:#836fbf;fill-opacity:1;" d="M 169.425781 113.640625 C 166.234375 114.554688 160.117188 116.832031 153.457031 122.085938 C 154.757812 123.777344 156.269531 125.476562 158.019531 127.1875 C 162.433594 123.136719 167.273438 119.691406 172.425781 116.78125 C 171.433594 115.757812 170.421875 114.703125 169.425781 113.640625 "/><path style=" stroke:none;fill-rule:nonzero;fill:#836fbf;fill-opacity:1;" d="M 147.589844 99.171875 C 147.378906 99.171875 147.167969 99.171875 146.960938 99.175781 C 146.441406 102.324219 146.433594 105.679688 147.191406 109.179688 C 152.523438 107 157.246094 106.457031 160.621094 106.457031 C 161.582031 106.457031 162.429688 106.503906 163.15625 106.566406 C 161.335938 104.34375 159.789062 102.253906 158.757812 100.484375 C 154.699219 99.566406 150.984375 99.171875 147.589844 99.171875 "/><path style=" stroke:none;fill-rule:nonzero;fill:#836fbf;fill-opacity:1;" d="M 154.988281 82.277344 C 153.601562 84.019531 152.195312 86.023438 150.941406 88.242188 C 153.640625 89.515625 155.695312 91.132812 157.152344 92.542969 C 157.277344 90.792969 157.625 88.652344 158.3125 86.066406 C 157.320312 84.300781 156.164062 83.09375 154.988281 82.277344 "/><path style=" stroke:none;fill-rule:nonzero;fill:#836fbf;fill-opacity:1;" d="M 162.585938 74.5625 C 162.585938 74.5625 160.714844 75.996094 158.253906 78.550781 C 159.179688 79.089844 159.769531 79.761719 160.140625 80.414062 C 160.8125 78.621094 161.621094 76.671875 162.585938 74.5625 "/><path style=" stroke:none;fill-rule:nonzero;fill:#fdfefd;fill-opacity:1;" d="M 151.914062 94.105469 C 151.375 94.375 149.328125 98.261719 152.585938 104.683594 C 155.84375 111.105469 163.179688 117.632812 163.714844 117.359375 C 164.253906 117.085938 158.828125 109.585938 155.570312 103.164062 C 152.308594 96.742188 152.453125 93.832031 151.914062 94.105469 "/><path style=" stroke:none;fill-rule:nonzero;fill:#f04156;fill-opacity:1;" d="M 285.476562 116.554688 C 285.210938 115.300781 302.292969 106.027344 305.199219 100.085938 C 308.101562 94.148438 307.324219 74.382812 307.324219 74.382812 C 307.324219 74.382812 329.527344 83.121094 342.40625 110.355469 C 355.285156 137.589844 339.128906 150.914062 310.183594 158.351562 C 310.183594 158.351562 290.601562 140.726562 285.476562 116.554688 "/><path style=" stroke:none;fill-rule:nonzero;fill:#6152ae;fill-opacity:1;" d="M 290.933594 112.667969 C 290.933594 112.667969 314.953125 120.476562 323.679688 154.363281 L 310.183594 158.351562 C 310.183594 158.351562 281.472656 147.058594 276.058594 121.035156 L 290.933594 112.667969 "/><path style=" stroke:none;fill-rule:nonzero;fill:#6152ae;fill-opacity:1;" d="M 297.984375 107.28125 C 297.984375 107.28125 311.875 105.976562 325.035156 118.921875 C 338.195312 131.863281 340 144.246094 340 144.246094 C 340 144.246094 348.40625 133.964844 346.886719 123.433594 C 346.886719 123.433594 337.917969 98.371094 303.753906 101.964844 C 303.753906 101.964844 300.902344 105.265625 297.984375 107.28125 "/><path style=" stroke:none;fill-rule:nonzero;fill:#6152ae;fill-opacity:1;" d="M 306.238281 96.625 C 306.847656 95.949219 314.9375 87.101562 328.917969 89.90625 C 328.917969 89.90625 324.082031 84.820312 321.226562 83.105469 C 321.226562 83.105469 312.199219 79.011719 306.800781 91.386719 L 306.238281 96.625 "/><path style=" stroke:none;fill-rule:nonzero;fill:#6152ae;fill-opacity:1;" d="M 307.457031 83.054688 C 307.457031 83.054688 307.945312 77.628906 315.523438 78.582031 C 315.523438 78.582031 312.144531 75.542969 306.988281 74.078125 C 306.988281 74.078125 306.707031 76.148438 307.457031 83.054688 "/><path style=" stroke:none;fill-rule:nonzero;fill:#d0d0ce;fill-opacity:1;" d="M 322.945312 154.578125 L 319.273438 155.664062 C 319.015625 155.75 318.757812 155.839844 318.496094 155.925781 C 318.53125 156 318.5625 156.070312 318.597656 156.144531 C 319.957031 155.703125 321.421875 155.179688 322.945312 154.578125 M 335.5 147.808594 C 332.15625 150.1875 328.152344 152.257812 323.601562 154.070312 C 323.621094 154.144531 323.640625 154.21875 323.660156 154.292969 C 327.53125 152.710938 331.722656 150.589844 335.5 147.808594 M 346.941406 128.316406 C 346.910156 128.585938 346.875 128.855469 346.835938 129.121094 C 346.59375 132.976562 345.472656 136.414062 343.585938 139.484375 C 344.207031 138.53125 344.765625 137.535156 345.253906 136.488281 C 346.421875 134.003906 346.9375 131.238281 346.941406 128.316406 M 324.410156 85.445312 C 324.410156 85.445312 324.519531 85.578125 324.714844 85.832031 C 326.910156 87.792969 328.917969 89.90625 328.917969 89.90625 C 328.757812 89.871094 328.597656 89.84375 328.4375 89.8125 C 331.574219 93.132812 334.734375 97.078125 337.667969 101.71875 C 332.605469 93.40625 326.878906 86.894531 324.410156 85.445312 "/><path style=" stroke:none;fill-rule:nonzero;fill:#d13745;fill-opacity:1;" d="M 319.273438 155.664062 L 318.484375 155.898438 C 318.488281 155.90625 318.492188 155.914062 318.496094 155.925781 C 318.757812 155.839844 319.015625 155.75 319.273438 155.664062 M 346.835938 129.121094 C 345.964844 135.027344 342.84375 140.21875 341.136719 142.699219 C 342.027344 141.691406 342.847656 140.617188 343.585938 139.484375 C 345.472656 136.414062 346.59375 132.976562 346.835938 129.121094 M 331.773438 126.699219 C 329.226562 131.410156 325.027344 136.003906 318.542969 140.160156 C 320.496094 144.214844 322.230469 148.828125 323.601562 154.070312 C 328.152344 152.257812 332.15625 150.1875 335.5 147.808594 C 337.078125 146.648438 338.578125 145.371094 339.953125 143.972656 C 339.679688 142.507812 338.082031 135.351562 331.773438 126.699219 M 327.378906 89.640625 C 330.054688 93.839844 333.726562 100.804688 334.816406 108.726562 C 341.59375 113.476562 344.976562 119.324219 346.257812 121.988281 C 344.851562 115.128906 341.445312 107.925781 337.667969 101.71875 C 334.734375 97.078125 331.574219 93.132812 328.4375 89.8125 C 328.082031 89.75 327.730469 89.691406 327.378906 89.640625 "/><path style=" stroke:none;fill-rule:nonzero;fill:#5444a4;fill-opacity:1;" d="M 318.542969 140.160156 C 316.628906 141.382812 314.515625 142.574219 312.191406 143.710938 C 314.421875 147.613281 316.519531 151.699219 318.484375 155.898438 L 319.273438 155.664062 L 322.945312 154.578125 C 323.183594 154.484375 323.417969 154.390625 323.660156 154.292969 C 323.640625 154.21875 323.621094 154.144531 323.601562 154.070312 C 322.230469 148.828125 320.496094 144.214844 318.542969 140.160156 "/><path style=" stroke:none;fill-rule:nonzero;fill:#5444a4;fill-opacity:1;" d="M 334.816406 108.726562 C 335.601562 114.449219 335.039062 120.671875 331.773438 126.699219 C 338.082031 135.351562 339.679688 142.507812 339.953125 143.972656 C 340.359375 143.558594 340.753906 143.136719 341.136719 142.699219 C 342.84375 140.21875 345.964844 135.027344 346.835938 129.121094 C 346.875 128.855469 346.910156 128.585938 346.941406 128.316406 C 346.945312 126.269531 346.699219 124.144531 346.257812 121.988281 C 344.976562 119.324219 341.59375 113.476562 334.816406 108.726562 "/><path style=" stroke:none;fill-rule:nonzero;fill:#5444a4;fill-opacity:1;" d="M 324.714844 85.832031 C 325.195312 86.445312 326.1875 87.765625 327.378906 89.640625 C 327.730469 89.691406 328.082031 89.75 328.4375 89.8125 C 328.597656 89.84375 328.757812 89.871094 328.917969 89.90625 C 328.917969 89.90625 326.910156 87.792969 324.714844 85.832031 "/><path style=" stroke:none;fill-rule:nonzero;fill:#f36378;fill-opacity:1;" d="M 301.71875 107.386719 C 299.328125 109.753906 296.660156 112.089844 294.234375 114.113281 C 297.796875 115.917969 303.75 119.632812 309.601562 126.414062 C 314.414062 122.441406 317.507812 118.292969 319.320312 114.144531 C 312.292969 109.230469 305.667969 107.78125 301.71875 107.386719 M 318.144531 89.953125 C 314.484375 90.777344 311.617188 92.328125 309.609375 93.726562 C 309.359375 96.542969 308.734375 98.34375 308.179688 99.417969 C 307.800781 100.148438 307.308594 100.921875 306.734375 101.71875 C 307.949219 101.644531 309.125 101.613281 310.273438 101.613281 C 314.410156 101.613281 318.117188 102.0625 321.429688 102.835938 C 321.25 98.230469 319.921875 93.847656 318.144531 89.953125 M 311.21875 78.828125 C 309.949219 79.222656 309.101562 79.894531 308.542969 80.585938 C 309.003906 82.890625 309.308594 84.949219 309.492188 86.785156 C 311.058594 84.816406 312.734375 83.691406 314.308594 83.085938 C 313.25 81.484375 312.191406 80.054688 311.21875 78.828125 "/><path style=" stroke:none;fill-rule:nonzero;fill:#836fbf;fill-opacity:1;" d="M 294.234375 114.113281 C 293.074219 115.078125 291.964844 115.96875 290.96875 116.761719 C 295.511719 120.667969 299.757812 125.363281 303.691406 130.640625 C 305.902344 129.261719 307.863281 127.847656 309.601562 126.414062 C 303.75 119.632812 297.796875 115.917969 294.234375 114.113281 "/><path style=" stroke:none;fill-rule:nonzero;fill:#836fbf;fill-opacity:1;" d="M 310.273438 101.613281 C 309.125 101.613281 307.949219 101.644531 306.734375 101.71875 C 305.421875 103.523438 303.660156 105.464844 301.71875 107.386719 C 305.667969 107.78125 312.292969 109.230469 319.320312 114.144531 C 320.984375 110.328125 321.574219 106.511719 321.429688 102.835938 C 318.117188 102.0625 314.410156 101.613281 310.273438 101.613281 "/><path style=" stroke:none;fill-rule:nonzero;fill:#836fbf;fill-opacity:1;" d="M 314.308594 83.085938 C 312.734375 83.691406 311.058594 84.816406 309.492188 86.785156 C 309.773438 89.59375 309.769531 91.878906 309.609375 93.726562 C 311.617188 92.328125 314.484375 90.777344 318.144531 89.953125 C 316.992188 87.4375 315.652344 85.121094 314.308594 83.085938 "/><path style=" stroke:none;fill-rule:nonzero;fill:#836fbf;fill-opacity:1;" d="M 306.988281 74.078125 C 307.636719 76.4375 308.148438 78.601562 308.542969 80.585938 C 309.101562 79.894531 309.949219 79.222656 311.21875 78.828125 C 308.839844 75.832031 306.988281 74.078125 306.988281 74.078125 "/><path style=" stroke:none;fill-rule:nonzero;fill:#fdfefd;fill-opacity:1;" d="M 314.800781 96.242188 C 315.316406 96.613281 316.792969 101.007812 312.3125 107.148438 C 307.832031 113.289062 299.085938 118.847656 298.574219 118.472656 C 298.058594 118.097656 304.980469 111.203125 309.460938 105.0625 C 313.941406 98.921875 314.289062 95.863281 314.800781 96.242188 "/><path style=" stroke:none;fill-rule:nonzero;fill:#fab32b;fill-opacity:1;" d="M 147.203125 180.289062 C 147.203125 180.289062 92.085938 207.71875 88.953125 144.273438 L 83.222656 141.152344 C 83.222656 141.152344 58.71875 208.386719 115.4375 226.035156 C 143.113281 234.648438 156.472656 219.230469 159.945312 203.816406 C 163.207031 189.328125 157.734375 174.84375 147.203125 180.289062 "/><path style=" stroke:none;fill-rule:nonzero;fill:#ebefea;fill-opacity:1;" d="M 117.5625 226.660156 C 119.65625 227.398438 121.691406 227.949219 123.605469 228.296875 C 123.605469 228.1875 123.605469 228.082031 123.605469 227.972656 C 121.679688 227.667969 119.664062 227.234375 117.5625 226.660156 "/><path style=" stroke:none;fill-rule:nonzero;fill:#e4a927;fill-opacity:1;" d="M 81.28125 173.605469 C 78.964844 201.699219 100.398438 220.601562 117.5625 226.660156 C 119.664062 227.234375 121.679688 227.667969 123.605469 227.972656 C 123.613281 222.996094 123.792969 217.703125 124.195312 212.222656 C 123.3125 212.265625 122.441406 212.285156 121.59375 212.285156 C 83.765625 212.285156 81.28125 173.605469 81.28125 173.605469 "/><path style=" stroke:none;fill-rule:nonzero;fill:#6152ae;fill-opacity:1;" d="M 93.925781 141.332031 C 93.925781 141.332031 99.625 118.308594 85.757812 112.082031 C 71.894531 105.863281 70.152344 121.90625 76.988281 119.289062 C 83.828125 116.667969 101.527344 128.398438 79.410156 135.660156 C 68.039062 139.398438 62.121094 108.644531 54.503906 125.015625 C 46.890625 141.386719 61.945312 141.390625 60.675781 134.183594 C 59.414062 126.980469 73.648438 134.023438 72.832031 141.0625 C 72.011719 148.101562 57.296875 142.207031 60.640625 149.574219 C 63.988281 156.945312 69.15625 161.691406 69.492188 155.800781 C 69.820312 149.902344 76.136719 141.71875 82.3125 150.890625 C 88.484375 160.058594 93.925781 141.332031 93.925781 141.332031 "/><path style=" stroke:none;fill-rule:nonzero;fill:#6152ae;fill-opacity:1;" d="M 92.511719 144.238281 C 92.511719 144.238281 109.890625 141.011719 110.195312 152.324219 C 110.410156 160.261719 92.941406 164.945312 97.121094 157.609375 C 103.140625 147.03125 97.746094 150.679688 89.210938 150.097656 L 92.511719 144.238281 "/><path style=" stroke:none;fill-rule:nonzero;fill:#6152ae;fill-opacity:1;" d="M 94.796875 132.609375 C 95.027344 137.972656 95.304688 142.550781 99.234375 146.660156 C 92.351562 148.957031 88.207031 145.347656 91.03125 139.25 L 94.796875 132.609375 "/><path style=" stroke:none;fill-rule:nonzero;fill:#fab32b;fill-opacity:1;" d="M 329.746094 180.289062 C 329.746094 180.289062 383.40625 207.542969 386.449219 144.097656 L 392.003906 140.976562 C 392.003906 140.976562 415.773438 208.210938 360.757812 225.859375 C 333.910156 234.476562 320.898438 219.101562 317.480469 203.730469 C 314.273438 189.285156 319.53125 174.84375 329.746094 180.289062 "/><path style=" stroke:none;fill-rule:nonzero;fill:#ebefea;fill-opacity:1;" d="M 358.703125 226.484375 C 354.167969 227.765625 350.042969 228.34375 346.3125 228.34375 C 345.980469 228.34375 345.652344 228.339844 345.328125 228.328125 C 346.230469 228.5 347.214844 228.582031 348.257812 228.582031 C 351.304688 228.582031 354.894531 227.867188 358.703125 226.484375 "/><path style=" stroke:none;fill-rule:nonzero;fill:#e4a927;fill-opacity:1;" d="M 393.886719 173.429688 C 393.886719 173.429688 391.480469 212.109375 354.789062 212.109375 C 349.21875 212.109375 342.855469 211.214844 335.59375 209.164062 C 336.667969 214.609375 337.503906 219.882812 338.105469 224.867188 C 339.621094 226.105469 341.5 227.171875 343.828125 227.945312 C 344.300781 228.101562 344.800781 228.230469 345.328125 228.328125 C 345.652344 228.339844 345.980469 228.34375 346.3125 228.34375 C 350.042969 228.34375 354.167969 227.765625 358.703125 226.484375 C 375.351562 220.421875 396.136719 201.519531 393.886719 173.429688 "/><g clip-rule="nonzero" clip-path="url(#c5a321f845)"><path style=" stroke:none;fill-rule:nonzero;fill:#6152ae;fill-opacity:1;" d="M 381.625 141.15625 C 381.625 141.15625 376.097656 118.132812 389.542969 111.910156 C 402.992188 105.683594 404.683594 121.734375 398.050781 119.113281 C 391.417969 116.492188 374.25 128.222656 395.703125 135.484375 C 406.734375 139.222656 412.472656 108.46875 419.859375 124.84375 C 427.246094 141.210938 412.644531 141.214844 413.875 134.011719 C 415.101562 126.804688 401.289062 133.847656 402.082031 140.890625 C 402.878906 147.929688 417.152344 142.03125 413.910156 149.402344 C 410.660156 156.769531 405.648438 161.515625 405.328125 155.625 C 405 149.730469 398.878906 141.546875 392.890625 150.714844 C 386.902344 159.882812 381.625 141.15625 381.625 141.15625 "/></g><path style=" stroke:none;fill-rule:nonzero;fill:#6152ae;fill-opacity:1;" d="M 382.996094 144.0625 C 382.996094 144.0625 366.136719 140.835938 365.84375 152.152344 C 365.632812 160.085938 382.578125 164.769531 378.523438 157.433594 C 372.6875 146.855469 377.917969 150.503906 386.195312 149.925781 L 382.996094 144.0625 "/><path style=" stroke:none;fill-rule:nonzero;fill:#6152ae;fill-opacity:1;" d="M 380.777344 132.4375 C 380.554688 137.796875 380.285156 142.375 376.472656 146.488281 C 383.152344 148.78125 387.167969 145.175781 384.433594 139.078125 L 380.777344 132.4375 "/><path style=" stroke:none;fill-rule:nonzero;fill:#fab32b;fill-opacity:1;" d="M 191.960938 301.78125 C 191.960938 301.78125 191.960938 350.507812 211.460938 373.546875 C 211.460938 373.546875 221.269531 392.25 200.824219 393.039062 C 177.78125 393.921875 163.601562 356.710938 180.441406 300.894531 C 180.441406 300.894531 189.304688 296.46875 191.960938 301.78125 "/><path style=" stroke:none;fill-rule:nonzero;fill:#6152ae;fill-opacity:1;" d="M 204.257812 391.347656 C 204.257812 392.507812 201.042969 394.210938 198.722656 394.210938 C 196.402344 394.210938 195.859375 392.507812 195.859375 391.347656 C 195.859375 390.1875 196.402344 388.484375 198.722656 388.484375 C 201.042969 388.484375 204.257812 390.1875 204.257812 391.347656 "/><path style=" stroke:none;fill-rule:nonzero;fill:#6152ae;fill-opacity:1;" d="M 215.527344 388.105469 C 215.527344 389.496094 212.089844 391.539062 209.609375 391.539062 C 207.132812 391.539062 206.550781 389.496094 206.550781 388.105469 C 206.550781 386.710938 207.132812 384.667969 209.609375 384.667969 C 212.089844 384.667969 215.527344 386.710938 215.527344 388.105469 "/><path style=" stroke:none;fill-rule:nonzero;fill:#6152ae;fill-opacity:1;" d="M 217.816406 380.46875 C 217.816406 381.859375 216.09375 383.710938 213.613281 383.710938 C 211.136719 383.710938 209.320312 380.710938 209.320312 379.324219 C 209.320312 377.929688 209.421875 377.03125 211.902344 377.03125 C 214.378906 377.03125 217.816406 379.078125 217.816406 380.46875 "/><path style=" stroke:none;fill-rule:nonzero;fill:#fbc552;fill-opacity:1;" d="M 184.085938 342.414062 C 184.046875 342.414062 184.007812 342.429688 183.96875 342.464844 C 182.238281 343.992188 180.9375 345.996094 181.207031 348.535156 C 181.5 351.296875 183.121094 353.46875 185.804688 354.316406 C 186.402344 354.507812 187.015625 354.59375 187.613281 354.59375 C 191.304688 354.59375 194.613281 351.210938 193.011719 347.257812 C 192.242188 345.355469 190.117188 344.414062 188.1875 344.414062 C 185.8125 344.414062 183.730469 345.835938 184.800781 348.671875 C 185.253906 349.867188 186.632812 351.03125 187.902344 351.03125 C 188.472656 351.03125 189.027344 350.792969 189.457031 350.210938 C 190.046875 349.421875 189.886719 347.28125 188.640625 347.28125 C 188.558594 347.28125 188.472656 347.292969 188.378906 347.3125 C 188.175781 347.355469 188.03125 347.648438 188.265625 347.808594 C 188.472656 348.109375 188.53125 348.414062 188.453125 348.738281 C 188.410156 348.898438 188.367188 349.070312 188.320312 349.234375 C 187.976562 349.359375 187.671875 349.425781 187.402344 349.425781 C 186.609375 349.425781 186.136719 348.875 185.988281 347.773438 C 185.652344 346.167969 187.019531 345.675781 188.277344 345.675781 C 188.585938 345.675781 188.890625 345.707031 189.160156 345.753906 C 191.160156 346.121094 192.238281 348.3125 191.765625 350.0625 C 191.507812 351.035156 190.800781 351.742188 190.011719 352.277344 C 189.332031 352.734375 188.527344 352.945312 187.703125 352.945312 C 186.277344 352.945312 184.792969 352.320312 183.796875 351.28125 C 181.4375 348.808594 182.21875 344.820312 184.226562 342.792969 C 184.371094 342.65625 184.242188 342.414062 184.085938 342.414062 "/><path style=" stroke:none;fill-rule:nonzero;fill:#fab32b;fill-opacity:1;" d="M 268.59375 285.328125 C 268.59375 285.328125 268.59375 343.027344 245.507812 370.300781 C 245.507812 370.300781 233.894531 392.445312 258.097656 393.378906 C 285.386719 394.425781 302.171875 350.367188 282.238281 284.277344 C 282.238281 284.277344 271.742188 279.035156 268.59375 285.328125 "/><g clip-rule="nonzero" clip-path="url(#e6cb0f09fc)"><path style=" stroke:none;fill-rule:nonzero;fill:#6152ae;fill-opacity:1;" d="M 254.535156 392.710938 C 254.535156 393.871094 257.753906 395.574219 260.074219 395.574219 C 262.394531 395.574219 262.9375 393.871094 262.9375 392.710938 C 262.9375 391.550781 262.394531 389.847656 260.074219 389.847656 C 257.753906 389.847656 254.535156 391.550781 254.535156 392.710938 "/></g><path style=" stroke:none;fill-rule:nonzero;fill:#6152ae;fill-opacity:1;" d="M 242.503906 388.703125 C 242.503906 390.09375 245.941406 392.140625 248.421875 392.140625 C 250.898438 392.140625 251.480469 390.09375 251.480469 388.703125 C 251.480469 387.3125 250.898438 385.265625 248.421875 385.265625 C 245.941406 385.265625 242.503906 387.3125 242.503906 388.703125 "/><path style=" stroke:none;fill-rule:nonzero;fill:#6152ae;fill-opacity:1;" d="M 238.6875 381.066406 C 238.6875 382.457031 240.410156 384.308594 242.886719 384.308594 C 245.367188 384.308594 247.183594 381.3125 247.183594 379.921875 C 247.183594 378.527344 247.082031 377.628906 244.601562 377.628906 C 242.125 377.628906 238.6875 379.675781 238.6875 381.066406 "/><path style=" stroke:none;fill-rule:nonzero;fill:#fbc552;fill-opacity:1;" d="M 277.855469 337.976562 C 276.957031 337.976562 276.019531 338.230469 275.097656 338.804688 C 271.769531 340.863281 272.71875 347.21875 276.046875 347.21875 C 276.597656 347.21875 277.210938 347.042969 277.882812 346.648438 C 279.484375 345.703125 280.695312 342.847656 278.613281 341.800781 C 278.40625 341.691406 278.125 341.640625 277.828125 341.640625 C 276.789062 341.640625 275.496094 342.265625 275.933594 343.351562 C 275.980469 343.464844 276.101562 343.542969 276.21875 343.542969 C 276.304688 343.542969 276.394531 343.496094 276.441406 343.382812 C 276.679688 343.148438 276.945312 343.039062 277.238281 343.039062 C 277.265625 343.039062 277.300781 343.039062 277.328125 343.039062 C 277.5 343.054688 277.671875 343.070312 277.84375 343.085938 C 278.5625 344.335938 278.214844 345.1875 276.796875 345.632812 C 276.527344 345.742188 276.28125 345.789062 276.0625 345.789062 C 274.722656 345.789062 274.25 344.03125 274.269531 342.851562 C 274.292969 340.921875 276.070312 339.539062 277.789062 339.539062 C 277.886719 339.539062 277.980469 339.542969 278.078125 339.550781 C 279.078125 339.640625 279.890625 340.21875 280.550781 340.90625 C 282.097656 342.511719 281.984375 345.367188 280.625 347.199219 C 279.5 348.714844 277.75 349.363281 276.019531 349.363281 C 274.621094 349.363281 273.230469 348.941406 272.183594 348.207031 C 272.148438 348.179688 272.109375 348.171875 272.070312 348.171875 C 271.898438 348.171875 271.742188 348.386719 271.90625 348.523438 C 273.289062 349.632812 274.910156 350.445312 276.703125 350.445312 C 277.242188 350.445312 277.792969 350.371094 278.359375 350.210938 C 281.027344 349.457031 282.898438 347.488281 283.277344 344.703125 C 283.761719 341.214844 281.066406 337.976562 277.855469 337.976562 "/><path style=" stroke:none;fill-rule:nonzero;fill:#fab32b;fill-opacity:1;" d="M 338.484375 252.648438 C 333.839844 282.058594 309.066406 300.117188 234.746094 305.277344 C 160.421875 310.4375 132.554688 276.382812 127.390625 262.96875 C 122.230469 249.554688 116.035156 169.0625 155.777344 129.332031 C 195.519531 89.605469 274.738281 103.34375 289.96875 115.921875 C 325.582031 145.328125 343.128906 223.238281 338.484375 252.648438 "/><path style=" stroke:none;fill-rule:nonzero;fill:#f9be36;fill-opacity:1;" d="M 215.261719 178.304688 C 227.894531 178.304688 234.734375 170.417969 252.636719 167.753906 C 255.054688 167.394531 257.382812 167.222656 259.617188 167.222656 C 280.910156 167.222656 293.699219 182.6875 294.644531 197.140625 C 296.433594 204.648438 295.023438 212.324219 289.828125 217.773438 C 283.976562 223.910156 276.59375 226.171875 268.738281 226.171875 C 253.609375 226.171875 236.714844 217.785156 225.574219 212.550781 C 223.699219 211.667969 221.414062 211.304688 218.917969 211.304688 C 208.601562 211.304688 194.679688 217.480469 190.992188 218.582031 C 188.027344 219.464844 185.277344 219.863281 182.742188 219.863281 C 171.210938 219.863281 164.175781 211.539062 162.195312 202.261719 C 160.925781 197.320312 161.070312 191.957031 162.664062 187.320312 C 163.613281 183.699219 165.390625 180.390625 168 177.882812 C 173.378906 172.710938 179.382812 171.207031 184.550781 171.207031 C 191.761719 171.207031 197.351562 174.136719 197.351562 174.136719 C 204.785156 177.160156 210.445312 178.304688 215.261719 178.304688 M 271.515625 157.273438 C 270.535156 157.273438 269.527344 157.183594 268.496094 157 C 258.058594 155.144531 249.402344 141.425781 250.117188 131.035156 C 250.730469 122.160156 257.472656 117.625 265.144531 117.625 C 266.316406 117.625 267.515625 117.734375 268.710938 117.945312 C 279.148438 119.800781 288.292969 129.3125 287.683594 139.550781 C 287.066406 149.894531 280.457031 157.273438 271.515625 157.273438 M 230.933594 109.871094 C 230.226562 109.871094 229.519531 109.875 228.808594 109.882812 C 234.582031 113.6875 238.625 119.773438 239.363281 128.054688 C 240.914062 145.476562 226.042969 168.199219 207.703125 171.003906 C 206.0625 171.253906 204.453125 171.375 202.882812 171.375 C 186.882812 171.375 174.796875 158.753906 173.40625 141.234375 C 172.792969 133.46875 175.695312 126.015625 180.753906 119.917969 C 173.535156 123.332031 166.839844 127.75 161.0625 133.359375 C 124.546875 168.820312 130.238281 240.652344 134.980469 252.625 C 139.390625 263.765625 161.871094 290.855469 219.996094 290.855469 C 224.335938 290.855469 228.878906 290.707031 233.621094 290.386719 C 301.910156 285.78125 324.675781 269.664062 328.945312 243.417969 C 333.210938 217.167969 317.085938 147.636719 284.363281 121.386719 C 277.34375 115.757812 255.539062 109.867188 230.933594 109.871094 "/><path style=" stroke:none;fill-rule:nonzero;fill:#f4bb27;fill-opacity:1;" d="M 243.035156 109.773438 C 243.074219 107.65625 235.6875 69.90625 218.214844 65.394531 C 199.875 60.660156 225.082031 86.613281 236.617188 100.902344 C 239.355469 104.300781 241.320312 107.046875 241.742188 108.582031 L 243.035156 109.773438 "/><path style=" stroke:none;fill-rule:nonzero;fill:#f4bb27;fill-opacity:1;" d="M 242.390625 109.175781 C 242.390625 109.175781 217.289062 70.160156 194.882812 69.828125 C 180.296875 69.613281 228.980469 97.660156 242.390625 109.175781 "/><path style=" stroke:none;fill-rule:nonzero;fill:#ed8518;fill-opacity:1;" d="M 239.363281 128.054688 C 240.914062 145.476562 226.042969 168.199219 207.703125 171.003906 C 189.359375 173.808594 174.933594 160.472656 173.40625 141.234375 C 172.046875 124.058594 187.894531 108.398438 206.234375 105.59375 C 222.105469 103.167969 237.835938 110.894531 239.363281 128.054688 "/><path style=" stroke:none;fill-rule:nonzero;fill:#d5f1f3;fill-opacity:1;" d="M 235.96875 129.980469 C 237.285156 145.097656 223.933594 164.878906 207.566406 167.382812 C 191.195312 169.882812 178.375 158.363281 177.085938 141.667969 C 175.9375 126.765625 190.132812 113.113281 206.503906 110.609375 C 220.667969 108.441406 234.671875 115.09375 235.96875 129.980469 "/><path style=" stroke:none;fill-rule:nonzero;fill:#e9f8f9;fill-opacity:1;" d="M 207.664062 113.351562 C 193.789062 113.351562 180.265625 122.976562 179.023438 135.929688 C 177.613281 150.6875 186.652344 162.703125 200.773438 163.035156 C 200.925781 163.039062 201.074219 163.039062 201.222656 163.039062 C 215.191406 163.039062 229.066406 148.019531 230.207031 134.777344 C 231.34375 121.59375 220.578125 113.644531 208.363281 113.359375 C 208.128906 113.355469 207.898438 113.351562 207.664062 113.351562 "/><path style=" stroke:none;fill-rule:nonzero;fill:#4c2340;fill-opacity:1;" d="M 218.390625 122.546875 C 217.300781 121.609375 215.65625 121.730469 214.71875 122.820312 C 212.207031 125.738281 210.132812 128.375 208.425781 130.722656 C 202.574219 127.429688 199.355469 126.570312 199.148438 126.519531 C 197.761719 126.164062 196.351562 126.996094 195.992188 128.382812 C 195.628906 129.769531 196.460938 131.1875 197.84375 131.554688 C 197.886719 131.566406 200.539062 132.304688 205.460938 135.035156 C 202.003906 140.410156 200.988281 143.417969 200.925781 143.613281 C 200.480469 144.976562 201.222656 146.433594 202.582031 146.886719 C 203.238281 147.101562 203.921875 147.046875 204.503906 146.773438 C 205.125 146.480469 205.632812 145.945312 205.871094 145.242188 C 205.882812 145.203125 206.8125 142.542969 209.9375 137.703125 C 212.21875 139.15625 214.796875 140.925781 217.664062 143.085938 C 218.460938 143.691406 219.496094 143.761719 220.339844 143.367188 C 220.710938 143.191406 221.046875 142.925781 221.308594 142.578125 C 222.175781 141.429688 221.949219 139.796875 220.800781 138.933594 C 217.894531 136.738281 215.257812 134.925781 212.902344 133.417969 C 214.476562 131.277344 216.375 128.871094 218.664062 126.21875 C 219.601562 125.128906 219.480469 123.488281 218.390625 122.546875 "/><path style=" stroke:none;fill-rule:nonzero;fill:#ed8518;fill-opacity:1;" d="M 250.117188 131.035156 C 249.402344 141.425781 258.058594 155.144531 268.496094 157 C 278.933594 158.855469 287 151.03125 287.683594 139.550781 C 288.292969 129.3125 279.148438 119.800781 268.710938 117.945312 C 259.679688 116.339844 250.824219 120.804688 250.117188 131.035156 "/><path style=" stroke:none;fill-rule:nonzero;fill:#f8e2bd;fill-opacity:1;" d="M 250.761719 133.082031 C 249.988281 141.945312 257.820312 153.546875 267.417969 155.015625 C 277.019531 156.484375 284.539062 149.726562 285.296875 139.933594 C 285.96875 131.195312 277.644531 123.1875 268.042969 121.71875 C 259.734375 120.449219 251.523438 124.351562 250.761719 133.082031 "/><path style=" stroke:none;fill-rule:nonzero;fill:#fbf2df;fill-opacity:1;" d="M 267.222656 123.8125 C 260.296875 123.8125 254.078125 127.835938 254.167969 135.035156 C 254.265625 142.636719 261.992188 151.785156 270.367188 152.164062 C 270.605469 152.175781 270.839844 152.183594 271.074219 152.183594 C 279.074219 152.183594 284.621094 145.890625 284.433594 137.746094 C 284.261719 130.261719 276.417969 124.210938 268.042969 123.828125 C 267.769531 123.816406 267.496094 123.8125 267.222656 123.8125 "/><path style=" stroke:none;fill-rule:nonzero;fill:#ed922b;fill-opacity:1;" d="M 197.351562 174.136719 C 197.351562 174.136719 180.882812 165.496094 168 177.882812 C 155.117188 190.265625 162.503906 222.28125 189.667969 214.195312 C 216.832031 206.113281 216.371094 200.359375 231.160156 208.117188 C 245.945312 215.875 274.40625 229.640625 289.082031 213.847656 C 304.121094 197.65625 287.960938 162.496094 252.636719 167.753906 C 227.90625 171.433594 224.285156 185.082031 197.351562 174.136719 "/><path style=" stroke:none;fill-rule:nonzero;fill:#e9f05e;fill-opacity:1;" d="M 197.25 179.167969 C 197.25 179.167969 180.199219 169.644531 167.316406 182.027344 C 154.433594 194.410156 163.828125 226.664062 190.992188 218.582031 C 195.574219 217.214844 215.9375 208.019531 225.574219 212.550781 C 242.5 220.503906 272.703125 235.730469 289.828125 217.773438 C 305.078125 201.78125 287.707031 166.578125 252.539062 172.785156 C 217.367188 178.988281 233.257812 189.0625 197.25 179.167969 "/><path style=" stroke:none;fill-rule:nonzero;fill:#4c2340;fill-opacity:1;" d="M 197.296875 176.882812 C 197.296875 176.882812 180.246094 167.355469 167.363281 179.742188 C 154.480469 192.125 162.453125 225.023438 189.617188 216.9375 C 216.78125 208.855469 216.316406 203.101562 231.105469 210.859375 C 245.890625 218.617188 274.351562 232.382812 289.027344 216.589844 C 304.066406 200.398438 287.753906 164.292969 252.582031 170.496094 C 217.410156 176.699219 233.300781 186.777344 197.296875 176.882812 "/><path style=" stroke:none;fill-rule:nonzero;fill:#ee2176;fill-opacity:1;" d="M 227.40625 209.0625 C 227.40625 209.0625 233.203125 197.699219 249.496094 195.996094 C 262.222656 194.667969 268.265625 205.84375 268.265625 205.84375 C 268.265625 205.84375 286.78125 199.3125 289.027344 216.589844 C 289.027344 216.589844 276.265625 237.304688 227.40625 209.0625 "/><path style=" stroke:none;fill-rule:nonzero;fill:#ef2c98;fill-opacity:1;" d="M 242.183594 207.472656 C 243.46875 214.519531 273.054688 223.164062 278.195312 219.273438 C 282.121094 216.308594 274.390625 207.964844 266.769531 209.183594 C 262.3125 209.894531 261.457031 205.65625 258.71875 203.015625 C 253.101562 197.59375 240.710938 199.402344 242.183594 207.472656 "/><path style=" stroke:none;fill-rule:nonzero;fill:#f24bac;fill-opacity:1;" d="M 249.660156 201.789062 C 247.582031 201.789062 246 202.371094 246.019531 203.230469 C 246.058594 204.894531 249.160156 204.027344 252.867188 205.449219 C 255.941406 206.628906 257.734375 208.667969 258.839844 208.667969 C 259.066406 208.667969 259.269531 208.582031 259.441406 208.382812 C 260.339844 207.359375 257.675781 204.003906 253.96875 202.582031 C 252.523438 202.027344 250.988281 201.789062 249.660156 201.789062 "/><path style=" stroke:none;fill-rule:nonzero;fill:#fcef99;fill-opacity:1;" d="M 172.609375 177.640625 C 172.609375 177.640625 168.972656 187.335938 178.433594 188.382812 C 187.894531 189.429688 188.738281 175.660156 188.738281 175.660156 C 188.738281 175.660156 180.171875 172.90625 172.609375 177.640625 "/><path style=" stroke:none;fill-rule:nonzero;fill:#fcef99;fill-opacity:1;" d="M 202.980469 182.777344 C 202.980469 182.777344 200.359375 186.882812 196.132812 186.335938 C 191.90625 185.789062 190.277344 179.53125 191.5625 177.707031 C 192.84375 175.882812 204.257812 179.640625 202.980469 182.777344 "/><path style=" stroke:none;fill-rule:nonzero;fill:#fcef99;fill-opacity:1;" d="M 278.074219 176.257812 C 278.074219 176.257812 278.714844 187.472656 266.660156 186.949219 C 253.261719 186.367188 257.757812 172.128906 257.757812 172.128906 C 257.757812 172.128906 267.285156 169.730469 278.074219 176.257812 "/><path style=" stroke:none;fill-rule:nonzero;fill:#fcef99;fill-opacity:1;" d="M 250.265625 173.128906 C 250.265625 173.128906 253.914062 182.035156 247.75 184.28125 C 238.78125 187.554688 235.535156 177.152344 235.535156 177.152344 C 235.535156 177.152344 241.933594 173.253906 250.265625 173.128906 "/><path style=" stroke:none;fill-rule:nonzero;fill:#fcef99;fill-opacity:1;" d="M 194.375 210.859375 C 194.375 210.859375 194.007812 206 197.71875 203.90625 C 201.433594 201.8125 206.488281 205.84375 206.554688 208.074219 C 206.621094 210.300781 195.234375 214.136719 194.375 210.859375 "/><path style=" stroke:none;fill-rule:nonzero;fill:#fab32b;fill-opacity:1;" d="M 284.386719 154.738281 C 283.855469 158.117188 275.730469 159.695312 266.238281 158.257812 C 256.742188 156.824219 250.222656 151.203125 250.753906 147.820312 C 251.285156 144.441406 255.296875 145.285156 268.136719 146.679688 C 277.679688 147.714844 284.917969 151.355469 284.386719 154.738281 "/><path style=" stroke:none;fill-rule:nonzero;fill:#eabb4b;fill-opacity:1;" d="M 252.949219 145.117188 C 259.777344 144.65625 272.46875 144.953125 283.742188 150.808594 C 285.355469 151.644531 286.710938 153.011719 283.769531 152.066406 C 277.089844 149.925781 264.300781 146.351562 252.050781 145.835938 C 250.707031 145.78125 249.441406 145.355469 252.949219 145.117188 "/><path style=" stroke:none;fill-rule:nonzero;fill:#2b6a8a;fill-opacity:1;" d="M 261.566406 126.035156 C 265.550781 126.613281 267.972656 128.988281 268.746094 133.15625 C 269.328125 136.320312 267.417969 141.613281 260.933594 142.183594 C 256.089844 142.609375 252.5 136.96875 252.972656 133.109375 C 253.441406 129.25 257.578125 125.449219 261.566406 126.035156 "/><path style=" stroke:none;fill-rule:nonzero;fill:#4098c3;fill-opacity:1;" d="M 263.3125 126.996094 C 266.265625 128.523438 267.96875 131.082031 267.53125 134.789062 C 267.171875 137.796875 263.285156 141.828125 258.363281 140.226562 C 254.902344 139.105469 252.984375 133.734375 254.507812 130.640625 C 256.035156 127.550781 260.363281 125.46875 263.3125 126.996094 "/><path style=" stroke:none;fill-rule:nonzero;fill:#49acda;fill-opacity:1;" d="M 261.75 139.035156 C 262.164062 138.832031 263.121094 138.644531 263.523438 138.355469 C 264.117188 137.929688 264.625 137.171875 265.253906 136.5625 C 266.304688 135.539062 265.96875 135.578125 266.132812 134.167969 C 266.28125 132.90625 266.078125 132.109375 265.289062 130.964844 C 264.820312 130.28125 264.011719 129.253906 263.355469 128.929688 C 262.726562 128.617188 260.800781 128.25 260.179688 128.203125 C 259.128906 128.121094 258.320312 128.539062 257.632812 129.144531 C 256.894531 129.792969 255.898438 130.34375 255.585938 131.265625 C 255.300781 132.113281 255.046875 132.988281 255.300781 133.890625 C 255.417969 134.300781 255.714844 134.832031 255.832031 135.316406 C 255.972656 135.902344 256.398438 136.152344 256.796875 136.699219 C 257.035156 137.027344 258.382812 138.714844 258.609375 138.914062 C 258.898438 139.175781 261.082031 139.367188 261.75 139.035156 "/><path style=" stroke:none;fill-rule:nonzero;fill:#1a2429;fill-opacity:1;" d="M 260.964844 130.023438 C 262.9375 130.285156 264.3125 132.152344 264.042969 134.1875 C 263.769531 136.222656 261.949219 137.660156 259.976562 137.394531 C 258.003906 137.132812 256.628906 135.265625 256.902344 133.230469 C 257.171875 131.195312 258.992188 129.757812 260.964844 130.023438 "/><path style=" stroke:none;fill-rule:nonzero;fill:#ffffff;fill-opacity:1;" d="M 256.167969 128.074219 C 258.015625 128.289062 259.285156 130.039062 258.988281 131.976562 C 258.695312 133.917969 256.953125 135.316406 255.105469 135.101562 C 253.25 134.886719 251.988281 133.136719 252.277344 131.199219 C 252.574219 129.257812 254.3125 127.859375 256.167969 128.074219 "/></g></svg>