<svg xmlns="http://www.w3.org/2000/svg" xmlns:xlink="http://www.w3.org/1999/xlink" width="626" zoomAndPan="magnify" viewBox="0 0 469.5 456.749982" height="609" preserveAspectRatio="xMidYMid meet" version="1.2"><defs><clipPath id="9d6309d966"><path d="M 0 0.117188 L 469 0.117188 L 469 455.898438 L 0 455.898438 Z M 0 0.117188 "/></clipPath><clipPath id="70b37bcb9b"><path d="M 56.9375 0.117188 L 411.566406 0.117188 C 443.011719 0.117188 468.503906 25.609375 468.503906 57.058594 L 468.503906 398.960938 C 468.503906 430.40625 443.011719 455.898438 411.566406 455.898438 L 56.9375 455.898438 C 25.492188 455.898438 0 430.40625 0 398.960938 L 0 57.058594 C 0 25.609375 25.492188 0.117188 56.9375 0.117188 Z M 56.9375 0.117188 "/></clipPath><clipPath id="96353d06cd"><path d="M 308 95.222656 L 357.320312 95.222656 L 357.320312 146.179688 L 308 146.179688 Z M 308 95.222656 "/></clipPath><clipPath id="2e24d731c6"><path d="M 320 64.714844 L 329 64.714844 L 329 75 L 320 75 Z M 320 64.714844 "/></clipPath><clipPath id="d101f429e4"><path d="M 320 64.714844 L 325 64.714844 L 325 73 L 320 73 Z M 320 64.714844 "/></clipPath><clipPath id="5b8d2848ae"><path d="M 216.941406 385.71875 L 225.0625 385.71875 L 225.0625 391.367188 L 216.941406 391.367188 Z M 216.941406 385.71875 "/></clipPath></defs><g id="62240b6566"><g clip-rule="nonzero" clip-path="url(#9d6309d966)"><g clip-rule="nonzero" clip-path="url(#70b37bcb9b)"><path style=" stroke:none;fill-rule:nonzero;fill:#ff445d;fill-opacity:1;" d="M 0 0.117188 L 468.242188 0.117188 L 468.242188 455.898438 L 0 455.898438 Z M 0 0.117188 "/></g></g><path style=" stroke:none;fill-rule:nonzero;fill:#f04156;fill-opacity:1;" d="M 171.488281 112.125 C 171.675781 110.777344 154.324219 102.058594 151.117188 95.960938 C 147.910156 89.863281 147.511719 68.917969 147.511719 68.917969 C 147.511719 68.917969 126.183594 79.5625 115.113281 109.167969 C 104.046875 138.777344 120.726562 151.839844 149.640625 157.871094 C 149.640625 157.871094 167.867188 138 171.488281 112.125 "/><path style=" stroke:none;fill-rule:nonzero;fill:#346584;fill-opacity:1;" d="M 165.890625 108.359375 C 165.890625 108.359375 142.71875 118.132812 136.132812 154.507812 L 159.878906 159.339844 C 159.878906 159.339844 177.222656 144.117188 181.019531 116.265625 L 165.890625 108.359375 "/><path style=" stroke:none;fill-rule:nonzero;fill:#346584;fill-opacity:1;" d="M 158.636719 103.113281 C 158.636719 103.113281 144.894531 102.609375 132.710938 117.125 C 120.523438 131.640625 119.472656 144.84375 119.472656 144.84375 C 119.472656 144.84375 110.601562 134.507812 111.476562 123.277344 C 111.476562 123.277344 118.824219 96.214844 152.648438 97.855469 C 152.648438 97.855469 155.648438 101.160156 158.636719 103.113281 "/><path style=" stroke:none;fill-rule:nonzero;fill:#346584;fill-opacity:1;" d="M 149.890625 92.367188 C 149.25 91.691406 140.769531 82.847656 127.183594 86.695312 C 127.183594 86.695312 131.636719 81.015625 134.347656 79.019531 C 134.347656 79.019531 142.988281 74.125 149.027344 86.863281 L 149.890625 92.367188 "/><path style=" stroke:none;fill-rule:nonzero;fill:#346584;fill-opacity:1;" d="M 147.890625 78.097656 C 147.890625 78.097656 147.09375 72.390625 139.695312 73.878906 C 139.695312 73.878906 142.835938 70.453125 147.828125 68.574219 C 147.828125 68.574219 148.222656 70.75 147.890625 78.097656 "/><path style=" stroke:none;fill-rule:nonzero;fill:#d0d0ce;fill-opacity:1;" d="M 111.421875 124.332031 C 111.125 129.011719 111.785156 133.371094 113.847656 136.976562 C 114.074219 137.367188 114.308594 137.753906 114.546875 138.132812 C 113.144531 135.480469 112.230469 132.542969 111.859375 129.285156 C 111.546875 127.683594 111.378906 126.019531 111.421875 124.332031 M 131.355469 81.695312 C 127.164062 84.710938 113.183594 105.800781 111.515625 123.132812 C 111.574219 122.945312 111.691406 122.574219 111.878906 122.058594 C 112.296875 118.152344 113.355469 113.871094 115.113281 109.167969 C 118.601562 99.839844 123.109375 92.394531 127.644531 86.570312 C 127.492188 86.609375 127.335938 86.652344 127.183594 86.695312 C 127.183594 86.695312 129.03125 84.335938 131.074219 82.125 C 131.253906 81.84375 131.355469 81.695312 131.355469 81.695312 "/><path style=" stroke:none;fill-rule:nonzero;fill:#d13745;fill-opacity:1;" d="M 141.058594 155.511719 C 142.566406 155.933594 144.042969 156.292969 145.457031 156.605469 C 145.484375 156.542969 145.507812 156.480469 145.535156 156.421875 L 141.058594 155.511719 M 111.859375 129.285156 C 112.230469 132.542969 113.144531 135.480469 114.546875 138.132812 C 115.332031 139.375 116.199219 140.539062 117.132812 141.636719 C 115.277344 138.800781 112.84375 134.339844 111.859375 129.285156 M 126.535156 125.777344 C 121.195312 134.722656 119.851562 142.019531 119.550781 144.1875 C 124.355469 148.753906 130.355469 151.863281 136.230469 153.972656 C 137.265625 148.4375 138.6875 143.519531 140.347656 139.167969 C 133.71875 135.1875 129.324219 130.59375 126.535156 125.777344 M 128.675781 86.316406 C 128.335938 86.394531 127.992188 86.476562 127.644531 86.570312 C 123.109375 92.394531 118.601562 99.839844 115.113281 109.167969 C 113.355469 113.871094 112.296875 118.152344 111.878906 122.058594 C 112.867188 119.355469 115.828125 112.648438 122.488281 106.964844 C 123.09375 98.527344 126.292969 90.929688 128.675781 86.316406 "/><path style=" stroke:none;fill-rule:nonzero;fill:#2a4f69;fill-opacity:1;" d="M 140.347656 139.167969 C 138.6875 143.519531 137.265625 148.4375 136.230469 153.972656 C 137.855469 154.558594 139.476562 155.066406 141.058594 155.511719 L 145.535156 156.421875 C 147.253906 152.273438 149.109375 148.210938 151.085938 144.285156 C 146.988281 142.738281 143.425781 141.019531 140.347656 139.167969 "/><path style=" stroke:none;fill-rule:nonzero;fill:#2a4f69;fill-opacity:1;" d="M 122.488281 106.964844 C 115.828125 112.648438 112.867188 119.355469 111.878906 122.058594 C 111.691406 122.574219 111.574219 122.945312 111.515625 123.132812 C 111.480469 123.535156 111.445312 123.933594 111.421875 124.332031 C 111.378906 126.019531 111.546875 127.683594 111.859375 129.285156 C 112.84375 134.339844 115.277344 138.800781 117.132812 141.636719 C 117.898438 142.535156 118.707031 143.382812 119.550781 144.1875 C 119.851562 142.019531 121.195312 134.722656 126.535156 125.777344 C 122.96875 119.605469 122.050781 113.066406 122.488281 106.964844 "/><path style=" stroke:none;fill-rule:nonzero;fill:#2a4f69;fill-opacity:1;" d="M 131.074219 82.125 C 129.03125 84.335938 127.183594 86.695312 127.183594 86.695312 C 127.335938 86.652344 127.492188 86.609375 127.644531 86.570312 C 127.992188 86.476562 128.335938 86.394531 128.675781 86.316406 C 129.738281 84.265625 130.636719 82.804688 131.074219 82.125 "/><path style=" stroke:none;fill-rule:nonzero;fill:#f36378;fill-opacity:1;" d="M 144.335938 73.984375 C 143.546875 75.386719 142.695312 77.023438 141.871094 78.84375 C 143.25 79.449219 144.699219 80.484375 146.109375 82.167969 C 146.179688 80.214844 146.359375 78.019531 146.675781 75.554688 C 146.148438 74.933594 145.398438 74.34375 144.335938 73.984375 "/><path style=" stroke:none;fill-rule:nonzero;fill:#f36378;fill-opacity:1;" d="M 155.691406 103.339844 C 152.304688 103.835938 146.394531 105.367188 140.082031 110.09375 C 141.925781 114.382812 144.898438 118.636719 149.382812 122.644531 C 154.945312 115.28125 160.636719 111.300781 163.667969 109.527344 C 160.875 107.488281 158.117188 105.375 155.691406 103.339844 M 139.125 86.34375 C 138.011719 90.308594 137.328125 94.691406 137.570312 99.242188 C 141.144531 98.320312 145.183594 97.78125 149.734375 97.78125 C 149.769531 97.78125 149.808594 97.78125 149.84375 97.78125 C 149.117188 96.941406 148.539062 96.15625 148.144531 95.441406 C 147.53125 94.339844 146.816406 92.480469 146.40625 89.515625 C 144.605469 88.332031 142.152344 87.070312 139.125 86.34375 "/><path style=" stroke:none;fill-rule:nonzero;fill:#58889e;fill-opacity:1;" d="M 163.667969 109.527344 C 160.636719 111.300781 154.945312 115.28125 149.382812 122.644531 C 152.144531 125.109375 155.476562 127.484375 159.480469 129.71875 C 163.132812 124.210938 167.097656 119.207031 171.359375 114.933594 C 168.929688 113.285156 166.285156 111.4375 163.667969 109.527344 "/><path style=" stroke:none;fill-rule:nonzero;fill:#58889e;fill-opacity:1;" d="M 149.734375 97.78125 C 145.183594 97.78125 141.144531 98.320312 137.570312 99.242188 C 137.757812 102.800781 138.515625 106.460938 140.082031 110.09375 C 146.394531 105.367188 152.304688 103.835938 155.691406 103.339844 C 153.335938 101.363281 151.292969 99.464844 149.84375 97.78125 C 149.808594 97.78125 149.769531 97.78125 149.734375 97.78125 "/><path style=" stroke:none;fill-rule:nonzero;fill:#58889e;fill-opacity:1;" d="M 141.871094 78.84375 C 140.859375 81.085938 139.890625 83.617188 139.125 86.34375 C 142.152344 87.070312 144.605469 88.332031 146.40625 89.515625 C 146.136719 87.574219 145.996094 85.15625 146.109375 82.167969 C 144.699219 80.484375 143.25 79.449219 141.871094 78.84375 "/><path style=" stroke:none;fill-rule:nonzero;fill:#58889e;fill-opacity:1;" d="M 147.828125 68.574219 C 147.828125 68.574219 146.253906 70.59375 144.335938 73.984375 C 145.398438 74.34375 146.148438 74.933594 146.675781 75.554688 C 146.953125 73.433594 147.328125 71.113281 147.828125 68.574219 "/><path style=" stroke:none;fill-rule:nonzero;fill:#fdfefd;fill-opacity:1;" d="M 141.441406 92.5 C 140.960938 92.925781 139.765625 97.667969 144.535156 103.875 C 149.304688 110.082031 158.234375 115.40625 158.71875 114.976562 C 159.203125 114.550781 151.984375 107.695312 147.214844 101.488281 C 142.445312 95.28125 141.925781 92.070312 141.441406 92.5 "/><path style=" stroke:none;fill-rule:nonzero;fill:#f04156;fill-opacity:1;" d="M 294.300781 109.871094 C 294.140625 108.445312 312.699219 99.820312 316.257812 93.496094 C 319.820312 87.171875 320.84375 65.082031 320.84375 65.082031 C 320.84375 65.082031 343.039062 77.023438 353.863281 108.628906 C 364.683594 140.234375 346.714844 153.460938 316.03125 158.863281 C 316.03125 158.863281 297.375 137.292969 294.300781 109.871094 "/><path style=" stroke:none;fill-rule:nonzero;fill:#346584;fill-opacity:1;" d="M 300.3125 106.085938 C 300.3125 106.085938 324.480469 117.167969 330.382812 155.765625 L 316.03125 158.863281 C 316.03125 158.863281 287.328125 143.433594 284.125 113.925781 L 300.3125 106.085938 "/><g clip-rule="nonzero" clip-path="url(#96353d06cd)"><path style=" stroke:none;fill-rule:nonzero;fill:#346584;fill-opacity:1;" d="M 308.117188 100.789062 C 308.117188 100.789062 322.632812 100.71875 335.070312 116.4375 C 347.507812 132.15625 348.234375 146.121094 348.234375 146.121094 C 348.234375 146.121094 357.890625 135.511719 357.292969 123.636719 C 357.292969 123.636719 350.320312 94.839844 314.589844 95.441406 C 314.589844 95.441406 311.328125 98.832031 308.117188 100.789062 "/></g><path style=" stroke:none;fill-rule:nonzero;fill:#346584;fill-opacity:1;" d="M 317.660156 89.746094 C 318.351562 89.050781 327.554688 80.003906 341.777344 84.515625 C 341.777344 84.515625 337.242188 78.375 334.441406 76.179688 C 334.441406 76.179688 325.464844 70.726562 318.726562 83.964844 L 317.660156 89.746094 "/><g clip-rule="nonzero" clip-path="url(#2e24d731c6)"><path style=" stroke:none;fill-rule:nonzero;fill:#346584;fill-opacity:1;" d="M 320.175781 74.757812 C 320.175781 74.757812 321.183594 68.761719 328.945312 70.578125 C 328.945312 70.578125 325.730469 66.855469 320.519531 64.714844 C 320.519531 64.714844 320.039062 66.992188 320.175781 74.757812 "/></g><path style=" stroke:none;fill-rule:nonzero;fill:#d0d0ce;fill-opacity:1;" d="M 337.519531 79.101562 C 337.519531 79.101562 337.621094 79.261719 337.800781 79.566406 C 339.890625 81.964844 341.777344 84.515625 341.777344 84.515625 C 341.617188 84.464844 341.453125 84.414062 341.292969 84.367188 C 344.234375 88.375 347.144531 93.082031 349.75 98.539062 C 345.273438 88.78125 339.945312 80.960938 337.519531 79.101562 "/><path style=" stroke:none;fill-rule:nonzero;fill:#d13745;fill-opacity:1;" d="M 340.210938 84.070312 C 342.59375 89.011719 345.753906 97.132812 346.148438 106.058594 C 352.730469 112.019531 355.695312 118.871094 356.777344 121.964844 C 355.953125 114.1875 353.089844 105.824219 349.75 98.539062 C 347.144531 93.082031 344.234375 88.375 341.292969 84.367188 C 340.929688 84.257812 340.566406 84.160156 340.210938 84.070312 "/><path style=" stroke:none;fill-rule:nonzero;fill:#d0d0ce;fill-opacity:1;" d="M 329.605469 155.929688 L 325.765625 156.761719 C 325.796875 156.84375 325.828125 156.929688 325.859375 157.011719 C 327.050781 156.703125 328.304688 156.34375 329.605469 155.929688 M 343.246094 149.640625 C 339.558594 151.957031 335.21875 153.863281 330.332031 155.429688 C 330.34375 155.515625 330.359375 155.597656 330.371094 155.683594 C 334.53125 154.304688 339.074219 152.363281 343.246094 149.640625 "/><path style=" stroke:none;fill-rule:nonzero;fill:#d13745;fill-opacity:1;" d="M 341.332031 125.769531 C 338.253906 130.761719 333.480469 135.460938 326.375 139.441406 C 328.027344 144.148438 329.398438 149.457031 330.332031 155.429688 C 335.21875 153.863281 339.558594 151.957031 343.246094 149.640625 C 344.984375 148.503906 346.65625 147.234375 348.210938 145.8125 C 348.0625 144.15625 347.070312 136.03125 341.332031 125.769531 "/><path style=" stroke:none;fill-rule:nonzero;fill:#2a4f69;fill-opacity:1;" d="M 326.375 139.441406 C 324.261719 140.625 321.9375 141.746094 319.394531 142.792969 C 321.835938 147.265625 323.949219 151.953125 325.765625 156.761719 L 329.605469 155.929688 C 329.859375 155.851562 330.113281 155.769531 330.371094 155.683594 C 330.359375 155.597656 330.34375 155.515625 330.332031 155.429688 C 329.398438 149.457031 328.027344 144.148438 326.375 139.441406 "/><path style=" stroke:none;fill-rule:nonzero;fill:#d0d0ce;fill-opacity:1;" d="M 356.898438 129.074219 C 356.84375 129.375 356.78125 129.671875 356.714844 129.964844 C 356.109375 134.238281 354.625 137.953125 352.378906 141.1875 C 353.113281 140.183594 353.789062 139.128906 354.394531 138.007812 C 355.835938 135.355469 356.625 132.324219 356.898438 129.074219 "/><path style=" stroke:none;fill-rule:nonzero;fill:#d13745;fill-opacity:1;" d="M 356.714844 129.964844 C 355.261719 136.453125 351.550781 141.921875 349.554688 144.511719 C 350.566406 143.480469 351.511719 142.371094 352.378906 141.1875 C 354.625 137.953125 356.109375 134.238281 356.714844 129.964844 "/><path style=" stroke:none;fill-rule:nonzero;fill:#2a4f69;fill-opacity:1;" d="M 346.148438 106.058594 C 346.433594 112.507812 345.273438 119.378906 341.332031 125.769531 C 347.070312 136.03125 348.0625 144.15625 348.210938 145.8125 C 348.667969 145.394531 349.117188 144.960938 349.554688 144.511719 C 351.550781 141.921875 355.261719 136.453125 356.714844 129.964844 C 356.78125 129.671875 356.84375 129.375 356.898438 129.074219 C 357.09375 126.796875 357.035156 124.410156 356.777344 121.964844 C 355.695312 118.871094 352.730469 112.019531 346.148438 106.058594 "/><path style=" stroke:none;fill-rule:nonzero;fill:#2a4f69;fill-opacity:1;" d="M 337.800781 79.566406 C 338.242188 80.296875 339.148438 81.867188 340.210938 84.070312 C 340.566406 84.160156 340.929688 84.257812 341.292969 84.367188 C 341.453125 84.414062 341.617188 84.464844 341.777344 84.515625 C 341.777344 84.515625 339.890625 81.964844 337.800781 79.566406 "/><path style=" stroke:none;fill-rule:nonzero;fill:#f36378;fill-opacity:1;" d="M 311.976562 101.277344 C 309.28125 103.671875 306.304688 106.011719 303.597656 108.019531 C 307.121094 110.386719 312.949219 115.113281 318.382812 123.25 C 323.742188 119.300781 327.328125 114.992188 329.585938 110.554688 C 322.765625 104.382812 316.035156 102.113281 311.976562 101.277344 M 330.609375 83.496094 C 326.742188 84.054688 323.625 85.492188 321.414062 86.855469 C 320.898438 89.964844 320.085938 91.90625 319.410156 93.046875 C 318.949219 93.824219 318.371094 94.632812 317.699219 95.464844 C 323.527344 95.652344 328.53125 96.648438 332.824219 98.167969 C 333.0625 93.027344 332.09375 88.011719 330.609375 83.496094 M 324.464844 70.421875 C 323.113281 70.738281 322.175781 71.398438 321.53125 72.113281 C 321.796875 74.726562 321.921875 77.046875 321.941406 79.109375 C 323.746094 77.074219 325.582031 75.992188 327.273438 75.472656 C 326.328125 73.582031 325.359375 71.882812 324.464844 70.421875 "/><path style=" stroke:none;fill-rule:nonzero;fill:#58889e;fill-opacity:1;" d="M 303.597656 108.019531 C 298.804688 111.582031 294.863281 114.117188 294.863281 114.117188 C 294.898438 114.410156 294.9375 114.695312 294.972656 114.980469 C 298.550781 117.441406 301.925781 120.21875 305.046875 123.335938 C 306.691406 124.980469 308.253906 126.695312 309.738281 128.476562 C 313.03125 126.828125 315.898438 125.078125 318.382812 123.25 C 312.949219 115.113281 307.121094 110.386719 303.597656 108.019531 "/><path style=" stroke:none;fill-rule:nonzero;fill:#58889e;fill-opacity:1;" d="M 317.699219 95.464844 C 316.171875 97.34375 314.167969 99.328125 311.976562 101.277344 C 316.035156 102.113281 322.765625 104.382812 329.585938 110.554688 C 331.671875 106.46875 332.632812 102.277344 332.824219 98.167969 C 328.53125 96.648438 323.527344 95.652344 317.699219 95.464844 "/><path style=" stroke:none;fill-rule:nonzero;fill:#58889e;fill-opacity:1;" d="M 327.273438 75.472656 C 325.582031 75.992188 323.746094 77.074219 321.941406 79.109375 C 321.972656 82.265625 321.757812 84.8125 321.414062 86.855469 C 323.625 85.492188 326.742188 84.054688 330.609375 83.496094 C 329.652344 80.582031 328.476562 77.875 327.273438 75.472656 "/><g clip-rule="nonzero" clip-path="url(#d101f429e4)"><path style=" stroke:none;fill-rule:nonzero;fill:#58889e;fill-opacity:1;" d="M 320.519531 64.714844 C 320.972656 67.40625 321.304688 69.867188 321.53125 72.113281 C 322.175781 71.398438 323.113281 70.738281 324.464844 70.421875 C 322.277344 66.851562 320.519531 64.714844 320.519531 64.714844 "/></g><path style=" stroke:none;fill-rule:nonzero;fill:#fdfefd;fill-opacity:1;" d="M 326.5625 90.167969 C 327.0625 90.632812 328.1875 95.671875 322.976562 102.066406 C 317.765625 108.453125 308.1875 113.777344 307.691406 113.308594 C 307.195312 112.839844 315.003906 105.847656 320.214844 99.460938 C 325.429688 93.066406 326.066406 89.699219 326.5625 90.167969 "/><path style=" stroke:none;fill-rule:nonzero;fill:#59c6a9;fill-opacity:1;" d="M 270.320312 288.765625 C 270.320312 288.765625 270.320312 335.511719 251.605469 357.609375 C 251.605469 357.609375 242.1875 375.554688 261.8125 376.308594 C 283.929688 377.15625 297.539062 341.460938 281.378906 287.914062 C 281.378906 287.914062 272.871094 283.667969 270.320312 288.765625 "/><path style=" stroke:none;fill-rule:nonzero;fill:#449c89;fill-opacity:1;" d="M 258.515625 374.6875 C 258.515625 375.800781 261.605469 377.433594 263.828125 377.433594 C 266.054688 377.433594 266.578125 375.800781 266.578125 374.6875 C 266.578125 373.574219 266.054688 371.941406 263.828125 371.941406 C 261.605469 371.941406 258.515625 373.574219 258.515625 374.6875 "/><path style=" stroke:none;fill-rule:nonzero;fill:#449c89;fill-opacity:1;" d="M 247.703125 371.578125 C 247.703125 372.910156 251 374.871094 253.378906 374.871094 C 255.757812 374.871094 256.316406 372.910156 256.316406 371.578125 C 256.316406 370.242188 255.757812 368.277344 253.378906 368.277344 C 251 368.277344 247.703125 370.242188 247.703125 371.578125 "/><path style=" stroke:none;fill-rule:nonzero;fill:#449c89;fill-opacity:1;" d="M 245.503906 364.25 C 245.503906 365.585938 247.15625 367.363281 249.539062 367.363281 C 251.914062 367.363281 253.660156 364.484375 253.660156 363.152344 C 253.660156 361.816406 253.5625 360.953125 251.183594 360.953125 C 248.800781 360.953125 245.503906 362.917969 245.503906 364.25 "/><path style=" stroke:none;fill-rule:nonzero;fill:#79d1b8;fill-opacity:1;" d="M 277.878906 327.746094 C 277.726562 327.746094 277.605469 327.976562 277.738281 328.105469 C 279.671875 330.050781 280.421875 333.878906 278.15625 336.25 C 277.199219 337.25 275.773438 337.84375 274.40625 337.84375 C 273.613281 337.84375 272.84375 337.644531 272.191406 337.207031 C 271.429688 336.695312 270.753906 336.015625 270.507812 335.082031 C 270.054688 333.402344 271.089844 331.300781 273.007812 330.949219 C 273.265625 330.902344 273.558594 330.871094 273.855469 330.871094 C 275.058594 330.871094 276.375 331.347656 276.050781 332.886719 C 275.910156 333.941406 275.457031 334.46875 274.695312 334.46875 C 274.4375 334.46875 274.144531 334.410156 273.8125 334.289062 C 273.769531 334.128906 273.730469 333.964844 273.6875 333.8125 C 273.609375 333.5 273.667969 333.207031 273.863281 332.917969 C 274.09375 332.765625 273.953125 332.484375 273.757812 332.441406 C 273.667969 332.425781 273.585938 332.414062 273.503906 332.414062 C 272.3125 332.414062 272.160156 334.464844 272.722656 335.222656 C 273.136719 335.785156 273.664062 336.011719 274.214844 336.011719 C 275.433594 336.011719 276.753906 334.894531 277.191406 333.746094 C 278.21875 331.03125 276.21875 329.664062 273.941406 329.664062 C 272.089844 329.664062 270.050781 330.570312 269.316406 332.390625 C 267.777344 336.183594 270.953125 339.429688 274.492188 339.429688 C 275.066406 339.429688 275.652344 339.34375 276.230469 339.160156 C 278.804688 338.351562 280.359375 336.265625 280.640625 333.617188 C 280.898438 331.179688 279.648438 329.257812 277.992188 327.792969 C 277.953125 327.757812 277.914062 327.746094 277.878906 327.746094 "/><path style=" stroke:none;fill-rule:nonzero;fill:#59c6a9;fill-opacity:1;" d="M 211.511719 285.613281 C 211.511719 285.613281 211.511719 340.960938 233.667969 367.125 C 233.667969 367.125 244.816406 388.367188 221.585938 389.261719 C 195.398438 390.265625 179.285156 348.003906 198.417969 284.605469 C 198.417969 284.605469 208.492188 279.574219 211.511719 285.613281 "/><g clip-rule="nonzero" clip-path="url(#5b8d2848ae)"><path style=" stroke:none;fill-rule:nonzero;fill:#449c89;fill-opacity:1;" d="M 225.007812 388.625 C 225.007812 389.734375 221.917969 391.367188 219.691406 391.367188 C 217.464844 391.367188 216.941406 389.734375 216.941406 388.625 C 216.941406 387.511719 217.464844 385.875 219.691406 385.875 C 221.917969 385.875 225.007812 387.511719 225.007812 388.625 "/></g><path style=" stroke:none;fill-rule:nonzero;fill:#449c89;fill-opacity:1;" d="M 236.550781 384.777344 C 236.550781 386.113281 233.253906 388.074219 230.875 388.074219 C 228.496094 388.074219 227.941406 386.113281 227.941406 384.777344 C 227.941406 383.441406 228.496094 381.480469 230.875 381.480469 C 233.253906 381.480469 236.550781 383.441406 236.550781 384.777344 "/><path style=" stroke:none;fill-rule:nonzero;fill:#449c89;fill-opacity:1;" d="M 240.21875 377.449219 C 240.21875 378.789062 238.566406 380.5625 236.1875 380.5625 C 233.804688 380.5625 232.0625 377.6875 232.0625 376.355469 C 232.0625 375.019531 232.160156 374.15625 234.539062 374.15625 C 236.917969 374.15625 240.21875 376.117188 240.21875 377.449219 "/><path style=" stroke:none;fill-rule:nonzero;fill:#79d1b8;fill-opacity:1;" d="M 202.625 336.117188 C 199.542969 336.117188 196.957031 339.226562 197.421875 342.570312 C 197.785156 345.242188 199.582031 347.128906 202.140625 347.855469 C 202.683594 348.007812 203.214844 348.078125 203.730469 348.078125 C 205.453125 348.078125 207.007812 347.296875 208.335938 346.234375 C 208.492188 346.105469 208.34375 345.894531 208.175781 345.894531 C 208.140625 345.894531 208.101562 345.90625 208.066406 345.933594 C 207.066406 346.632812 205.730469 347.039062 204.386719 347.039062 C 202.722656 347.039062 201.046875 346.417969 199.964844 344.964844 C 198.664062 343.207031 198.554688 340.46875 200.039062 338.929688 C 200.667969 338.265625 201.449219 337.714844 202.414062 337.628906 C 202.503906 337.617188 202.597656 337.613281 202.6875 337.613281 C 204.339844 337.613281 206.046875 338.945312 206.066406 340.792969 C 206.085938 341.925781 205.632812 343.609375 204.347656 343.609375 C 204.136719 343.609375 203.902344 343.566406 203.640625 343.460938 C 202.28125 343.03125 201.945312 342.21875 202.636719 341.019531 C 202.800781 341 202.96875 340.988281 203.132812 340.972656 C 203.160156 340.972656 203.1875 340.972656 203.21875 340.972656 C 203.5 340.972656 203.753906 341.078125 203.980469 341.304688 C 204.027344 341.410156 204.113281 341.453125 204.199219 341.453125 C 204.308594 341.453125 204.425781 341.378906 204.46875 341.273438 C 204.890625 340.230469 203.648438 339.632812 202.652344 339.632812 C 202.363281 339.632812 202.097656 339.683594 201.898438 339.785156 C 199.898438 340.789062 201.0625 343.53125 202.597656 344.4375 C 203.242188 344.816406 203.832031 344.980469 204.359375 344.980469 C 207.554688 344.980469 208.464844 338.886719 205.269531 336.910156 C 204.386719 336.359375 203.484375 336.117188 202.625 336.117188 "/><path style=" stroke:none;fill-rule:nonzero;fill:#449c89;fill-opacity:1;" d="M 156.972656 334.507812 C 151.789062 330.914062 148.386719 342.484375 142.171875 324.128906 C 142.171875 324.128906 141.589844 323.066406 141.683594 322.261719 C 141.59375 322.167969 141.5 322.089844 141.417969 321.980469 C 140.550781 320.886719 139.882812 320.488281 139.375 320.667969 C 139.105469 321.074219 138.832031 321.472656 138.554688 321.875 C 138.421875 322.347656 138.328125 322.9375 138.273438 323.648438 C 138.195312 324.683594 138.203125 325.710938 138.277344 326.734375 C 140.035156 333.855469 146.726562 343.882812 156.453125 340.597656 C 157.648438 340.191406 162.148438 338.101562 156.972656 334.507812 "/><path style=" stroke:none;fill-rule:nonzero;fill:#59c6a9;fill-opacity:1;" d="M 161.988281 345.636719 C 154 338.746094 145.90625 341.21875 140.917969 321.335938 C 140.917969 321.335938 138.070312 314.191406 146.789062 318.542969 C 155.507812 322.890625 159.070312 326.59375 164.414062 321.253906 C 169.753906 315.921875 167.792969 309.597656 167.792969 309.597656 C 167.792969 309.597656 165.867188 304.121094 160.984375 310.292969 C 156.105469 316.464844 154.621094 322.070312 145.183594 310.496094 C 145.183594 310.496094 144.417969 301.988281 135.636719 295.929688 C 135.636719 295.929688 121.011719 229.0625 140.972656 183.019531 L 138.378906 182.269531 C 138.378906 182.269531 110.722656 228.191406 130.90625 316.613281 C 130.90625 316.613281 139.5625 351.699219 160.171875 354.296875 C 162.371094 354.574219 169.972656 352.523438 161.988281 345.636719 "/><path style=" stroke:none;fill-rule:nonzero;fill:#59c6a9;fill-opacity:1;" d="M 147.65625 351.203125 C 142.601562 339.414062 136.371094 342.515625 135.035156 310.339844 C 135.035156 310.339844 134.71875 307.402344 135.148438 305.464844 C 135.074219 305.183594 134.992188 304.9375 134.925781 304.625 C 134.273438 301.433594 133.589844 300.074219 132.894531 300.222656 C 132.398438 301.074219 131.898438 301.914062 131.398438 302.75 C 131.046875 303.84375 130.703125 305.25 130.355469 306.96875 C 129.859375 309.480469 129.46875 312.019531 129.160156 314.582031 C 130.785156 331.710938 135.011719 360.445312 145.316406 364.808594 C 146.898438 365.472656 152.714844 363 147.65625 351.203125 "/><path style=" stroke:none;fill-rule:nonzero;fill:#449c89;fill-opacity:1;" d="M 309.644531 338.527344 C 314.339844 335.703125 316.632812 345.929688 323.070312 330.367188 C 323.070312 330.367188 323.636719 329.484375 323.597656 328.78125 C 323.683594 328.707031 323.765625 328.640625 323.847656 328.554688 C 324.660156 327.648438 325.265625 327.347656 325.695312 327.527344 C 325.902344 327.894531 326.117188 328.257812 326.332031 328.625 C 326.421875 329.042969 326.46875 329.558594 326.476562 330.175781 C 326.484375 331.078125 326.417969 331.96875 326.296875 332.851562 C 324.367188 338.921875 317.992188 347.238281 309.746094 343.835938 C 308.730469 343.417969 304.945312 341.351562 309.644531 338.527344 "/><path style=" stroke:none;fill-rule:nonzero;fill:#59c6a9;fill-opacity:1;" d="M 304.660156 347.890625 C 311.980469 342.371094 318.851562 344.976562 324.3125 328.023438 C 324.3125 328.023438 327.191406 321.992188 319.386719 325.265625 C 311.578125 328.539062 308.277344 331.542969 303.949219 326.613281 C 299.621094 321.683594 301.683594 316.3125 301.683594 316.3125 C 301.683594 316.3125 303.667969 311.675781 307.546875 317.304688 C 311.425781 322.933594 312.394531 327.878906 321.234375 318.375 C 321.234375 318.375 322.382812 311.042969 330.34375 306.296875 C 330.34375 306.296875 346.839844 249.152344 332.164062 208.09375 L 334.457031 207.59375 C 334.457031 207.59375 355.808594 248.984375 333.265625 324.496094 C 333.265625 324.496094 323.757812 354.425781 305.738281 355.503906 C 303.820312 355.617188 297.34375 353.410156 304.660156 347.890625 "/><path style=" stroke:none;fill-rule:nonzero;fill:#59c6a9;fill-opacity:1;" d="M 316.769531 353.535156 C 321.824219 343.59375 327.050781 346.644531 330.046875 318.824219 C 330.046875 318.824219 330.484375 316.292969 330.222656 314.589844 C 330.300781 314.347656 330.390625 314.140625 330.464844 313.871094 C 331.210938 311.144531 331.878906 310.007812 332.480469 310.175781 C 332.855469 310.941406 333.242188 311.699219 333.628906 312.449219 C 333.871094 313.417969 334.09375 314.65625 334.292969 316.167969 C 334.582031 318.375 334.777344 320.597656 334.894531 322.835938 C 332.507812 337.59375 327.203125 362.269531 318.023438 365.460938 C 316.609375 365.953125 311.707031 363.472656 316.769531 353.535156 "/><path style=" stroke:none;fill-rule:nonzero;fill:#59c6a9;fill-opacity:1;" d="M 129.6875 241.632812 C 134.148438 269.847656 157.921875 287.167969 229.257812 292.121094 C 300.589844 297.070312 327.339844 264.402344 332.292969 251.53125 C 337.246094 238.664062 343.191406 161.449219 305.046875 123.335938 C 266.902344 85.226562 190.871094 98.402344 176.25 110.46875 C 142.074219 138.683594 125.230469 213.421875 129.6875 241.632812 "/><path style=" stroke:none;fill-rule:nonzero;fill:#68caa3;fill-opacity:1;" d="M 162.242188 139.15625 C 144.054688 169.847656 135.707031 213.492188 138.847656 232.777344 C 142.941406 257.957031 164.792969 273.417969 230.335938 277.835938 C 234.886719 278.140625 239.246094 278.289062 243.410156 278.289062 C 299.203125 278.289062 320.773438 252.296875 325.007812 241.613281 C 329 231.546875 333.6875 177.378906 311.199219 141.246094 C 310.929688 143 310.601562 144.152344 310.601562 144.152344 C 309.191406 151.628906 308.367188 158.355469 301.90625 165.300781 C 301.648438 175 297.78125 244.652344 239.933594 244.652344 C 239.050781 244.652344 238.144531 244.636719 237.238281 244.605469 C 178.609375 242.476562 170.519531 168.433594 170.519531 168.433594 C 170.703125 168.011719 170.894531 167.632812 171.085938 167.300781 C 171.085938 166.09375 171.246094 165.144531 171.515625 164.398438 C 165.921875 158.121094 164.898438 151.820312 163.339844 144.886719 C 163.339844 144.886719 162.542969 142.398438 162.242188 139.15625 M 237.714844 138.816406 C 233.835938 138.816406 231.691406 142.824219 230.683594 145.558594 C 229.5 154.492188 225.988281 165.019531 215.972656 169.453125 C 214.46875 170.117188 212.75 170.777344 210.875 171.386719 C 218.621094 172.757812 227.5625 173.730469 237.601562 173.871094 C 238.203125 173.878906 238.804688 173.882812 239.402344 173.882812 C 247.929688 173.882812 255.589844 173.046875 262.308594 171.773438 C 261.066406 171.371094 259.90625 170.953125 258.851562 170.53125 C 247.34375 165.90625 243.894531 153.179688 242.839844 143.730469 C 241.996094 141.488281 240.453125 138.875 237.832031 138.816406 C 237.792969 138.816406 237.753906 138.816406 237.714844 138.816406 M 181.6875 128.035156 C 172.839844 130.917969 173.367188 134.246094 173.367188 134.246094 C 172.996094 148.898438 177.105469 156.058594 183.128906 162.054688 C 186.265625 165.171875 191.730469 166.980469 197.652344 166.980469 C 199.480469 166.980469 201.351562 166.808594 203.214844 166.445312 C 198.933594 166.15625 195.054688 164.523438 191.882812 161.855469 C 185.414062 158.378906 180.65625 151.183594 179.277344 142.066406 C 178.527344 137.152344 179.503906 132.316406 181.6875 128.035156 M 285.691406 125.054688 C 287.992188 128.765625 289.40625 132.988281 289.519531 137.378906 C 289.734375 145.992188 286.773438 153.105469 281.753906 157.003906 C 278.820312 160.066406 274.839844 161.867188 270.210938 161.867188 C 269.535156 161.867188 268.847656 161.828125 268.144531 161.75 C 264.066406 161.292969 260.128906 159.136719 256.78125 156.042969 C 258.0625 158.765625 259.761719 161.179688 262.023438 162.851562 C 266.410156 166.101562 271.667969 167.53125 276.625 167.53125 C 277.21875 167.53125 277.808594 167.511719 278.386719 167.472656 C 284.097656 165.460938 288.457031 163.359375 291.34375 161.789062 C 296.851562 155.363281 300.492188 147.773438 299.628906 132.621094 C 299.628906 132.621094 300.175781 127.726562 285.691406 125.054688 M 232.914062 104.664062 C 209.296875 104.664062 188.371094 110.3125 181.632812 115.714844 C 178.824219 117.964844 176.144531 120.546875 173.59375 123.402344 C 178.199219 121.804688 183.296875 120.46875 188.511719 119.480469 C 191.910156 116.601562 195.992188 114.496094 200.367188 113.53125 C 202.101562 113.148438 203.851562 112.960938 205.574219 112.957031 C 210.90625 112.957031 215.992188 114.789062 219.6875 118.449219 C 220.347656 118.574219 220.992188 118.710938 221.617188 118.863281 C 221.617188 118.863281 223.773438 119.402344 226.050781 121.449219 L 226.035156 121.335938 C 226.03125 121.316406 226.027344 121.296875 226.027344 121.277344 L 226.035156 121.335938 C 226.046875 121.382812 226.070312 121.4375 226.105469 121.5 C 226.503906 121.863281 226.90625 122.269531 227.296875 122.726562 C 229.457031 124.523438 234.011719 127.210938 238.203125 127.210938 C 238.261719 127.210938 238.316406 127.210938 238.371094 127.207031 C 241.429688 127.15625 245.273438 124.382812 246.992188 123.015625 C 249.085938 115.425781 255.5625 111.476562 262.933594 111.476562 C 263.9375 111.476562 264.953125 111.546875 265.980469 111.695312 C 271.386719 112.46875 276.648438 115.195312 280.820312 119.121094 C 284.902344 119.617188 288.96875 120.328125 292.851562 121.226562 C 275.851562 108.90625 253.375 104.664062 232.914062 104.664062 "/><path style=" stroke:none;fill-rule:nonzero;fill:#59c6a9;fill-opacity:1;" d="M 153.878906 158.269531 C 151.789062 158.277344 114.636719 166.378906 110.554688 183.726562 C 106.269531 201.933594 131.375 176.488281 145.253906 164.796875 C 148.550781 162.019531 151.222656 160.019531 152.730469 159.570312 L 153.878906 158.269531 "/><path style=" stroke:none;fill-rule:nonzero;fill:#59c6a9;fill-opacity:1;" d="M 153.304688 158.917969 C 153.304688 158.917969 115.28125 184.539062 115.4375 206.664062 C 115.539062 221.066406 142.214844 172.402344 153.304688 158.917969 "/><path style=" stroke:none;fill-rule:nonzero;fill:#59c6a9;fill-opacity:1;" d="M 310.511719 155.132812 C 312.566406 154.929688 349.292969 158.703125 353.84375 174.320312 C 358.617188 190.710938 333.175781 169.714844 319.1875 160.300781 C 315.863281 158.0625 313.175781 156.484375 311.679688 156.21875 L 310.511719 155.132812 "/><path style=" stroke:none;fill-rule:nonzero;fill:#59c6a9;fill-opacity:1;" d="M 311.097656 155.675781 C 311.097656 155.675781 349.226562 175.542969 349.765625 196 C 350.117188 209.316406 322.410156 167.023438 311.097656 155.675781 "/><path style=" stroke:none;fill-rule:nonzero;fill:#58ba94;fill-opacity:1;" d="M 192.796875 125.613281 C 188.015625 126.304688 184.40625 127.152344 181.6875 128.035156 C 179.503906 132.316406 178.527344 137.152344 179.277344 142.066406 C 180.65625 151.183594 185.414062 158.378906 191.882812 161.855469 C 187.632812 158.285156 184.65625 152.863281 183.707031 146.34375 C 182.5625 138.539062 186.464844 130.859375 192.796875 125.613281 M 205.574219 112.957031 C 203.851562 112.960938 202.101562 113.148438 200.367188 113.53125 C 195.992188 114.496094 191.910156 116.601562 188.511719 119.480469 C 195.167969 118.214844 202.023438 117.507812 208.316406 117.507812 C 212.414062 117.507812 216.277344 117.808594 219.6875 118.449219 C 215.992188 114.789062 210.90625 112.957031 205.574219 112.957031 "/><path style=" stroke:none;fill-rule:nonzero;fill:#58ba94;fill-opacity:1;" d="M 275.339844 123.796875 C 282.101562 127.683594 287.082031 134.519531 287.128906 142.050781 C 287.164062 148.171875 285.167969 153.441406 281.753906 157.003906 C 286.773438 153.105469 289.734375 145.992188 289.519531 137.378906 C 289.40625 132.988281 287.992188 128.765625 285.691406 125.054688 C 282.855469 124.53125 279.445312 124.09375 275.339844 123.796875 M 262.933594 111.476562 C 255.5625 111.476562 249.085938 115.425781 246.992188 123.015625 C 247.007812 123.003906 247.023438 122.992188 247.039062 122.980469 C 249.269531 120.792969 251.457031 120.164062 251.457031 120.164062 C 256.070312 118.886719 261.71875 118.296875 267.777344 118.296875 C 271.996094 118.296875 276.417969 118.582031 280.820312 119.121094 C 276.648438 115.195312 271.386719 112.46875 265.980469 111.695312 C 264.953125 111.546875 263.9375 111.476562 262.933594 111.476562 "/><path style=" stroke:none;fill-rule:nonzero;fill:#316e63;fill-opacity:1;" d="M 175.886719 160.042969 C 175.886719 160.042969 198.359375 173.328125 237.601562 173.871094 C 274.296875 174.375 295.503906 159.292969 295.503906 159.292969 L 297.59375 162.476562 L 292.132812 169.574219 L 220.949219 188.746094 L 174.1875 163.742188 L 175.886719 160.042969 "/><path style=" stroke:none;fill-rule:nonzero;fill:#7ad1ad;fill-opacity:1;" d="M 301.90625 165.300781 C 301.886719 165.320312 301.867188 165.34375 301.847656 165.363281 C 301.722656 168.949219 300.332031 195.953125 286.523438 216.507812 C 286.542969 216.527344 286.558594 216.542969 286.578125 216.5625 C 286.179688 217.109375 285.769531 217.652344 285.351562 218.199219 C 279.734375 226.007812 272.214844 232.726562 262.140625 236.625 C 256.015625 239.144531 248.890625 240.667969 240.546875 240.667969 C 239.332031 240.667969 238.09375 240.636719 236.828125 240.570312 C 213.4375 239.347656 196.335938 224.726562 190.710938 216.179688 C 190.769531 216.082031 190.828125 215.984375 190.882812 215.886719 C 174.128906 194.769531 171.089844 167.566406 171.089844 167.566406 C 171.085938 167.476562 171.085938 167.386719 171.085938 167.300781 C 170.894531 167.632812 170.703125 168.011719 170.519531 168.433594 C 170.519531 168.433594 178.609375 242.476562 237.238281 244.605469 C 238.144531 244.636719 239.050781 244.652344 239.933594 244.652344 C 297.78125 244.652344 301.648438 175 301.90625 165.300781 "/><path style=" stroke:none;fill-rule:nonzero;fill:#692455;fill-opacity:1;" d="M 171.089844 167.566406 C 171.089844 167.566406 178.75 236.179688 236.855469 240.054688 C 300.460938 244.296875 301.859375 164.964844 301.859375 164.964844 C 301.859375 164.964844 302.824219 161.441406 300.863281 160.132812 C 298.363281 158.464844 296.789062 160.390625 296.789062 160.390625 C 296.789062 160.390625 270.796875 179.578125 234.019531 177.011719 C 197.242188 174.445312 177.09375 162.039062 177.09375 162.039062 C 177.09375 162.039062 170.933594 159.914062 171.089844 167.566406 "/><path style=" stroke:none;fill-rule:nonzero;fill:#efe6ca;fill-opacity:1;" d="M 247.542969 189.285156 C 252.800781 192.761719 266.472656 187.28125 261.035156 174.902344 C 256.277344 175.902344 251.023438 176.632812 245.371094 176.878906 C 244.519531 180.53125 243.746094 186.769531 247.542969 189.285156 "/><path style=" stroke:none;fill-rule:nonzero;fill:#fdf6ef;fill-opacity:1;" d="M 249.8125 186.859375 C 254.964844 190.007812 264.863281 185.3125 260.675781 175.105469 C 256.792969 175.78125 251.78125 176.597656 248.28125 176.722656 C 247.519531 179.664062 246.675781 184.941406 249.8125 186.859375 "/><path style=" stroke:none;fill-rule:nonzero;fill:#ee2176;fill-opacity:1;" d="M 236.828125 240.570312 C 262.34375 241.902344 277.132812 229.480469 286.578125 216.5625 C 267.289062 197.265625 249.40625 203.078125 239.191406 208.636719 C 233.847656 203.679688 218.019531 195.859375 204.390625 202.78125 C 193.808594 208.164062 193.246094 211.976562 190.710938 216.179688 C 196.335938 224.726562 213.4375 239.347656 236.828125 240.570312 "/><path style=" stroke:none;fill-rule:nonzero;fill:#f03560;fill-opacity:1;" d="M 235.476562 220.085938 C 234.960938 220.085938 234.617188 219.917969 234.492188 219.550781 C 234 218.109375 237.027344 214.125 241.550781 211.527344 C 244.269531 209.964844 246.910156 209.261719 248.6875 209.257812 C 249.867188 209.257812 250.667969 209.570312 250.863281 210.144531 C 251.355469 211.582031 247.847656 214.144531 243.324219 216.746094 C 239.960938 218.675781 236.984375 220.085938 235.476562 220.085938 M 255.824219 211.640625 C 254.277344 211.640625 253.046875 210.992188 252.914062 210.011719 C 252.75 208.839844 254.207031 207.636719 256.164062 207.324219 C 256.476562 207.273438 256.785156 207.253906 257.082031 207.253906 C 258.632812 207.253906 259.863281 207.902344 260 208.882812 C 260.164062 210.054688 258.707031 211.257812 256.75 211.566406 C 256.433594 211.617188 256.121094 211.640625 255.824219 211.640625 M 215.363281 201.082031 C 205.117188 201.082031 204.042969 209.480469 204.484375 216.980469 C 204.964844 225.101562 214.488281 233.941406 237.238281 235.523438 C 240.1875 235.730469 242.910156 235.824219 245.414062 235.824219 C 270.21875 235.824219 273.902344 226.441406 274.421875 221.554688 C 275.171875 214.460938 268.683594 206.207031 256.679688 205.140625 C 256.105469 205.089844 255.527344 205.0625 254.941406 205.0625 C 248.796875 205.0625 242.117188 207.796875 237.101562 211.375 C 234.316406 206.199219 226.582031 202 217.25 201.171875 C 216.589844 201.113281 215.960938 201.085938 215.363281 201.082031 "/><path style=" stroke:none;fill-rule:nonzero;fill:#c0333f;fill-opacity:1;" d="M 230.183594 217.3125 C 230.183594 217.3125 236.730469 210.398438 243.507812 207.382812 L 238.242188 208.722656 C 238.242188 208.722656 235.21875 208.195312 230.183594 217.3125 "/><path style=" stroke:none;fill-rule:nonzero;fill:#f2557f;fill-opacity:1;" d="M 257.082031 207.253906 C 256.785156 207.253906 256.476562 207.273438 256.164062 207.324219 C 254.207031 207.636719 252.75 208.839844 252.914062 210.011719 C 253.046875 210.992188 254.277344 211.640625 255.824219 211.640625 C 256.121094 211.640625 256.433594 211.617188 256.75 211.566406 C 258.707031 211.257812 260.164062 210.054688 260 208.882812 C 259.863281 207.902344 258.632812 207.253906 257.082031 207.253906 "/><path style=" stroke:none;fill-rule:nonzero;fill:#f2557f;fill-opacity:1;" d="M 248.6875 209.257812 C 246.910156 209.261719 244.269531 209.964844 241.550781 211.527344 C 237.027344 214.125 234 218.109375 234.492188 219.550781 C 234.617188 219.917969 234.960938 220.085938 235.476562 220.085938 C 236.984375 220.085938 239.960938 218.675781 243.324219 216.746094 C 247.847656 214.144531 251.355469 211.582031 250.863281 210.144531 C 250.667969 209.570312 249.867188 209.257812 248.6875 209.257812 "/><path style=" stroke:none;fill-rule:nonzero;fill:#efe6ca;fill-opacity:1;" d="M 274.929688 179.917969 C 279.617188 180.878906 289.160156 174.425781 282.707031 168.015625 C 279.226562 169.703125 275.304688 171.335938 270.996094 172.753906 C 271.003906 175.199219 271.542969 179.222656 274.929688 179.917969 "/><path style=" stroke:none;fill-rule:nonzero;fill:#fdf6ef;fill-opacity:1;" d="M 276.242188 177.910156 C 280.785156 178.695312 287.5625 173.578125 282.46875 168.222656 C 279.601562 169.511719 275.882812 171.140625 273.210938 172.003906 C 273.160156 173.992188 273.46875 177.433594 276.242188 177.910156 "/><path style=" stroke:none;fill-rule:nonzero;fill:#efe6ca;fill-opacity:1;" d="M 198.996094 181.511719 C 207.152344 183.203125 206.976562 175.445312 206.589844 172.285156 C 201.3125 171.113281 196.558594 169.847656 192.351562 168.585938 C 187.328125 172.660156 189.585938 179.5625 198.996094 181.511719 "/><path style=" stroke:none;fill-rule:nonzero;fill:#fdf6ef;fill-opacity:1;" d="M 198.238281 178.632812 C 204.46875 179.925781 204.464844 174.351562 204.167969 171.941406 C 200.140625 171.046875 196.507812 169.902344 193.300781 168.9375 C 189.464844 172.050781 191.0625 177.148438 198.238281 178.632812 "/><path style=" stroke:none;fill-rule:nonzero;fill:#efe6ca;fill-opacity:1;" d="M 225.601562 190.324219 C 234.886719 190.777344 233.296875 180.742188 232.292969 176.722656 C 226.269531 176.324219 220.804688 175.703125 215.945312 174.957031 C 211.152344 181.324219 214.890625 189.804688 225.601562 190.324219 "/><path style=" stroke:none;fill-rule:nonzero;fill:#fdf6ef;fill-opacity:1;" d="M 224.25 186.75 C 231.34375 187.09375 230.328125 179.859375 229.5625 176.792969 C 224.964844 176.488281 220.757812 175.785156 217.046875 175.214844 C 213.390625 180.078125 216.074219 186.351562 224.25 186.75 "/><path style=" stroke:none;fill-rule:nonzero;fill:#316e63;fill-opacity:1;" d="M 229.613281 134 C 231.53125 146.320312 222.117188 163.148438 209.308594 165.96875 C 196.503906 168.789062 185.695312 159.957031 183.707031 146.34375 C 181.929688 134.195312 192.371094 122.34375 205.175781 119.523438 C 216.257812 117.082031 227.722656 121.867188 229.613281 134 "/><path style=" stroke:none;fill-rule:nonzero;fill:#f8e2bd;fill-opacity:1;" d="M 228.585938 135.050781 C 230.277344 146.0625 221.4375 161.191406 209.558594 163.808594 C 197.675781 166.425781 187.726562 158.597656 185.988281 146.429688 C 184.429688 135.566406 194.183594 124.886719 206.0625 122.269531 C 216.339844 120.003906 226.921875 124.207031 228.585938 135.050781 "/><path style=" stroke:none;fill-rule:nonzero;fill:#fef9e7;fill-opacity:1;" d="M 227.722656 137.570312 C 227.515625 147.429688 217.863281 159.242188 207.5 159.675781 C 197.136719 160.109375 189.933594 151.738281 190.261719 140.859375 C 190.554688 131.152344 200.320312 123.355469 210.683594 122.921875 C 219.652344 122.546875 227.921875 127.855469 227.722656 137.570312 "/><path style=" stroke:none;fill-rule:nonzero;fill:#ffffff;fill-opacity:1;" d="M 223.5 130.828125 C 223.265625 132.125 219.21875 129.996094 214.222656 129.101562 C 209.230469 128.207031 205.183594 128.882812 205.417969 127.585938 C 205.648438 126.292969 210.070312 123.515625 215.066406 124.410156 C 220.058594 125.304688 223.730469 129.535156 223.5 130.828125 "/><path style=" stroke:none;fill-rule:nonzero;fill:#27833b;fill-opacity:1;" d="M 218.246094 134.292969 C 222.234375 134.609375 224.792969 136.804688 225.824219 140.882812 C 226.605469 143.980469 225.058594 149.347656 218.667969 150.332031 C 213.890625 151.066406 209.972656 145.710938 210.191406 141.855469 C 210.402344 138.003906 214.257812 133.972656 218.246094 134.292969 "/><path style=" stroke:none;fill-rule:nonzero;fill:#3cb94b;fill-opacity:1;" d="M 220.042969 135.132812 C 223.066406 136.453125 224.921875 138.878906 224.726562 142.578125 C 224.566406 145.582031 220.972656 149.828125 215.996094 148.558594 C 212.492188 147.667969 210.246094 142.476562 211.554688 139.3125 C 212.867188 136.152344 217.019531 133.808594 220.042969 135.132812 "/><path style=" stroke:none;fill-rule:nonzero;fill:#4dbe52;fill-opacity:1;" d="M 219.273438 147.160156 C 219.667969 146.933594 220.605469 146.683594 220.984375 146.371094 C 221.546875 145.914062 222.003906 145.125 222.585938 144.484375 C 223.5625 143.402344 223.230469 143.460938 223.300781 142.054688 C 223.363281 140.792969 223.113281 140.019531 222.257812 138.9375 C 221.75 138.289062 220.882812 137.324219 220.210938 137.046875 C 219.570312 136.777344 217.632812 136.539062 217.015625 136.53125 C 215.96875 136.519531 215.195312 136.984375 214.554688 137.628906 C 213.863281 138.320312 212.910156 138.929688 212.660156 139.859375 C 212.433594 140.722656 212.238281 141.601562 212.550781 142.480469 C 212.691406 142.878906 213.019531 143.386719 213.167969 143.859375 C 213.34375 144.429688 213.78125 144.648438 214.214844 145.164062 C 214.472656 145.472656 215.917969 147.058594 216.148438 147.242188 C 216.457031 147.480469 218.632812 147.53125 219.273438 147.160156 "/><path style=" stroke:none;fill-rule:nonzero;fill:#1c2c20;fill-opacity:1;" d="M 217.910156 138.28125 C 219.882812 138.414062 221.367188 140.175781 221.230469 142.210938 C 221.089844 144.242188 219.378906 145.785156 217.40625 145.648438 C 215.4375 145.515625 213.953125 143.757812 214.089844 141.722656 C 214.230469 139.6875 215.9375 138.148438 217.910156 138.28125 "/><path style=" stroke:none;fill-rule:nonzero;fill:#ffffff;fill-opacity:1;" d="M 213.03125 136.667969 C 214.878906 136.757812 216.246094 138.40625 216.082031 140.347656 C 215.914062 142.289062 214.28125 143.785156 212.429688 143.695312 C 210.578125 143.597656 209.214844 141.949219 209.378906 140.007812 C 209.546875 138.066406 211.179688 136.570312 213.03125 136.667969 "/><path style=" stroke:none;fill-rule:nonzero;fill:#316e63;fill-opacity:1;" d="M 247.007812 135.640625 C 246.972656 146.636719 257.03125 160.507812 268.144531 161.75 C 279.257812 162.992188 287.199219 154.195312 287.128906 142.050781 C 287.0625 131.214844 276.78125 121.8125 265.667969 120.570312 C 256.054688 119.496094 247.042969 124.804688 247.007812 135.640625 "/><path style=" stroke:none;fill-rule:nonzero;fill:#f8e2bd;fill-opacity:1;" d="M 247.359375 137.59375 C 247.15625 147.074219 256.292969 158.867188 266.609375 159.761719 C 276.925781 160.65625 284.457031 152.949219 284.578125 142.484375 C 284.691406 133.144531 275.273438 125.207031 264.957031 124.3125 C 256.03125 123.539062 247.5625 128.253906 247.359375 137.59375 "/><path style=" stroke:none;fill-rule:nonzero;fill:#fef9e7;fill-opacity:1;" d="M 248.675781 137.65625 C 249.304688 145.730469 258.160156 154.921875 267.101562 154.746094 C 276.039062 154.570312 281.847656 147.339844 281.0625 138.4375 C 280.359375 130.492188 271.59375 124.601562 262.65625 124.773438 C 254.921875 124.925781 248.054688 129.703125 248.675781 137.65625 "/><path style=" stroke:none;fill-rule:nonzero;fill:#ffffff;fill-opacity:1;" d="M 276.933594 134.609375 C 276.640625 136.238281 271.648438 133.582031 265.480469 132.476562 C 259.3125 131.367188 254.3125 132.234375 254.609375 130.605469 C 254.898438 128.976562 260.371094 125.476562 266.539062 126.582031 C 272.703125 127.6875 277.226562 132.984375 276.933594 134.609375 "/><path style=" stroke:none;fill-rule:nonzero;fill:#27833b;fill-opacity:1;" d="M 259.003906 134.015625 C 262.941406 134.332031 265.464844 136.5 266.484375 140.527344 C 267.261719 143.585938 265.730469 148.890625 259.414062 149.863281 C 254.699219 150.585938 250.828125 145.296875 251.042969 141.492188 C 251.253906 137.683594 255.0625 133.703125 259.003906 134.015625 "/><path style=" stroke:none;fill-rule:nonzero;fill:#3cb94b;fill-opacity:1;" d="M 260.777344 134.851562 C 263.761719 136.15625 265.59375 138.550781 265.402344 142.203125 C 265.242188 145.171875 261.699219 149.363281 256.777344 148.113281 C 253.316406 147.234375 251.09375 142.101562 252.386719 138.980469 C 253.683594 135.855469 257.785156 133.542969 260.777344 134.851562 "/><path style=" stroke:none;fill-rule:nonzero;fill:#4dbe52;fill-opacity:1;" d="M 260.015625 146.730469 C 260.40625 146.503906 261.332031 146.257812 261.707031 145.949219 C 262.261719 145.496094 262.710938 144.722656 263.285156 144.085938 C 264.253906 143.015625 263.925781 143.078125 263.992188 141.6875 C 264.058594 140.441406 263.808594 139.675781 262.964844 138.605469 C 262.457031 137.96875 261.605469 137.015625 260.941406 136.738281 C 260.304688 136.472656 258.398438 136.238281 257.78125 136.230469 C 256.75 136.21875 255.984375 136.679688 255.351562 137.3125 C 254.671875 137.996094 253.730469 138.597656 253.484375 139.519531 C 253.257812 140.371094 253.066406 141.242188 253.375 142.109375 C 253.511719 142.5 253.839844 143 253.980469 143.46875 C 254.15625 144.035156 254.589844 144.25 255.015625 144.761719 C 255.269531 145.0625 256.699219 146.628906 256.929688 146.808594 C 257.230469 147.046875 259.378906 147.097656 260.015625 146.730469 "/><path style=" stroke:none;fill-rule:nonzero;fill:#1c2c20;fill-opacity:1;" d="M 258.667969 137.960938 C 260.617188 138.089844 262.085938 139.828125 261.949219 141.839844 C 261.808594 143.851562 260.121094 145.371094 258.171875 145.238281 C 256.226562 145.105469 254.757812 143.371094 254.894531 141.359375 C 255.03125 139.351562 256.722656 137.824219 258.667969 137.960938 "/><path style=" stroke:none;fill-rule:nonzero;fill:#ffffff;fill-opacity:1;" d="M 253.847656 136.363281 C 255.675781 136.453125 257.023438 138.082031 256.859375 140 C 256.699219 141.917969 255.082031 143.398438 253.253906 143.304688 C 251.429688 143.210938 250.078125 141.582031 250.242188 139.664062 C 250.40625 137.746094 252.019531 136.269531 253.847656 136.363281 "/><path style=" stroke:none;fill-rule:nonzero;fill:#429785;fill-opacity:1;" d="M 173.59375 123.402344 C 171.738281 124.046875 169.964844 124.738281 168.289062 125.464844 C 162.449219 128 161.804688 134.394531 162.242188 139.15625 C 165.679688 133.359375 169.46875 128.023438 173.59375 123.402344 M 292.851562 121.226562 C 295.355469 123.039062 297.734375 125.027344 299.976562 127.199219 C 304.308594 131.40625 308.023438 136.144531 311.199219 141.246094 C 311.90625 136.605469 312.203125 127.761719 304.976562 124.917969 C 301.324219 123.476562 297.207031 122.234375 292.851562 121.226562 "/><path style=" stroke:none;fill-rule:nonzero;fill:#4b9d81;fill-opacity:1;" d="M 280.820312 119.121094 C 282.691406 120.878906 284.34375 122.878906 285.691406 125.054688 C 300.175781 127.726562 299.628906 132.621094 299.628906 132.621094 C 300.492188 147.773438 296.851562 155.363281 291.34375 161.789062 C 294.082031 160.304688 295.503906 159.292969 295.503906 159.292969 L 296.402344 160.667969 C 296.660156 160.488281 296.789062 160.390625 296.789062 160.390625 C 296.789062 160.390625 297.554688 159.453125 298.867188 159.453125 C 299.4375 159.453125 300.109375 159.628906 300.863281 160.132812 C 302.5 161.226562 302.097656 163.867188 301.921875 164.703125 C 301.917969 164.867188 301.914062 165.066406 301.90625 165.300781 C 308.367188 158.355469 309.191406 151.628906 310.601562 144.152344 C 310.601562 144.152344 310.929688 143 311.199219 141.246094 C 308.023438 136.144531 304.308594 131.40625 299.976562 127.199219 C 297.734375 125.027344 295.355469 123.039062 292.851562 121.226562 C 288.96875 120.328125 284.902344 119.617188 280.820312 119.121094 M 219.6875 118.449219 C 220.859375 119.609375 221.890625 120.953125 222.746094 122.480469 C 226.261719 124.992188 228.804688 128.828125 229.613281 134 C 231.53125 146.320312 222.117188 163.148438 209.308594 165.96875 C 207.703125 166.324219 206.121094 166.492188 204.589844 166.492188 C 204.128906 166.492188 203.667969 166.476562 203.214844 166.445312 C 201.351562 166.808594 199.480469 166.980469 197.652344 166.980469 C 191.730469 166.980469 186.265625 165.171875 183.128906 162.054688 C 177.105469 156.058594 172.996094 148.898438 173.367188 134.246094 C 173.367188 134.246094 172.839844 130.917969 181.6875 128.035156 C 183.339844 124.792969 185.691406 121.871094 188.511719 119.480469 C 183.296875 120.46875 178.199219 121.804688 173.59375 123.402344 C 169.46875 128.023438 165.679688 133.359375 162.242188 139.15625 C 162.542969 142.398438 163.339844 144.886719 163.339844 144.886719 C 164.898438 151.820312 165.921875 158.121094 171.515625 164.398438 C 172.253906 162.347656 173.8125 161.820312 175.09375 161.769531 L 175.886719 160.042969 C 175.886719 160.042969 188.332031 167.398438 210.875 171.386719 C 212.75 170.777344 214.46875 170.117188 215.972656 169.453125 C 225.988281 165.019531 229.5 154.492188 230.683594 145.558594 C 231.691406 142.824219 233.835938 138.816406 237.714844 138.816406 C 237.753906 138.816406 237.792969 138.816406 237.832031 138.816406 C 240.453125 138.875 241.996094 141.488281 242.839844 143.730469 C 243.894531 153.179688 247.34375 165.90625 258.851562 170.53125 C 259.90625 170.953125 261.066406 171.371094 262.308594 171.773438 C 268.480469 170.601562 273.859375 169.066406 278.386719 167.472656 C 277.808594 167.511719 277.21875 167.53125 276.625 167.53125 C 271.667969 167.53125 266.410156 166.101562 262.023438 162.851562 C 259.761719 161.179688 258.0625 158.765625 256.78125 156.042969 C 255.460938 154.824219 254.234375 153.460938 253.128906 152.003906 C 250.1875 148.523438 248.132812 144.304688 247.535156 140.273438 C 247.1875 138.699219 247.003906 137.144531 247.007812 135.640625 C 247.007812 135.316406 247.019531 135 247.035156 134.6875 C 246.582031 132.734375 246.320312 130.796875 246.292969 128.9375 C 246.253906 126.765625 246.503906 124.792969 246.992188 123.015625 C 245.273438 124.382812 241.429688 127.15625 238.371094 127.207031 C 238.316406 127.210938 238.261719 127.210938 238.203125 127.210938 C 234.011719 127.210938 229.457031 124.523438 227.296875 122.726562 C 226.90625 122.269531 226.503906 121.863281 226.105469 121.5 C 226.070312 121.4375 226.046875 121.382812 226.035156 121.335938 L 226.050781 121.449219 C 223.773438 119.402344 221.617188 118.863281 221.617188 118.863281 C 220.992188 118.710938 220.347656 118.574219 219.6875 118.449219 "/><path style=" stroke:none;fill-rule:nonzero;fill:#438b73;fill-opacity:1;" d="M 208.316406 117.507812 C 202.023438 117.507812 195.167969 118.214844 188.511719 119.480469 C 185.691406 121.871094 183.339844 124.792969 181.6875 128.035156 C 184.40625 127.152344 188.015625 126.304688 192.796875 125.613281 C 196.320312 122.695312 200.597656 120.53125 205.175781 119.523438 C 207.046875 119.113281 208.925781 118.90625 210.765625 118.90625 C 215.191406 118.90625 219.40625 120.09375 222.746094 122.480469 C 221.890625 120.953125 220.859375 119.609375 219.6875 118.449219 C 216.277344 117.808594 212.414062 117.507812 208.316406 117.507812 "/><path style=" stroke:none;fill-rule:nonzero;fill:#438b73;fill-opacity:1;" d="M 267.777344 118.296875 C 261.71875 118.296875 256.070312 118.886719 251.457031 120.164062 C 251.457031 120.164062 249.269531 120.792969 247.039062 122.980469 C 247.023438 122.992188 247.007812 123.003906 246.992188 123.015625 C 246.503906 124.792969 246.253906 126.765625 246.292969 128.9375 C 246.320312 130.796875 246.582031 132.734375 247.035156 134.6875 C 247.53125 125.382812 254.875 120.4375 263.246094 120.4375 C 264.042969 120.4375 264.855469 120.480469 265.667969 120.570312 C 269.058594 120.949219 272.371094 122.089844 275.339844 123.796875 C 279.445312 124.09375 282.855469 124.53125 285.691406 125.054688 C 284.34375 122.878906 282.691406 120.878906 280.820312 119.121094 C 276.417969 118.582031 271.996094 118.296875 267.777344 118.296875 "/><path style=" stroke:none;fill-rule:nonzero;fill:#27524a;fill-opacity:1;" d="M 175.886719 160.042969 L 175.09375 161.769531 C 175.164062 161.769531 175.234375 161.765625 175.304688 161.765625 C 176.308594 161.765625 177.09375 162.039062 177.09375 162.039062 C 177.09375 162.039062 182.28125 165.234375 192.195312 168.714844 C 192.246094 168.671875 192.300781 168.628906 192.351562 168.585938 C 196.558594 169.847656 201.3125 171.113281 206.589844 172.285156 C 206.601562 172.382812 206.613281 172.488281 206.621094 172.59375 C 208.105469 172.230469 209.53125 171.824219 210.875 171.386719 C 188.332031 167.398438 175.886719 160.042969 175.886719 160.042969 M 295.503906 159.292969 C 295.503906 159.292969 294.082031 160.304688 291.34375 161.789062 C 291.316406 161.824219 291.289062 161.855469 291.257812 161.890625 C 288.515625 165.074219 283.714844 167.101562 278.386719 167.472656 C 273.859375 169.066406 268.480469 170.601562 262.308594 171.773438 C 264.171875 172.367188 266.222656 172.914062 268.390625 173.363281 C 271.871094 172.378906 275.085938 171.273438 278.007812 170.136719 C 279.652344 169.445312 281.21875 168.738281 282.707031 168.015625 C 282.742188 168.054688 282.777344 168.089844 282.816406 168.125 C 290.265625 164.792969 295.058594 161.605469 296.402344 160.667969 L 295.503906 159.292969 "/><path style=" stroke:none;fill-rule:nonzero;fill:#57a289;fill-opacity:1;" d="M 301.921875 164.703125 C 301.886719 164.871094 301.859375 164.964844 301.859375 164.964844 C 301.859375 164.964844 301.855469 165.101562 301.847656 165.363281 C 301.867188 165.34375 301.886719 165.320312 301.90625 165.300781 C 301.914062 165.066406 301.917969 164.867188 301.921875 164.703125 "/><path style=" stroke:none;fill-rule:nonzero;fill:#4f1e3f;fill-opacity:1;" d="M 278.007812 170.136719 C 275.085938 171.273438 271.871094 172.378906 268.390625 173.363281 C 269.253906 173.542969 270.136719 173.707031 271.035156 173.847656 C 271.007812 173.460938 270.996094 173.09375 270.996094 172.753906 C 273.460938 171.941406 275.804688 171.058594 278.007812 170.136719 M 175.304688 161.765625 C 175.234375 161.765625 175.164062 161.769531 175.09375 161.769531 C 173.8125 161.820312 172.253906 162.347656 171.515625 164.398438 C 172.75 165.78125 174.203125 167.164062 175.9375 168.550781 C 179.933594 171.753906 184.757812 173.367188 189.765625 173.9375 C 189.617188 172.082031 190.425781 170.21875 192.195312 168.714844 C 182.28125 165.234375 177.09375 162.039062 177.09375 162.039062 C 177.09375 162.039062 176.308594 161.765625 175.304688 161.765625 M 298.867188 159.453125 C 297.554688 159.453125 296.789062 160.390625 296.789062 160.390625 C 296.789062 160.390625 296.660156 160.488281 296.402344 160.667969 C 295.058594 161.605469 290.265625 164.792969 282.816406 168.125 C 284.878906 170.234375 285.222656 172.34375 284.59375 174.1875 C 289.796875 173.503906 294.792969 171.714844 298.828125 168.246094 C 299.953125 167.277344 300.953125 166.320312 301.847656 165.363281 C 301.855469 165.101562 301.859375 164.964844 301.859375 164.964844 C 301.859375 164.964844 301.886719 164.871094 301.921875 164.703125 C 302.097656 163.867188 302.5 161.226562 300.863281 160.132812 C 300.109375 159.628906 299.4375 159.453125 298.867188 159.453125 "/><path style=" stroke:none;fill-rule:nonzero;fill:#4b9d81;fill-opacity:1;" d="M 226.027344 121.277344 C 226.027344 121.296875 226.03125 121.316406 226.035156 121.335938 L 226.027344 121.277344 "/><path style=" stroke:none;fill-rule:nonzero;fill:#b5ad98;fill-opacity:1;" d="M 282.707031 168.015625 C 281.21875 168.738281 279.652344 169.445312 278.007812 170.136719 C 275.804688 171.058594 273.460938 171.941406 270.996094 172.753906 C 270.996094 173.09375 271.007812 173.460938 271.035156 173.847656 C 271.792969 173.96875 272.558594 174.078125 273.335938 174.167969 C 273.214844 173.394531 273.195312 172.628906 273.210938 172.003906 C 275.882812 171.140625 279.601562 169.511719 282.46875 168.222656 C 284.554688 170.414062 284.652344 172.566406 283.722656 174.292969 C 284.011719 174.261719 284.304688 174.226562 284.59375 174.1875 C 285.222656 172.34375 284.878906 170.234375 282.816406 168.125 C 282.777344 168.089844 282.742188 168.054688 282.707031 168.015625 "/><path style=" stroke:none;fill-rule:nonzero;fill:#c0b9b1;fill-opacity:1;" d="M 282.46875 168.222656 C 279.601562 169.511719 275.882812 171.140625 273.210938 172.003906 C 273.195312 172.628906 273.214844 173.394531 273.335938 174.167969 C 275.269531 174.398438 277.25 174.527344 279.238281 174.527344 C 280.734375 174.527344 282.234375 174.453125 283.722656 174.292969 C 284.652344 172.566406 284.554688 170.414062 282.46875 168.222656 "/><path style=" stroke:none;fill-rule:nonzero;fill:#b5ad98;fill-opacity:1;" d="M 192.351562 168.585938 C 192.300781 168.628906 192.246094 168.671875 192.195312 168.714844 C 190.425781 170.21875 189.617188 172.082031 189.765625 173.9375 C 190.347656 174.003906 190.933594 174.054688 191.519531 174.09375 C 190.886719 172.324219 191.484375 170.410156 193.300781 168.9375 C 196.507812 169.902344 200.140625 171.046875 204.167969 171.941406 C 204.207031 172.28125 204.246094 172.683594 204.257812 173.121094 C 205.0625 172.960938 205.851562 172.785156 206.621094 172.59375 C 206.613281 172.488281 206.601562 172.382812 206.589844 172.285156 C 201.3125 171.113281 196.558594 169.847656 192.351562 168.585938 "/><path style=" stroke:none;fill-rule:nonzero;fill:#c0b9b1;fill-opacity:1;" d="M 193.300781 168.9375 C 191.484375 170.410156 190.886719 172.324219 191.519531 174.09375 C 192.410156 174.152344 193.304688 174.179688 194.199219 174.179688 C 197.621094 174.179688 201.042969 173.773438 204.257812 173.121094 C 204.246094 172.683594 204.207031 172.28125 204.167969 171.941406 C 200.140625 171.046875 196.507812 169.902344 193.300781 168.9375 "/><path style=" stroke:none;fill-rule:nonzero;fill:#27524a;fill-opacity:1;" d="M 210.765625 118.90625 C 208.925781 118.90625 207.046875 119.113281 205.175781 119.523438 C 200.597656 120.53125 196.320312 122.695312 192.796875 125.613281 C 194.679688 125.339844 196.75 125.089844 199.015625 124.871094 C 201.21875 123.703125 203.59375 122.8125 206.0625 122.269531 C 207.855469 121.871094 209.660156 121.675781 211.425781 121.675781 C 219.765625 121.675781 227.214844 126.101562 228.585938 135.050781 C 230.152344 145.257812 222.675781 159 212.113281 163.039062 C 209.351562 164.738281 206.300781 165.851562 203.214844 166.445312 C 203.667969 166.476562 204.128906 166.492188 204.589844 166.492188 C 206.121094 166.492188 207.703125 166.324219 209.308594 165.96875 C 222.117188 163.148438 231.53125 146.320312 229.613281 134 C 228.804688 128.828125 226.261719 124.992188 222.746094 122.480469 C 219.40625 120.09375 215.191406 118.90625 210.765625 118.90625 "/><path style=" stroke:none;fill-rule:nonzero;fill:#bcab8f;fill-opacity:1;" d="M 211.425781 121.675781 C 209.660156 121.675781 207.855469 121.871094 206.0625 122.269531 C 203.59375 122.8125 201.21875 123.703125 199.015625 124.871094 C 200.214844 124.757812 201.472656 124.648438 202.785156 124.550781 C 202.933594 124.539062 203.074219 124.53125 203.21875 124.519531 C 205.582031 123.589844 208.113281 123.03125 210.683594 122.921875 C 210.980469 122.910156 211.28125 122.902344 211.574219 122.902344 C 220.191406 122.902344 227.917969 128.175781 227.722656 137.570312 C 227.601562 143.332031 224.25 149.765625 219.417969 154.203125 C 218.144531 157.277344 216.320312 160.0625 213.71875 161.964844 C 213.195312 162.34375 212.660156 162.703125 212.113281 163.039062 C 222.675781 159 230.152344 145.257812 228.585938 135.050781 C 227.214844 126.101562 219.765625 121.675781 211.425781 121.675781 "/><path style=" stroke:none;fill-rule:nonzero;fill:#c1bcab;fill-opacity:1;" d="M 211.574219 122.902344 C 211.28125 122.902344 210.980469 122.910156 210.683594 122.921875 C 208.113281 123.03125 205.582031 123.589844 203.21875 124.519531 C 204.535156 124.429688 205.761719 124.390625 206.902344 124.390625 C 208.179688 124.390625 209.351562 124.441406 210.425781 124.539062 C 211.253906 124.351562 212.148438 124.234375 213.085938 124.234375 C 213.730469 124.234375 214.390625 124.289062 215.066406 124.410156 C 220.058594 125.304688 223.730469 129.535156 223.5 130.828125 C 223.449219 131.117188 223.203125 131.238281 222.804688 131.238281 C 222.535156 131.238281 222.195312 131.183594 221.789062 131.089844 C 222.304688 132.660156 222.226562 134.0625 222.265625 134.707031 C 222.265625 134.707031 222.289062 135.011719 222.304688 135.554688 C 224.019531 136.644531 225.199219 138.417969 225.824219 140.882812 C 226.507812 143.585938 225.414062 148.019531 220.875 149.757812 C 220.496094 151.261719 220.015625 152.765625 219.417969 154.203125 C 224.25 149.765625 227.601562 143.332031 227.722656 137.570312 C 227.917969 128.175781 220.191406 122.902344 211.574219 122.902344 "/><path style=" stroke:none;fill-rule:nonzero;fill:#c4c2c1;fill-opacity:1;" d="M 213.085938 124.234375 C 212.148438 124.234375 211.253906 124.351562 210.425781 124.539062 C 218.304688 125.257812 220.910156 128.417969 221.789062 131.089844 C 222.195312 131.183594 222.535156 131.238281 222.804688 131.238281 C 223.203125 131.238281 223.449219 131.117188 223.5 130.828125 C 223.730469 129.535156 220.058594 125.304688 215.066406 124.410156 C 214.390625 124.289062 213.730469 124.234375 213.085938 124.234375 "/><path style=" stroke:none;fill-rule:nonzero;fill:#20612f;fill-opacity:1;" d="M 222.304688 135.554688 C 222.3125 135.824219 222.320312 136.152344 222.324219 136.535156 C 223.957031 137.941406 224.863281 139.933594 224.726562 142.578125 C 224.632812 144.339844 223.359375 146.523438 221.324219 147.777344 C 221.191406 148.433594 221.042969 149.097656 220.875 149.757812 C 225.414062 148.019531 226.507812 143.585938 225.824219 140.882812 C 225.199219 138.417969 224.019531 136.644531 222.304688 135.554688 "/><path style=" stroke:none;fill-rule:nonzero;fill:#2b923e;fill-opacity:1;" d="M 222.324219 136.535156 C 222.332031 137.207031 222.328125 138.035156 222.296875 138.988281 C 223.121094 140.042969 223.363281 140.816406 223.300781 142.054688 C 223.230469 143.460938 223.5625 143.402344 222.585938 144.484375 C 222.265625 144.832031 221.988281 145.226562 221.707031 145.585938 C 221.597656 146.304688 221.472656 147.039062 221.324219 147.777344 C 223.359375 146.523438 224.632812 144.339844 224.726562 142.578125 C 224.863281 139.933594 223.957031 137.941406 222.324219 136.535156 "/><path style=" stroke:none;fill-rule:nonzero;fill:#2fa541;fill-opacity:1;" d="M 222.296875 138.988281 C 222.238281 140.832031 222.078125 143.128906 221.707031 145.585938 C 221.988281 145.226562 222.265625 144.832031 222.585938 144.484375 C 223.5625 143.402344 223.230469 143.460938 223.300781 142.054688 C 223.363281 140.816406 223.121094 140.042969 222.296875 138.988281 "/><path style=" stroke:none;fill-rule:nonzero;fill:#27524a;fill-opacity:1;" d="M 253.128906 152.003906 C 254.234375 153.460938 255.460938 154.824219 256.78125 156.042969 C 256.660156 155.792969 256.546875 155.539062 256.433594 155.28125 C 255.246094 154.300781 254.132812 153.195312 253.128906 152.003906 M 263.246094 120.4375 C 254.875 120.4375 247.53125 125.382812 247.035156 134.6875 C 247.019531 135 247.007812 135.316406 247.007812 135.640625 C 247.003906 137.144531 247.1875 138.699219 247.535156 140.273438 C 247.402344 139.367188 247.34375 138.46875 247.359375 137.59375 C 247.535156 129.574219 253.800781 124.964844 261.21875 124.3125 C 263.230469 123.800781 265.726562 123.5 268.824219 123.5 C 269.574219 123.5 270.355469 123.515625 271.175781 123.554688 C 272.636719 123.617188 274.023438 123.699219 275.339844 123.796875 C 272.371094 122.089844 269.058594 120.949219 265.667969 120.570312 C 264.855469 120.480469 264.042969 120.4375 263.246094 120.4375 "/><path style=" stroke:none;fill-rule:nonzero;fill:#bcab8f;fill-opacity:1;" d="M 261.21875 124.3125 C 253.800781 124.964844 247.535156 129.574219 247.359375 137.59375 C 247.34375 138.46875 247.402344 139.367188 247.535156 140.273438 C 248.132812 144.304688 250.1875 148.523438 253.128906 152.003906 C 254.132812 153.195312 255.246094 154.300781 256.433594 155.28125 C 255.550781 153.246094 254.886719 151.066406 254.386719 148.914062 C 251.1875 145.679688 248.980469 141.539062 248.675781 137.65625 C 248.179688 131.324219 252.429688 127.007812 258.085938 125.433594 C 258.96875 125 260.007812 124.617188 261.21875 124.3125 "/><path style=" stroke:none;fill-rule:nonzero;fill:#c1bcab;fill-opacity:1;" d="M 258.085938 125.433594 C 252.429688 127.007812 248.179688 131.324219 248.675781 137.65625 C 248.980469 141.539062 251.1875 145.679688 254.386719 148.914062 C 254.332031 148.679688 254.28125 148.441406 254.230469 148.207031 C 252.414062 146.65625 251.199219 144.300781 251.046875 142.222656 C 250.472656 141.558594 250.15625 140.652344 250.242188 139.664062 C 250.378906 138.085938 251.496094 136.800781 252.910156 136.453125 C 252.890625 135.40625 252.910156 134.792969 252.910156 134.792969 C 252.941406 133.339844 252.328125 128.257812 258.085938 125.433594 "/><path style=" stroke:none;fill-rule:nonzero;fill:#20612f;fill-opacity:1;" d="M 251.046875 142.222656 C 251.199219 144.300781 252.414062 146.65625 254.230469 148.207031 C 254.074219 147.480469 253.933594 146.753906 253.808594 146.042969 C 253.140625 145.191406 252.628906 144.167969 252.324219 143.113281 C 251.828125 142.929688 251.390625 142.621094 251.046875 142.222656 "/><path style=" stroke:none;fill-rule:nonzero;fill:#2b923e;fill-opacity:1;" d="M 252.324219 143.113281 C 252.628906 144.167969 253.140625 145.191406 253.808594 146.042969 C 253.648438 145.105469 253.515625 144.1875 253.40625 143.308594 C 253.355469 143.308594 253.304688 143.304688 253.253906 143.304688 C 252.929688 143.285156 252.617188 143.222656 252.324219 143.113281 "/><path style=" stroke:none;fill-rule:nonzero;fill:#c4c2c1;fill-opacity:1;" d="M 252.910156 136.453125 C 251.496094 136.800781 250.378906 138.085938 250.242188 139.664062 C 250.15625 140.652344 250.472656 141.558594 251.046875 142.222656 C 251.390625 142.621094 251.828125 142.929688 252.324219 143.113281 C 252.617188 143.222656 252.929688 143.285156 253.253906 143.304688 C 253.304688 143.304688 253.355469 143.308594 253.40625 143.308594 C 253.046875 140.449219 252.9375 137.980469 252.910156 136.453125 "/><path style=" stroke:none;fill-rule:nonzero;fill:#2a2726;fill-opacity:1;" d="M 303.441406 119.96875 C 288.21875 113.628906 264.710938 110.933594 250.8125 114.988281 C 250.8125 114.988281 248.664062 115.640625 246.46875 117.902344 C 244.804688 119.308594 240.984375 122.230469 237.953125 122.28125 C 233.785156 122.355469 229.214844 119.515625 227.0625 117.625 C 226.679688 117.148438 226.28125 116.726562 225.890625 116.347656 C 225.839844 116.257812 225.8125 116.179688 225.8125 116.121094 L 225.839844 116.296875 C 223.597656 114.171875 221.472656 113.609375 221.472656 113.609375 C 207.441406 110.039062 184.046875 113.546875 169.050781 120.40625 C 159.402344 124.824219 164.195312 140.554688 164.195312 140.554688 C 166.078125 149.335938 167.171875 157.136719 176.609375 165.121094 C 188.0625 174.808594 206.445312 170.53125 215.972656 166.089844 C 225.816406 161.5 230.175781 151.949219 231.328125 142.683594 C 231.730469 139.191406 232.890625 135.066406 236.78125 135.15625 C 239.355469 135.214844 240.78125 137.871094 241.3125 141.816406 C 242.355469 151.621094 246.8125 162.441406 258.132812 167.25 C 267.804688 171.359375 286.328125 174.996094 297.441406 164.914062 C 306.59375 156.609375 307.417969 148.777344 308.992188 139.9375 C 308.992188 139.9375 313.238281 124.046875 303.441406 119.96875 Z M 214.28125 159.746094 C 203.617188 167.558594 187.8125 166.320312 181.316406 159.84375 C 174.820312 153.371094 170.390625 145.640625 170.796875 129.816406 C 170.796875 129.816406 169.523438 121.816406 202.5 119.355469 C 224.507812 117.714844 223.351562 128.109375 223.496094 130.320312 C 223.496094 130.320312 224.941406 151.9375 214.28125 159.746094 Z M 292.550781 159.804688 C 286.28125 166.5 270.53125 168.289062 259.605469 160.851562 C 248.675781 153.414062 249.375 131.761719 249.375 131.761719 C 249.4375 129.542969 247.921875 119.199219 269.976562 120.074219 C 303.015625 121.390625 302.023438 129.433594 302.023438 129.433594 C 302.976562 145.230469 298.816406 153.109375 292.550781 159.804688 "/><path style=" stroke:none;fill-rule:nonzero;fill:#3f3c3b;fill-opacity:1;" d="M 305.335938 118.859375 C 289.6875 112.628906 265.511719 109.996094 251.214844 113.996094 C 251.214844 113.996094 249 114.640625 246.746094 116.875 C 245.03125 118.257812 241.101562 121.132812 237.984375 121.191406 C 233.695312 121.261719 228.996094 118.472656 226.785156 116.613281 C 226.390625 116.144531 225.984375 115.726562 225.582031 115.355469 C 225.53125 115.265625 225.5 115.191406 225.5 115.132812 L 225.527344 115.304688 C 223.222656 113.214844 221.042969 112.660156 221.042969 112.660156 C 206.613281 109.15625 182.542969 112.628906 167.117188 119.394531 C 157.191406 123.75 162.113281 139.234375 162.113281 139.234375 C 164.039062 147.882812 165.160156 155.5625 174.855469 163.414062 C 186.632812 172.949219 205.542969 168.722656 215.339844 164.339844 C 225.46875 159.8125 229.019531 149.0625 230.214844 139.9375 C 231.246094 137.113281 233.441406 132.964844 237.441406 133.050781 C 240.089844 133.105469 241.652344 135.777344 242.507812 138.066406 C 243.574219 147.722656 247.0625 160.722656 258.703125 165.449219 C 268.648438 169.488281 287.691406 173.054688 299.128906 163.121094 C 308.550781 154.941406 309.40625 147.222656 311.03125 138.515625 C 311.03125 138.515625 315.410156 122.871094 305.335938 118.859375 Z M 213.605469 158.097656 C 202.632812 165.796875 186.378906 164.585938 179.703125 158.21875 C 173.027344 151.847656 168.476562 144.238281 168.90625 128.660156 C 168.90625 128.660156 167.605469 120.78125 201.519531 118.335938 C 224.15625 116.703125 222.960938 126.9375 223.101562 129.117188 C 223.101562 129.117188 224.578125 150.398438 213.605469 158.097656 Z M 294.105469 158.09375 C 287.652344 164.691406 271.453125 166.464844 260.21875 159.148438 C 248.988281 151.832031 249.722656 130.515625 249.722656 130.515625 C 249.785156 128.332031 248.238281 118.140625 270.917969 118.992188 C 304.898438 120.261719 303.875 128.183594 303.875 128.183594 C 304.839844 143.734375 300.554688 151.496094 294.105469 158.09375 "/><path style=" stroke:none;fill-rule:nonzero;fill:#4f4d4c;fill-opacity:1;" d="M 225.839844 116.296875 C 225.839844 116.296875 229.195312 126.921875 237.789062 126.304688 C 246.382812 125.691406 248.296875 115.433594 248.296875 115.433594 C 248.296875 115.433594 243.800781 121.320312 237.464844 121.199219 C 231.136719 121.078125 225.839844 116.296875 225.839844 116.296875 "/></g></svg>