<svg xmlns="http://www.w3.org/2000/svg" xmlns:xlink="http://www.w3.org/1999/xlink" width="626" zoomAndPan="magnify" viewBox="0 0 469.5 456.749982" height="609" preserveAspectRatio="xMidYMid meet" version="1.2"><defs><clipPath id="387ad42c2d"><path d="M 0 0.117188 L 469 0.117188 L 469 455.898438 L 0 455.898438 Z M 0 0.117188 "/></clipPath><clipPath id="252f989224"><path d="M 56.9375 0.117188 L 411.566406 0.117188 C 443.011719 0.117188 468.503906 25.609375 468.503906 57.058594 L 468.503906 398.960938 C 468.503906 430.40625 443.011719 455.898438 411.566406 455.898438 L 56.9375 455.898438 C 25.492188 455.898438 0 430.40625 0 398.960938 L 0 57.058594 C 0 25.609375 25.492188 0.117188 56.9375 0.117188 Z M 56.9375 0.117188 "/></clipPath><clipPath id="6dea48ffb0"><path d="M 321.808594 129 L 374.90625 129 L 374.90625 186.5 L 321.808594 186.5 Z M 321.808594 129 "/></clipPath><clipPath id="65bdb3e9c4"><path d="M 123.667969 106.226562 L 348.113281 106.226562 L 348.113281 391.746094 L 123.667969 391.746094 Z M 123.667969 106.226562 "/></clipPath><clipPath id="f50689b07b"><path d="M 234.011719 328.597656 L 294.476562 328.597656 L 294.476562 391.746094 L 234.011719 391.746094 Z M 234.011719 328.597656 "/></clipPath><clipPath id="b1de260263"><path d="M 148.605469 210.066406 L 306.09375 210.066406 L 306.09375 282 L 148.605469 282 Z M 148.605469 210.066406 "/></clipPath><clipPath id="9b56f7a62e"><path d="M 305.96875 210.074219 C 305.070312 231.957031 285.496094 271.1875 238.230469 277.574219 C 233.980469 278.148438 229.859375 278.417969 225.859375 278.417969 C 179.523438 278.417969 150.210938 242.136719 148.726562 221.476562 C 148.703125 222.035156 148.691406 222.601562 148.6875 223.179688 C 148.527344 243.453125 178.183594 281.898438 225.882812 281.898438 C 229.882812 281.898438 234.007812 281.625 238.25 281.054688 C 288.140625 274.3125 307.179688 230.972656 305.96875 210.074219 "/></clipPath></defs><g id="cfad4f35e2"><g clip-rule="nonzero" clip-path="url(#387ad42c2d)"><g clip-rule="nonzero" clip-path="url(#252f989224)"><path style=" stroke:none;fill-rule:nonzero;fill:#d455c3;fill-opacity:1;" d="M 0 0.117188 L 468.242188 0.117188 L 468.242188 455.898438 L 0 455.898438 Z M 0 0.117188 "/></g></g><path style=" stroke:none;fill-rule:nonzero;fill:#7ac9dd;fill-opacity:1;" d="M 228.738281 117.53125 C 229.230469 115.179688 230.617188 73.628906 215.636719 69.460938 C 199.917969 65.085938 217.339844 92.679688 224.789062 107.992188 C 226.558594 111.628906 227.761719 114.585938 227.8125 116.269531 L 228.738281 117.53125 "/><path style=" stroke:none;fill-rule:nonzero;fill:#7ac9dd;fill-opacity:1;" d="M 228.277344 116.898438 C 228.277344 116.898438 213.769531 74.792969 193.390625 75.5 C 180.121094 75.960938 218.519531 104.757812 228.277344 116.898438 "/><path style=" stroke:none;fill-rule:nonzero;fill:#a4445a;fill-opacity:1;" d="M 163.816406 136.046875 C 164.027344 134.628906 144.359375 125.425781 140.726562 118.996094 C 137.089844 112.5625 136.636719 90.464844 136.636719 90.464844 C 136.636719 90.464844 112.464844 101.691406 99.917969 132.929688 C 87.375 164.167969 106.277344 177.949219 139.050781 184.3125 C 139.050781 184.3125 159.710938 163.347656 163.816406 136.046875 "/><path style=" stroke:none;fill-rule:nonzero;fill:#783442;fill-opacity:1;" d="M 157.472656 132.074219 C 157.472656 132.074219 131.207031 142.386719 123.738281 180.761719 L 150.65625 185.859375 C 150.65625 185.859375 170.3125 169.800781 174.621094 140.417969 L 157.472656 132.074219 "/><path style=" stroke:none;fill-rule:nonzero;fill:#783442;fill-opacity:1;" d="M 149.25 126.539062 C 149.25 126.539062 133.671875 126.007812 119.859375 141.324219 C 106.046875 156.636719 104.859375 170.566406 104.859375 170.566406 C 104.859375 170.566406 94.804688 159.664062 95.792969 147.8125 C 95.792969 147.8125 104.125 119.265625 142.460938 120.992188 C 142.460938 120.992188 145.859375 124.480469 149.25 126.539062 "/><path style=" stroke:none;fill-rule:nonzero;fill:#783442;fill-opacity:1;" d="M 139.332031 115.199219 C 138.609375 114.488281 128.996094 105.160156 113.59375 109.21875 C 113.59375 109.21875 118.644531 103.226562 121.714844 101.121094 C 121.714844 101.121094 131.511719 95.957031 138.355469 109.398438 L 139.332031 115.199219 "/><path style=" stroke:none;fill-rule:nonzero;fill:#783442;fill-opacity:1;" d="M 137.070312 100.148438 C 137.070312 100.148438 136.164062 94.128906 127.777344 95.695312 C 127.777344 95.695312 131.339844 92.082031 136.996094 90.101562 C 136.996094 90.101562 137.441406 92.394531 137.070312 100.148438 "/><path style=" stroke:none;fill-rule:nonzero;fill:#d0d0ce;fill-opacity:1;" d="M 118.328125 103.945312 C 113.578125 107.128906 97.726562 129.375 95.839844 147.664062 C 95.902344 147.464844 96.035156 147.074219 96.25 146.527344 C 96.726562 142.410156 97.925781 137.890625 99.917969 132.929688 C 103.871094 123.085938 108.976562 115.230469 114.121094 109.085938 C 113.949219 109.128906 113.769531 109.171875 113.59375 109.21875 C 113.59375 109.21875 115.695312 106.730469 118.007812 104.394531 C 118.210938 104.101562 118.328125 103.945312 118.328125 103.945312 "/><path style=" stroke:none;fill-rule:nonzero;fill:#833847;fill-opacity:1;" d="M 115.292969 108.820312 C 114.90625 108.902344 114.515625 108.988281 114.121094 109.085938 C 108.976562 115.230469 103.871094 123.085938 99.917969 132.929688 C 97.925781 137.890625 96.726562 142.410156 96.25 146.527344 C 97.367188 143.679688 100.726562 136.597656 108.273438 130.601562 C 108.960938 121.699219 112.589844 113.683594 115.292969 108.820312 "/><path style=" stroke:none;fill-rule:nonzero;fill:#d0d0ce;fill-opacity:1;" d="M 95.730469 148.925781 C 95.398438 153.863281 96.144531 158.464844 98.480469 162.265625 C 98.738281 162.679688 99.003906 163.089844 99.273438 163.488281 C 97.6875 160.691406 96.648438 157.589844 96.226562 154.152344 C 95.875 152.460938 95.683594 150.707031 95.730469 148.925781 "/><path style=" stroke:none;fill-rule:nonzero;fill:#833847;fill-opacity:1;" d="M 96.226562 154.152344 C 96.648438 157.589844 97.6875 160.691406 99.273438 163.488281 C 100.167969 164.796875 101.148438 166.027344 102.203125 167.179688 C 100.105469 164.191406 97.347656 159.484375 96.226562 154.152344 "/><path style=" stroke:none;fill-rule:nonzero;fill:#833847;fill-opacity:1;" d="M 129.324219 181.820312 C 131.289062 182.332031 133.199219 182.757812 135.019531 183.117188 C 135.039062 183.046875 135.058594 182.980469 135.078125 182.910156 L 129.324219 181.820312 M 112.863281 150.449219 C 106.8125 159.890625 105.285156 167.589844 104.945312 169.875 C 110.390625 174.691406 117.191406 177.972656 123.851562 180.199219 C 125.023438 174.359375 126.636719 169.171875 128.519531 164.582031 C 121.007812 160.378906 116.019531 155.535156 112.863281 150.449219 "/><path style=" stroke:none;fill-rule:nonzero;fill:#5f2c35;fill-opacity:1;" d="M 128.519531 164.582031 C 126.636719 169.171875 125.023438 174.359375 123.851562 180.199219 C 125.695312 180.816406 127.53125 181.355469 129.324219 181.820312 L 135.078125 182.910156 C 136.359375 178.589844 137.769531 174.402344 139.328125 170.382812 C 139.429688 170.121094 139.53125 169.859375 139.632812 169.597656 C 135.429688 168.066406 131.742188 166.382812 128.519531 164.582031 "/><path style=" stroke:none;fill-rule:nonzero;fill:#5f2c35;fill-opacity:1;" d="M 108.273438 130.601562 C 100.726562 136.597656 97.367188 143.679688 96.25 146.527344 C 96.035156 147.074219 95.902344 147.464844 95.839844 147.664062 C 95.796875 148.085938 95.761719 148.507812 95.730469 148.925781 C 95.683594 150.707031 95.875 152.460938 96.226562 154.152344 C 97.347656 159.484375 100.105469 164.191406 102.203125 167.179688 C 103.070312 168.128906 103.988281 169.023438 104.945312 169.875 C 105.285156 167.589844 106.8125 159.890625 112.863281 150.449219 C 108.820312 143.941406 107.777344 137.039062 108.273438 130.601562 "/><path style=" stroke:none;fill-rule:nonzero;fill:#5f2c35;fill-opacity:1;" d="M 118.007812 104.394531 C 115.695312 106.730469 113.59375 109.21875 113.59375 109.21875 C 113.769531 109.171875 113.949219 109.128906 114.121094 109.085938 C 114.515625 108.988281 114.90625 108.902344 115.292969 108.820312 C 116.496094 106.652344 117.515625 105.113281 118.007812 104.394531 "/><path style=" stroke:none;fill-rule:nonzero;fill:#b76b7e;fill-opacity:1;" d="M 145.914062 126.78125 C 142.074219 127.300781 135.375 128.921875 128.214844 133.90625 C 130.308594 138.433594 133.675781 142.917969 138.757812 147.144531 C 145.0625 139.378906 151.511719 135.179688 154.949219 133.308594 C 151.785156 131.15625 148.660156 128.925781 145.914062 126.78125 M 127.132812 108.847656 C 125.871094 113.03125 125.09375 117.65625 125.367188 122.457031 C 129.421875 121.484375 134 120.917969 139.160156 120.917969 C 139.199219 120.917969 139.242188 120.917969 139.28125 120.917969 C 138.457031 120.027344 137.804688 119.199219 137.355469 118.449219 C 136.664062 117.285156 135.847656 115.320312 135.382812 112.195312 C 133.34375 110.945312 130.5625 109.613281 127.132812 108.847656 M 133.039062 95.808594 C 132.140625 97.289062 131.179688 99.011719 130.246094 100.9375 C 131.808594 101.574219 133.453125 102.664062 135.050781 104.441406 C 135.128906 102.382812 135.332031 100.066406 135.695312 97.464844 C 135.09375 96.808594 134.242188 96.1875 133.039062 95.808594 "/><path style=" stroke:none;fill-rule:nonzero;fill:#955e6b;fill-opacity:1;" d="M 154.949219 133.308594 C 151.511719 135.179688 145.0625 139.378906 138.757812 147.144531 C 141.304688 149.261719 144.269531 151.308594 147.734375 153.269531 C 151.480469 147.125 155.710938 141.675781 160.316406 136.867188 C 158.558594 135.726562 156.746094 134.53125 154.949219 133.308594 "/><path style=" stroke:none;fill-rule:nonzero;fill:#955e6b;fill-opacity:1;" d="M 139.160156 120.917969 C 134 120.917969 129.421875 121.484375 125.367188 122.457031 C 125.582031 126.214844 126.441406 130.074219 128.214844 133.90625 C 135.375 128.921875 142.074219 127.300781 145.914062 126.78125 C 143.238281 124.695312 140.925781 122.691406 139.28125 120.917969 C 139.242188 120.917969 139.199219 120.917969 139.160156 120.917969 "/><path style=" stroke:none;fill-rule:nonzero;fill:#955e6b;fill-opacity:1;" d="M 130.246094 100.9375 C 129.097656 103.300781 128 105.96875 127.132812 108.847656 C 130.5625 109.613281 133.34375 110.945312 135.382812 112.195312 C 135.078125 110.144531 134.921875 107.59375 135.050781 104.441406 C 133.453125 102.664062 131.808594 101.574219 130.246094 100.9375 "/><path style=" stroke:none;fill-rule:nonzero;fill:#955e6b;fill-opacity:1;" d="M 136.996094 90.101562 C 136.996094 90.101562 135.210938 92.234375 133.039062 95.808594 C 134.242188 96.1875 135.09375 96.808594 135.695312 97.464844 C 136.003906 95.226562 136.429688 92.78125 136.996094 90.101562 "/><path style=" stroke:none;fill-rule:nonzero;fill:#fdfefd;fill-opacity:1;" d="M 129.761719 115.34375 C 129.210938 115.792969 127.859375 120.792969 133.265625 127.34375 C 138.671875 133.890625 148.792969 139.511719 149.339844 139.058594 C 149.890625 138.605469 141.710938 131.375 136.300781 124.828125 C 130.894531 118.277344 130.308594 114.890625 129.761719 115.34375 "/><path style=" stroke:none;fill-rule:nonzero;fill:#a4445a;fill-opacity:1;" d="M 305.394531 141.835938 C 305.371094 140.320312 327.234375 133.449219 331.941406 127.230469 C 336.644531 121.011719 340.214844 97.953125 340.214844 97.953125 C 340.214844 97.953125 363.929688 113.089844 372.675781 147.523438 C 381.421875 181.960938 359.714844 193.730469 324.539062 195.796875 C 324.539062 195.796875 305.863281 170.96875 305.394531 141.835938 "/><path style=" stroke:none;fill-rule:nonzero;fill:#783442;fill-opacity:1;" d="M 312.585938 138.566406 C 312.585938 138.566406 338.617188 153.035156 341.054688 194.230469 L 324.539062 195.796875 C 324.539062 195.796875 293.863281 176.234375 293.476562 144.894531 L 312.585938 138.566406 "/><g clip-rule="nonzero" clip-path="url(#6dea48ffb0)"><path style=" stroke:none;fill-rule:nonzero;fill:#783442;fill-opacity:1;" d="M 321.964844 133.929688 C 321.964844 133.929688 338.335938 135.554688 350.636719 153.511719 C 362.941406 171.46875 362.234375 186.207031 362.234375 186.207031 C 362.234375 186.207031 374.28125 176.207031 374.90625 163.675781 C 374.90625 163.675781 370.191406 132.640625 329.84375 129.074219 C 329.84375 129.074219 325.796875 132.253906 321.964844 133.929688 "/></g><path style=" stroke:none;fill-rule:nonzero;fill:#783442;fill-opacity:1;" d="M 333.929688 123.457031 C 334.785156 122.8125 346.148438 114.398438 361.691406 120.804688 C 361.691406 120.804688 357.246094 113.828125 354.328125 111.195312 C 354.328125 111.195312 344.804688 104.417969 335.761719 117.519531 L 333.929688 123.457031 "/><path style=" stroke:none;fill-rule:nonzero;fill:#783442;fill-opacity:1;" d="M 338.40625 108.023438 C 338.40625 108.023438 340.195312 101.851562 348.75 104.667969 C 348.75 104.667969 345.53125 100.390625 339.890625 97.527344 C 339.890625 97.527344 339.101562 99.863281 338.40625 108.023438 "/><path style=" stroke:none;fill-rule:nonzero;fill:#d0d0ce;fill-opacity:1;" d="M 340.160156 194.3125 L 335.671875 194.738281 C 333.402344 195.050781 331.058594 195.300781 328.640625 195.503906 C 328.652344 195.566406 328.667969 195.625 328.679688 195.6875 C 331.519531 195.53125 335.589844 195.164062 340.160156 194.3125 M 356.214844 189.320312 C 351.808594 191.316406 346.707031 192.804688 341.03125 193.875 C 341.039062 193.964844 341.042969 194.050781 341.050781 194.144531 C 345.886719 193.1875 351.21875 191.683594 356.214844 189.320312 M 373.863281 169.335938 C 373.769531 169.644531 373.667969 169.949219 373.5625 170.25 C 372.410156 174.65625 370.335938 178.378906 367.453125 181.507812 C 368.386719 180.542969 369.261719 179.515625 370.066406 178.417969 C 371.980469 175.804688 373.199219 172.71875 373.863281 169.335938 M 357.480469 114.625 C 357.480469 114.625 357.578125 114.800781 357.75 115.140625 C 359.84375 117.90625 361.691406 120.804688 361.691406 120.804688 C 361.511719 120.730469 361.335938 120.660156 361.160156 120.589844 C 364.035156 125.140625 366.800781 130.417969 369.144531 136.449219 C 365.164062 125.6875 360.011719 116.859375 357.480469 114.625 "/><path style=" stroke:none;fill-rule:nonzero;fill:#833847;fill-opacity:1;" d="M 335.671875 194.738281 L 328.617188 195.40625 C 328.625 195.4375 328.632812 195.472656 328.640625 195.503906 C 331.058594 195.300781 333.402344 195.050781 335.671875 194.738281 M 373.5625 170.25 C 371.214844 176.882812 366.4375 182.1875 363.898438 184.671875 C 365.152344 183.703125 366.347656 182.652344 367.453125 181.507812 C 370.335938 178.378906 372.410156 174.65625 373.5625 170.25 M 356.675781 164.042969 C 352.664062 168.917969 346.769531 173.285156 338.320312 176.628906 C 339.667969 181.761719 340.632812 187.496094 341.03125 193.875 C 346.707031 192.804688 351.808594 191.316406 356.214844 189.320312 C 358.300781 188.328125 360.328125 187.191406 362.242188 185.878906 C 362.253906 184.125 362.023438 175.480469 356.675781 164.042969 M 359.972656 120.148438 C 362.117188 125.617188 364.792969 134.507812 364.261719 143.921875 C 371.03125 150.949219 373.625 158.484375 374.503906 161.859375 C 374.425781 153.601562 372.113281 144.484375 369.144531 136.449219 C 366.800781 130.417969 364.035156 125.140625 361.160156 120.589844 C 360.761719 120.433594 360.367188 120.289062 359.972656 120.148438 "/><path style=" stroke:none;fill-rule:nonzero;fill:#5f2c35;fill-opacity:1;" d="M 338.320312 176.628906 C 334.398438 178.179688 329.925781 179.511719 324.835938 180.566406 C 326.144531 185.175781 327.40625 190.113281 328.617188 195.40625 L 335.671875 194.738281 L 340.160156 194.3125 C 340.457031 194.257812 340.75 194.203125 341.050781 194.144531 C 341.042969 194.050781 341.039062 193.964844 341.03125 193.875 C 340.632812 187.496094 339.667969 181.761719 338.320312 176.628906 "/><path style=" stroke:none;fill-rule:nonzero;fill:#5f2c35;fill-opacity:1;" d="M 364.261719 143.921875 C 363.878906 150.722656 361.820312 157.796875 356.675781 164.042969 C 362.023438 175.480469 362.253906 184.125 362.242188 185.878906 C 362.804688 185.492188 363.359375 185.089844 363.898438 184.671875 C 366.4375 182.1875 371.214844 176.882812 373.5625 170.25 C 373.667969 169.949219 373.769531 169.644531 373.863281 169.335938 C 374.332031 166.96875 374.53125 164.457031 374.503906 161.859375 C 373.625 158.484375 371.03125 150.949219 364.261719 143.921875 "/><path style=" stroke:none;fill-rule:nonzero;fill:#5f2c35;fill-opacity:1;" d="M 357.75 115.140625 C 358.167969 115.960938 359.015625 117.714844 359.972656 120.148438 C 360.367188 120.289062 360.761719 120.433594 361.160156 120.589844 C 361.335938 120.660156 361.511719 120.730469 361.691406 120.804688 C 361.691406 120.804688 359.84375 117.90625 357.75 115.140625 "/><path style=" stroke:none;fill-rule:nonzero;fill:#b76b7e;fill-opacity:1;" d="M 326.261719 134.890625 C 322.957031 137.089844 319.347656 139.191406 316.078125 140.984375 C 319.792969 143.878906 325.84375 149.527344 331.082031 158.699219 C 337.554688 155.1875 342.066406 151.085938 345.101562 146.695312 C 338.082031 139.414062 330.746094 136.242188 326.261719 134.890625 M 349.210938 118.421875 C 344.789062 118.550781 341.121094 119.695312 338.480469 120.867188 C 337.554688 124.070312 336.429688 126.011719 335.542969 127.128906 C 334.9375 127.890625 334.195312 128.671875 333.347656 129.464844 C 339.894531 130.34375 345.433594 131.980469 350.101562 134.078125 C 350.933594 128.707031 350.390625 123.335938 349.210938 118.421875 M 343.710938 103.984375 C 342.152344 104.152344 341.023438 104.738281 340.21875 105.414062 C 340.230469 108.183594 340.121094 110.636719 339.917969 112.800781 C 342.171875 110.878906 344.363281 109.957031 346.328125 109.613281 C 345.464844 107.515625 344.5625 105.621094 343.710938 103.984375 "/><path style=" stroke:none;fill-rule:nonzero;fill:#955e6b;fill-opacity:1;" d="M 316.078125 140.984375 C 313.808594 142.230469 311.703125 143.324219 309.980469 144.195312 C 313.300781 149.699219 316.394531 156.109375 319.285156 163.667969 C 323.796875 162.203125 327.707031 160.53125 331.082031 158.699219 C 325.84375 149.527344 319.792969 143.878906 316.078125 140.984375 "/><path style=" stroke:none;fill-rule:nonzero;fill:#955e6b;fill-opacity:1;" d="M 333.347656 129.464844 C 331.421875 131.257812 328.945312 133.105469 326.261719 134.890625 C 330.746094 136.242188 338.082031 139.414062 345.101562 146.695312 C 347.894531 142.652344 349.4375 138.367188 350.101562 134.078125 C 345.433594 131.980469 339.894531 130.34375 333.347656 129.464844 "/><path style=" stroke:none;fill-rule:nonzero;fill:#955e6b;fill-opacity:1;" d="M 346.328125 109.613281 C 344.363281 109.957031 342.171875 110.878906 339.917969 112.800781 C 339.605469 116.117188 339.085938 118.761719 338.480469 120.867188 C 341.121094 119.695312 344.789062 118.550781 349.210938 118.421875 C 348.449219 115.253906 347.421875 112.269531 346.328125 109.613281 "/><path style=" stroke:none;fill-rule:nonzero;fill:#955e6b;fill-opacity:1;" d="M 339.890625 97.527344 C 340.105469 100.40625 340.210938 103.03125 340.21875 105.414062 C 341.023438 104.738281 342.152344 104.152344 343.710938 103.984375 C 341.636719 99.976562 339.890625 97.527344 339.890625 97.527344 "/><path style=" stroke:none;fill-rule:nonzero;fill:#fdfefd;fill-opacity:1;" d="M 343.921875 124.945312 C 344.429688 125.496094 345.148438 130.914062 338.574219 137.011719 C 332 143.105469 320.625 147.5625 320.113281 147.011719 C 319.605469 146.460938 329.171875 140.046875 335.75 133.953125 C 342.324219 127.859375 343.410156 124.394531 343.921875 124.945312 "/><path style=" stroke:none;fill-rule:nonzero;fill:#6f8ace;fill-opacity:1;" d="M 146.78125 340.101562 C 147.085938 341.449219 165.601562 361.484375 173.359375 363.328125 C 180.433594 365.011719 203.789062 331.5 203.789062 331.5 C 203.789062 331.5 139.308594 306.910156 146.78125 340.101562 "/><path style=" stroke:none;fill-rule:nonzero;fill:#4e67b7;fill-opacity:1;" d="M 143.503906 337.484375 C 143.804688 338.832031 162.320312 358.867188 170.078125 360.710938 C 177.152344 362.394531 200.507812 328.882812 200.507812 328.882812 C 200.507812 328.882812 136.027344 304.292969 143.503906 337.484375 "/><path style=" stroke:none;fill-rule:nonzero;fill:#6f8ace;fill-opacity:1;" d="M 255.59375 348.792969 C 255.59375 348.792969 288.71875 367.3125 294.941406 367.082031 C 299.328125 366.921875 333.882812 327.707031 333.882812 327.707031 C 333.882812 327.707031 238.066406 315.613281 255.59375 348.792969 "/><path style=" stroke:none;fill-rule:nonzero;fill:#4e67b7;fill-opacity:1;" d="M 252.3125 347.484375 C 252.3125 347.484375 285.4375 366.003906 291.664062 365.777344 C 296.050781 365.617188 330.601562 326.402344 330.601562 326.402344 C 330.601562 326.402344 234.789062 314.308594 252.3125 347.484375 "/><g clip-rule="nonzero" clip-path="url(#65bdb3e9c4)"><path style=" stroke:none;fill-rule:nonzero;fill:#7ac9dd;fill-opacity:1;" d="M 130.4375 368.304688 C 129.214844 363.742188 111.902344 241.199219 139.328125 170.382812 C 166.75 99.570312 248.015625 96.828125 283.4375 117.75 C 318.859375 138.667969 337.273438 181.894531 348.03125 369.300781 C 348.03125 369.300781 346.75 388.960938 294.238281 332.679688 C 294.238281 332.679688 272 365.480469 234.027344 391.746094 C 234.027344 391.746094 197.285156 365.585938 164.453125 322.382812 C 164.453125 322.382812 135.710938 387.957031 130.4375 368.304688 "/></g><path style=" stroke:none;fill-rule:nonzero;fill:#8bd1e2;fill-opacity:1;" d="M 224.574219 199.246094 C 236.613281 199.246094 246.84375 195.078125 260.929688 185.945312 C 268.261719 181.191406 274.824219 179.140625 280.546875 179.140625 C 292.65625 179.140625 301.003906 188.3125 304.859375 200.472656 C 305.03125 201.019531 305.183594 201.597656 305.316406 202.199219 C 305.867188 204.414062 306.09375 207.082031 305.96875 210.074219 C 307.179688 230.972656 288.140625 274.3125 238.25 281.054688 C 234.007812 281.625 229.882812 281.898438 225.882812 281.898438 C 178.183594 281.898438 148.527344 243.453125 148.6875 223.179688 C 148.691406 222.601562 148.703125 222.035156 148.726562 221.476562 C 148.679688 220.871094 148.664062 220.277344 148.667969 219.699219 C 148.667969 219.394531 148.671875 219.089844 148.679688 218.789062 C 148.617188 217.890625 148.609375 217.023438 148.644531 216.1875 C 149.503906 197.605469 159.75 190.476562 171.753906 189.359375 C 172.875 189.253906 173.96875 189.207031 175.046875 189.207031 C 184.949219 189.207031 193.242188 193.324219 204.578125 196.253906 C 212.15625 198.214844 218.589844 199.246094 224.574219 199.246094 M 158.753906 177.996094 C 157.957031 177.996094 157.238281 177.570312 156.925781 176.824219 C 156.484375 175.738281 157.058594 174.390625 158.226562 173.804688 C 158.582031 173.628906 158.953125 173.542969 159.308594 173.542969 C 160.109375 173.542969 160.828125 173.96875 161.136719 174.71875 C 161.585938 175.804688 161.007812 177.15625 159.839844 177.734375 C 159.484375 177.910156 159.109375 177.996094 158.753906 177.996094 M 168.511719 172.660156 C 168.378906 172.660156 168.257812 172.636719 168.148438 172.582031 C 167.734375 172.390625 167.707031 171.878906 168.085938 171.4375 C 168.359375 171.113281 168.78125 170.921875 169.148438 170.921875 C 169.277344 170.921875 169.402344 170.949219 169.507812 171 C 169.917969 171.199219 169.945312 171.714844 169.570312 172.148438 C 169.292969 172.472656 168.875 172.660156 168.511719 172.660156 M 162.929688 170.753906 C 162.289062 170.753906 161.691406 170.375 161.425781 169.726562 C 161.054688 168.824219 161.457031 167.738281 162.332031 167.304688 C 162.574219 167.183594 162.832031 167.125 163.082031 167.125 C 163.71875 167.125 164.3125 167.503906 164.585938 168.152344 C 164.957031 169.054688 164.546875 170.140625 163.683594 170.578125 C 163.433594 170.699219 163.179688 170.753906 162.929688 170.753906 M 290.289062 171.367188 C 289.882812 171.367188 289.464844 171.265625 289.058594 171.050781 C 287.738281 170.359375 287.078125 168.738281 287.585938 167.4375 C 287.9375 166.542969 288.753906 166.03125 289.660156 166.03125 C 290.0625 166.03125 290.480469 166.132812 290.886719 166.34375 C 292.210938 167.042969 292.867188 168.65625 292.359375 169.960938 C 292.007812 170.855469 291.191406 171.367188 290.289062 171.367188 M 279.230469 164.972656 C 278.816406 164.972656 278.34375 164.746094 278.035156 164.359375 C 277.609375 163.835938 277.636719 163.21875 278.097656 162.980469 C 278.21875 162.921875 278.363281 162.890625 278.507812 162.890625 C 278.925781 162.890625 279.402344 163.121094 279.714844 163.507812 C 280.144531 164.035156 280.109375 164.644531 279.644531 164.878906 C 279.519531 164.941406 279.378906 164.972656 279.230469 164.972656 M 167.796875 163.019531 C 167.71875 163.019531 167.644531 163.007812 167.582031 162.976562 C 167.332031 162.859375 167.316406 162.550781 167.542969 162.292969 C 167.707031 162.101562 167.957031 161.984375 168.175781 161.984375 C 168.253906 161.984375 168.328125 162 168.394531 162.03125 C 168.636719 162.148438 168.652344 162.457031 168.425781 162.71875 C 168.261719 162.910156 168.015625 163.019531 167.796875 163.019531 M 160.902344 163.996094 C 160.414062 163.996094 159.945312 163.625 159.808594 163.074219 C 159.644531 162.441406 159.976562 161.820312 160.542969 161.6875 C 160.617188 161.667969 160.695312 161.660156 160.769531 161.660156 C 161.261719 161.660156 161.722656 162.03125 161.863281 162.582031 C 162.019531 163.214844 161.691406 163.832031 161.121094 163.972656 C 161.046875 163.988281 160.972656 163.996094 160.902344 163.996094 M 285.558594 162.6875 C 285.273438 162.6875 284.984375 162.621094 284.703125 162.472656 C 283.726562 161.953125 283.261719 160.648438 283.679688 159.566406 C 283.988281 158.789062 284.664062 158.335938 285.386719 158.335938 C 285.667969 158.335938 285.957031 158.40625 286.234375 158.550781 C 287.222656 159.070312 287.683594 160.371094 287.261719 161.453125 C 286.960938 162.234375 286.285156 162.6875 285.558594 162.6875 M 297.855469 164.09375 C 297.367188 164.09375 296.863281 163.972656 296.378906 163.71875 C 294.753906 162.855469 293.964844 160.816406 294.609375 159.15625 C 295.0625 157.992188 296.101562 157.320312 297.246094 157.320312 C 297.730469 157.320312 298.238281 157.445312 298.722656 157.699219 C 300.34375 158.554688 301.136719 160.597656 300.492188 162.257812 C 300.039062 163.425781 298.996094 164.09375 297.855469 164.09375 M 280.039062 153.417969 C 279.792969 153.417969 279.511719 153.285156 279.328125 153.054688 C 279.074219 152.742188 279.089844 152.375 279.367188 152.234375 C 279.4375 152.195312 279.523438 152.179688 279.613281 152.179688 C 279.859375 152.179688 280.144531 152.316406 280.332031 152.546875 C 280.585938 152.859375 280.566406 153.226562 280.285156 153.363281 C 280.210938 153.402344 280.128906 153.417969 280.039062 153.417969 M 287.855469 154.589844 C 287.773438 154.589844 287.691406 154.578125 287.609375 154.558594 C 286.964844 154.390625 286.585938 153.652344 286.765625 152.894531 C 286.925781 152.234375 287.449219 151.789062 288.003906 151.789062 C 288.089844 151.789062 288.175781 151.796875 288.261719 151.820312 C 288.90625 151.980469 289.28125 152.722656 289.097656 153.480469 C 288.941406 154.140625 288.410156 154.589844 287.855469 154.589844 M 231.894531 113.121094 C 200.71875 113.121094 169.785156 133.085938 151.488281 166.515625 C 151.863281 166.351562 152.246094 166.277344 152.621094 166.277344 C 153.628906 166.277344 154.546875 166.835938 154.945312 167.808594 C 155.515625 169.195312 154.816406 170.894531 153.382812 171.613281 C 152.957031 171.828125 152.511719 171.929688 152.082031 171.929688 C 151.074219 171.929688 150.152344 171.371094 149.75 170.394531 C 149.703125 170.28125 149.667969 170.167969 149.636719 170.050781 C 124.105469 221.371094 133.292969 309.164062 134.144531 312.535156 C 134.835938 315.265625 135.804688 316.367188 137.039062 316.367188 C 139.605469 316.367188 143.324219 311.628906 148.101562 306.890625 C 152.882812 302.152344 158.722656 297.414062 165.535156 297.414062 C 166.425781 297.414062 167.335938 297.496094 168.261719 297.667969 C 186.722656 301.125 203.996094 325.085938 223.988281 327.289062 C 224.878906 327.386719 225.761719 327.433594 226.640625 327.433594 C 235.925781 327.433594 244.59375 322.214844 253.507812 316.996094 C 262.417969 311.777344 271.574219 306.558594 281.824219 306.558594 C 282.140625 306.558594 282.457031 306.5625 282.773438 306.574219 C 302.246094 307.191406 311.820312 326.40625 322.535156 326.40625 C 323.890625 326.40625 325.261719 326.097656 326.675781 325.410156 C 339.265625 319.253906 332.464844 172.179688 278.28125 129.660156 C 263.859375 118.347656 247.84375 113.121094 231.894531 113.121094 "/><path style=" stroke:none;fill-rule:nonzero;fill:#6f8ace;fill-opacity:1;" d="M 131.753906 370.925781 C 131.753906 370.925781 137.988281 376.15625 159.199219 315.183594 L 164.453125 322.382812 C 164.453125 322.382812 139.632812 380.414062 131.753906 370.925781 "/><g clip-rule="nonzero" clip-path="url(#f50689b07b)"><path style=" stroke:none;fill-rule:nonzero;fill:#6f8ace;fill-opacity:1;" d="M 234.027344 391.746094 C 234.027344 391.746094 270.03125 362.859375 289.972656 328.753906 L 294.238281 332.679688 C 294.238281 332.679688 274.949219 364.164062 234.027344 391.746094 "/></g><path style=" stroke:none;fill-rule:nonzero;fill:#cee9ec;fill-opacity:1;" d="M 289.660156 166.03125 C 288.753906 166.03125 287.9375 166.542969 287.585938 167.4375 C 287.078125 168.738281 287.738281 170.359375 289.058594 171.050781 C 289.464844 171.265625 289.882812 171.367188 290.289062 171.367188 C 291.191406 171.367188 292.007812 170.855469 292.359375 169.960938 C 292.867188 168.65625 292.210938 167.042969 290.886719 166.34375 C 290.480469 166.132812 290.0625 166.03125 289.660156 166.03125 "/><path style=" stroke:none;fill-rule:nonzero;fill:#cee9ec;fill-opacity:1;" d="M 285.386719 158.335938 C 284.664062 158.335938 283.988281 158.789062 283.679688 159.566406 C 283.261719 160.648438 283.726562 161.953125 284.703125 162.472656 C 284.984375 162.621094 285.273438 162.6875 285.558594 162.6875 C 286.285156 162.6875 286.960938 162.234375 287.261719 161.453125 C 287.683594 160.371094 287.222656 159.070312 286.234375 158.550781 C 285.957031 158.40625 285.667969 158.335938 285.386719 158.335938 "/><path style=" stroke:none;fill-rule:nonzero;fill:#cee9ec;fill-opacity:1;" d="M 297.246094 157.320312 C 296.101562 157.320312 295.0625 157.992188 294.609375 159.15625 C 293.964844 160.816406 294.753906 162.855469 296.378906 163.71875 C 296.863281 163.972656 297.367188 164.09375 297.855469 164.09375 C 298.996094 164.09375 300.039062 163.425781 300.492188 162.257812 C 301.136719 160.597656 300.34375 158.554688 298.722656 157.699219 C 298.238281 157.445312 297.730469 157.320312 297.246094 157.320312 "/><path style=" stroke:none;fill-rule:nonzero;fill:#cee9ec;fill-opacity:1;" d="M 288.003906 151.789062 C 287.449219 151.789062 286.925781 152.234375 286.765625 152.894531 C 286.585938 153.652344 286.964844 154.390625 287.609375 154.558594 C 287.691406 154.578125 287.773438 154.589844 287.855469 154.589844 C 288.410156 154.589844 288.941406 154.140625 289.097656 153.480469 C 289.28125 152.722656 288.90625 151.980469 288.261719 151.820312 C 288.175781 151.796875 288.089844 151.789062 288.003906 151.789062 "/><path style=" stroke:none;fill-rule:nonzero;fill:#cee9ec;fill-opacity:1;" d="M 278.507812 162.890625 C 278.363281 162.890625 278.21875 162.921875 278.097656 162.980469 C 277.636719 163.21875 277.609375 163.835938 278.035156 164.359375 C 278.34375 164.746094 278.816406 164.972656 279.230469 164.972656 C 279.378906 164.972656 279.519531 164.941406 279.644531 164.878906 C 280.109375 164.644531 280.144531 164.035156 279.714844 163.507812 C 279.402344 163.121094 278.925781 162.890625 278.507812 162.890625 "/><path style=" stroke:none;fill-rule:nonzero;fill:#cee9ec;fill-opacity:1;" d="M 279.613281 152.179688 C 279.523438 152.179688 279.4375 152.195312 279.367188 152.234375 C 279.089844 152.375 279.074219 152.742188 279.328125 153.054688 C 279.511719 153.285156 279.792969 153.417969 280.039062 153.417969 C 280.128906 153.417969 280.210938 153.402344 280.285156 153.363281 C 280.566406 153.226562 280.585938 152.859375 280.332031 152.546875 C 280.144531 152.316406 279.859375 152.179688 279.613281 152.179688 "/><path style=" stroke:none;fill-rule:nonzero;fill:#cee9ec;fill-opacity:1;" d="M 159.308594 173.542969 C 158.953125 173.542969 158.582031 173.628906 158.226562 173.804688 C 157.058594 174.390625 156.484375 175.738281 156.925781 176.824219 C 157.238281 177.570312 157.957031 177.996094 158.753906 177.996094 C 159.109375 177.996094 159.484375 177.910156 159.839844 177.734375 C 161.007812 177.15625 161.585938 175.804688 161.136719 174.71875 C 160.828125 173.96875 160.109375 173.542969 159.308594 173.542969 "/><path style=" stroke:none;fill-rule:nonzero;fill:#cee9ec;fill-opacity:1;" d="M 163.082031 167.125 C 162.832031 167.125 162.574219 167.183594 162.332031 167.304688 C 161.457031 167.738281 161.054688 168.824219 161.425781 169.726562 C 161.691406 170.375 162.289062 170.753906 162.929688 170.753906 C 163.179688 170.753906 163.433594 170.699219 163.683594 170.578125 C 164.546875 170.140625 164.957031 169.054688 164.585938 168.152344 C 164.3125 167.503906 163.71875 167.125 163.082031 167.125 "/><path style=" stroke:none;fill-rule:nonzero;fill:#c7e6eb;fill-opacity:1;" d="M 151.488281 166.515625 C 151.429688 166.539062 151.375 166.5625 151.320312 166.589844 C 150 167.246094 149.300781 168.738281 149.636719 170.050781 C 150.179688 168.964844 150.734375 167.898438 151.304688 166.84375 C 151.367188 166.730469 151.425781 166.625 151.488281 166.515625 "/><path style=" stroke:none;fill-rule:nonzero;fill:#cee9ec;fill-opacity:1;" d="M 152.621094 166.277344 C 152.246094 166.277344 151.863281 166.351562 151.488281 166.515625 C 151.425781 166.625 151.367188 166.730469 151.304688 166.84375 C 150.734375 167.898438 150.179688 168.964844 149.636719 170.050781 C 149.667969 170.167969 149.703125 170.28125 149.75 170.394531 C 150.152344 171.371094 151.074219 171.929688 152.082031 171.929688 C 152.511719 171.929688 152.957031 171.828125 153.382812 171.613281 C 154.816406 170.894531 155.515625 169.195312 154.945312 167.808594 C 154.546875 166.835938 153.628906 166.277344 152.621094 166.277344 "/><path style=" stroke:none;fill-rule:nonzero;fill:#cee9ec;fill-opacity:1;" d="M 160.769531 161.660156 C 160.695312 161.660156 160.617188 161.667969 160.542969 161.6875 C 159.976562 161.820312 159.644531 162.441406 159.808594 163.074219 C 159.945312 163.625 160.414062 163.996094 160.902344 163.996094 C 160.972656 163.996094 161.046875 163.988281 161.121094 163.972656 C 161.691406 163.832031 162.019531 163.214844 161.863281 162.582031 C 161.722656 162.03125 161.261719 161.660156 160.769531 161.660156 "/><path style=" stroke:none;fill-rule:nonzero;fill:#cee9ec;fill-opacity:1;" d="M 169.148438 170.921875 C 168.78125 170.921875 168.359375 171.113281 168.085938 171.4375 C 167.707031 171.878906 167.734375 172.390625 168.148438 172.582031 C 168.257812 172.636719 168.378906 172.660156 168.511719 172.660156 C 168.875 172.660156 169.292969 172.472656 169.570312 172.148438 C 169.945312 171.714844 169.917969 171.199219 169.507812 171 C 169.402344 170.949219 169.277344 170.921875 169.148438 170.921875 "/><path style=" stroke:none;fill-rule:nonzero;fill:#cee9ec;fill-opacity:1;" d="M 168.175781 161.984375 C 167.957031 161.984375 167.707031 162.101562 167.542969 162.292969 C 167.316406 162.550781 167.332031 162.859375 167.582031 162.976562 C 167.644531 163.007812 167.71875 163.019531 167.796875 163.019531 C 168.015625 163.019531 168.261719 162.910156 168.425781 162.71875 C 168.652344 162.457031 168.636719 162.148438 168.394531 162.03125 C 168.328125 162 168.253906 161.984375 168.175781 161.984375 "/><path style=" stroke:none;fill-rule:nonzero;fill:#4e67b7;fill-opacity:1;" d="M 264.242188 145.847656 C 269.332031 156.972656 264.824219 171.726562 253.320312 175.011719 C 241.816406 178.296875 225.628906 171.40625 222.035156 158.820312 C 218.441406 146.234375 221.871094 132.941406 233.375 129.65625 C 244.878906 126.375 258.800781 133.953125 264.242188 145.847656 "/><path style=" stroke:none;fill-rule:nonzero;fill:#f9d406;fill-opacity:1;" d="M 261.433594 145.230469 C 265.898438 154.972656 261.925781 167.898438 251.808594 170.785156 C 241.695312 173.671875 227.164062 167.804688 224.019531 156.78125 C 220.871094 145.765625 224.207031 133.96875 234.320312 131.082031 C 244.4375 128.191406 256.664062 134.816406 261.433594 145.230469 "/><path style=" stroke:none;fill-rule:nonzero;fill:#efee0e;fill-opacity:1;" d="M 258.957031 145.03125 C 262.160156 153.304688 257.597656 166.660156 248.433594 168.578125 C 239.269531 170.496094 227.28125 169.042969 225.070312 154.503906 C 223.644531 145.144531 226.894531 133.96875 236.058594 132.050781 C 245.226562 130.132812 255.53125 136.1875 258.957031 145.03125 "/><path style=" stroke:none;fill-rule:nonzero;fill:#f3f243;fill-opacity:1;" d="M 251.902344 141.164062 C 253.574219 144.0625 249.375 149.445312 242.738281 150.835938 C 236.105469 152.222656 227.710938 152.539062 227.199219 147.199219 C 226.863281 143.761719 230.773438 135.171875 237.410156 133.78125 C 244.046875 132.394531 250.113281 138.066406 251.902344 141.164062 "/><path style=" stroke:none;fill-rule:nonzero;fill:#4799b7;fill-opacity:1;" d="M 232.039062 142.9375 C 238.0625 140.957031 244.597656 144.363281 246.625 150.546875 C 248.652344 156.726562 245.410156 163.339844 239.382812 165.316406 C 233.351562 167.296875 226.824219 163.886719 224.792969 157.707031 C 222.765625 151.527344 226.011719 144.914062 232.039062 142.9375 "/><path style=" stroke:none;fill-rule:nonzero;fill:#55c3f1;fill-opacity:1;" d="M 231.988281 144.816406 C 237.28125 143.082031 242.960938 145.9375 244.6875 151.195312 C 246.414062 156.449219 243.519531 162.117188 238.234375 163.851562 C 232.945312 165.585938 227.261719 162.734375 225.539062 157.476562 C 223.8125 152.222656 226.703125 146.554688 231.988281 144.816406 "/><path style=" stroke:none;fill-rule:nonzero;fill:#66cef5;fill-opacity:1;" d="M 243.601562 157.238281 C 243.601562 160.183594 239.804688 162.574219 235.121094 162.574219 C 230.433594 162.574219 226.636719 160.183594 226.636719 157.238281 C 226.636719 154.289062 230.433594 151.902344 235.121094 151.902344 C 239.804688 151.902344 243.601562 154.289062 243.601562 157.238281 "/><path style=" stroke:none;fill-rule:nonzero;fill:#2a5c76;fill-opacity:1;" d="M 232.796875 147.273438 C 236.089844 146.191406 239.632812 147.972656 240.707031 151.25 C 241.78125 154.523438 239.984375 158.054688 236.6875 159.136719 C 233.390625 160.214844 229.847656 158.4375 228.773438 155.160156 C 227.699219 151.886719 229.5 148.355469 232.796875 147.273438 "/><path style=" stroke:none;fill-rule:nonzero;fill:#ffffff;fill-opacity:1;" d="M 237.40625 143.078125 C 240.191406 142.164062 243.183594 143.679688 244.097656 146.464844 C 245.011719 149.25 243.496094 152.246094 240.710938 153.160156 C 237.925781 154.070312 234.929688 152.558594 234.015625 149.773438 C 233.101562 146.988281 234.621094 143.992188 237.40625 143.078125 "/><path style=" stroke:none;fill-rule:nonzero;fill:#4e67b7;fill-opacity:1;" d="M 181.207031 162.34375 C 181.75 173.347656 193.875 181.671875 204.464844 179.636719 C 215.058594 177.601562 225.171875 165.492188 222.824219 153.921875 C 220.476562 142.347656 210.511719 130.984375 199.925781 133.019531 C 189.335938 135.050781 180.628906 150.574219 181.207031 162.34375 "/><path style=" stroke:none;fill-rule:nonzero;fill:#f9d406;fill-opacity:1;" d="M 182.785156 161.28125 C 183.21875 171.230469 194.148438 178.691406 203.742188 176.796875 C 213.335938 174.902344 222.554688 163.898438 220.492188 153.445312 C 218.425781 142.996094 209.46875 132.769531 199.878906 134.664062 C 190.28125 136.558594 182.320312 150.640625 182.785156 161.28125 "/><path style=" stroke:none;fill-rule:nonzero;fill:#efee0e;fill-opacity:1;" d="M 218.78125 147.414062 C 223.265625 159.792969 218.351562 168.734375 210.378906 171.707031 C 197.417969 176.542969 189.753906 167.566406 187.296875 159.234375 C 184.835938 150.894531 191.390625 139.082031 199.554688 136.675781 C 207.714844 134.269531 215.820312 139.242188 218.78125 147.414062 "/><path style=" stroke:none;fill-rule:nonzero;fill:#f3f243;fill-opacity:1;" d="M 213.09375 143.644531 C 214.765625 146.542969 210.570312 151.925781 203.929688 153.3125 C 197.296875 154.703125 188.90625 155.019531 188.390625 149.679688 C 188.058594 146.242188 191.96875 137.652344 198.605469 136.261719 C 205.238281 134.871094 211.308594 140.546875 213.09375 143.644531 "/><path style=" stroke:none;fill-rule:nonzero;fill:#4799b7;fill-opacity:1;" d="M 220.136719 154.722656 C 222 161.035156 218.257812 167.703125 211.78125 169.613281 C 205.308594 171.523438 198.546875 167.949219 196.683594 161.632812 C 194.820312 155.320312 198.558594 148.652344 205.039062 146.742188 C 211.515625 144.832031 218.277344 148.40625 220.136719 154.722656 "/><path style=" stroke:none;fill-rule:nonzero;fill:#55c3f1;fill-opacity:1;" d="M 218.183594 154.613281 C 219.816406 160.152344 216.675781 165.960938 211.171875 167.582031 C 205.664062 169.207031 199.875 166.03125 198.246094 160.492188 C 196.609375 154.949219 199.75 149.144531 205.257812 147.523438 C 210.761719 145.898438 216.550781 149.070312 218.183594 154.613281 "/><path style=" stroke:none;fill-rule:nonzero;fill:#66cef5;fill-opacity:1;" d="M 216.523438 161.34375 C 216.523438 164.285156 213.097656 166.671875 208.871094 166.671875 C 204.644531 166.671875 201.21875 164.285156 201.21875 161.34375 C 201.21875 158.398438 204.644531 156.015625 208.871094 156.015625 C 213.097656 156.015625 216.523438 158.398438 216.523438 161.34375 "/><path style=" stroke:none;fill-rule:nonzero;fill:#2a5c76;fill-opacity:1;" d="M 215.613281 155.371094 C 216.632812 158.824219 214.675781 162.441406 211.242188 163.453125 C 207.808594 164.464844 204.203125 162.484375 203.1875 159.03125 C 202.167969 155.582031 204.125 151.960938 207.554688 150.953125 C 210.988281 149.9375 214.597656 151.917969 215.613281 155.371094 "/><path style=" stroke:none;fill-rule:nonzero;fill:#ffffff;fill-opacity:1;" d="M 218.871094 147.5625 C 219.730469 150.480469 218.0625 153.539062 215.144531 154.402344 C 212.226562 155.261719 209.167969 153.59375 208.304688 150.679688 C 207.445312 147.761719 209.113281 144.699219 212.03125 143.835938 C 214.949219 142.976562 218.011719 144.648438 218.871094 147.5625 "/><path style=" stroke:none;fill-rule:nonzero;fill:#69b0c4;fill-opacity:1;" d="M 171.753906 189.359375 C 159.75 190.476562 149.503906 197.605469 148.644531 216.1875 C 147.605469 238.785156 183.332031 283.441406 238.21875 275.8125 C 293.105469 268.183594 310.542969 218.382812 304.859375 200.472656 C 299.179688 182.5625 283.757812 171.136719 260.929688 185.945312 C 239.839844 199.621094 227.402344 202.160156 204.578125 196.253906 C 192.011719 193.003906 183.179688 188.296875 171.753906 189.359375 "/><g clip-rule="nonzero" clip-path="url(#b1de260263)"><g clip-rule="nonzero" clip-path="url(#9b56f7a62e)"><path style=" stroke:none;fill-rule:nonzero;fill:#ade0eb;fill-opacity:1;" d="M 148.527344 281.898438 L 307.179688 281.898438 L 307.179688 210.074219 L 148.527344 210.074219 L 148.527344 281.898438 "/></g></g><path style=" stroke:none;fill-rule:nonzero;fill:#401c21;fill-opacity:1;" d="M 171.09375 191.828125 C 159.085938 192.914062 148.828125 199.375 148.667969 219.699219 C 148.492188 241.675781 183.34375 284.992188 238.230469 277.574219 C 293.121094 270.160156 310.664062 218.441406 304.988281 201.050781 C 299.308594 183.664062 283.082031 173.757812 260.585938 189.375 C 240.015625 203.652344 227.425781 206.070312 204.601562 200.34375 C 192.035156 197.1875 182.519531 190.792969 171.09375 191.828125 "/><path style=" stroke:none;fill-rule:nonzero;fill:#feecc9;fill-opacity:1;" d="M 228.285156 258.980469 C 228.285156 258.980469 235.851562 260.429688 235.445312 266.980469 C 235.042969 273.378906 225.472656 273.535156 219.652344 272.679688 C 213.832031 271.828125 210.871094 267.78125 211.722656 264.648438 C 212.574219 261.511719 217.753906 256.730469 228.285156 258.980469 "/><path style=" stroke:none;fill-rule:nonzero;fill:#d4aa71;fill-opacity:1;" d="M 197.34375 256.839844 C 192.308594 256.839844 189.328125 259.304688 188.480469 261.261719 C 187.308594 263.988281 189.449219 267.980469 194.582031 269.445312 C 196.710938 270.050781 199.445312 270.578125 202.003906 270.578125 C 205.605469 270.578125 208.851562 269.53125 209.550781 266.1875 C 210.769531 260.332031 204.140625 258.128906 204.140625 258.128906 C 201.566406 257.210938 199.300781 256.839844 197.34375 256.839844 "/><path style=" stroke:none;fill-rule:nonzero;fill:#b78d62;fill-opacity:1;" d="M 177.683594 248.265625 C 175.40625 248.265625 173.789062 249.207031 173.074219 250.167969 C 171.746094 251.949219 172.546875 255.308594 175.921875 257.371094 C 177.96875 258.621094 180.964844 260 183.421875 260 C 185.019531 260 186.390625 259.417969 187.128906 257.847656 C 189.050781 253.769531 184.746094 250.871094 184.746094 250.871094 C 182.019531 248.945312 179.613281 248.265625 177.683594 248.265625 "/><path style=" stroke:none;fill-rule:nonzero;fill:#74483f;fill-opacity:1;" d="M 171.070312 234.6875 C 169.585938 234.6875 168.226562 235.253906 167.226562 236.242188 C 165.167969 238.277344 165.335938 241.628906 167.609375 243.734375 C 168.769531 244.808594 170.253906 245.347656 171.703125 245.347656 C 173.089844 245.347656 174.445312 244.855469 175.453125 243.859375 C 177.511719 241.824219 178.242188 238.832031 175.941406 236.753906 C 174.347656 235.320312 172.636719 234.6875 171.070312 234.6875 "/><path style=" stroke:none;fill-rule:nonzero;fill:#542b2c;fill-opacity:1;" d="M 179.507812 227.394531 C 178.84375 227.394531 178.140625 227.585938 177.492188 227.980469 C 175.960938 228.914062 175.363281 230.640625 176.160156 231.832031 C 176.621094 232.527344 177.449219 232.886719 178.359375 232.886719 C 179.023438 232.886719 179.730469 232.695312 180.375 232.300781 C 181.90625 231.371094 182.503906 229.644531 181.710938 228.449219 C 181.246094 227.757812 180.421875 227.394531 179.507812 227.394531 "/><path style=" stroke:none;fill-rule:nonzero;fill:#feecc9;fill-opacity:1;" d="M 242.519531 258.242188 C 242.519531 258.242188 236.464844 261.238281 238.480469 266.703125 C 240.445312 272.042969 248.613281 269.9375 253.332031 267.851562 C 258.058594 265.765625 259.539062 261.640625 258.019531 259.183594 C 256.5 256.71875 250.886719 253.871094 242.519531 258.242188 "/><path style=" stroke:none;fill-rule:nonzero;fill:#d4aa71;fill-opacity:1;" d="M 271.351562 248.75 C 268.988281 248.75 266.0625 249.5625 262.796875 251.875 C 262.796875 251.875 257.726562 255.296875 260.253906 259.980469 C 261.207031 261.746094 262.851562 262.40625 264.738281 262.40625 C 267.734375 262.40625 271.34375 260.746094 273.792969 259.246094 C 277.777344 256.808594 278.578125 252.914062 276.886719 250.878906 C 275.988281 249.796875 274.03125 248.75 271.351562 248.75 "/><path style=" stroke:none;fill-rule:nonzero;fill:#b78d62;fill-opacity:1;" d="M 284.472656 237.082031 C 282.503906 237.082031 279.917969 238.066406 277.414062 241.183594 C 277.414062 241.183594 274.496094 244.648438 277.164062 247.660156 C 277.878906 248.46875 278.734375 248.796875 279.640625 248.796875 C 282.046875 248.796875 284.855469 246.484375 286.554688 244.640625 C 288.898438 242.097656 288.71875 239.0625 287.140625 237.859375 C 286.558594 237.417969 285.621094 237.082031 284.472656 237.082031 "/><path style=" stroke:none;fill-rule:nonzero;fill:#74483f;fill-opacity:1;" d="M 286.21875 224.070312 C 284.453125 224.070312 282.601562 225.03125 281.289062 227.144531 C 279.867188 229.445312 281.246094 231.816406 283.515625 233.0625 C 284.21875 233.445312 284.984375 233.628906 285.753906 233.628906 C 287.464844 233.628906 289.179688 232.71875 290.140625 231.121094 C 291.53125 228.804688 290.824219 225.917969 288.558594 224.671875 C 287.835938 224.277344 287.035156 224.070312 286.21875 224.070312 "/><path style=" stroke:none;fill-rule:nonzero;fill:#542b2c;fill-opacity:1;" d="M 276.75 219.917969 C 275.585938 219.917969 274.570312 220.503906 274.28125 221.441406 C 273.910156 222.640625 274.855469 223.964844 276.394531 224.402344 C 276.726562 224.496094 277.0625 224.539062 277.386719 224.539062 C 278.546875 224.539062 279.5625 223.957031 279.851562 223.019531 C 280.222656 221.816406 279.277344 220.492188 277.738281 220.058594 C 277.40625 219.964844 277.070312 219.917969 276.75 219.917969 "/><path style=" stroke:none;fill-rule:nonzero;fill:#feecc9;fill-opacity:1;" d="M 226.894531 221.335938 C 227.777344 227.667969 223.042969 229.925781 217.34375 230.351562 C 211.648438 230.777344 205.675781 229.511719 205.042969 223.160156 C 204.40625 216.804688 211.132812 207.058594 216.847656 207.214844 C 222.542969 207.367188 225.691406 212.734375 226.894531 221.335938 "/><path style=" stroke:none;fill-rule:nonzero;fill:#d0a670;fill-opacity:1;" d="M 199.644531 203.375 C 193.898438 203.375 189.382812 207.816406 188.445312 212.109375 C 187.625 215.882812 191.960938 219.816406 196.949219 219.816406 C 199.234375 219.816406 201.652344 218.992188 203.777344 216.957031 C 210.554688 210.464844 204.71875 204.523438 204.71875 204.523438 C 202.964844 203.722656 201.257812 203.375 199.644531 203.375 "/><path style=" stroke:none;fill-rule:nonzero;fill:#946951;fill-opacity:1;" d="M 183.507812 199.558594 C 182.984375 199.558594 182.472656 199.589844 181.972656 199.652344 C 181.988281 199.703125 182 199.75 182.011719 199.796875 C 181.230469 199.835938 180.46875 199.957031 179.734375 200.148438 C 176.15625 201.289062 173.515625 203.925781 172.804688 206.46875 C 171.988281 209.375 175.875 212.347656 180.457031 212.347656 C 182.621094 212.347656 184.9375 211.6875 186.984375 210.050781 C 193.386719 204.933594 188.054688 200.394531 188.054688 200.394531 C 186.492188 199.8125 184.960938 199.558594 183.507812 199.558594 "/><path style=" stroke:none;fill-rule:nonzero;fill:#74483f;fill-opacity:1;" d="M 177.425781 196.988281 C 173.585938 196.988281 170.511719 199.492188 169.84375 201.882812 C 169.429688 203.351562 170.714844 204.839844 172.660156 205.578125 C 174.183594 202.933594 176.730469 200.933594 179.734375 200.148438 C 180.445312 199.917969 181.195312 199.75 181.972656 199.652344 C 181.59375 198.390625 180.648438 197.578125 180.648438 197.578125 C 179.539062 197.167969 178.457031 196.988281 177.425781 196.988281 "/><path style=" stroke:none;fill-rule:nonzero;fill:#b38860;fill-opacity:1;" d="M 181.972656 199.652344 C 181.195312 199.75 180.445312 199.917969 179.734375 200.148438 C 180.46875 199.957031 181.230469 199.835938 182.011719 199.796875 C 182 199.75 181.988281 199.703125 181.972656 199.652344 "/><path style=" stroke:none;fill-rule:nonzero;fill:#feecc9;fill-opacity:1;" d="M 228.707031 220.933594 C 228.511719 227.25 233.171875 229.105469 238.554688 229.074219 C 243.9375 229.042969 249.410156 227.320312 249.375 221.003906 C 249.339844 214.683594 242.058594 205.59375 236.71875 206.203125 C 231.398438 206.804688 228.980469 212.347656 228.707031 220.933594 "/><path style=" stroke:none;fill-rule:nonzero;fill:#d0a670;fill-opacity:1;" d="M 253.234375 201.457031 C 251.46875 201.457031 249.609375 201.925781 247.757812 203.027344 C 247.757812 203.027344 242.882812 209.347656 249.875 215.222656 C 251.832031 216.863281 253.90625 217.535156 255.851562 217.535156 C 260.859375 217.535156 264.96875 213.066406 263.765625 209.226562 C 262.53125 205.28125 258.261719 201.457031 253.234375 201.457031 "/><path style=" stroke:none;fill-rule:nonzero;fill:#946951;fill-opacity:1;" d="M 268.078125 196.414062 C 266.433594 196.414062 264.699219 196.78125 262.964844 197.636719 C 262.964844 197.636719 258.417969 202.539062 264.929688 207.082031 C 266.746094 208.347656 268.675781 208.867188 270.484375 208.867188 C 275.148438 208.867188 278.984375 205.402344 277.867188 202.425781 C 276.722656 199.371094 272.757812 196.414062 268.078125 196.414062 "/><path style=" stroke:none;fill-rule:nonzero;fill:#74483f;fill-opacity:1;" d="M 273.714844 192.421875 C 272.527344 192.421875 271.273438 192.6875 270.023438 193.304688 C 270.023438 193.304688 268.863281 194.5625 268.914062 196.265625 C 272.359375 196.554688 275.410156 198.425781 277.316406 201.140625 C 279.753906 200.445312 281.421875 198.488281 280.773438 196.757812 C 279.945312 194.558594 277.089844 192.421875 273.714844 192.421875 "/><path style=" stroke:none;fill-rule:nonzero;fill:#ad232a;fill-opacity:1;" d="M 253.472656 233.617188 C 254.082031 239.867188 247.933594 249.171875 234.378906 249.136719 C 221.304688 249.097656 215.175781 242.929688 214.902344 237.628906 C 211.789062 243.949219 217.613281 254.601562 234.515625 254.664062 C 251.296875 254.722656 257.242188 239.960938 253.472656 233.617188 "/><path style=" stroke:none;fill-rule:nonzero;fill:#432f52;fill-opacity:1;" d="M 247.261719 230.542969 C 242.367188 230.542969 236.816406 234.046875 233.808594 238.695312 C 233.808594 238.695312 228.824219 233.132812 222.726562 233.132812 C 221.921875 233.132812 221.097656 233.230469 220.265625 233.453125 C 217.660156 234.136719 215.863281 235.679688 214.902344 237.628906 C 215.175781 242.929688 221.304688 249.097656 234.378906 249.136719 C 234.402344 249.136719 234.433594 249.136719 234.457031 249.136719 C 234.457031 249.136719 234.460938 249.136719 234.460938 249.136719 C 247.851562 249.132812 253.984375 239.996094 253.484375 233.765625 C 253.480469 233.714844 253.476562 233.667969 253.472656 233.617188 C 252.914062 232.679688 252.148438 231.921875 251.171875 231.429688 C 249.96875 230.820312 248.640625 230.542969 247.261719 230.542969 "/><path style=" stroke:none;fill-rule:nonzero;fill:#8f2f56;fill-opacity:1;" d="M 253.484375 233.765625 C 253.984375 239.996094 247.851562 249.132812 234.460938 249.136719 C 247.855469 249.132812 253.984375 239.996094 253.484375 233.765625 "/><path style=" stroke:none;fill-rule:nonzero;fill:#ce2731;fill-opacity:1;" d="M 234.378906 249.136719 C 247.933594 249.171875 254.082031 239.867188 253.472656 233.617188 C 252.914062 232.679688 252.148438 231.921875 251.171875 231.429688 C 245.695312 228.660156 237.664062 232.734375 233.808594 238.695312 C 233.808594 238.695312 227.417969 231.570312 220.265625 233.453125 C 217.660156 234.136719 215.863281 235.679688 214.902344 237.628906 C 215.175781 242.929688 221.304688 249.097656 234.378906 249.136719 "/><path style=" stroke:none;fill-rule:nonzero;fill:#4e67b7;fill-opacity:1;" d="M 233.734375 115.84375 C 233.734375 115.84375 236.382812 98.050781 255.746094 102.152344 C 255.746094 102.152344 259.769531 103.589844 251.449219 106.199219 C 251.449219 106.199219 265.171875 104.804688 271.65625 111.695312 C 278.140625 118.589844 261.117188 113.128906 261.117188 113.128906 C 261.117188 113.128906 273.550781 123.449219 268.007812 129.492188 C 263.609375 134.285156 253.574219 124.53125 233.734375 115.84375 "/><path style=" stroke:none;fill-rule:nonzero;fill:#4e67b7;fill-opacity:1;" d="M 217.171875 116.296875 C 217.171875 116.296875 213.316406 101.386719 192.089844 106.679688 C 192.089844 106.679688 187.710938 108.277344 197.058594 109.726562 C 197.058594 109.726562 181.796875 109.8125 174.972656 116.289062 C 168.152344 122.761719 186.714844 116.527344 186.714844 116.527344 C 186.714844 116.527344 173.484375 126.476562 179.9375 131.105469 C 185.050781 134.777344 195.433594 124.492188 217.171875 116.296875 "/><path style=" stroke:none;fill-rule:nonzero;fill:#6f8ace;fill-opacity:1;" d="M 197.707031 284.296875 C 197.707031 284.296875 234.332031 297.660156 266.007812 281.328125 C 266.007812 281.328125 236.3125 301.621094 197.707031 284.296875 "/></g></svg>