<svg xmlns="http://www.w3.org/2000/svg" xmlns:xlink="http://www.w3.org/1999/xlink" width="626" zoomAndPan="magnify" viewBox="0 0 469.5 456.749982" height="609" preserveAspectRatio="xMidYMid meet" version="1.2"><defs><clipPath id="eb7b091dee"><path d="M 0 0.117188 L 469 0.117188 L 469 455.898438 L 0 455.898438 Z M 0 0.117188 "/></clipPath><clipPath id="d22289ba2f"><path d="M 56.9375 0.117188 L 411.566406 0.117188 C 443.011719 0.117188 468.503906 25.609375 468.503906 57.058594 L 468.503906 398.960938 C 468.503906 430.40625 443.011719 455.898438 411.566406 455.898438 L 56.9375 455.898438 C 25.492188 455.898438 0 430.40625 0 398.960938 L 0 57.058594 C 0 25.609375 25.492188 0.117188 56.9375 0.117188 Z M 56.9375 0.117188 "/></clipPath><clipPath id="eb4066d6c9"><path d="M 353.390625 201 L 405.222656 201 L 405.222656 252.609375 L 353.390625 252.609375 Z M 353.390625 201 "/></clipPath><clipPath id="cedf643ca4"><path d="M 214 391.75 L 222.34375 391.75 L 222.34375 397.3125 L 214 397.3125 Z M 214 391.75 "/></clipPath><clipPath id="5a6b991c9c"><path d="M 133 58.683594 L 144 58.683594 L 144 70 L 133 70 Z M 133 58.683594 "/></clipPath><clipPath id="5c24da4d07"><path d="M 139 58.683594 L 144 58.683594 L 144 67 L 139 67 Z M 139 58.683594 "/></clipPath></defs><g id="fa02eb8315"><g clip-rule="nonzero" clip-path="url(#eb7b091dee)"><g clip-rule="nonzero" clip-path="url(#d22289ba2f)"><path style=" stroke:none;fill-rule:nonzero;fill:#ff445d;fill-opacity:1;" d="M 0 0.117188 L 468.242188 0.117188 L 468.242188 455.898438 L 0 455.898438 Z M 0 0.117188 "/></g></g><g clip-rule="nonzero" clip-path="url(#eb4066d6c9)"><path style=" stroke:none;fill-rule:nonzero;fill:#3a3476;fill-opacity:1;" d="M 379.894531 216.183594 C 364.792969 216.960938 350.730469 228.371094 354.242188 234.925781 C 359.074219 243.960938 370.6875 245.246094 373.019531 244.988281 C 375.351562 244.734375 375.433594 243.210938 371.417969 240.78125 C 367.402344 238.351562 366.953125 234.652344 366.953125 234.652344 C 367.167969 221.078125 379.894531 226.464844 379.894531 226.464844 C 400.300781 229.171875 384.863281 248.632812 382.128906 249.570312 C 379.390625 250.507812 380.996094 252.40625 380.996094 252.40625 C 380.996094 252.40625 396.574219 254.046875 401.050781 242.960938 C 407.121094 225.800781 388.8125 220.46875 388.8125 220.46875 C 389.695312 209.613281 398.964844 213.460938 402.652344 221.984375 C 403.984375 225.066406 405.222656 221.78125 405.222656 221.78125 C 402.085938 183.3125 382.425781 209.292969 381.425781 214.980469 C 380.417969 220.667969 379.894531 216.183594 379.894531 216.183594 "/></g><path style=" stroke:none;fill-rule:nonzero;fill:#6f59b2;fill-opacity:1;" d="M 315.535156 174.203125 C 315.535156 174.203125 378.726562 172.238281 381.425781 214.980469 C 381.425781 214.980469 381.601562 219.902344 378.949219 217.003906 C 376.300781 214.105469 357.929688 188.460938 329.617188 198.648438 C 329.617188 198.648438 310.214844 179.96875 315.535156 174.203125 "/><path style=" stroke:none;fill-rule:nonzero;fill:#332f65;fill-opacity:1;" d="M 397.574219 227.289062 C 401.777344 243.03125 389.503906 249.402344 389.503906 249.402344 C 407.683594 244.261719 397.574219 227.289062 397.574219 227.289062 "/><path style=" stroke:none;fill-rule:nonzero;fill:#332f65;fill-opacity:1;" d="M 394.972656 202.726562 C 388.710938 202.726562 387.417969 209.621094 387.417969 209.621094 C 387.417969 209.621094 390.410156 206.78125 393.992188 206.78125 C 397.335938 206.78125 401.191406 209.261719 403.59375 218.851562 C 403.59375 218.851562 403.296875 206.453125 396.015625 202.785156 C 395.652344 202.746094 395.304688 202.726562 394.972656 202.726562 "/><path style=" stroke:none;fill-rule:nonzero;fill:#332f65;fill-opacity:1;" d="M 364.617188 224.628906 C 342.445312 233.347656 369.136719 243.101562 369.136719 243.101562 C 350.222656 232.5 364.617188 224.628906 364.617188 224.628906 "/><path style=" stroke:none;fill-rule:nonzero;fill:#604eab;fill-opacity:1;" d="M 330.394531 184.839844 C 331.160156 188.769531 331.78125 192.691406 332.277344 196.554688 C 334.390625 195.792969 337.976562 194.828125 342.601562 194.828125 C 351.941406 194.828125 365.539062 198.753906 379.894531 216.183594 C 379.910156 216.203125 379.917969 216.210938 379.925781 216.210938 C 380.164062 216.210938 377.214844 208.363281 369.191406 200.507812 C 361.492188 192.964844 349.113281 185.425781 330.394531 184.839844 "/><path style=" stroke:none;fill-rule:nonzero;fill:#3ba03c;fill-opacity:1;" d="M 296.925781 120.105469 C 296.660156 118.71875 312.683594 109.359375 315.359375 102.988281 C 318.035156 96.617188 317.070312 74.9375 317.070312 74.9375 C 317.070312 74.9375 338.136719 85.539062 350.617188 115.960938 C 363.09375 146.382812 347.992188 160.222656 320.746094 167.019531 C 320.746094 167.019531 302.046875 146.808594 296.925781 120.105469 "/><path style=" stroke:none;fill-rule:nonzero;fill:#c7cd14;fill-opacity:1;" d="M 302.035156 116.101562 C 302.035156 116.101562 324.808594 125.769531 333.441406 163.28125 L 320.746094 167.019531 C 320.746094 167.019531 293.5 153.320312 288.082031 124.574219 L 302.035156 116.101562 "/><path style=" stroke:none;fill-rule:nonzero;fill:#c7cd14;fill-opacity:1;" d="M 308.628906 110.53125 C 308.628906 110.53125 321.734375 109.746094 334.308594 124.53125 C 346.890625 139.320312 348.738281 152.960938 348.738281 152.960938 C 348.738281 152.960938 356.554688 142.09375 355 130.492188 C 355 130.492188 346.238281 102.632812 314.015625 104.976562 C 314.015625 104.976562 311.363281 108.457031 308.628906 110.53125 "/><path style=" stroke:none;fill-rule:nonzero;fill:#c7cd14;fill-opacity:1;" d="M 316.300781 99.246094 C 316.867188 98.535156 324.40625 89.21875 337.640625 92.941406 C 337.640625 92.941406 333.015625 87.148438 330.300781 85.136719 C 330.300781 85.136719 321.726562 80.238281 316.773438 93.53125 L 316.300781 99.246094 "/><path style=" stroke:none;fill-rule:nonzero;fill:#c7cd14;fill-opacity:1;" d="M 317.296875 84.441406 C 317.296875 84.441406 317.691406 78.523438 324.859375 79.917969 C 324.859375 79.917969 321.636719 76.433594 316.746094 74.585938 C 316.746094 74.585938 316.507812 76.84375 317.296875 84.441406 "/><path style=" stroke:none;fill-rule:nonzero;fill:#d0d0ce;fill-opacity:1;" d="M 333.332031 87.847656 C 333.332031 87.847656 333.4375 87.996094 333.625 88.285156 C 335.71875 90.535156 337.640625 92.941406 337.640625 92.941406 C 337.488281 92.898438 337.339844 92.855469 337.1875 92.816406 C 340.1875 96.601562 343.21875 101.066406 346.042969 106.289062 C 341.164062 96.949219 335.679688 89.550781 333.332031 87.847656 "/><path style=" stroke:none;fill-rule:nonzero;fill:#317f36;fill-opacity:1;" d="M 336.183594 92.578125 C 338.761719 97.300781 342.308594 105.101562 343.429688 113.824219 C 349.882812 119.339844 353.148438 125.902344 354.386719 128.878906 C 352.980469 121.308594 349.679688 113.257812 346.042969 106.289062 C 343.21875 101.066406 340.1875 96.601562 337.1875 92.816406 C 336.851562 92.730469 336.515625 92.648438 336.183594 92.578125 "/><path style=" stroke:none;fill-rule:nonzero;fill:#d0d0ce;fill-opacity:1;" d="M 332.75 163.484375 L 329.296875 164.5 C 328.042969 164.9375 326.753906 165.351562 325.425781 165.746094 C 325.449219 165.8125 325.472656 165.882812 325.496094 165.949219 C 327.519531 165.398438 330.035156 164.601562 332.75 163.484375 M 344.523438 156.65625 C 341.394531 159.105469 337.640625 161.183594 333.367188 162.957031 C 333.386719 163.039062 333.402344 163.117188 333.421875 163.203125 C 337.058594 161.648438 340.992188 159.527344 344.523438 156.65625 "/><path style=" stroke:none;fill-rule:nonzero;fill:#317f36;fill-opacity:1;" d="M 329.296875 164.5 L 325.394531 165.648438 C 325.40625 165.679688 325.414062 165.710938 325.425781 165.746094 C 326.753906 165.351562 328.042969 164.9375 329.296875 164.5 M 340.765625 133.367188 C 338.414062 138.40625 334.503906 143.242188 328.425781 147.488281 C 330.320312 152.019531 332.011719 157.152344 333.367188 162.957031 C 337.640625 161.183594 341.394531 159.105469 344.523438 156.65625 C 346 155.457031 347.40625 154.128906 348.691406 152.660156 C 348.414062 151.042969 346.820312 143.132812 340.765625 133.367188 "/><path style=" stroke:none;fill-rule:nonzero;fill:#9fa621;fill-opacity:1;" d="M 328.425781 147.488281 C 325.996094 149.1875 323.222656 150.789062 320.0625 152.273438 C 322.105469 156.605469 323.871094 161.085938 325.394531 165.648438 L 329.296875 164.5 L 332.75 163.484375 C 332.972656 163.390625 333.199219 163.296875 333.421875 163.203125 C 333.402344 163.117188 333.386719 163.039062 333.367188 162.957031 C 332.011719 157.152344 330.320312 152.019531 328.425781 147.488281 "/><path style=" stroke:none;fill-rule:nonzero;fill:#d0d0ce;fill-opacity:1;" d="M 355.109375 135.84375 C 355.082031 136.136719 355.050781 136.433594 355.019531 136.722656 C 354.832031 140.929688 353.816406 144.640625 352.066406 147.914062 C 352.640625 146.898438 353.160156 145.832031 353.609375 144.710938 C 354.683594 142.042969 355.136719 139.039062 355.109375 135.84375 "/><path style=" stroke:none;fill-rule:nonzero;fill:#317f36;fill-opacity:1;" d="M 355.019531 136.722656 C 354.261719 143.140625 351.378906 148.675781 349.796875 151.316406 C 350.621094 150.253906 351.386719 149.117188 352.066406 147.914062 C 353.816406 144.640625 354.832031 140.929688 355.019531 136.722656 "/><path style=" stroke:none;fill-rule:nonzero;fill:#9fa621;fill-opacity:1;" d="M 343.429688 113.824219 C 344.238281 120.128906 343.777344 126.914062 340.765625 133.367188 C 346.820312 143.132812 348.414062 151.042969 348.691406 152.660156 C 349.070312 152.222656 349.4375 151.777344 349.796875 151.316406 C 351.378906 148.675781 354.261719 143.140625 355.019531 136.722656 C 355.050781 136.433594 355.082031 136.136719 355.109375 135.84375 C 355.085938 133.601562 354.832031 131.265625 354.386719 128.878906 C 353.148438 125.902344 349.882812 119.339844 343.429688 113.824219 "/><path style=" stroke:none;fill-rule:nonzero;fill:#9fa621;fill-opacity:1;" d="M 333.625 88.285156 C 334.085938 88.980469 335.039062 90.472656 336.183594 92.578125 C 336.515625 92.648438 336.851562 92.730469 337.1875 92.816406 C 337.339844 92.855469 337.488281 92.898438 337.640625 92.941406 C 337.640625 92.941406 335.71875 90.535156 333.625 88.285156 "/><path style=" stroke:none;fill-rule:nonzero;fill:#58b840;fill-opacity:1;" d="M 312.15625 110.816406 C 309.925781 113.296875 307.4375 115.734375 305.167969 117.835938 C 308.550781 119.980469 314.21875 124.324219 319.824219 132.023438 C 324.324219 127.894531 327.195312 123.496094 328.855469 119.039062 C 322.164062 113.332031 315.894531 111.4375 312.15625 110.816406 M 327.464844 92.492188 C 324.019531 93.226562 321.328125 94.789062 319.449219 96.230469 C 319.246094 99.300781 318.679688 101.242188 318.167969 102.394531 C 317.816406 103.175781 317.363281 104 316.828125 104.84375 C 317.15625 104.839844 317.480469 104.835938 317.804688 104.835938 C 322.679688 104.835938 326.964844 105.554688 330.71875 106.75 C 330.496094 101.703125 329.191406 96.839844 327.464844 92.492188 M 320.796875 79.988281 C 319.601562 80.363281 318.8125 81.058594 318.292969 81.789062 C 318.753906 84.332031 319.066406 86.601562 319.257812 88.617188 C 320.714844 86.539062 322.285156 85.386719 323.765625 84.796875 C 322.75 82.992188 321.730469 81.375 320.796875 79.988281 "/><path style=" stroke:none;fill-rule:nonzero;fill:#d3db3d;fill-opacity:1;" d="M 305.167969 117.835938 C 302.449219 120.351562 300.042969 122.386719 298.765625 123.441406 C 300.167969 124.636719 301.527344 125.894531 302.84375 127.210938 C 306.15625 130.523438 309.140625 134.132812 311.824219 137.964844 C 314.933594 136.070312 317.578125 134.082031 319.824219 132.023438 C 314.21875 124.324219 308.550781 119.980469 305.167969 117.835938 "/><path style=" stroke:none;fill-rule:nonzero;fill:#d3db3d;fill-opacity:1;" d="M 317.804688 104.835938 C 317.480469 104.835938 317.15625 104.839844 316.828125 104.84375 C 315.609375 106.761719 313.96875 108.804688 312.15625 110.816406 C 315.894531 111.4375 322.164062 113.332031 328.855469 119.039062 C 330.386719 114.9375 330.898438 110.78125 330.71875 106.75 C 326.964844 105.554688 322.679688 104.835938 317.804688 104.835938 "/><path style=" stroke:none;fill-rule:nonzero;fill:#d3db3d;fill-opacity:1;" d="M 323.765625 84.796875 C 322.285156 85.386719 320.714844 86.539062 319.257812 88.617188 C 319.558594 91.707031 319.582031 94.214844 319.449219 96.230469 C 321.328125 94.789062 324.019531 93.226562 327.464844 92.492188 C 326.351562 89.683594 325.058594 87.085938 323.765625 84.796875 "/><path style=" stroke:none;fill-rule:nonzero;fill:#d3db3d;fill-opacity:1;" d="M 316.746094 74.585938 C 317.386719 77.207031 317.894531 79.597656 318.292969 81.789062 C 318.8125 81.058594 319.601562 80.363281 320.796875 79.988281 C 318.515625 76.597656 316.746094 74.585938 316.746094 74.585938 "/><path style=" stroke:none;fill-rule:nonzero;fill:#fdfefd;fill-opacity:1;" d="M 324.382812 99.222656 C 324.871094 99.65625 326.320312 104.535156 322.160156 111.050781 C 317.996094 117.566406 309.804688 123.246094 309.316406 122.8125 C 308.824219 122.378906 315.28125 115.148438 319.441406 108.632812 C 323.605469 102.121094 323.894531 98.785156 324.382812 99.222656 "/><path style=" stroke:none;fill-rule:nonzero;fill:#5a47a6;fill-opacity:1;" d="M 267.875 293.917969 C 267.875 293.917969 267.875 341.023438 249.03125 363.292969 C 249.03125 363.292969 239.554688 381.375 259.3125 382.132812 C 281.582031 382.988281 295.28125 347.015625 279.011719 293.058594 C 279.011719 293.058594 270.445312 288.777344 267.875 293.917969 "/><path style=" stroke:none;fill-rule:nonzero;fill:#3a3476;fill-opacity:1;" d="M 255.992188 380.5 C 255.992188 381.621094 259.101562 383.269531 261.339844 383.269531 C 263.585938 383.269531 264.109375 381.621094 264.109375 380.5 C 264.109375 379.378906 263.585938 377.730469 261.339844 377.730469 C 259.101562 377.730469 255.992188 379.378906 255.992188 380.5 "/><path style=" stroke:none;fill-rule:nonzero;fill:#3a3476;fill-opacity:1;" d="M 245.105469 377.367188 C 245.105469 378.710938 248.425781 380.683594 250.820312 380.683594 C 253.214844 380.683594 253.777344 378.710938 253.777344 377.367188 C 253.777344 376.019531 253.214844 374.042969 250.820312 374.042969 C 248.425781 374.042969 245.105469 376.019531 245.105469 377.367188 "/><path style=" stroke:none;fill-rule:nonzero;fill:#3a3476;fill-opacity:1;" d="M 242.890625 369.980469 C 242.890625 371.328125 244.554688 373.117188 246.949219 373.117188 C 249.347656 373.117188 251.101562 370.21875 251.101562 368.878906 C 251.101562 367.53125 251.003906 366.660156 248.605469 366.660156 C 246.210938 366.660156 242.890625 368.640625 242.890625 369.980469 "/><path style=" stroke:none;fill-rule:nonzero;fill:#806bbc;fill-opacity:1;" d="M 275.488281 333.195312 C 275.335938 333.195312 275.210938 333.429688 275.347656 333.5625 C 277.292969 335.519531 278.046875 339.375 275.765625 341.769531 C 274.804688 342.773438 273.371094 343.375 271.992188 343.375 C 271.195312 343.375 270.414062 343.171875 269.761719 342.730469 C 268.996094 342.214844 268.316406 341.53125 268.066406 340.589844 C 267.609375 338.898438 268.652344 336.78125 270.585938 336.425781 C 270.84375 336.375 271.136719 336.347656 271.4375 336.347656 C 272.652344 336.347656 273.976562 336.824219 273.648438 338.375 C 273.503906 339.441406 273.046875 339.972656 272.28125 339.972656 C 272.019531 339.972656 271.726562 339.910156 271.398438 339.789062 C 271.347656 339.628906 271.308594 339.464844 271.265625 339.308594 C 271.1875 338.996094 271.246094 338.703125 271.445312 338.410156 C 271.675781 338.253906 271.535156 337.972656 271.335938 337.929688 C 271.25 337.910156 271.164062 337.902344 271.085938 337.902344 C 269.882812 337.902344 269.726562 339.96875 270.296875 340.730469 C 270.714844 341.296875 271.246094 341.527344 271.800781 341.527344 C 273.023438 341.527344 274.359375 340.402344 274.796875 339.242188 C 275.832031 336.503906 273.816406 335.128906 271.523438 335.128906 C 269.65625 335.128906 267.605469 336.042969 266.863281 337.878906 C 265.316406 341.699219 268.511719 344.972656 272.078125 344.972656 C 272.65625 344.972656 273.246094 344.882812 273.828125 344.699219 C 276.417969 343.882812 277.984375 341.78125 278.269531 339.113281 C 278.527344 336.65625 277.269531 334.722656 275.601562 333.242188 C 275.5625 333.210938 275.523438 333.195312 275.488281 333.195312 "/><path style=" stroke:none;fill-rule:nonzero;fill:#5a47a6;fill-opacity:1;" d="M 208.664062 290.738281 C 208.664062 290.738281 208.664062 346.511719 230.972656 372.878906 C 230.972656 372.878906 242.199219 394.289062 218.808594 395.1875 C 192.4375 396.203125 176.214844 353.613281 195.480469 289.722656 C 195.480469 289.722656 205.621094 284.652344 208.664062 290.738281 "/><g clip-rule="nonzero" clip-path="url(#cedf643ca4)"><path style=" stroke:none;fill-rule:nonzero;fill:#3a3476;fill-opacity:1;" d="M 222.25 394.542969 C 222.25 395.664062 219.140625 397.3125 216.898438 397.3125 C 214.65625 397.3125 214.132812 395.664062 214.132812 394.542969 C 214.132812 393.421875 214.65625 391.777344 216.898438 391.777344 C 219.140625 391.777344 222.25 393.421875 222.25 394.542969 "/></g><path style=" stroke:none;fill-rule:nonzero;fill:#3a3476;fill-opacity:1;" d="M 233.878906 390.671875 C 233.878906 392.015625 230.554688 393.992188 228.160156 393.992188 C 225.765625 393.992188 225.203125 392.015625 225.203125 390.671875 C 225.203125 389.324219 225.765625 387.347656 228.160156 387.347656 C 230.554688 387.347656 233.878906 389.324219 233.878906 390.671875 "/><path style=" stroke:none;fill-rule:nonzero;fill:#3a3476;fill-opacity:1;" d="M 237.566406 383.285156 C 237.566406 384.632812 235.902344 386.421875 233.507812 386.421875 C 231.109375 386.421875 229.355469 383.527344 229.355469 382.179688 C 229.355469 380.832031 229.453125 379.964844 231.851562 379.964844 C 234.246094 379.964844 237.566406 381.945312 237.566406 383.285156 "/><path style=" stroke:none;fill-rule:nonzero;fill:#806bbc;fill-opacity:1;" d="M 199.714844 341.632812 C 196.609375 341.632812 194.007812 344.765625 194.472656 348.136719 C 194.839844 350.828125 196.652344 352.730469 199.226562 353.460938 C 199.773438 353.617188 200.308594 353.6875 200.828125 353.6875 C 202.5625 353.6875 204.125 352.898438 205.464844 351.828125 C 205.621094 351.699219 205.472656 351.484375 205.304688 351.484375 C 205.269531 351.484375 205.230469 351.5 205.195312 351.523438 C 204.183594 352.230469 202.839844 352.640625 201.488281 352.640625 C 199.816406 352.640625 198.125 352.011719 197.035156 350.546875 C 195.726562 348.777344 195.617188 346.015625 197.109375 344.464844 C 197.746094 343.796875 198.53125 343.242188 199.5 343.15625 C 199.59375 343.144531 199.6875 343.140625 199.777344 343.140625 C 201.441406 343.140625 203.160156 344.480469 203.179688 346.34375 C 203.199219 347.484375 202.742188 349.183594 201.449219 349.183594 C 201.234375 349.183594 201 349.136719 200.738281 349.035156 C 199.367188 348.601562 199.03125 347.78125 199.726562 346.574219 C 199.894531 346.554688 200.058594 346.542969 200.222656 346.527344 C 200.253906 346.523438 200.28125 346.523438 200.3125 346.523438 C 200.59375 346.523438 200.851562 346.632812 201.078125 346.859375 C 201.128906 346.96875 201.210938 347.011719 201.296875 347.011719 C 201.410156 347.011719 201.527344 346.9375 201.570312 346.832031 C 201.996094 345.777344 200.746094 345.175781 199.742188 345.175781 C 199.453125 345.175781 199.183594 345.226562 198.980469 345.328125 C 196.972656 346.339844 198.140625 349.101562 199.6875 350.015625 C 200.335938 350.398438 200.929688 350.566406 201.460938 350.566406 C 204.679688 350.566406 205.597656 344.425781 202.378906 342.429688 C 201.488281 341.878906 200.582031 341.632812 199.714844 341.632812 "/><path style=" stroke:none;fill-rule:nonzero;fill:#6f59b2;fill-opacity:1;" d="M 126.273438 246.417969 C 130.765625 274.851562 154.707031 292.308594 226.53125 297.292969 C 298.355469 302.285156 325.289062 269.363281 330.277344 256.394531 C 335.261719 243.425781 341.25 165.617188 302.84375 127.210938 C 264.4375 88.804688 187.878906 102.082031 173.160156 114.242188 C 138.746094 142.671875 121.785156 217.988281 126.273438 246.417969 "/><path style=" stroke:none;fill-rule:nonzero;fill:#7564b8;fill-opacity:1;" d="M 230.214844 108.390625 C 206.617188 108.390625 185.691406 113.996094 178.738281 119.398438 C 178.339844 120.519531 177.902344 121.609375 177.433594 122.675781 C 176.105469 126.214844 174.359375 129.003906 172.773438 131.054688 C 167.984375 138.109375 161.9375 143.609375 156.527344 147.617188 C 151.980469 156.007812 148.121094 165.164062 144.972656 174.425781 C 148 174.230469 150.347656 174.191406 151.695312 174.191406 C 152.519531 174.191406 152.964844 174.203125 152.964844 174.203125 C 158.289062 179.96875 138.886719 198.648438 138.886719 198.648438 C 138.714844 198.585938 138.546875 198.527344 138.375 198.46875 C 135.046875 214.25 134.035156 228.5 135.496094 237.496094 C 139.621094 262.867188 161.621094 278.449219 227.617188 282.898438 C 232.199219 283.210938 236.589844 283.355469 240.78125 283.355469 C 296.957031 283.355469 318.679688 257.167969 322.945312 246.398438 C 327.304688 235.382812 332.496094 171.964844 302.578125 136.3125 C 302.914062 139.410156 302.628906 143.363281 301.648438 148.636719 C 304.046875 145.636719 304.828125 143.460938 304.828125 143.460938 C 304.828125 143.460938 304.226562 148.25 300.457031 153.964844 C 299.851562 155.8125 298.890625 157.503906 297.664062 159.046875 C 296.699219 162.785156 295.101562 165.308594 293.171875 168.390625 C 293.171875 168.390625 292.96875 168.246094 292.589844 168.054688 C 292.496094 175.332031 291.921875 185.585938 289.429688 185.585938 C 286.839844 185.582031 281.777344 177.054688 278.707031 171.414062 C 278.664062 171.457031 278.617188 171.496094 278.570312 171.539062 C 278.570312 171.539062 277.628906 171.292969 276.136719 171.292969 C 275.984375 171.292969 275.824219 171.296875 275.660156 171.300781 C 273.644531 171.878906 271.707031 172.359375 269.9375 172.75 C 268.835938 173.296875 267.707031 174.035156 266.59375 175.023438 C 266.59375 175.023438 266.457031 174.96875 266.210938 174.882812 C 266.371094 180.8125 266.421875 190.324219 265.09375 190.324219 C 263.859375 190.320312 259.863281 182.128906 257.132812 176.207031 C 257.109375 176.234375 257.085938 176.261719 257.0625 176.289062 C 257.0625 176.289062 252.308594 173.613281 246.292969 173.613281 C 245.679688 173.613281 245.054688 173.640625 244.421875 173.699219 C 242.257812 180.25 239.726562 196.160156 252.917969 220.578125 C 257.203125 225.640625 259.859375 228.71875 258.078125 231.203125 C 257.3125 232.277344 255.835938 233.359375 253.082031 233.359375 C 247.238281 233.359375 235.644531 228.480469 212.882812 208.289062 C 179.410156 178.601562 176.496094 134.328125 176.496094 134.328125 C 181.660156 126.324219 240.734375 125.199219 273.574219 125.199219 C 280.976562 125.199219 287.050781 125.253906 290.867188 125.304688 C 273.714844 112.71875 250.933594 108.390625 230.214844 108.390625 "/><path style=" stroke:none;fill-rule:nonzero;fill:#6361ad;fill-opacity:1;" d="M 230.515625 169.464844 C 230.285156 172.859375 231.070312 179.480469 235.652344 192.1875 C 240.597656 205.914062 247.882812 214.621094 252.917969 220.578125 C 239.726562 196.160156 242.257812 180.25 244.421875 173.699219 C 243.488281 173.789062 242.539062 173.953125 241.578125 174.203125 C 241.578125 174.203125 241.578125 174.199219 241.578125 174.199219 C 239.808594 177.546875 237.175781 182.078125 235.554688 182.734375 C 235.472656 182.765625 235.394531 182.78125 235.316406 182.78125 C 233.800781 182.78125 233.453125 176.375 233.398438 171.839844 C 233.386719 171.84375 233.375 171.847656 233.363281 171.851562 C 233.363281 171.851562 232.398438 170.597656 230.515625 169.464844 "/><path style=" stroke:none;fill-rule:nonzero;fill:#481c17;fill-opacity:1;" d="M 176.496094 134.328125 C 176.496094 134.328125 179.410156 178.601562 212.882812 208.289062 C 246.359375 237.980469 255.675781 234.558594 258.078125 231.203125 C 261.957031 225.792969 244.808594 217.585938 235.652344 192.1875 C 227.25 168.886719 231.609375 166.050781 231.609375 166.050781 C 231.609375 166.050781 213.066406 127.835938 176.496094 134.328125 "/><path style=" stroke:none;fill-rule:nonzero;fill:#ef2d3d;fill-opacity:1;" d="M 185.207031 167.6875 C 185.207031 167.6875 233.644531 173.664062 238.425781 228.054688 C 238.425781 228.054688 199.578125 208.523438 185.207031 167.6875 "/><path style=" stroke:none;fill-rule:nonzero;fill:#e72530;fill-opacity:1;" d="M 218.410156 184.109375 C 218.410156 184.109375 209.457031 177.964844 204.929688 180.492188 C 197.324219 184.738281 221.125 212.914062 221.125 212.914062 C 221.125 212.914062 195.15625 196.589844 185.296875 168.023438 C 185.296875 168.023438 196.917969 166.039062 218.410156 184.109375 "/><path style=" stroke:none;fill-rule:nonzero;fill:#c81e25;fill-opacity:1;" d="M 231.621094 179.582031 C 231.621094 179.582031 235.019531 192.863281 239.210938 197.683594 C 239.210938 197.683594 244.019531 204.84375 244.25 209.046875 C 246.949219 214.921875 260.242188 224.964844 258.652344 229.941406 C 258.652344 229.941406 257.421875 234.839844 250.515625 233.128906 C 250.515625 233.128906 257.871094 234.144531 254.394531 228.683594 C 251.628906 227.316406 248.03125 225.195312 248.339844 218.265625 C 247.160156 213.8125 240.703125 209.988281 240.703125 209.988281 C 240.703125 209.988281 234.394531 207.667969 234.261719 200.015625 C 234.222656 197.921875 235.328125 196.648438 235.222656 195.535156 C 232.347656 188.042969 231.621094 179.582031 231.621094 179.582031 "/><path style=" stroke:none;fill-rule:nonzero;fill:#fbe874;fill-opacity:1;" d="M 292.546875 160.949219 C 292.546875 160.949219 293.292969 185.59375 289.429688 185.585938 C 285.566406 185.578125 276.167969 166.550781 276.167969 166.550781 L 266.042969 170.25 C 266.042969 170.25 267.027344 190.328125 265.09375 190.324219 C 263.160156 190.320312 254.449219 170.230469 254.449219 170.230469 L 243.421875 170.53125 C 243.421875 170.53125 238.171875 181.675781 235.554688 182.734375 C 232.9375 183.789062 233.425781 167.433594 233.425781 167.433594 L 224.226562 163.699219 C 224.226562 163.699219 218.179688 175.480469 216.128906 176.855469 C 214.082031 178.234375 211.964844 155.714844 211.964844 155.714844 L 204.585938 151.558594 C 204.585938 151.558594 192.730469 166.9375 190.34375 168.847656 C 187.949219 170.753906 191.980469 144.101562 191.980469 144.101562 C 191.980469 144.101562 220.582031 166.351562 257.300781 164.605469 C 294.019531 162.867188 293.011719 155.429688 292.546875 160.949219 "/><path style=" stroke:none;fill-rule:nonzero;fill:#c81e25;fill-opacity:1;" d="M 297.71875 158.828125 C 296.761719 162.6875 295.136719 165.25 293.171875 168.390625 C 293.171875 168.390625 286.929688 163.929688 278.570312 171.539062 C 278.570312 171.539062 272.320312 169.914062 266.59375 175.023438 C 266.59375 175.023438 260.347656 172.453125 257.0625 176.289062 C 257.0625 176.289062 249.625 172.101562 241.578125 174.203125 C 241.578125 174.203125 239.144531 169.800781 233.363281 171.851562 C 233.363281 171.851562 229.503906 166.835938 222.171875 167.824219 C 222.171875 167.824219 217.71875 162.472656 212.707031 164.578125 C 212.707031 164.578125 209.148438 156.890625 200.511719 156.765625 C 200.511719 156.765625 197.546875 151.308594 190.757812 151.460938 C 190.757812 151.460938 186.832031 148.117188 184.460938 142.046875 C 184.460938 142.046875 209.316406 164.183594 244.5625 172.089844 C 277.488281 177.9375 297.71875 158.828125 297.71875 158.828125 "/><path style=" stroke:none;fill-rule:nonzero;fill:#745eb5;fill-opacity:1;" d="M 295.273438 125.371094 C 295.273438 125.371094 183.679688 123.1875 176.496094 134.328125 C 176.496094 134.328125 217.683594 174.871094 260.996094 174.308594 C 260.996094 174.308594 296.886719 170.398438 300.84375 152.558594 C 304.800781 134.71875 302.257812 129.84375 295.273438 125.371094 "/><path style=" stroke:none;fill-rule:nonzero;fill:#6357ae;fill-opacity:1;" d="M 304.828125 143.460938 C 304.828125 143.460938 304.046875 145.636719 301.648438 148.636719 C 301.417969 149.867188 301.152344 151.175781 300.84375 152.558594 C 300.738281 153.039062 300.609375 153.507812 300.457031 153.964844 C 304.226562 148.25 304.828125 143.460938 304.828125 143.460938 "/><path style=" stroke:none;fill-rule:nonzero;fill:#6451ad;fill-opacity:1;" d="M 178.519531 136.035156 C 187.523438 143.476562 225.039062 172.71875 258.308594 172.71875 C 259.722656 172.71875 261.128906 172.664062 262.523438 172.554688 C 284.816406 170.808594 295.441406 161.570312 300.457031 153.964844 C 300.609375 153.507812 300.738281 153.039062 300.84375 152.558594 C 301.152344 151.175781 301.417969 149.867188 301.648438 148.636719 C 296.453125 155.140625 283.675781 165.527344 254.867188 166.050781 C 254.382812 166.058594 253.886719 166.0625 253.402344 166.0625 C 217.761719 166.0625 186.585938 142.628906 178.519531 136.035156 M 176.496094 134.328125 C 176.496094 134.328125 177.199219 134.957031 178.519531 136.035156 C 177.203125 134.949219 176.496094 134.328125 176.496094 134.328125 "/><path style=" stroke:none;fill-rule:nonzero;fill:#2e2a50;fill-opacity:1;" d="M 262.722656 170.332031 C 224.445312 171.367188 188.066406 143.777344 176.609375 134.1875 C 176.574219 134.234375 176.527344 134.28125 176.496094 134.328125 C 176.496094 134.328125 217.683594 174.871094 260.996094 174.308594 C 260.996094 174.308594 302.230469 170.996094 304.828125 143.460938 C 304.832031 143.445312 302.828125 154.023438 288.109375 163.046875 C 278.289062 169.066406 262.722656 170.332031 262.722656 170.332031 "/><path style=" stroke:none;fill-rule:nonzero;fill:#f9aab8;fill-opacity:1;" d="M 218.558594 188.273438 C 218.03125 188.550781 220.875 191.65625 223.625 196.164062 C 226.378906 200.671875 227.996094 204.886719 228.523438 204.605469 C 229.050781 204.320312 228.285156 199.65625 225.535156 195.148438 C 222.78125 190.636719 219.082031 187.992188 218.558594 188.273438 "/><path style=" stroke:none;fill-rule:nonzero;fill:#c81e25;fill-opacity:1;" d="M 190.824219 178.402344 C 190.824219 178.402344 195.808594 186.699219 200.566406 190.328125 C 203.996094 192.945312 206.339844 193.480469 207.578125 197.210938 C 207.578125 197.210938 210.933594 199.796875 212.691406 203.59375 C 216.84375 212.5625 221.214844 211.636719 226.84375 215.445312 C 231.007812 218.265625 233.859375 223.277344 236.175781 225.34375 C 238.496094 227.402344 243.246094 230.484375 243.246094 230.484375 C 243.246094 230.484375 230.613281 225.464844 219.101562 215.347656 C 199.300781 197.949219 190.824219 178.402344 190.824219 178.402344 "/><path style=" stroke:none;fill-rule:nonzero;fill:#fbe874;fill-opacity:1;" d="M 256.949219 226.953125 C 256.949219 226.953125 258.265625 214.058594 257.210938 211.554688 C 256.152344 209.050781 250.261719 218.125 250.261719 218.125 C 250.261719 218.125 249.234375 220.585938 250.535156 223.195312 C 251.613281 225.351562 254.789062 227.863281 256.949219 226.953125 "/><path style=" stroke:none;fill-rule:nonzero;fill:#fbe874;fill-opacity:1;" d="M 242.78125 208.128906 C 242.78125 208.128906 247.304688 190.5625 246.566406 189.65625 C 245.828125 188.746094 236.324219 196.542969 235.863281 200.257812 C 235.398438 203.976562 240.164062 209.1875 242.78125 208.128906 "/><path style=" stroke:none;fill-rule:nonzero;fill:#fbe874;fill-opacity:1;" d="M 210.507812 202.976562 C 210.507812 202.976562 215.089844 186.238281 214.292969 184.5 C 213.5 182.761719 204.050781 191.386719 203.589844 195.105469 C 203.128906 198.820312 207.890625 204.03125 210.507812 202.976562 "/><path style=" stroke:none;fill-rule:nonzero;fill:#fbe874;fill-opacity:1;" d="M 231.242188 221.332031 C 231.242188 221.332031 231.726562 208.125 231.300781 206.726562 C 230.875 205.332031 222.503906 211.136719 222.820312 214.863281 C 223.136719 218.59375 228.894531 222.84375 231.242188 221.332031 "/><path style=" stroke:none;fill-rule:nonzero;fill:#2e2a50;fill-opacity:1;" d="M 176.496094 134.328125 C 176.496094 134.328125 211.144531 173.925781 259.808594 174.234375 C 259.808594 174.234375 216.925781 170.929688 176.496094 134.328125 "/><path style=" stroke:none;fill-rule:nonzero;fill:#2e2a50;fill-opacity:1;" d="M 176.496094 134.328125 C 176.496094 134.328125 177.445312 207.628906 243.246094 230.484375 C 243.246094 230.484375 187.8125 206.09375 176.496094 134.328125 "/><path style=" stroke:none;fill-rule:nonzero;fill:#4d418e;fill-opacity:1;" d="M 264.839844 232.5625 C 264.839844 232.5625 267.140625 242.667969 248.03125 239.292969 C 248.03125 239.292969 262.414062 239.152344 264.839844 232.5625 "/><path style=" stroke:none;fill-rule:nonzero;fill:#6f59b2;fill-opacity:1;" d="M 265.933594 97.128906 C 259.273438 94.566406 250.382812 95.347656 245.9375 101.644531 C 239.640625 96.730469 231.746094 94.59375 224.160156 95.675781 C 210.121094 97.675781 204.03125 110.742188 208.066406 128.003906 C 212.105469 145.273438 224.75 160.199219 238.785156 158.203125 C 243.824219 157.484375 248.148438 154.570312 251.445312 150.339844 C 258.695312 155.605469 268.214844 156.625 278.230469 156.945312 C 295.339844 157.488281 306.171875 112.605469 265.933594 97.128906 "/><path style=" stroke:none;fill-rule:nonzero;fill:#463d83;fill-opacity:1;" d="M 251.429688 137.324219 C 253.410156 150.511719 263.546875 158.273438 274.453125 156.507812 C 285.363281 154.742188 293.90625 141.234375 289.933594 129.195312 C 285.746094 116.523438 276.25 108.113281 265.339844 109.878906 C 254.433594 111.644531 249.445312 124.140625 251.429688 137.324219 "/><path style=" stroke:none;fill-rule:nonzero;fill:#f9e806;fill-opacity:1;" d="M 253.226562 138.042969 C 254.964844 149.621094 264.035156 156.410156 273.824219 154.824219 C 283.617188 153.242188 291.316406 141.34375 287.789062 130.785156 C 284.070312 119.664062 275.574219 112.304688 265.78125 113.890625 C 255.996094 115.476562 251.488281 126.46875 253.226562 138.042969 "/><path style=" stroke:none;fill-rule:nonzero;fill:#f3ef15;fill-opacity:1;" d="M 257.261719 133.042969 C 258.605469 141.988281 265.613281 147.230469 273.175781 146.007812 C 280.742188 144.78125 286.691406 135.59375 283.964844 127.433594 C 281.089844 118.839844 274.527344 113.15625 266.960938 114.382812 C 259.398438 115.605469 255.917969 124.097656 257.261719 133.042969 "/><path style=" stroke:none;fill-rule:nonzero;fill:#338337;fill-opacity:1;" d="M 253.796875 135.691406 C 255.003906 140.789062 259.71875 144.339844 265.117188 143.621094 C 270.519531 142.898438 274.558594 138.183594 273.347656 133.082031 C 272.140625 127.984375 266.144531 124.433594 260.746094 125.152344 C 255.34375 125.875 252.585938 130.59375 253.796875 135.691406 "/><path style=" stroke:none;fill-rule:nonzero;fill:#20381c;fill-opacity:1;" d="M 256.453125 134.441406 C 257.304688 138.035156 260.460938 140.558594 264.019531 140.082031 C 267.582031 139.605469 270.203125 136.3125 269.351562 132.71875 C 268.5 129.125 264.5 126.59375 260.9375 127.066406 C 257.375 127.542969 255.601562 130.847656 256.453125 134.441406 "/><path style=" stroke:none;fill-rule:nonzero;fill:#ffffff;fill-opacity:1;" d="M 263.769531 130.230469 C 264.3125 132.523438 266.433594 134.121094 268.863281 133.796875 C 271.296875 133.472656 273.113281 131.347656 272.570312 129.050781 C 272.027344 126.757812 269.328125 125.160156 266.894531 125.484375 C 264.464844 125.8125 263.226562 127.933594 263.769531 130.230469 "/><path style=" stroke:none;fill-rule:nonzero;fill:#463d83;fill-opacity:1;" d="M 214.863281 132.121094 C 218.738281 147.867188 229.742188 161.605469 241.429688 159.984375 C 253.117188 158.363281 262.398438 142.953125 258.519531 127.210938 C 254.652344 111.464844 239.089844 101.351562 227.402344 102.972656 C 215.714844 104.589844 210.988281 116.378906 214.863281 132.121094 "/><path style=" stroke:none;fill-rule:nonzero;fill:#f9e806;fill-opacity:1;" d="M 217.484375 132.597656 C 220.921875 146.578125 230.195312 158.839844 239.796875 157.511719 C 249.390625 156.179688 256.789062 142.617188 253.351562 128.640625 C 249.910156 114.660156 236.941406 105.5625 227.34375 106.894531 C 217.742188 108.226562 214.042969 118.621094 217.484375 132.597656 "/><path style=" stroke:none;fill-rule:nonzero;fill:#f3ef15;fill-opacity:1;" d="M 225.214844 129.691406 C 227.820312 140.28125 234.847656 149.574219 242.121094 148.566406 C 249.386719 147.558594 254.992188 137.28125 252.386719 126.695312 C 249.78125 116.105469 239.957031 109.214844 232.6875 110.222656 C 225.417969 111.230469 222.613281 119.105469 225.214844 129.691406 "/><path style=" stroke:none;fill-rule:nonzero;fill:#338337;fill-opacity:1;" d="M 219.121094 134.460938 C 220.746094 139.871094 226.675781 143.472656 232.363281 142.511719 C 238.046875 141.546875 241.335938 136.382812 239.710938 130.972656 C 238.085938 125.5625 232.15625 121.953125 226.472656 122.921875 C 220.789062 123.882812 217.496094 129.046875 219.121094 134.460938 "/><path style=" stroke:none;fill-rule:nonzero;fill:#20381c;fill-opacity:1;" d="M 223.152344 133.5 C 224.152344 136.808594 227.773438 139.011719 231.25 138.425781 C 234.726562 137.835938 236.738281 134.679688 235.746094 131.367188 C 234.75 128.0625 231.128906 125.855469 227.652344 126.445312 C 224.175781 127.03125 222.160156 130.191406 223.152344 133.5 "/><path style=" stroke:none;fill-rule:nonzero;fill:#ffffff;fill-opacity:1;" d="M 228.597656 128.761719 C 229.398438 131.425781 232.460938 133.175781 235.449219 132.671875 C 238.4375 132.167969 240.203125 129.597656 239.40625 126.933594 C 238.601562 124.269531 235.535156 122.519531 232.550781 123.027344 C 229.566406 123.53125 227.792969 126.097656 228.597656 128.761719 "/><path style=" stroke:none;fill-rule:nonzero;fill:#3ba03c;fill-opacity:1;" d="M 169.773438 106.914062 C 170.039062 105.453125 150.058594 95.339844 146.515625 88.59375 C 142.976562 81.84375 143.21875 59.050781 143.21875 59.050781 C 143.21875 59.050781 117.9375 69.851562 104.003906 101.652344 C 90.074219 133.453125 109.121094 148.269531 142.699219 155.875 C 142.699219 155.875 164.667969 134.925781 169.773438 106.914062 "/><path style=" stroke:none;fill-rule:nonzero;fill:#c7cd14;fill-opacity:1;" d="M 163.363281 102.613281 C 163.363281 102.613281 135.957031 112.402344 127.03125 151.726562 L 142.699219 155.875 C 142.699219 155.875 175.390625 141.917969 180.769531 111.761719 L 163.363281 102.613281 "/><path style=" stroke:none;fill-rule:nonzero;fill:#c7cd14;fill-opacity:1;" d="M 155.0625 96.644531 C 155.0625 96.644531 139.019531 95.597656 124.292969 110.945312 C 109.566406 126.289062 107.894531 140.613281 107.894531 140.613281 C 107.894531 140.613281 97.875 129.046875 99.277344 116.867188 C 99.277344 116.867188 108.777344 87.699219 148.242188 90.707031 C 148.242188 90.707031 151.636719 94.414062 155.0625 96.644531 "/><path style=" stroke:none;fill-rule:nonzero;fill:#c7cd14;fill-opacity:1;" d="M 145.203125 84.636719 C 144.480469 83.878906 134.867188 73.953125 118.863281 77.648438 C 118.863281 77.648438 124.261719 71.628906 127.496094 69.558594 C 127.496094 69.558594 137.757812 64.542969 144.382812 78.621094 L 145.203125 84.636719 "/><g clip-rule="nonzero" clip-path="url(#5a6b991c9c)"><path style=" stroke:none;fill-rule:nonzero;fill:#c7cd14;fill-opacity:1;" d="M 143.351562 69.042969 C 143.351562 69.042969 142.609375 62.808594 133.917969 64.15625 C 133.917969 64.15625 137.703125 60.546875 143.597656 58.683594 C 143.597656 58.683594 143.984375 61.066406 143.351562 69.042969 "/></g><path style=" stroke:none;fill-rule:nonzero;fill:#d0d0ce;fill-opacity:1;" d="M 127.878906 151.953125 C 136.03125 154.914062 142.699219 155.875 142.699219 155.875 C 138.996094 155.035156 135.46875 154.109375 132.140625 153.082031 L 127.878906 151.953125 M 113.195312 144.570312 C 117.636719 147.648438 122.539062 149.953125 127.046875 151.648438 C 127.066406 151.558594 127.085938 151.476562 127.105469 151.390625 C 121.804688 149.453125 117.128906 147.199219 113.195312 144.570312 M 99.375 122.492188 C 99.480469 125.859375 100.160156 129.027344 101.585938 131.851562 C 102.1875 133.039062 102.867188 134.171875 103.609375 135.246094 C 101.332031 131.773438 99.929688 127.851562 99.523438 123.417969 C 99.46875 123.109375 99.417969 122.800781 99.375 122.492188 M 123.910156 72.359375 C 121.113281 74.109375 114.734375 81.796875 109.183594 91.539062 C 112.402344 86.09375 115.910156 81.449219 119.410156 77.523438 C 119.226562 77.5625 119.046875 77.605469 118.863281 77.648438 C 118.863281 77.648438 121.179688 75.066406 123.683594 72.703125 C 123.828125 72.476562 123.910156 72.359375 123.910156 72.359375 "/><path style=" stroke:none;fill-rule:nonzero;fill:#317f36;fill-opacity:1;" d="M 132.140625 153.082031 C 135.46875 154.109375 138.996094 155.035156 142.699219 155.875 L 132.140625 153.082031 M 99.523438 123.417969 C 99.929688 127.851562 101.332031 131.773438 103.609375 135.246094 C 104.496094 136.527344 105.476562 137.734375 106.535156 138.871094 C 104.488281 136.070312 100.726562 130.191406 99.523438 123.417969 M 118.066406 118.332031 C 110 129.316406 108.222656 138.503906 107.941406 140.296875 C 109.570312 141.863281 111.34375 143.285156 113.195312 144.570312 C 117.128906 147.199219 121.804688 149.453125 127.105469 151.390625 C 128.546875 145.152344 130.449219 139.667969 132.632812 134.847656 C 125.398438 129.792969 120.808594 124.132812 118.066406 118.332031 M 121.144531 77.203125 C 120.574219 77.292969 119.996094 77.398438 119.410156 77.523438 C 115.910156 81.449219 112.402344 86.09375 109.183594 91.539062 C 105.035156 98.8125 101.347656 107.230469 99.953125 115.179688 C 101.464844 111.792969 105.714844 103.988281 114.796875 98.054688 C 115.632812 89.425781 118.78125 81.851562 121.144531 77.203125 "/><path style=" stroke:none;fill-rule:nonzero;fill:#9fa621;fill-opacity:1;" d="M 132.632812 134.847656 C 130.449219 139.667969 128.546875 145.152344 127.105469 151.390625 C 127.085938 151.476562 127.066406 151.558594 127.046875 151.648438 C 127.328125 151.75 127.601562 151.851562 127.878906 151.953125 L 132.140625 153.082031 L 142.699219 155.875 L 156.453125 145.875 C 146.410156 142.796875 138.617188 139.03125 132.632812 134.847656 "/><path style=" stroke:none;fill-rule:nonzero;fill:#9fa621;fill-opacity:1;" d="M 114.796875 98.054688 C 105.714844 103.988281 101.464844 111.792969 99.953125 115.179688 C 99.515625 117.683594 99.304688 120.132812 99.375 122.492188 C 99.417969 122.800781 99.46875 123.109375 99.523438 123.417969 C 100.726562 130.191406 104.488281 136.070312 106.535156 138.871094 C 106.988281 139.359375 107.460938 139.835938 107.941406 140.296875 C 108.222656 138.503906 110 129.316406 118.066406 118.332031 C 114.839844 111.503906 114.175781 104.484375 114.796875 98.054688 "/><path style=" stroke:none;fill-rule:nonzero;fill:#9fa621;fill-opacity:1;" d="M 123.683594 72.703125 C 121.179688 75.066406 118.863281 77.648438 118.863281 77.648438 C 119.046875 77.605469 119.226562 77.5625 119.410156 77.523438 C 119.996094 77.398438 120.574219 77.292969 121.144531 77.203125 C 122.296875 74.929688 123.265625 73.359375 123.683594 72.703125 "/><path style=" stroke:none;fill-rule:nonzero;fill:#58b840;fill-opacity:1;" d="M 139.871094 64.652344 C 139.015625 66.214844 138.085938 68.039062 137.183594 70.082031 C 138.496094 70.804688 139.835938 71.875 141.128906 73.40625 C 141.28125 71.289062 141.566406 68.90625 142.019531 66.234375 C 141.515625 65.648438 140.820312 65.078125 139.871094 64.652344 "/><path style=" stroke:none;fill-rule:nonzero;fill:#9586cb;fill-opacity:1;" d="M 177.433594 122.675781 C 176.109375 125.679688 174.527344 128.472656 172.773438 131.054688 C 174.359375 129.003906 176.105469 126.214844 177.433594 122.675781 "/><path style=" stroke:none;fill-rule:nonzero;fill:#58b840;fill-opacity:1;" d="M 151.339844 96.8125 C 147.429688 97.253906 140.855469 98.6875 133.707031 103.203125 C 135.261719 108.425781 138.082031 113.664062 142.667969 118.640625 C 149.453125 110.441406 156.421875 106.039062 160.292969 104.023438 C 157.171875 101.65625 154.066406 99.183594 151.339844 96.8125 M 134.234375 78.09375 C 133.042969 82.171875 132.203125 86.675781 132.125 91.371094 C 135.335938 90.804688 138.835938 90.488281 142.652344 90.488281 C 143.398438 90.488281 144.152344 90.5 144.921875 90.523438 C 144.132812 89.585938 143.5 88.710938 143.058594 87.917969 C 142.382812 86.699219 141.609375 84.652344 141.226562 81.410156 C 139.449219 80.242188 137.101562 78.996094 134.234375 78.09375 "/><path style=" stroke:none;fill-rule:nonzero;fill:#d3db3d;fill-opacity:1;" d="M 160.292969 104.023438 C 156.421875 106.039062 149.453125 110.441406 142.667969 118.640625 C 148.320312 124.78125 156.667969 130.527344 168.644531 135.355469 C 168.644531 135.355469 170.550781 133.929688 172.773438 131.054688 C 174.527344 128.472656 176.109375 125.679688 177.433594 122.675781 C 178.054688 121.019531 178.585938 119.195312 178.96875 117.210938 C 178.96875 117.210938 169.566406 111.0625 160.292969 104.023438 "/><path style=" stroke:none;fill-rule:nonzero;fill:#d3db3d;fill-opacity:1;" d="M 142.652344 90.488281 C 138.835938 90.488281 135.335938 90.804688 132.125 91.371094 C 132.066406 95.226562 132.515625 99.207031 133.707031 103.203125 C 140.855469 98.6875 147.429688 97.253906 151.339844 96.8125 C 148.761719 94.574219 146.523438 92.421875 144.921875 90.523438 C 144.152344 90.5 143.398438 90.488281 142.652344 90.488281 "/><path style=" stroke:none;fill-rule:nonzero;fill:#d3db3d;fill-opacity:1;" d="M 137.183594 70.082031 C 136.117188 72.484375 135.085938 75.183594 134.234375 78.09375 C 137.101562 78.996094 139.449219 80.242188 141.226562 81.410156 C 140.980469 79.289062 140.898438 76.65625 141.128906 73.40625 C 139.835938 71.875 138.496094 70.804688 137.183594 70.082031 "/><g clip-rule="nonzero" clip-path="url(#5c24da4d07)"><path style=" stroke:none;fill-rule:nonzero;fill:#d3db3d;fill-opacity:1;" d="M 143.597656 58.683594 C 143.597656 58.683594 141.933594 60.90625 139.871094 64.652344 C 140.820312 65.078125 141.515625 65.648438 142.019531 66.234375 C 142.410156 63.9375 142.929688 61.425781 143.597656 58.683594 "/></g><path style=" stroke:none;fill-rule:nonzero;fill:#fdfefd;fill-opacity:1;" d="M 135.332031 84.476562 C 134.753906 84.925781 133.195312 90.035156 138.558594 96.960938 C 143.921875 103.886719 154.175781 110.003906 154.753906 109.554688 C 155.335938 109.105469 147.136719 101.390625 141.773438 94.464844 C 136.40625 87.539062 135.910156 84.027344 135.332031 84.476562 "/><path style=" stroke:none;fill-rule:nonzero;fill:#3a3476;fill-opacity:1;" d="M 88.609375 216.183594 C 103.710938 216.960938 117.773438 228.371094 114.261719 234.925781 C 109.429688 243.960938 97.816406 245.246094 95.484375 244.988281 C 93.152344 244.734375 93.066406 243.210938 97.085938 240.78125 C 101.101562 238.351562 101.546875 234.652344 101.546875 234.652344 C 101.332031 221.078125 88.605469 226.464844 88.605469 226.464844 C 68.203125 229.171875 83.636719 248.632812 86.375 249.570312 C 89.113281 250.507812 87.507812 252.40625 87.507812 252.40625 C 87.507812 252.40625 71.929688 254.046875 67.453125 242.960938 C 61.382812 225.800781 79.691406 220.46875 79.691406 220.46875 C 78.808594 209.613281 69.539062 213.460938 65.855469 221.984375 C 64.519531 225.066406 63.28125 221.78125 63.28125 221.78125 C 66.414062 183.3125 86.074219 209.292969 87.078125 214.980469 C 88.082031 220.667969 88.609375 216.183594 88.609375 216.183594 "/><path style=" stroke:none;fill-rule:nonzero;fill:#6f59b2;fill-opacity:1;" d="M 152.964844 174.203125 C 152.964844 174.203125 89.777344 172.238281 87.078125 214.980469 C 87.078125 214.980469 86.902344 219.902344 89.550781 217.003906 C 92.199219 214.105469 110.570312 188.460938 138.886719 198.648438 C 138.886719 198.648438 158.289062 179.96875 152.964844 174.203125 "/><path style=" stroke:none;fill-rule:nonzero;fill:#332f65;fill-opacity:1;" d="M 70.929688 227.289062 C 70.929688 227.289062 60.820312 244.261719 78.996094 249.402344 C 78.996094 249.402344 66.726562 243.03125 70.929688 227.289062 "/><path style=" stroke:none;fill-rule:nonzero;fill:#332f65;fill-opacity:1;" d="M 73.527344 202.726562 C 73.195312 202.726562 72.851562 202.746094 72.492188 202.785156 C 65.203125 206.453125 64.910156 218.851562 64.910156 218.851562 C 67.3125 209.261719 71.167969 206.78125 74.511719 206.78125 C 78.09375 206.78125 81.089844 209.621094 81.089844 209.621094 C 81.089844 209.621094 79.789062 202.726562 73.527344 202.726562 "/><path style=" stroke:none;fill-rule:nonzero;fill:#332f65;fill-opacity:1;" d="M 103.886719 224.628906 C 103.886719 224.628906 118.277344 232.5 99.367188 243.101562 C 99.367188 243.101562 126.058594 233.347656 103.886719 224.628906 "/><path style=" stroke:none;fill-rule:nonzero;fill:#604eab;fill-opacity:1;" d="M 140.453125 184.804688 C 120.414062 184.804688 107.328125 192.65625 99.308594 200.507812 C 91.289062 208.363281 88.339844 216.210938 88.574219 216.210938 C 88.585938 216.210938 88.597656 216.203125 88.609375 216.183594 C 102.964844 198.753906 116.558594 194.828125 125.902344 194.828125 C 133.570312 194.828125 138.371094 197.476562 138.371094 197.476562 C 146.679688 193.839844 145.988281 185 145.988281 185 C 144.085938 184.867188 142.242188 184.804688 140.453125 184.804688 "/></g></svg>