<svg xmlns="http://www.w3.org/2000/svg" xmlns:xlink="http://www.w3.org/1999/xlink" width="626" zoomAndPan="magnify" viewBox="0 0 469.5 456.749982" height="609" preserveAspectRatio="xMidYMid meet" version="1.2"><defs><clipPath id="4211f304b5"><path d="M 0 0.117188 L 469 0.117188 L 469 455.898438 L 0 455.898438 Z M 0 0.117188 "/></clipPath><clipPath id="2dddd811ae"><path d="M 56.9375 0.117188 L 411.566406 0.117188 C 443.011719 0.117188 468.503906 25.609375 468.503906 57.058594 L 468.503906 398.960938 C 468.503906 430.40625 443.011719 455.898438 411.566406 455.898438 L 56.9375 455.898438 C 25.492188 455.898438 0 430.40625 0 398.960938 L 0 57.058594 C 0 25.609375 25.492188 0.117188 56.9375 0.117188 Z M 56.9375 0.117188 "/></clipPath><clipPath id="3637b6d5d3"><path d="M 325.328125 116.628906 L 380.59375 116.628906 L 380.59375 176.457031 L 325.328125 176.457031 Z M 325.328125 116.628906 "/></clipPath><clipPath id="b2e1e28521"><path d="M 118.789062 93 L 353 93 L 353 390.992188 L 118.789062 390.992188 Z M 118.789062 93 "/></clipPath><clipPath id="781759f5ae"><path d="M 233.457031 325.160156 L 296.660156 325.160156 L 296.660156 390.992188 L 233.457031 390.992188 Z M 233.457031 325.160156 "/></clipPath></defs><g id="f467fff545"><g clip-rule="nonzero" clip-path="url(#4211f304b5)"><g clip-rule="nonzero" clip-path="url(#2dddd811ae)"><path style=" stroke:none;fill-rule:nonzero;fill:#d455c3;fill-opacity:1;" d="M 0 0.117188 L 468.242188 0.117188 L 468.242188 455.898438 L 0 455.898438 Z M 0 0.117188 "/></g></g><path style=" stroke:none;fill-rule:nonzero;fill:#f47315;fill-opacity:1;" d="M 171.542969 114.101562 C 171.542969 114.101562 178.589844 93.957031 174.230469 81.863281 L 183.019531 82.046875 C 183.019531 82.046875 176.550781 102.257812 181.753906 112.890625 C 181.753906 112.890625 175.316406 116.0625 171.542969 114.101562 "/><path style=" stroke:none;fill-rule:nonzero;fill:#e5671a;fill-opacity:1;" d="M 174.597656 82.710938 L 175.667969 85.847656 L 181.363281 86.527344 L 183.972656 82.152344 L 174.597656 82.710938 "/><path style=" stroke:none;fill-rule:nonzero;fill:#409382;fill-opacity:1;" d="M 166.378906 69.714844 C 163.777344 73.355469 166.257812 78.789062 171.925781 81.851562 C 177.59375 84.917969 184.300781 84.453125 186.90625 80.8125 C 189.511719 77.175781 187.027344 71.738281 181.359375 68.675781 C 175.691406 65.609375 168.984375 66.078125 166.378906 69.714844 "/><path style=" stroke:none;fill-rule:nonzero;fill:#5fab99;fill-opacity:1;" d="M 173.757812 67.296875 C 172.089844 67.296875 170.761719 67.777344 170.171875 68.742188 C 169.007812 70.648438 171.179688 73.710938 175.023438 75.582031 C 176.921875 76.503906 178.871094 76.964844 180.5 76.964844 C 182.167969 76.964844 183.496094 76.484375 184.085938 75.519531 C 185.25 73.613281 183.078125 70.550781 179.234375 68.679688 C 177.335938 67.757812 175.386719 67.296875 173.757812 67.296875 "/><path style=" stroke:none;fill-rule:nonzero;fill:#f47315;fill-opacity:1;" d="M 294.28125 113.59375 C 294.28125 113.59375 287.238281 93.445312 291.597656 81.355469 L 282.804688 81.539062 C 282.804688 81.539062 289.273438 101.746094 284.074219 112.378906 C 284.074219 112.378906 290.507812 115.550781 294.28125 113.59375 "/><path style=" stroke:none;fill-rule:nonzero;fill:#e5671a;fill-opacity:1;" d="M 291.226562 82.199219 L 290.160156 85.335938 L 284.464844 86.015625 L 281.851562 81.644531 L 291.226562 82.199219 "/><path style=" stroke:none;fill-rule:nonzero;fill:#409382;fill-opacity:1;" d="M 299.445312 69.207031 C 302.050781 72.84375 299.566406 78.277344 293.898438 81.34375 C 288.230469 84.40625 281.523438 83.941406 278.921875 80.304688 C 276.316406 76.664062 278.796875 71.230469 284.46875 68.167969 C 290.136719 65.101562 296.84375 65.566406 299.445312 69.207031 "/><path style=" stroke:none;fill-rule:nonzero;fill:#5fab99;fill-opacity:1;" d="M 292.066406 66.785156 C 290.4375 66.785156 288.488281 67.246094 286.589844 68.171875 C 282.75 70.042969 280.578125 73.105469 281.742188 75.007812 C 282.332031 75.972656 283.660156 76.457031 285.328125 76.457031 C 286.957031 76.457031 288.90625 75.996094 290.804688 75.070312 C 294.644531 73.199219 296.816406 70.136719 295.652344 68.234375 C 295.066406 67.269531 293.734375 66.785156 292.066406 66.785156 "/><path style=" stroke:none;fill-rule:nonzero;fill:#59c6a9;fill-opacity:1;" d="M 160.5 124.015625 C 160.722656 122.53125 140.214844 112.925781 136.421875 106.210938 C 132.632812 99.496094 132.164062 76.421875 132.164062 76.421875 C 132.164062 76.421875 106.957031 88.144531 93.878906 120.757812 C 80.796875 153.375 100.507812 167.765625 134.679688 174.40625 C 134.679688 174.40625 156.21875 152.519531 160.5 124.015625 "/><path style=" stroke:none;fill-rule:nonzero;fill:#409382;fill-opacity:1;" d="M 153.882812 119.867188 C 153.882812 119.867188 126.5 130.632812 118.714844 170.703125 L 146.78125 176.023438 C 146.78125 176.023438 167.277344 159.257812 171.765625 128.578125 L 153.882812 119.867188 "/><path style=" stroke:none;fill-rule:nonzero;fill:#409382;fill-opacity:1;" d="M 145.3125 114.089844 C 145.3125 114.089844 129.070312 113.53125 114.671875 129.523438 C 100.269531 145.511719 99.027344 160.058594 99.027344 160.058594 C 99.027344 160.058594 88.542969 148.671875 89.574219 136.300781 C 89.574219 136.300781 98.261719 106.492188 138.234375 108.296875 C 138.234375 108.296875 141.777344 111.9375 145.3125 114.089844 "/><path style=" stroke:none;fill-rule:nonzero;fill:#409382;fill-opacity:1;" d="M 134.972656 102.25 C 134.21875 101.507812 124.195312 91.765625 108.136719 96.003906 C 108.136719 96.003906 113.402344 89.746094 116.605469 87.550781 C 116.605469 87.550781 126.816406 82.15625 133.953125 96.1875 L 134.972656 102.25 "/><path style=" stroke:none;fill-rule:nonzero;fill:#409382;fill-opacity:1;" d="M 132.613281 86.53125 C 132.613281 86.53125 131.667969 80.246094 122.925781 81.882812 C 122.925781 81.882812 126.636719 78.109375 132.535156 76.042969 C 132.535156 76.042969 133.003906 78.4375 132.613281 86.53125 "/><path style=" stroke:none;fill-rule:nonzero;fill:#d0d0ce;fill-opacity:1;" d="M 89.511719 137.460938 C 89.164062 142.617188 89.941406 147.421875 92.382812 151.390625 C 92.648438 151.824219 92.921875 152.246094 93.207031 152.664062 C 91.550781 149.746094 90.46875 146.507812 90.03125 142.917969 C 89.660156 141.152344 89.460938 139.320312 89.511719 137.460938 M 113.070312 90.496094 C 108.117188 93.820312 91.59375 117.046875 89.625 136.144531 C 89.691406 135.933594 89.828125 135.527344 90.050781 134.960938 C 90.546875 130.65625 91.800781 125.941406 93.878906 120.757812 C 98 110.480469 103.324219 102.28125 108.683594 95.863281 C 108.503906 95.910156 108.320312 95.957031 108.136719 96.003906 C 108.136719 96.003906 110.324219 93.40625 112.738281 90.96875 C 112.953125 90.660156 113.070312 90.496094 113.070312 90.496094 "/><path style=" stroke:none;fill-rule:nonzero;fill:#45a08c;fill-opacity:1;" d="M 124.535156 171.808594 C 126.582031 172.339844 128.574219 172.785156 130.472656 173.160156 C 130.496094 173.085938 130.515625 173.015625 130.539062 172.945312 L 124.535156 171.808594 M 90.03125 142.917969 C 90.46875 146.507812 91.550781 149.746094 93.207031 152.664062 C 94.136719 154.03125 95.160156 155.316406 96.261719 156.523438 C 94.070312 153.398438 91.195312 148.488281 90.03125 142.917969 M 107.375 139.054688 C 101.0625 148.910156 99.472656 156.949219 99.121094 159.335938 C 104.796875 164.363281 111.886719 167.785156 118.828125 170.113281 C 120.054688 164.015625 121.734375 158.597656 123.695312 153.804688 C 115.867188 149.421875 110.667969 144.359375 107.375 139.054688 M 109.90625 95.589844 C 109.503906 95.671875 109.097656 95.761719 108.683594 95.863281 C 103.324219 102.28125 98 110.480469 93.878906 120.757812 C 91.800781 125.941406 90.546875 130.65625 90.050781 134.960938 C 91.21875 131.984375 94.71875 124.589844 102.589844 118.332031 C 103.304688 109.035156 107.089844 100.667969 109.90625 95.589844 "/><path style=" stroke:none;fill-rule:nonzero;fill:#347568;fill-opacity:1;" d="M 123.695312 153.804688 C 121.734375 158.597656 120.054688 164.015625 118.828125 170.113281 C 120.753906 170.757812 122.664062 171.320312 124.535156 171.808594 L 130.539062 172.945312 C 131.871094 168.433594 133.34375 164.0625 134.964844 159.863281 C 135.074219 159.589844 135.179688 159.320312 135.285156 159.046875 C 130.902344 157.445312 127.054688 155.6875 123.695312 153.804688 "/><path style=" stroke:none;fill-rule:nonzero;fill:#347568;fill-opacity:1;" d="M 102.589844 118.332031 C 94.71875 124.589844 91.21875 131.984375 90.050781 134.960938 C 89.828125 135.527344 89.691406 135.933594 89.625 136.144531 C 89.578125 136.585938 89.542969 137.023438 89.511719 137.460938 C 89.460938 139.320312 89.660156 141.152344 90.03125 142.917969 C 91.195312 148.488281 94.070312 153.398438 96.261719 156.523438 C 97.164062 157.511719 98.121094 158.445312 99.121094 159.335938 C 99.472656 156.949219 101.0625 148.910156 107.375 139.054688 C 103.160156 132.257812 102.074219 125.050781 102.589844 118.332031 "/><path style=" stroke:none;fill-rule:nonzero;fill:#347568;fill-opacity:1;" d="M 112.738281 90.96875 C 110.324219 93.40625 108.136719 96.003906 108.136719 96.003906 C 108.320312 95.957031 108.503906 95.910156 108.683594 95.863281 C 109.097656 95.761719 109.503906 95.671875 109.90625 95.589844 C 111.160156 93.324219 112.222656 91.714844 112.738281 90.96875 "/><path style=" stroke:none;fill-rule:nonzero;fill:#78d1b7;fill-opacity:1;" d="M 128.410156 82.003906 C 127.476562 83.546875 126.472656 85.347656 125.5 87.355469 C 127.128906 88.019531 128.839844 89.160156 130.503906 91.015625 C 130.589844 88.867188 130.804688 86.449219 131.179688 83.734375 C 130.554688 83.046875 129.664062 82.398438 128.410156 82.003906 "/><path style=" stroke:none;fill-rule:nonzero;fill:#78d1b7;fill-opacity:1;" d="M 141.832031 114.339844 C 137.832031 114.882812 130.84375 116.574219 123.382812 121.78125 C 125.5625 126.503906 129.074219 131.1875 134.375 135.601562 C 140.949219 127.492188 147.671875 123.109375 151.253906 121.152344 C 147.957031 118.910156 144.695312 116.578125 141.832031 114.339844 M 122.25 95.613281 C 120.933594 99.984375 120.128906 104.816406 120.414062 109.824219 C 124.640625 108.808594 129.410156 108.21875 134.792969 108.21875 C 134.835938 108.21875 134.875 108.21875 134.917969 108.21875 C 134.0625 107.289062 133.378906 106.425781 132.910156 105.636719 C 132.1875 104.425781 131.339844 102.375 130.855469 99.109375 C 128.726562 97.804688 125.828125 96.417969 122.25 95.613281 "/><path style=" stroke:none;fill-rule:nonzero;fill:#62ad9b;fill-opacity:1;" d="M 151.253906 121.152344 C 147.671875 123.109375 140.949219 127.492188 134.375 135.601562 C 137.027344 137.8125 140.121094 139.949219 143.730469 141.996094 C 147.636719 135.582031 152.050781 129.894531 156.851562 124.871094 C 155.015625 123.679688 153.128906 122.429688 151.253906 121.152344 "/><path style=" stroke:none;fill-rule:nonzero;fill:#62ad9b;fill-opacity:1;" d="M 134.792969 108.21875 C 129.410156 108.21875 124.640625 108.808594 120.414062 109.824219 C 120.636719 113.746094 121.53125 117.777344 123.382812 121.78125 C 130.84375 116.574219 137.832031 114.882812 141.832031 114.339844 C 139.046875 112.160156 136.632812 110.070312 134.917969 108.21875 C 134.875 108.21875 134.835938 108.21875 134.792969 108.21875 "/><path style=" stroke:none;fill-rule:nonzero;fill:#62ad9b;fill-opacity:1;" d="M 125.5 87.355469 C 124.304688 89.824219 123.15625 92.609375 122.25 95.613281 C 125.828125 96.417969 128.726562 97.804688 130.855469 99.109375 C 130.535156 96.96875 130.375 94.308594 130.503906 91.015625 C 128.839844 89.160156 127.128906 88.019531 125.5 87.355469 "/><path style=" stroke:none;fill-rule:nonzero;fill:#62ad9b;fill-opacity:1;" d="M 132.535156 76.042969 C 132.535156 76.042969 130.675781 78.269531 128.410156 82.003906 C 129.664062 82.398438 130.554688 83.046875 131.179688 83.734375 C 131.5 81.394531 131.945312 78.839844 132.535156 76.042969 "/><path style=" stroke:none;fill-rule:nonzero;fill:#fdfefd;fill-opacity:1;" d="M 124.992188 102.398438 C 124.421875 102.871094 123.007812 108.089844 128.644531 114.925781 C 134.28125 121.765625 144.835938 127.632812 145.40625 127.160156 C 145.976562 126.6875 137.449219 119.136719 131.8125 112.300781 C 126.175781 105.464844 125.5625 101.925781 124.992188 102.398438 "/><path style=" stroke:none;fill-rule:nonzero;fill:#409382;fill-opacity:1;" d="M 308.113281 130.058594 C 308.089844 128.476562 330.886719 121.304688 335.792969 114.808594 C 340.699219 108.316406 344.417969 84.242188 344.417969 84.242188 C 344.417969 84.242188 369.148438 100.042969 378.269531 136 C 387.386719 171.953125 364.753906 184.242188 328.078125 186.394531 C 328.078125 186.394531 308.605469 160.476562 308.113281 130.058594 "/><path style=" stroke:none;fill-rule:nonzero;fill:#59c6a9;fill-opacity:1;" d="M 315.617188 126.644531 C 315.617188 126.644531 342.757812 141.753906 345.296875 184.761719 L 328.078125 186.394531 C 328.078125 186.394531 296.09375 165.976562 295.691406 133.25 L 315.617188 126.644531 "/><g clip-rule="nonzero" clip-path="url(#3637b6d5d3)"><path style=" stroke:none;fill-rule:nonzero;fill:#59c6a9;fill-opacity:1;" d="M 325.394531 121.804688 C 325.394531 121.804688 342.464844 123.5 355.289062 142.25 C 368.117188 161 367.378906 176.386719 367.378906 176.386719 C 367.378906 176.386719 379.941406 165.945312 380.59375 152.859375 C 380.59375 152.859375 375.675781 120.457031 333.609375 116.734375 C 333.609375 116.734375 329.390625 120.050781 325.394531 121.804688 "/></g><path style=" stroke:none;fill-rule:nonzero;fill:#59c6a9;fill-opacity:1;" d="M 337.867188 110.871094 C 338.757812 110.195312 350.609375 101.410156 366.8125 108.101562 C 366.8125 108.101562 362.179688 100.816406 359.136719 98.066406 C 359.136719 98.066406 349.210938 90.992188 339.777344 104.671875 L 337.867188 110.871094 "/><path style=" stroke:none;fill-rule:nonzero;fill:#59c6a9;fill-opacity:1;" d="M 342.535156 94.757812 C 342.535156 94.757812 344.402344 88.3125 353.320312 91.253906 C 353.320312 91.253906 349.960938 86.785156 344.082031 83.796875 C 344.082031 83.796875 343.257812 86.234375 342.535156 94.757812 "/><path style=" stroke:none;fill-rule:nonzero;fill:#d0d0ce;fill-opacity:1;" d="M 362.425781 101.648438 C 362.425781 101.648438 362.523438 101.832031 362.703125 102.1875 C 364.886719 105.074219 366.8125 108.101562 366.8125 108.101562 C 366.628906 108.023438 366.441406 107.949219 366.257812 107.875 C 369.257812 112.628906 372.144531 118.140625 374.585938 124.441406 C 370.4375 113.203125 365.0625 103.980469 362.425781 101.648438 "/><path style=" stroke:none;fill-rule:nonzero;fill:#347568;fill-opacity:1;" d="M 365.019531 107.414062 C 367.257812 113.125 370.046875 122.410156 369.492188 132.234375 C 376.550781 139.574219 379.257812 147.441406 380.171875 150.964844 C 380.089844 142.34375 377.679688 132.832031 374.585938 124.441406 C 372.144531 118.140625 369.257812 112.628906 366.257812 107.875 C 365.84375 107.710938 365.429688 107.558594 365.019531 107.414062 "/><path style=" stroke:none;fill-rule:nonzero;fill:#d0d0ce;fill-opacity:1;" d="M 344.363281 184.851562 L 339.703125 185.292969 C 339.730469 185.390625 339.753906 185.488281 339.777344 185.585938 C 341.226562 185.390625 342.765625 185.148438 344.363281 184.851562 M 361.101562 179.632812 C 356.507812 181.71875 351.191406 183.273438 345.273438 184.390625 C 345.28125 184.484375 345.285156 184.578125 345.292969 184.671875 C 350.335938 183.675781 355.894531 182.105469 361.101562 179.632812 "/><path style=" stroke:none;fill-rule:nonzero;fill:#347568;fill-opacity:1;" d="M 361.585938 153.242188 C 357.398438 158.335938 351.253906 162.898438 342.449219 166.386719 C 343.851562 171.746094 344.859375 177.734375 345.273438 184.390625 C 351.191406 183.273438 356.507812 181.71875 361.101562 179.632812 C 363.28125 178.601562 365.394531 177.414062 367.386719 176.042969 C 367.402344 174.210938 367.160156 165.1875 361.585938 153.242188 "/><path style=" stroke:none;fill-rule:nonzero;fill:#45a08c;fill-opacity:1;" d="M 342.449219 166.386719 C 340.128906 167.304688 337.625 168.148438 334.925781 168.910156 C 336.617188 173.949219 338.210938 179.390625 339.703125 185.292969 L 344.363281 184.851562 C 344.671875 184.792969 344.980469 184.734375 345.292969 184.671875 C 345.285156 184.578125 345.28125 184.484375 345.273438 184.390625 C 344.859375 177.734375 343.851562 171.746094 342.449219 166.386719 "/><path style=" stroke:none;fill-rule:nonzero;fill:#d0d0ce;fill-opacity:1;" d="M 379.507812 158.777344 C 379.40625 159.09375 379.300781 159.414062 379.191406 159.726562 C 377.988281 164.324219 375.828125 168.214844 372.824219 171.476562 C 373.796875 170.472656 374.710938 169.398438 375.546875 168.253906 C 377.542969 165.523438 378.8125 162.304688 379.507812 158.777344 "/><path style=" stroke:none;fill-rule:nonzero;fill:#347568;fill-opacity:1;" d="M 379.191406 159.726562 C 376.742188 166.652344 371.761719 172.1875 369.117188 174.785156 C 370.425781 173.773438 371.667969 172.671875 372.824219 171.476562 C 375.828125 168.214844 377.988281 164.324219 379.191406 159.726562 "/><path style=" stroke:none;fill-rule:nonzero;fill:#45a08c;fill-opacity:1;" d="M 369.492188 132.234375 C 369.09375 139.335938 366.949219 146.722656 361.585938 153.242188 C 367.160156 165.1875 367.402344 174.210938 367.386719 176.042969 C 367.976562 175.640625 368.550781 175.222656 369.117188 174.785156 C 371.761719 172.1875 376.742188 166.652344 379.191406 159.726562 C 379.300781 159.414062 379.40625 159.09375 379.507812 158.777344 C 379.992188 156.304688 380.199219 153.679688 380.171875 150.964844 C 379.257812 147.441406 376.550781 139.574219 369.492188 132.234375 "/><path style=" stroke:none;fill-rule:nonzero;fill:#45a08c;fill-opacity:1;" d="M 362.703125 102.1875 C 363.140625 103.039062 364.027344 104.875 365.019531 107.414062 C 365.429688 107.558594 365.84375 107.710938 366.257812 107.875 C 366.441406 107.949219 366.628906 108.023438 366.8125 108.101562 C 366.8125 108.101562 364.886719 105.074219 362.703125 102.1875 "/><path style=" stroke:none;fill-rule:nonzero;fill:#62ad9b;fill-opacity:1;" d="M 329.875 122.808594 C 326.429688 125.101562 322.664062 127.300781 319.257812 129.171875 C 323.128906 132.195312 329.4375 138.085938 334.898438 147.667969 C 341.648438 144 346.351562 139.714844 349.515625 135.132812 C 342.199219 127.53125 334.546875 124.21875 329.875 122.808594 M 353.800781 105.613281 C 349.191406 105.75 345.367188 106.941406 342.613281 108.164062 C 341.648438 111.507812 340.472656 113.539062 339.550781 114.703125 C 338.917969 115.5 338.144531 116.316406 337.261719 117.140625 C 344.089844 118.0625 349.859375 119.769531 354.730469 121.957031 C 355.597656 116.351562 355.03125 110.742188 353.800781 105.613281 M 348.070312 90.539062 C 346.441406 90.714844 345.265625 91.324219 344.429688 92.03125 C 344.441406 94.921875 344.324219 97.480469 344.113281 99.742188 C 346.464844 97.734375 348.746094 96.773438 350.792969 96.414062 C 349.894531 94.226562 348.953125 92.246094 348.070312 90.539062 "/><path style=" stroke:none;fill-rule:nonzero;fill:#78d1b7;fill-opacity:1;" d="M 319.257812 129.171875 C 318.042969 129.835938 316.871094 130.460938 315.777344 131.035156 C 320.019531 136.589844 324.042969 143.128906 327.769531 150.988281 C 330.371094 149.949219 332.738281 148.839844 334.898438 147.667969 C 329.4375 138.085938 323.128906 132.195312 319.257812 129.171875 "/><path style=" stroke:none;fill-rule:nonzero;fill:#78d1b7;fill-opacity:1;" d="M 337.261719 117.140625 C 335.253906 119.015625 332.671875 120.945312 329.875 122.808594 C 334.546875 124.21875 342.199219 127.53125 349.515625 135.132812 C 352.429688 130.910156 354.039062 126.433594 354.730469 121.957031 C 349.859375 119.769531 344.089844 118.0625 337.261719 117.140625 "/><path style=" stroke:none;fill-rule:nonzero;fill:#78d1b7;fill-opacity:1;" d="M 350.792969 96.414062 C 348.746094 96.773438 346.464844 97.734375 344.113281 99.742188 C 343.789062 103.207031 343.246094 105.96875 342.613281 108.164062 C 345.367188 106.941406 349.191406 105.75 353.800781 105.613281 C 353.007812 102.304688 351.9375 99.191406 350.792969 96.414062 "/><path style=" stroke:none;fill-rule:nonzero;fill:#78d1b7;fill-opacity:1;" d="M 344.082031 83.796875 C 344.308594 86.800781 344.417969 89.539062 344.429688 92.03125 C 345.265625 91.324219 346.441406 90.714844 348.070312 90.539062 C 345.902344 86.355469 344.082031 83.796875 344.082031 83.796875 "/><path style=" stroke:none;fill-rule:nonzero;fill:#fdfefd;fill-opacity:1;" d="M 348.285156 112.425781 C 348.816406 113 349.566406 118.65625 342.710938 125.019531 C 335.855469 131.382812 323.996094 136.039062 323.464844 135.464844 C 322.933594 134.890625 332.910156 128.191406 339.765625 121.828125 C 346.617188 115.464844 347.753906 111.851562 348.285156 112.425781 "/><path style=" stroke:none;fill-rule:nonzero;fill:#ba551e;fill-opacity:1;" d="M 142.742188 337.070312 C 143.054688 338.476562 162.363281 359.390625 170.449219 361.320312 C 177.828125 363.078125 202.179688 328.085938 202.179688 328.085938 C 202.179688 328.085938 134.945312 302.414062 142.742188 337.070312 "/><path style=" stroke:none;fill-rule:nonzero;fill:#873f1b;fill-opacity:1;" d="M 139.320312 334.339844 C 139.636719 335.746094 158.941406 356.660156 167.03125 358.585938 C 174.40625 360.34375 198.757812 325.355469 198.757812 325.355469 C 198.757812 325.355469 131.523438 299.679688 139.320312 334.339844 "/><path style=" stroke:none;fill-rule:nonzero;fill:#ba551e;fill-opacity:1;" d="M 256.191406 346.140625 C 256.191406 346.140625 290.726562 365.476562 297.21875 365.242188 C 301.792969 365.074219 337.820312 324.125 337.820312 324.125 C 337.820312 324.125 237.917969 311.5 256.191406 346.140625 "/><path style=" stroke:none;fill-rule:nonzero;fill:#873f1b;fill-opacity:1;" d="M 252.769531 344.777344 C 252.769531 344.777344 287.308594 364.113281 293.800781 363.875 C 298.375 363.707031 334.398438 322.765625 334.398438 322.765625 C 334.398438 322.765625 234.5 310.136719 252.769531 344.777344 "/><g clip-rule="nonzero" clip-path="url(#b2e1e28521)"><path style=" stroke:none;fill-rule:nonzero;fill:#f47315;fill-opacity:1;" d="M 125.699219 366.515625 C 124.421875 361.75 106.371094 233.804688 134.964844 159.863281 C 163.558594 85.929688 248.292969 83.066406 285.226562 104.910156 C 322.15625 126.75 357.277344 162.941406 352.574219 367.554688 C 352.574219 367.554688 351.238281 388.082031 296.484375 329.320312 C 296.484375 329.320312 273.296875 363.5625 233.703125 390.992188 C 233.703125 390.992188 195.394531 363.675781 161.164062 318.566406 C 161.164062 318.566406 131.195312 387.035156 125.699219 366.515625 "/></g><path style=" stroke:none;fill-rule:nonzero;fill:#f57d1d;fill-opacity:1;" d="M 241.203125 188.542969 C 250.445312 188.542969 258.773438 186.644531 264.378906 183.882812 C 267.617188 182.285156 270.941406 181.285156 274.195312 181.285156 C 279.613281 181.285156 284.828125 184.054688 289.113281 191.429688 C 290.507812 193.832031 291.089844 197.703125 290.839844 202.394531 C 293.335938 216.746094 283.34375 250.113281 259.765625 260.875 C 255.027344 263.039062 249.742188 264.296875 243.902344 264.296875 C 243.261719 264.296875 242.617188 264.28125 241.964844 264.253906 C 212.363281 262.867188 197.101562 253.484375 188.550781 241.828125 C 184.304688 236.039062 181.707031 229.695312 179.84375 223.488281 C 178.164062 217.894531 177.570312 213.316406 177.566406 209.648438 C 177.441406 208.734375 177.351562 207.851562 177.285156 207.011719 C 175.035156 193.882812 179.238281 189.371094 179.238281 189.371094 C 181.921875 183.832031 186.773438 181.484375 194.835938 181.484375 C 202.191406 181.484375 212.222656 183.441406 225.714844 186.714844 C 230.957031 187.988281 236.214844 188.542969 241.203125 188.542969 M 231.480469 100.078125 C 205.785156 100.078125 180.25 113.101562 161.253906 135.796875 C 163.371094 135.785156 173.703125 135.730469 187.796875 135.6875 C 187.800781 135.675781 187.800781 135.667969 187.804688 135.660156 C 187.863281 135.667969 187.921875 135.675781 187.976562 135.6875 C 198 135.652344 209.910156 135.628906 222.117188 135.628906 C 235.6875 135.628906 249.625 135.660156 261.746094 135.75 C 264.878906 135.417969 268 135.015625 271.109375 134.488281 C 271.328125 134.925781 271.53125 135.378906 271.71875 135.84375 C 271.878906 135.847656 272.035156 135.847656 272.195312 135.847656 C 273.324219 135.648438 274.453125 135.429688 275.578125 135.1875 C 278.65625 135.289062 281.734375 135.34375 284.8125 135.410156 C 284.84375 135.507812 284.875 135.609375 284.90625 135.707031 C 284.976562 135.710938 285.050781 135.710938 285.121094 135.714844 C 285.125 135.722656 285.128906 135.734375 285.132812 135.746094 C 286.734375 135.777344 288.335938 135.804688 289.941406 135.832031 L 290.011719 135.824219 C 290.011719 135.828125 290.015625 135.828125 290.015625 135.832031 C 290.019531 135.832031 290.019531 135.832031 290.023438 135.832031 C 290.578125 135.832031 291.085938 135.757812 291.570312 135.648438 C 291.632812 135.859375 291.691406 136.066406 291.75 136.277344 C 294.679688 136.40625 296.511719 136.554688 296.957031 136.734375 C 297.621094 136.996094 296.476562 139.125 292.921875 141.75 C 293.070312 142.792969 293.1875 143.851562 293.265625 144.929688 C 294.558594 163.03125 284.503906 178.429688 270.820312 179.320312 C 270.402344 179.347656 269.984375 179.363281 269.570312 179.363281 C 257.550781 179.363281 246.96875 168.003906 244.253906 152.6875 C 244.136719 152.683594 244.015625 152.679688 243.898438 152.679688 C 241.542969 168.796875 227.304688 181.511719 209.503906 182.210938 C 208.988281 182.230469 208.476562 182.242188 207.96875 182.242188 C 188.605469 182.242188 172.488281 167.777344 171.632812 149.296875 C 171.476562 145.949219 171.835938 142.699219 172.636719 139.609375 C 168.914062 138.464844 165.089844 137.230469 161.164062 135.90625 C 156.085938 141.988281 151.476562 148.765625 147.457031 156.167969 C 118.683594 209.183594 128.65625 304.691406 129.5625 308.285156 C 130.285156 311.136719 131.292969 312.285156 132.582031 312.285156 C 135.253906 312.285156 139.132812 307.339844 144.113281 302.390625 C 149.097656 297.445312 155.1875 292.496094 162.292969 292.496094 C 163.222656 292.496094 164.171875 292.582031 165.136719 292.761719 C 184.386719 296.371094 202.390625 321.390625 223.238281 323.691406 C 224.167969 323.792969 225.089844 323.839844 226.007812 323.839844 C 235.683594 323.839844 244.726562 318.390625 254.015625 312.945312 C 263.308594 307.496094 272.851562 302.046875 283.539062 302.046875 C 283.867188 302.046875 284.199219 302.050781 284.53125 302.0625 C 304.835938 302.707031 314.816406 322.769531 325.988281 322.769531 C 327.398438 322.769531 328.832031 322.449219 330.304688 321.726562 C 343.433594 315.300781 336.34375 161.738281 279.84375 117.347656 C 264.808594 105.53125 248.113281 100.078125 231.480469 100.078125 "/><path style=" stroke:none;fill-rule:nonzero;fill:#ba551e;fill-opacity:1;" d="M 127.070312 369.25 C 127.070312 369.25 133.570312 374.714844 155.6875 311.050781 L 161.164062 318.566406 C 161.164062 318.566406 135.285156 379.160156 127.070312 369.25 "/><g clip-rule="nonzero" clip-path="url(#781759f5ae)"><path style=" stroke:none;fill-rule:nonzero;fill:#ba551e;fill-opacity:1;" d="M 233.703125 390.992188 C 233.703125 390.992188 271.246094 360.832031 292.035156 325.222656 L 296.484375 329.320312 C 296.484375 329.320312 276.371094 362.191406 233.703125 390.992188 "/></g><path style=" stroke:none;fill-rule:nonzero;fill:#df6e1a;fill-opacity:1;" d="M 172.636719 139.609375 C 171.835938 142.699219 171.476562 145.949219 171.632812 149.296875 C 172.488281 167.777344 188.605469 182.242188 207.96875 182.242188 C 208.476562 182.242188 208.988281 182.230469 209.503906 182.210938 C 227.304688 181.511719 241.542969 168.796875 243.898438 152.679688 C 243.148438 152.664062 242.390625 152.640625 241.625 152.613281 C 237.988281 165.300781 225.363281 174.9375 209.914062 175.542969 C 209.398438 175.566406 208.882812 175.574219 208.371094 175.574219 C 190.199219 175.574219 175.125 162.835938 174.371094 146.523438 C 174.269531 144.390625 174.421875 142.296875 174.804688 140.269531 C 174.085938 140.050781 173.363281 139.832031 172.636719 139.609375 "/><path style=" stroke:none;fill-rule:nonzero;fill:#743719;fill-opacity:1;" d="M 242.648438 143.832031 C 242.539062 141.472656 242.121094 139.1875 241.445312 137.003906 C 222.484375 137.507812 203.515625 138.566406 184.648438 135.863281 C 181.726562 136.125 178.796875 136.242188 175.867188 136.292969 C 174.742188 139.515625 174.203125 142.960938 174.371094 146.523438 C 175.148438 163.292969 191.058594 176.289062 209.914062 175.542969 C 228.769531 174.804688 243.425781 160.605469 242.648438 143.832031 "/><path style=" stroke:none;fill-rule:nonzero;fill:#f9e806;fill-opacity:1;" d="M 238.367188 144.167969 C 238.253906 141.710938 237.753906 139.359375 236.980469 137.132812 C 219.539062 137.648438 202.097656 138.332031 184.746094 135.855469 C 184.152344 135.910156 183.558594 135.957031 182.960938 136 C 181.65625 139.234375 181 142.753906 181.167969 146.421875 C 181.847656 161.085938 195.203125 172.46875 210.996094 171.847656 C 226.789062 171.226562 239.046875 158.832031 238.367188 144.167969 "/><path style=" stroke:none;fill-rule:nonzero;fill:#f3ef15;fill-opacity:1;" d="M 236.5625 137.023438 C 237.265625 139.042969 237.714844 141.171875 237.820312 143.394531 C 238.433594 156.667969 227.339844 167.886719 213.042969 168.449219 C 198.746094 169.011719 186.660156 158.710938 186.042969 145.433594 C 185.886719 141.984375 186.53125 138.679688 187.804688 135.660156 C 204 138.160156 220.28125 137.507812 236.5625 137.023438 "/><path style=" stroke:none;fill-rule:nonzero;fill:#522918;fill-opacity:1;" d="M 226.382812 136.347656 C 227.5 138.375 228.191406 140.636719 228.304688 143.054688 C 228.714844 152.035156 221.210938 159.625 211.542969 160.003906 C 201.863281 160.390625 193.683594 153.417969 193.269531 144.4375 C 193.140625 141.640625 193.777344 138.984375 195.007812 136.636719 C 205.453125 137.003906 215.917969 136.664062 226.382812 136.347656 "/><path style=" stroke:none;fill-rule:nonzero;fill:#df6e1a;fill-opacity:1;" d="M 292.921875 141.75 C 292.386719 142.144531 291.800781 142.546875 291.160156 142.960938 C 292.097656 158.773438 282.640625 172.1875 269.875 173.023438 C 269.460938 173.050781 269.042969 173.0625 268.632812 173.0625 C 258.253906 173.0625 249.0625 164.59375 245.726562 152.707031 C 245.242188 152.703125 244.746094 152.695312 244.253906 152.6875 C 246.96875 168.003906 257.550781 179.363281 269.570312 179.363281 C 269.984375 179.363281 270.402344 179.347656 270.820312 179.320312 C 284.503906 178.429688 294.558594 163.03125 293.265625 144.929688 C 293.1875 143.851562 293.070312 142.792969 292.921875 141.75 M 285.132812 135.746094 C 286.734375 135.777344 288.335938 135.808594 289.941406 135.832031 C 288.335938 135.804688 286.734375 135.777344 285.132812 135.746094 M 291.570312 135.648438 C 291.085938 135.757812 290.578125 135.832031 290.023438 135.832031 C 290.019531 135.832031 290.019531 135.832031 290.015625 135.832031 C 290.046875 135.957031 290.082031 136.085938 290.113281 136.214844 C 290.695312 136.234375 291.238281 136.257812 291.75 136.277344 C 291.691406 136.066406 291.632812 135.859375 291.570312 135.648438 "/><path style=" stroke:none;fill-rule:nonzero;fill:#743719;fill-opacity:1;" d="M 274.796875 135.460938 C 279.84375 135.632812 284.890625 135.757812 289.941406 135.832031 L 290.011719 135.824219 C 290.582031 137.957031 290.964844 140.203125 291.128906 142.519531 C 292.273438 158.527344 282.757812 172.179688 269.875 173.023438 C 257 173.863281 245.632812 161.570312 244.492188 145.566406 C 244.332031 143.3125 244.386719 141.109375 244.632812 138.976562 C 254.730469 138.136719 264.863281 137.613281 274.796875 135.460938 "/><path style=" stroke:none;fill-rule:nonzero;fill:#f9e806;fill-opacity:1;" d="M 274.722656 135.460938 C 278.1875 135.578125 281.65625 135.640625 285.121094 135.714844 C 285.835938 138 286.320312 140.429688 286.5 142.980469 C 287.5 156.976562 279.5625 168.890625 268.773438 169.59375 C 257.988281 170.300781 248.429688 159.523438 247.429688 145.535156 C 247.265625 143.1875 247.367188 140.914062 247.675781 138.730469 C 256.742188 138.015625 265.8125 137.386719 274.722656 135.460938 "/><path style=" stroke:none;fill-rule:nonzero;fill:#f3ef15;fill-opacity:1;" d="M 275.578125 135.1875 C 278.65625 135.289062 281.734375 135.34375 284.8125 135.410156 C 285.449219 137.441406 285.878906 139.601562 286.039062 141.867188 C 286.925781 154.296875 279.875 164.882812 270.292969 165.507812 C 260.710938 166.132812 252.21875 156.5625 251.335938 144.132812 C 251.1875 142.050781 251.277344 140.027344 251.550781 138.089844 C 259.601562 137.457031 267.660156 136.898438 275.578125 135.1875 "/><path style=" stroke:none;fill-rule:nonzero;fill:#522918;fill-opacity:1;" d="M 249.769531 136.789062 C 249.210938 138.800781 248.96875 141.011719 249.132812 143.320312 C 249.746094 151.890625 255.597656 158.484375 262.207031 158.054688 C 268.816406 157.621094 273.675781 150.328125 273.0625 141.757812 C 272.875 139.089844 272.175781 136.621094 271.109375 134.488281 C 264.046875 135.691406 256.910156 136.230469 249.769531 136.789062 "/><path style=" stroke:none;fill-rule:nonzero;fill:#b55a1e;fill-opacity:1;" d="M 244.054688 151.441406 C 244.007812 151.855469 243.957031 152.269531 243.898438 152.679688 C 244.015625 152.679688 244.136719 152.683594 244.253906 152.6875 C 244.183594 152.273438 244.113281 151.859375 244.054688 151.441406 M 222.117188 135.628906 C 209.910156 135.628906 198 135.652344 187.976562 135.6875 C 190.648438 136.09375 193.316406 136.417969 195.988281 136.667969 C 198.898438 136.761719 201.808594 136.796875 204.722656 136.796875 C 211.9375 136.796875 219.160156 136.566406 226.382812 136.347656 C 226.554688 136.664062 226.71875 136.980469 226.871094 137.304688 C 230.101562 137.222656 233.332031 137.121094 236.5625 137.023438 C 236.574219 137.0625 236.589844 137.101562 236.601562 137.140625 C 238.515625 137.085938 240.429688 137.027344 242.339844 136.980469 C 242.917969 138.609375 243.375 140.296875 243.695312 142.03125 C 243.765625 141.015625 243.875 140.011719 244.015625 139.027344 C 244.222656 139.007812 244.425781 138.992188 244.632812 138.976562 C 244.722656 138.96875 244.816406 138.960938 244.910156 138.953125 C 245.832031 138.875 246.753906 138.800781 247.675781 138.730469 C 247.808594 138.71875 247.945312 138.707031 248.078125 138.695312 C 248.507812 138.664062 248.933594 138.628906 249.363281 138.597656 C 249.472656 137.980469 249.605469 137.375 249.769531 136.789062 C 253.765625 136.476562 257.761719 136.171875 261.746094 135.75 C 249.625 135.660156 235.6875 135.628906 222.117188 135.628906 "/><path style=" stroke:none;fill-rule:nonzero;fill:#9e4e1d;fill-opacity:1;" d="M 242.339844 136.980469 C 240.429688 137.027344 238.515625 137.085938 236.601562 137.140625 C 236.605469 137.140625 236.605469 137.140625 236.605469 137.140625 C 236.730469 137.136719 236.855469 137.132812 236.980469 137.132812 C 238.46875 137.085938 239.957031 137.042969 241.445312 137.003906 C 242.121094 139.1875 242.539062 141.472656 242.648438 143.832031 C 242.789062 146.867188 242.425781 149.816406 241.625 152.613281 C 242.390625 152.640625 243.148438 152.664062 243.898438 152.679688 C 243.957031 152.269531 244.007812 151.855469 244.054688 151.441406 C 243.894531 150.367188 243.777344 149.273438 243.695312 148.164062 C 243.546875 146.078125 243.550781 144.027344 243.695312 142.03125 C 243.375 140.296875 242.917969 138.609375 242.339844 136.980469 "/><path style=" stroke:none;fill-rule:nonzero;fill:#502914;fill-opacity:1;" d="M 241.445312 137.003906 C 239.957031 137.042969 238.46875 137.085938 236.980469 137.132812 C 237.753906 139.359375 238.253906 141.710938 238.367188 144.167969 C 238.5 147.027344 238.140625 149.796875 237.359375 152.414062 C 238.816406 152.5 240.230469 152.566406 241.625 152.613281 C 242.425781 149.816406 242.789062 146.867188 242.648438 143.832031 C 242.539062 141.472656 242.121094 139.1875 241.445312 137.003906 "/><path style=" stroke:none;fill-rule:nonzero;fill:#b5531e;fill-opacity:1;" d="M 161.253906 135.796875 C 160.988281 135.800781 160.855469 135.800781 160.855469 135.800781 C 160.960938 135.835938 161.058594 135.871094 161.164062 135.90625 C 161.195312 135.867188 161.222656 135.835938 161.253906 135.796875 "/><path style=" stroke:none;fill-rule:nonzero;fill:#b55a1e;fill-opacity:1;" d="M 187.796875 135.6875 C 173.703125 135.730469 163.371094 135.785156 161.253906 135.796875 C 161.222656 135.835938 161.195312 135.867188 161.164062 135.90625 C 165.089844 137.230469 168.914062 138.464844 172.636719 139.609375 C 172.925781 138.492188 173.273438 137.394531 173.675781 136.320312 C 174.40625 136.3125 175.136719 136.304688 175.867188 136.292969 C 176.402344 136.28125 176.945312 136.269531 177.484375 136.257812 C 179.214844 136.210938 180.945312 136.136719 182.671875 136.019531 C 182.6875 136.015625 182.703125 136.015625 182.71875 136.015625 C 182.726562 136.015625 182.730469 136.015625 182.738281 136.015625 C 183.375 135.96875 184.011719 135.917969 184.648438 135.863281 C 184.652344 135.863281 184.652344 135.863281 184.652344 135.863281 C 184.652344 135.863281 184.65625 135.863281 184.65625 135.863281 C 184.6875 135.863281 184.71875 135.859375 184.746094 135.855469 C 185.6875 135.988281 186.632812 136.117188 187.574219 136.230469 C 187.644531 136.046875 187.71875 135.867188 187.796875 135.6875 "/><path style=" stroke:none;fill-rule:nonzero;fill:#9e4e1d;fill-opacity:1;" d="M 175.867188 136.292969 C 175.136719 136.304688 174.40625 136.3125 173.675781 136.320312 C 173.273438 137.394531 172.925781 138.492188 172.636719 139.609375 C 173.363281 139.832031 174.085938 140.050781 174.804688 140.269531 C 175.058594 138.910156 175.414062 137.582031 175.867188 136.292969 M 182.671875 136.019531 C 180.945312 136.136719 179.214844 136.210938 177.484375 136.257812 C 179.214844 136.210938 180.945312 136.136719 182.671875 136.019531 M 182.738281 136.015625 C 182.730469 136.015625 182.726562 136.015625 182.71875 136.015625 C 182.722656 136.015625 182.730469 136.015625 182.738281 136.015625 M 184.652344 135.863281 C 184.652344 135.863281 184.652344 135.863281 184.65625 135.863281 C 184.65625 135.863281 184.652344 135.863281 184.652344 135.863281 "/><path style=" stroke:none;fill-rule:nonzero;fill:#502914;fill-opacity:1;" d="M 184.648438 135.863281 C 184.011719 135.917969 183.375 135.96875 182.738281 136.015625 C 182.730469 136.015625 182.722656 136.015625 182.71875 136.015625 C 182.703125 136.015625 182.6875 136.015625 182.671875 136.019531 C 180.945312 136.136719 179.214844 136.210938 177.484375 136.257812 C 176.945312 136.269531 176.402344 136.28125 175.867188 136.292969 C 175.414062 137.582031 175.058594 138.910156 174.804688 140.269531 C 177.019531 140.933594 179.199219 141.570312 181.34375 142.175781 C 181.617188 140.03125 182.171875 137.964844 182.960938 136 C 183.527344 135.960938 184.089844 135.914062 184.65625 135.863281 C 184.652344 135.863281 184.652344 135.863281 184.648438 135.863281 "/><path style=" stroke:none;fill-rule:nonzero;fill:#aea61d;fill-opacity:1;" d="M 236.980469 137.132812 C 236.855469 137.132812 236.730469 137.136719 236.605469 137.140625 C 237.28125 139.125 237.71875 141.214844 237.820312 143.394531 C 237.964844 146.535156 237.453125 149.558594 236.402344 152.351562 C 236.722656 152.375 237.042969 152.394531 237.359375 152.414062 C 238.140625 149.796875 238.5 147.027344 238.367188 144.167969 C 238.253906 141.710938 237.753906 139.359375 236.980469 137.132812 M 184.746094 135.855469 C 184.71875 135.859375 184.6875 135.863281 184.65625 135.863281 C 184.089844 135.914062 183.527344 135.960938 182.960938 136 C 182.171875 137.964844 181.617188 140.03125 181.34375 142.175781 C 182.929688 142.625 184.492188 143.054688 186.039062 143.472656 C 186.144531 140.945312 186.683594 138.507812 187.574219 136.230469 C 186.632812 136.117188 185.6875 135.988281 184.746094 135.855469 "/><path style=" stroke:none;fill-rule:nonzero;fill:#adb41d;fill-opacity:1;" d="M 236.5625 137.023438 C 233.332031 137.121094 230.101562 137.222656 226.871094 137.304688 C 227.699219 139.078125 228.207031 141.011719 228.304688 143.054688 C 228.441406 146.078125 227.683594 148.941406 226.25 151.425781 C 229.785156 151.839844 233.175781 152.144531 236.402344 152.351562 C 237.453125 149.558594 237.964844 146.535156 237.820312 143.394531 C 237.71875 141.214844 237.28125 139.125 236.605469 137.140625 C 236.605469 137.140625 236.605469 137.140625 236.601562 137.140625 C 236.589844 137.101562 236.574219 137.0625 236.5625 137.023438 M 187.976562 135.6875 C 187.917969 135.6875 187.855469 135.6875 187.796875 135.6875 C 187.71875 135.867188 187.644531 136.046875 187.574219 136.230469 C 186.683594 138.507812 186.144531 140.945312 186.039062 143.472656 C 188.519531 144.136719 190.957031 144.765625 193.339844 145.347656 C 193.304688 145.046875 193.285156 144.742188 193.269531 144.4375 C 193.140625 141.640625 193.777344 138.984375 195.007812 136.636719 C 195.335938 136.648438 195.660156 136.660156 195.988281 136.667969 C 193.316406 136.417969 190.648438 136.09375 187.976562 135.6875 "/><path style=" stroke:none;fill-rule:nonzero;fill:#381f16;fill-opacity:1;" d="M 226.382812 136.347656 C 219.160156 136.566406 211.9375 136.796875 204.722656 136.796875 C 201.808594 136.796875 198.898438 136.761719 195.988281 136.667969 C 195.660156 136.660156 195.335938 136.648438 195.007812 136.636719 C 193.777344 138.984375 193.140625 141.640625 193.269531 144.4375 C 193.285156 144.742188 193.304688 145.046875 193.339844 145.347656 C 205.578125 148.347656 216.5 150.292969 226.25 151.425781 C 227.683594 148.941406 228.441406 146.078125 228.304688 143.054688 C 228.207031 141.011719 227.699219 139.078125 226.871094 137.304688 C 226.71875 136.980469 226.554688 136.664062 226.382812 136.347656 "/><path style=" stroke:none;fill-rule:nonzero;fill:#9e4e1d;fill-opacity:1;" d="M 244.632812 138.976562 C 244.425781 138.992188 244.222656 139.007812 244.015625 139.027344 C 243.875 140.011719 243.765625 141.015625 243.695312 142.03125 C 243.960938 143.46875 244.132812 144.9375 244.203125 146.4375 C 244.28125 148.128906 244.226562 149.800781 244.054688 151.441406 C 244.113281 151.859375 244.183594 152.273438 244.253906 152.6875 C 244.746094 152.695312 245.242188 152.703125 245.726562 152.707031 C 245.089844 150.441406 244.667969 148.046875 244.492188 145.566406 C 244.332031 143.3125 244.386719 141.109375 244.632812 138.976562 M 247.675781 138.730469 C 246.753906 138.800781 245.832031 138.875 244.910156 138.953125 C 245.828125 138.875 246.753906 138.800781 247.675781 138.730469 M 249.363281 138.597656 C 248.933594 138.628906 248.507812 138.664062 248.078125 138.695312 C 248.507812 138.664062 248.9375 138.628906 249.363281 138.597656 "/><path style=" stroke:none;fill-rule:nonzero;fill:#89451c;fill-opacity:1;" d="M 243.695312 142.03125 C 243.550781 144.027344 243.546875 146.078125 243.695312 148.164062 C 243.777344 149.273438 243.894531 150.367188 244.054688 151.441406 C 244.226562 149.800781 244.28125 148.128906 244.203125 146.4375 C 244.132812 144.9375 243.960938 143.46875 243.695312 142.03125 "/><path style=" stroke:none;fill-rule:nonzero;fill:#502914;fill-opacity:1;" d="M 247.675781 138.730469 C 246.753906 138.800781 245.828125 138.875 244.910156 138.953125 C 244.816406 138.960938 244.722656 138.96875 244.632812 138.976562 C 244.386719 141.109375 244.332031 143.3125 244.492188 145.566406 C 244.667969 148.046875 245.089844 150.441406 245.726562 152.707031 C 246.242188 152.710938 246.746094 152.714844 247.253906 152.714844 C 247.757812 152.714844 248.257812 152.710938 248.753906 152.707031 C 248.066406 150.453125 247.609375 148.046875 247.429688 145.535156 C 247.265625 143.1875 247.367188 140.914062 247.675781 138.730469 "/><path style=" stroke:none;fill-rule:nonzero;fill:#aea61d;fill-opacity:1;" d="M 249.363281 138.597656 C 248.9375 138.628906 248.507812 138.664062 248.078125 138.695312 C 247.945312 138.707031 247.808594 138.71875 247.675781 138.730469 C 247.367188 140.914062 247.265625 143.1875 247.429688 145.535156 C 247.609375 148.046875 248.066406 150.453125 248.753906 152.707031 C 249.960938 152.695312 251.144531 152.667969 252.296875 152.628906 C 250.550781 150.109375 249.390625 146.886719 249.132812 143.320312 C 249.019531 141.683594 249.105469 140.097656 249.363281 138.597656 "/><path style=" stroke:none;fill-rule:nonzero;fill:#b55a1e;fill-opacity:1;" d="M 291.75 136.277344 C 292.253906 138.039062 292.644531 139.867188 292.921875 141.75 C 296.476562 139.125 297.621094 136.996094 296.957031 136.734375 C 296.511719 136.554688 294.679688 136.40625 291.75 136.277344 M 271.71875 135.84375 C 271.730469 135.871094 271.742188 135.898438 271.753906 135.925781 C 271.898438 135.902344 272.046875 135.875 272.195312 135.847656 C 272.035156 135.847656 271.878906 135.847656 271.71875 135.84375 "/><path style=" stroke:none;fill-rule:nonzero;fill:#9e4e1d;fill-opacity:1;" d="M 290.113281 136.214844 C 290.625 138.230469 290.976562 140.34375 291.128906 142.519531 C 291.140625 142.667969 291.148438 142.8125 291.160156 142.960938 C 291.800781 142.546875 292.386719 142.144531 292.921875 141.75 C 292.644531 139.867188 292.253906 138.039062 291.75 136.277344 C 291.238281 136.257812 290.695312 136.234375 290.113281 136.214844 "/><path style=" stroke:none;fill-rule:nonzero;fill:#502914;fill-opacity:1;" d="M 285.230469 136.070312 C 285.886719 138.25 286.328125 140.5625 286.5 142.980469 C 286.5625 143.824219 286.589844 144.652344 286.585938 145.476562 C 288.347656 144.636719 289.867188 143.785156 291.160156 142.960938 C 291.148438 142.8125 291.140625 142.667969 291.128906 142.519531 C 290.976562 140.34375 290.625 138.230469 290.113281 136.214844 C 288.675781 136.164062 287.039062 136.113281 285.230469 136.070312 "/><path style=" stroke:none;fill-rule:nonzero;fill:#aea61d;fill-opacity:1;" d="M 285.011719 136.066406 C 285.535156 137.902344 285.894531 139.84375 286.039062 141.867188 C 286.132812 143.175781 286.136719 144.464844 286.0625 145.722656 C 286.238281 145.640625 286.414062 145.558594 286.585938 145.476562 C 286.589844 144.652344 286.5625 143.824219 286.5 142.980469 C 286.328125 140.5625 285.886719 138.25 285.230469 136.070312 C 285.15625 136.066406 285.085938 136.066406 285.011719 136.066406 "/><path style=" stroke:none;fill-rule:nonzero;fill:#adb41d;fill-opacity:1;" d="M 272.195312 135.847656 C 272.046875 135.875 271.898438 135.902344 271.753906 135.925781 C 272.457031 137.707031 272.914062 139.671875 273.0625 141.757812 C 273.285156 144.882812 272.78125 147.839844 271.730469 150.355469 C 277.625 149.085938 282.359375 147.4375 286.0625 145.722656 C 286.136719 144.464844 286.132812 143.175781 286.039062 141.867188 C 285.894531 139.84375 285.535156 137.902344 285.011719 136.066406 C 281.363281 135.976562 277.023438 135.90625 272.195312 135.847656 "/><path style=" stroke:none;fill-rule:nonzero;fill:#381f16;fill-opacity:1;" d="M 261.746094 135.75 C 257.761719 136.171875 253.765625 136.476562 249.769531 136.789062 C 249.605469 137.375 249.472656 137.980469 249.363281 138.597656 C 249.105469 140.097656 249.019531 141.683594 249.132812 143.320312 C 249.390625 146.886719 250.550781 150.109375 252.296875 152.628906 C 259.847656 152.367188 266.285156 151.523438 271.730469 150.355469 C 272.78125 147.839844 273.285156 144.882812 273.0625 141.757812 C 272.914062 139.671875 272.457031 137.707031 271.753906 135.925781 C 271.742188 135.898438 271.730469 135.871094 271.71875 135.84375 C 268.582031 135.808594 265.238281 135.777344 261.746094 135.75 "/><path style=" stroke:none;fill-rule:nonzero;fill:#fdf5b6;fill-opacity:1;" d="M 194.542969 152.183594 C 194.785156 155.5625 197.667969 158.125 200.988281 157.90625 C 204.308594 157.691406 206.800781 154.777344 206.558594 151.402344 C 206.320312 148.023438 203.433594 145.464844 200.117188 145.679688 C 196.800781 145.894531 194.300781 148.808594 194.542969 152.183594 "/><path style=" stroke:none;fill-rule:nonzero;fill:#fdf5b6;fill-opacity:1;" d="M 251.765625 150.464844 C 251.957031 153.191406 253.949219 155.285156 256.207031 155.136719 C 258.46875 154.988281 260.144531 152.660156 259.949219 149.929688 C 259.753906 147.203125 257.765625 145.109375 255.503906 145.257812 C 253.246094 145.40625 251.570312 147.738281 251.765625 150.464844 "/><path style=" stroke:none;fill-rule:nonzero;fill:#ba551e;fill-opacity:1;" d="M 306.820312 135.914062 C 306.820312 135.914062 249.542969 128.636719 153.332031 136.453125 C 153.332031 136.453125 276.828125 140.410156 306.820312 135.914062 "/><path style=" stroke:none;fill-rule:nonzero;fill:#f7983e;fill-opacity:1;" d="M 290.839844 202.394531 C 290.832031 202.566406 290.820312 202.742188 290.808594 202.914062 C 290.425781 219.742188 280.285156 247.9375 259.539062 257.773438 C 255.414062 259.726562 250.875 260.824219 245.90625 261.148438 C 243.769531 261.378906 241.628906 261.484375 239.503906 261.484375 C 230.417969 261.484375 221.621094 259.519531 214.378906 256.910156 C 210.863281 255.703125 207.710938 254.28125 204.875 252.691406 C 203.960938 252.195312 203.105469 251.695312 202.324219 251.203125 C 192.621094 245.113281 188.246094 237.648438 188.246094 237.648438 C 183.980469 231.585938 181.359375 224.953125 179.476562 218.464844 C 178.527344 215.199219 177.921875 212.269531 177.566406 209.648438 C 177.570312 213.316406 178.164062 217.894531 179.84375 223.488281 C 181.707031 229.695312 184.304688 236.039062 188.550781 241.828125 C 197.101562 253.484375 212.363281 262.867188 241.964844 264.253906 C 242.617188 264.28125 243.261719 264.296875 243.902344 264.296875 C 249.742188 264.296875 255.027344 263.039062 259.765625 260.875 C 283.34375 250.113281 293.335938 216.746094 290.839844 202.394531 "/><path style=" stroke:none;fill-rule:nonzero;fill:#ba551e;fill-opacity:1;" d="M 289.113281 191.429688 C 282.257812 179.628906 273.011719 179.621094 264.378906 183.882812 C 255.746094 188.136719 240.652344 190.339844 225.714844 186.714844 C 197.433594 179.851562 184.371094 178.78125 179.238281 189.371094 C 179.238281 189.371094 173.429688 195.609375 179.121094 214.738281 C 181.011719 221.085938 183.636719 227.574219 187.902344 233.503906 C 198.191406 223.257812 211.332031 229.210938 221.632812 235.84375 C 227.28125 239.484375 231.464844 237.640625 237.261719 236.320312 C 243.410156 234.921875 248.554688 235.925781 253.648438 240.492188 C 258.359375 244.714844 261.386719 248.601562 259.210938 253.269531 C 285.558594 241.085938 295.261719 202.007812 289.113281 191.429688 "/><path style=" stroke:none;fill-rule:nonzero;fill:#461d24;fill-opacity:1;" d="M 288.996094 192.347656 C 282.152344 180.289062 273.402344 182.433594 264.765625 186.800781 C 256.125 191.160156 231.617188 194.523438 216.980469 189.585938 C 202.34375 184.640625 185.46875 180.445312 180.324219 191.285156 C 180.324219 191.285156 173.800781 198.910156 179.476562 218.464844 C 181.359375 224.953125 183.980469 231.585938 188.246094 237.648438 C 211.042969 266.78125 251.140625 261.703125 259.539062 257.773438 C 285.898438 245.277344 295.132812 203.15625 288.996094 192.347656 "/><path style=" stroke:none;fill-rule:nonzero;fill:#3b1a1f;fill-opacity:1;" d="M 277.359375 195.316406 C 271.746094 184.855469 264.542969 186.742188 257.425781 190.558594 C 250.308594 194.371094 230.128906 197.355469 218.089844 193.101562 C 206.050781 188.84375 192.167969 185.242188 187.914062 194.671875 C 187.914062 194.671875 182.535156 201.3125 187.171875 218.289062 C 188.710938 223.921875 190.859375 229.679688 194.359375 234.933594 C 213.074219 260.1875 246.085938 255.671875 253.003906 252.234375 C 274.722656 241.308594 282.394531 204.695312 277.359375 195.316406 "/><path style=" stroke:none;fill-rule:nonzero;fill:#ee242d;fill-opacity:1;" d="M 255.78125 243.699219 C 250.691406 239.035156 237.304688 235.136719 227.792969 246.167969 C 214.207031 223.03125 188.503906 229.648438 188.246094 237.648438 C 196.839844 249.847656 211.789062 260.691406 241.742188 261.238281 C 248.367188 261.359375 254.289062 260.261719 259.539062 257.773438 C 261.71875 252.992188 260.488281 248.011719 255.78125 243.699219 "/><path style=" stroke:none;fill-rule:nonzero;fill:#fdfcd9;fill-opacity:1;" d="M 242.089844 206.105469 C 242.167969 205.496094 242.167969 204.894531 242.136719 204.304688 C 242.074219 204.890625 242.042969 205.488281 242.089844 206.105469 "/><path style=" stroke:none;fill-rule:nonzero;fill:#fdfcd9;fill-opacity:1;" d="M 266.882812 201.136719 C 264.070312 213.125 252.023438 230.058594 244.1875 228.421875 C 241.574219 227.875 240.328125 215.824219 240.328125 215.824219 C 240.328125 215.824219 239.140625 224.742188 234.261719 228.410156 C 231.898438 230.183594 224.921875 230.640625 215.042969 216.175781 C 210.503906 209.53125 206.226562 199.8125 203.414062 185.582031 C 203.414062 185.582031 215.359375 189.183594 237.988281 191.800781 C 254.324219 191.960938 268.695312 184.957031 268.695312 184.957031 C 268.695312 184.957031 268.960938 192.28125 266.882812 201.136719 Z M 242.136719 204.304688 C 242.074219 204.890625 242.042969 205.488281 242.089844 206.105469 C 242.167969 205.496094 242.167969 204.894531 242.136719 204.304688 "/><path style=" stroke:none;fill-rule:nonzero;fill:#f3f5cd;fill-opacity:1;" d="M 266.332031 203.285156 C 266.332031 203.285156 262.132812 183.773438 244.128906 198.011719 L 242.058594 196.871094 C 242.058594 196.871094 224.816406 183.476562 210.238281 195.746094 C 210.238281 195.746094 209.402344 219.574219 229.457031 228.023438 C 229.457031 228.023438 211.027344 228.433594 203.414062 185.582031 C 203.414062 185.582031 231.03125 192.503906 247.179688 190.894531 C 263.328125 189.285156 268.695312 184.957031 268.695312 184.957031 C 268.695312 184.957031 269.964844 193.789062 266.332031 203.285156 "/><path style=" stroke:none;fill-rule:nonzero;fill:#a72229;fill-opacity:1;" d="M 244.871094 190.320312 C 244.871094 190.320312 244.089844 207.042969 240.355469 217.566406 C 240.355469 217.566406 244.636719 197.902344 240.6875 190.054688 L 244.871094 190.320312 "/><path style=" stroke:none;fill-rule:nonzero;fill:#ee2832;fill-opacity:1;" d="M 192.101562 237.128906 C 190.988281 240.386719 198.234375 242.34375 206.894531 245.582031 C 215.554688 248.816406 222.351562 252.101562 223.464844 248.847656 C 224.578125 245.589844 219.585938 237.03125 210.925781 233.792969 C 202.265625 230.558594 193.214844 233.871094 192.101562 237.128906 "/><path style=" stroke:none;fill-rule:nonzero;fill:#ef2f5c;fill-opacity:1;" d="M 210.210938 235.222656 C 209.34375 235.222656 208.660156 235.429688 208.464844 235.714844 C 208.097656 236.257812 209.617188 236.882812 211.421875 237.757812 C 212.816406 238.433594 213.972656 239.058594 214.59375 239.058594 C 214.777344 239.058594 214.914062 239.003906 214.996094 238.882812 C 215.363281 238.339844 214.550781 236.671875 212.75 235.796875 C 211.898438 235.386719 210.984375 235.222656 210.210938 235.222656 "/><path style=" stroke:none;fill-rule:nonzero;fill:#ef2f5c;fill-opacity:1;" d="M 205.128906 234.179688 C 205.125 234.179688 205.125 234.179688 205.121094 234.179688 C 203.757812 234.183594 202.578125 234.875 202.539062 235.265625 C 202.511719 235.5625 203.136719 235.597656 204.027344 235.597656 C 204.320312 235.597656 204.640625 235.59375 204.980469 235.59375 C 205.136719 235.59375 205.292969 235.59375 205.445312 235.597656 C 205.585938 235.597656 205.726562 235.597656 205.859375 235.597656 C 206.789062 235.597656 207.457031 235.566406 207.484375 235.261719 C 207.523438 234.875 206.492188 234.179688 205.128906 234.179688 "/><path style=" stroke:none;fill-rule:nonzero;fill:#ef2f5c;fill-opacity:1;" d="M 206.570312 236.570312 C 205.855469 236.570312 205.253906 236.828125 205.179688 237.046875 C 205.089844 237.316406 205.851562 237.417969 206.78125 237.601562 C 207.371094 237.71875 207.886719 237.835938 208.203125 237.835938 C 208.382812 237.835938 208.5 237.796875 208.535156 237.699219 C 208.625 237.429688 208.039062 236.800781 207.109375 236.621094 C 206.925781 236.585938 206.746094 236.570312 206.570312 236.570312 "/><path style=" stroke:none;fill-rule:nonzero;fill:#411c21;fill-opacity:1;" d="M 191.40625 233.066406 C 190.875 233.398438 190.277344 233.847656 189.742188 234.453125 C 190.203125 233.964844 190.761719 233.496094 191.40625 233.066406 "/><path style=" stroke:none;fill-rule:nonzero;fill:#ed8d38;fill-opacity:1;" d="M 188.246094 237.648438 C 188.246094 237.648438 192.621094 245.113281 202.324219 251.203125 C 203.105469 251.695312 203.960938 252.195312 204.875 252.691406 C 197.445312 248.535156 192.179688 243.234375 188.246094 237.648438 "/><path style=" stroke:none;fill-rule:nonzero;fill:#411c21;fill-opacity:1;" d="M 259.941406 248.996094 C 259.941406 248.996094 259.988281 249.257812 259.976562 249.691406 C 260.910156 252.347656 260.761719 255.09375 259.539062 257.773438 C 259.539062 257.773438 262.382812 255.28125 259.941406 248.996094 "/><path style=" stroke:none;fill-rule:nonzero;fill:#ed8d38;fill-opacity:1;" d="M 214.378906 256.910156 C 221.621094 259.519531 230.417969 261.484375 239.503906 261.484375 C 241.628906 261.484375 243.769531 261.378906 245.90625 261.148438 C 244.863281 261.214844 243.800781 261.246094 242.71875 261.246094 C 242.398438 261.246094 242.070312 261.242188 241.742188 261.238281 C 230.738281 261.039062 221.761719 259.445312 214.378906 256.910156 "/><path style=" stroke:none;fill-rule:nonzero;fill:#e22328;fill-opacity:1;" d="M 192.917969 232.339844 C 192.917969 232.339844 192.242188 232.546875 191.40625 233.066406 C 190.761719 233.496094 190.203125 233.964844 189.742188 234.453125 C 189.042969 235.242188 188.445312 236.289062 188.246094 237.648438 C 192.179688 243.234375 197.445312 248.535156 204.875 252.691406 C 207.554688 254.152344 210.773438 255.609375 214.378906 256.910156 C 221.761719 259.445312 230.738281 261.039062 241.742188 261.238281 C 242.070312 261.242188 242.398438 261.246094 242.71875 261.246094 C 243.800781 261.246094 244.863281 261.214844 245.90625 261.148438 C 250.507812 260.648438 255.101562 259.582031 259.539062 257.773438 C 260.761719 255.09375 260.910156 252.347656 259.976562 249.691406 C 259.917969 251.734375 258.476562 257.5625 243.96875 257.5625 C 241.753906 257.5625 239.238281 257.425781 236.375 257.121094 C 218.570312 255.222656 201.898438 247.542969 194.886719 240.890625 C 192.84375 239.796875 191.726562 238.675781 192.039062 237.339844 C 191 235.34375 191.1875 233.59375 192.917969 232.339844 "/><path style=" stroke:none;fill-rule:nonzero;fill:#ed232c;fill-opacity:1;" d="M 192.039062 237.339844 C 191.726562 238.675781 192.84375 239.796875 194.886719 240.890625 C 193.589844 239.65625 192.621094 238.460938 192.039062 237.339844 "/></g></svg>