<svg xmlns="http://www.w3.org/2000/svg" xmlns:xlink="http://www.w3.org/1999/xlink" width="626" zoomAndPan="magnify" viewBox="0 0 469.5 456.749982" height="609" preserveAspectRatio="xMidYMid meet" version="1.2"><defs><clipPath id="7bd15c1a61"><path d="M 0 0.117188 L 469 0.117188 L 469 455.898438 L 0 455.898438 Z M 0 0.117188 "/></clipPath><clipPath id="c3c954b0a8"><path d="M 56.9375 0.117188 L 411.566406 0.117188 C 443.011719 0.117188 468.503906 25.609375 468.503906 57.058594 L 468.503906 398.960938 C 468.503906 430.40625 443.011719 455.898438 411.566406 455.898438 L 56.9375 455.898438 C 25.492188 455.898438 0 430.40625 0 398.960938 L 0 57.058594 C 0 25.609375 25.492188 0.117188 56.9375 0.117188 Z M 56.9375 0.117188 "/></clipPath><clipPath id="9800b825eb"><path d="M 214.542969 385.035156 L 223.371094 385.035156 L 223.371094 390.984375 L 214.542969 390.984375 Z M 214.542969 385.035156 "/></clipPath><clipPath id="342c082ff0"><path d="M 94.152344 80 L 173 80 L 173 123 L 94.152344 123 Z M 94.152344 80 "/></clipPath><clipPath id="a9e0683b8e"><path d="M 293.382812 75.089844 L 374.25 75.089844 L 374.25 117.410156 L 293.382812 117.410156 Z M 293.382812 75.089844 "/></clipPath></defs><g id="82c9ae8879"><g clip-rule="nonzero" clip-path="url(#7bd15c1a61)"><g clip-rule="nonzero" clip-path="url(#c3c954b0a8)"><path style=" stroke:none;fill-rule:nonzero;fill:#f48257;fill-opacity:1;" d="M 0 0.117188 L 468.242188 0.117188 L 468.242188 455.898438 L 0 455.898438 Z M 0 0.117188 "/></g></g><path style=" stroke:none;fill-rule:nonzero;fill:#ef2a68;fill-opacity:1;" d="M 263.519531 83.21875 C 264.410156 83.644531 265.292969 84.089844 266.214844 84.476562 C 266.257812 84.488281 266.304688 84.5 266.359375 84.511719 C 266.53125 84.554688 266.707031 84.589844 266.878906 84.625 C 267.171875 84.628906 267.460938 84.628906 267.757812 84.613281 C 270.386719 84.492188 272.78125 85.589844 274.394531 87.246094 C 275.167969 84.902344 272.59375 80.792969 267.566406 78.8125 C 262.304688 76.738281 256.34375 77.804688 255.199219 80.070312 C 255.113281 80.242188 255.0625 80.410156 255.03125 80.585938 C 258.046875 81.027344 260.742188 81.878906 263.519531 83.21875 "/><path style=" stroke:none;fill-rule:nonzero;fill:#ef2a68;fill-opacity:1;" d="M 185.273438 87.921875 C 186.214844 87.578125 187.171875 87.253906 188.089844 86.867188 C 188.125 86.839844 188.164062 86.816406 188.207031 86.789062 C 188.355469 86.699219 188.492188 86.601562 188.632812 86.507812 C 188.8125 86.3125 188.988281 86.117188 189.15625 85.910156 C 190.636719 84.058594 193.113281 83.113281 195.644531 83.027344 C 193.917969 81.082031 188.503906 80.324219 183.601562 82.515625 C 178.46875 84.8125 175.851562 89.480469 177.28125 91.625 C 177.386719 91.785156 177.515625 91.925781 177.660156 92.050781 C 179.90625 90.285156 182.339844 88.984375 185.273438 87.921875 "/><path style=" stroke:none;fill-rule:nonzero;fill:#65b6ce;fill-opacity:1;" d="M 271.46875 281.761719 C 271.46875 281.761719 271.46875 331.519531 251.566406 355.046875 C 251.566406 355.046875 241.554688 374.148438 262.421875 374.953125 C 285.941406 375.855469 300.410156 337.855469 283.226562 280.855469 C 283.226562 280.855469 274.179688 276.332031 271.46875 281.761719 "/><path style=" stroke:none;fill-rule:nonzero;fill:#407286;fill-opacity:1;" d="M 258.914062 373.226562 C 258.914062 374.410156 262.199219 376.148438 264.566406 376.148438 C 266.933594 376.148438 267.492188 374.410156 267.492188 373.226562 C 267.492188 372.042969 266.933594 370.300781 264.566406 370.300781 C 262.199219 370.300781 258.914062 372.042969 258.914062 373.226562 "/><path style=" stroke:none;fill-rule:nonzero;fill:#407286;fill-opacity:1;" d="M 247.417969 369.914062 C 247.417969 371.332031 250.925781 373.421875 253.453125 373.421875 C 255.984375 373.421875 256.578125 371.332031 256.578125 369.914062 C 256.578125 368.492188 255.984375 366.402344 253.453125 366.402344 C 250.925781 366.402344 247.417969 368.492188 247.417969 369.914062 "/><path style=" stroke:none;fill-rule:nonzero;fill:#407286;fill-opacity:1;" d="M 245.078125 362.113281 C 245.078125 363.539062 246.839844 365.425781 249.367188 365.425781 C 251.898438 365.425781 253.75 362.363281 253.75 360.945312 C 253.75 359.523438 253.648438 358.605469 251.117188 358.605469 C 248.585938 358.605469 245.078125 360.695312 245.078125 362.113281 "/><path style=" stroke:none;fill-rule:nonzero;fill:#87c9d9;fill-opacity:1;" d="M 279.507812 323.257812 C 279.34375 323.257812 279.214844 323.5 279.359375 323.640625 C 281.414062 325.710938 282.207031 329.785156 279.800781 332.3125 C 278.78125 333.375 277.269531 334.007812 275.816406 334.007812 C 274.972656 334.007812 274.148438 333.792969 273.457031 333.328125 C 272.648438 332.78125 271.933594 332.0625 271.667969 331.066406 C 271.1875 329.277344 272.285156 327.042969 274.328125 326.667969 C 274.601562 326.617188 274.910156 326.585938 275.230469 326.585938 C 276.507812 326.585938 277.90625 327.089844 277.5625 328.726562 C 277.410156 329.851562 276.929688 330.414062 276.117188 330.414062 C 275.84375 330.414062 275.535156 330.347656 275.183594 330.222656 C 275.136719 330.050781 275.09375 329.878906 275.046875 329.714844 C 274.964844 329.382812 275.027344 329.070312 275.238281 328.761719 C 275.480469 328.601562 275.332031 328.300781 275.125 328.257812 C 275.027344 328.234375 274.941406 328.226562 274.855469 328.226562 C 273.585938 328.226562 273.421875 330.410156 274.023438 331.214844 C 274.464844 331.8125 275.027344 332.054688 275.613281 332.054688 C 276.90625 332.054688 278.3125 330.867188 278.773438 329.644531 C 279.867188 326.75 277.742188 325.296875 275.320312 325.296875 C 273.347656 325.296875 271.179688 326.261719 270.398438 328.199219 C 268.761719 332.238281 272.140625 335.695312 275.90625 335.695312 C 276.515625 335.695312 277.136719 335.605469 277.75 335.410156 C 280.488281 334.542969 282.144531 332.324219 282.441406 329.507812 C 282.71875 326.910156 281.390625 324.867188 279.625 323.304688 C 279.585938 323.273438 279.546875 323.257812 279.507812 323.257812 "/><path style=" stroke:none;fill-rule:nonzero;fill:#65b6ce;fill-opacity:1;" d="M 208.933594 278.402344 C 208.933594 278.402344 208.933594 337.324219 232.496094 365.175781 C 232.496094 365.175781 244.351562 387.789062 219.644531 388.742188 C 191.796875 389.8125 174.664062 344.820312 195.011719 277.332031 C 195.011719 277.332031 205.722656 271.976562 208.933594 278.402344 "/><g clip-rule="nonzero" clip-path="url(#9800b825eb)"><path style=" stroke:none;fill-rule:nonzero;fill:#407286;fill-opacity:1;" d="M 223.285156 388.0625 C 223.285156 389.246094 220 390.984375 217.628906 390.984375 C 215.261719 390.984375 214.707031 389.246094 214.707031 388.0625 C 214.707031 386.878906 215.261719 385.136719 217.628906 385.136719 C 220 385.136719 223.285156 386.878906 223.285156 388.0625 "/></g><path style=" stroke:none;fill-rule:nonzero;fill:#407286;fill-opacity:1;" d="M 235.5625 383.96875 C 235.5625 385.386719 232.050781 387.476562 229.523438 387.476562 C 226.992188 387.476562 226.402344 385.386719 226.402344 383.96875 C 226.402344 382.546875 226.992188 380.457031 229.523438 380.457031 C 232.050781 380.457031 235.5625 382.546875 235.5625 383.96875 "/><path style=" stroke:none;fill-rule:nonzero;fill:#407286;fill-opacity:1;" d="M 239.457031 376.167969 C 239.457031 377.59375 237.699219 379.480469 235.171875 379.480469 C 232.640625 379.480469 230.785156 376.421875 230.785156 375 C 230.785156 373.578125 230.890625 372.660156 233.421875 372.660156 C 235.949219 372.660156 239.457031 374.75 239.457031 376.167969 "/><path style=" stroke:none;fill-rule:nonzero;fill:#87c9d9;fill-opacity:1;" d="M 199.484375 332.167969 C 196.207031 332.167969 193.457031 335.476562 193.949219 339.035156 C 194.335938 341.882812 196.246094 343.890625 198.96875 344.664062 C 199.546875 344.824219 200.109375 344.902344 200.65625 344.902344 C 202.488281 344.902344 204.140625 344.070312 205.554688 342.9375 C 205.722656 342.800781 205.5625 342.578125 205.386719 342.578125 C 205.347656 342.578125 205.308594 342.589844 205.269531 342.613281 C 204.203125 343.363281 202.785156 343.792969 201.355469 343.792969 C 199.589844 343.792969 197.804688 343.132812 196.652344 341.582031 C 195.269531 339.714844 195.15625 336.800781 196.730469 335.160156 C 197.402344 334.453125 198.234375 333.867188 199.257812 333.773438 C 199.355469 333.765625 199.453125 333.761719 199.550781 333.761719 C 201.304688 333.761719 203.121094 335.175781 203.140625 337.144531 C 203.164062 338.347656 202.679688 340.144531 201.316406 340.144531 C 201.089844 340.144531 200.839844 340.097656 200.566406 339.988281 C 199.117188 339.527344 198.757812 338.664062 199.496094 337.386719 C 199.671875 337.367188 199.847656 337.355469 200.019531 337.335938 C 200.050781 337.335938 200.082031 337.335938 200.113281 337.335938 C 200.410156 337.335938 200.683594 337.449219 200.925781 337.6875 C 200.976562 337.804688 201.0625 337.847656 201.152344 337.847656 C 201.273438 337.847656 201.394531 337.769531 201.441406 337.65625 C 201.894531 336.542969 200.570312 335.910156 199.511719 335.910156 C 199.207031 335.910156 198.921875 335.964844 198.707031 336.070312 C 196.585938 337.140625 197.820312 340.058594 199.453125 341.023438 C 200.140625 341.425781 200.765625 341.605469 201.328125 341.605469 C 204.726562 341.605469 205.695312 335.117188 202.296875 333.011719 C 201.355469 332.425781 200.398438 332.167969 199.484375 332.167969 "/><path style=" stroke:none;fill-rule:nonzero;fill:#5997ac;fill-opacity:1;" d="M 150.9375 330.457031 C 145.425781 326.628906 141.804688 338.945312 135.195312 319.402344 C 135.195312 319.402344 134.578125 318.273438 134.675781 317.417969 C 134.582031 317.320312 134.484375 317.234375 134.394531 317.117188 C 133.476562 315.953125 132.761719 315.53125 132.222656 315.722656 C 131.9375 316.152344 131.648438 316.578125 131.351562 317.007812 C 131.210938 317.507812 131.109375 318.136719 131.050781 318.894531 C 130.96875 319.996094 130.980469 321.089844 131.058594 322.175781 C 132.925781 329.757812 140.039062 340.433594 150.382812 336.9375 C 151.65625 336.507812 156.441406 334.28125 150.9375 330.457031 "/><path style=" stroke:none;fill-rule:nonzero;fill:#7ac9dd;fill-opacity:1;" d="M 156.269531 342.300781 C 147.777344 334.964844 139.167969 337.601562 133.863281 316.433594 C 133.863281 316.433594 130.835938 308.828125 140.109375 313.460938 C 149.378906 318.085938 153.167969 322.027344 158.847656 316.347656 C 164.527344 310.671875 162.445312 303.933594 162.445312 303.933594 C 162.445312 303.933594 160.394531 298.109375 155.203125 304.679688 C 150.015625 311.246094 148.433594 317.214844 138.402344 304.890625 C 138.402344 304.890625 137.585938 295.835938 128.246094 289.386719 C 128.246094 289.386719 112.699219 218.207031 133.921875 169.191406 L 131.164062 168.394531 C 131.164062 168.394531 101.753906 217.277344 123.214844 311.40625 C 123.214844 311.40625 132.421875 348.753906 154.339844 351.519531 C 156.679688 351.8125 164.765625 349.632812 156.269531 342.300781 "/><path style=" stroke:none;fill-rule:nonzero;fill:#7ac9dd;fill-opacity:1;" d="M 141.03125 348.226562 C 135.652344 335.675781 129.03125 338.976562 127.605469 304.730469 C 127.605469 304.730469 127.273438 301.597656 127.730469 299.539062 C 127.648438 299.238281 127.5625 298.976562 127.492188 298.640625 C 126.800781 295.246094 126.070312 293.800781 125.332031 293.957031 C 124.804688 294.863281 124.273438 295.757812 123.742188 296.648438 C 123.367188 297.808594 123 299.308594 122.632812 301.136719 C 122.105469 303.8125 121.6875 306.515625 121.363281 309.242188 C 123.089844 327.476562 127.582031 358.066406 138.539062 362.707031 C 140.222656 363.414062 146.40625 360.785156 141.03125 348.226562 "/><path style=" stroke:none;fill-rule:nonzero;fill:#5997ac;fill-opacity:1;" d="M 313.285156 334.734375 C 318.277344 331.726562 320.714844 342.613281 327.5625 326.046875 C 327.5625 326.046875 328.164062 325.109375 328.125 324.359375 C 328.210938 324.277344 328.304688 324.207031 328.386719 324.113281 C 329.253906 323.152344 329.894531 322.832031 330.351562 323.023438 C 330.574219 323.417969 330.800781 323.804688 331.03125 324.191406 C 331.128906 324.636719 331.179688 325.1875 331.183594 325.84375 C 331.191406 326.804688 331.121094 327.75 330.992188 328.691406 C 328.941406 335.152344 322.164062 344.007812 313.394531 340.382812 C 312.316406 339.9375 308.289062 337.738281 313.285156 334.734375 "/><path style=" stroke:none;fill-rule:nonzero;fill:#7ac9dd;fill-opacity:1;" d="M 307.984375 344.699219 C 315.769531 338.828125 323.078125 341.597656 328.882812 323.550781 C 328.882812 323.550781 331.945312 317.128906 323.644531 320.613281 C 315.34375 324.101562 311.832031 327.296875 307.226562 322.050781 C 302.625 316.804688 304.820312 311.085938 304.820312 311.085938 C 304.820312 311.085938 306.929688 306.148438 311.054688 312.140625 C 315.183594 318.132812 316.210938 323.398438 325.609375 313.28125 C 325.609375 313.28125 326.832031 305.476562 335.296875 300.425781 C 335.296875 300.425781 352.835938 239.589844 337.234375 195.886719 L 339.671875 195.351562 C 339.671875 195.351562 362.378906 239.414062 338.402344 319.796875 C 338.402344 319.796875 328.292969 351.65625 309.132812 352.804688 C 307.089844 352.925781 300.203125 350.574219 307.984375 344.699219 "/><path style=" stroke:none;fill-rule:nonzero;fill:#7ac9dd;fill-opacity:1;" d="M 320.859375 350.710938 C 326.238281 340.128906 331.792969 343.371094 334.980469 313.761719 C 334.980469 313.761719 335.449219 311.0625 335.164062 309.25 C 335.253906 308.996094 335.347656 308.773438 335.425781 308.488281 C 336.21875 305.582031 336.929688 304.371094 337.566406 304.550781 C 337.96875 305.367188 338.378906 306.171875 338.789062 306.972656 C 339.046875 308.003906 339.285156 309.320312 339.496094 310.929688 C 339.804688 313.28125 340.011719 315.644531 340.136719 318.03125 C 337.601562 333.738281 331.957031 360.003906 322.195312 363.40625 C 320.691406 363.925781 315.480469 361.289062 320.859375 350.710938 "/><path style=" stroke:none;fill-rule:nonzero;fill:#7ac9dd;fill-opacity:1;" d="M 121.921875 231.589844 C 126.664062 261.621094 151.949219 280.0625 227.800781 285.332031 C 303.65625 290.601562 332.101562 255.824219 337.367188 242.125 C 342.636719 228.425781 348.957031 146.230469 308.394531 105.660156 C 267.835938 65.089844 186.980469 79.117188 171.4375 91.960938 C 135.09375 121.996094 117.179688 201.554688 121.921875 231.589844 "/><path style=" stroke:none;fill-rule:nonzero;fill:#86d0d3;fill-opacity:1;" d="M 168.703125 165.683594 C 168.507812 164.894531 168.222656 163.007812 169.726562 162.179688 C 170.480469 161.765625 171.152344 161.621094 171.722656 161.621094 C 173.007812 161.621094 173.773438 162.351562 173.773438 162.351562 C 173.773438 162.351562 196.21875 175.320312 228.570312 175.320312 C 231.097656 175.320312 233.679688 175.242188 236.324219 175.070312 C 272.792969 172.714844 292.609375 162.65625 292.609375 162.65625 C 292.609375 162.65625 293.414062 162.425781 294.4375 162.425781 C 296.191406 162.425781 298.585938 163.101562 298.652344 166.796875 C 298.847656 167.066406 299.042969 167.363281 299.230469 167.699219 C 299.230469 167.699219 299.144531 168.421875 298.914062 169.710938 C 298.96875 170.496094 299.011719 171.429688 299.035156 172.492188 C 299.746094 185.792969 297.8125 232.78125 235.101562 232.78125 C 235.09375 232.78125 235.085938 232.78125 235.074219 232.78125 C 171.878906 232.769531 168.886719 168.054688 168.886719 168.054688 C 168.886719 168.054688 168.441406 166.820312 168.703125 165.683594 M 231.242188 156.667969 C 231.941406 156.523438 232.679688 156.417969 233.441406 156.359375 C 233.886719 156.328125 234.324219 156.3125 234.75 156.3125 C 235.160156 156.3125 235.566406 156.324219 235.957031 156.355469 C 242.746094 156.5 248.179688 159.128906 248.203125 162.332031 C 248.203125 162.488281 248.191406 162.640625 248.171875 162.792969 C 248.195312 162.941406 248.207031 163.089844 248.210938 163.242188 C 248.230469 166.535156 243.414062 172.265625 235.972656 173.046875 C 229.277344 172.347656 222.765625 166.480469 222.742188 163.191406 C 222.738281 163.035156 222.753906 162.882812 222.777344 162.730469 C 222.75 162.582031 222.734375 162.429688 222.734375 162.28125 C 222.714844 159.675781 226.273438 157.46875 231.242188 156.667969 M 198.949219 165.128906 C 185.445312 165.128906 180.253906 152.171875 183.949219 134.761719 C 187.285156 119.03125 202.265625 105.066406 217.046875 105.066406 C 217.746094 105.070312 218.445312 105.101562 219.140625 105.164062 C 232.542969 106.390625 236.800781 114.871094 237.449219 123.609375 C 237.601562 123.289062 237.765625 122.976562 237.941406 122.683594 C 240.746094 118.074219 246.347656 111.875 255.289062 111.875 C 259.15625 111.875 263.65625 113.039062 268.824219 115.992188 C 281.648438 123.335938 286.28125 138.964844 279.878906 148.902344 C 275.480469 155.730469 269.199219 159.679688 262.445312 159.679688 C 257.28125 159.679688 251.839844 157.367188 246.757812 152.269531 C 241.070312 146.566406 237.859375 140.289062 236.679688 134.722656 C 236.542969 135.4375 236.394531 136.128906 236.242188 136.789062 C 233.871094 147 221.976562 160.132812 205.429688 164.265625 C 203.089844 164.851562 200.933594 165.128906 198.949219 165.128906 M 231.691406 85.78125 C 206.578125 85.78125 184.324219 91.796875 177.160156 97.546875 C 143.761719 124.351562 127.304688 195.355469 131.660156 222.160156 C 136.019531 248.964844 159.25 265.421875 228.949219 270.125 C 233.789062 270.449219 238.425781 270.605469 242.855469 270.605469 C 302.179688 270.605469 325.121094 242.941406 329.625 231.566406 C 334.25 219.882812 339.757812 152.367188 307.710938 114.800781 C 300.375 111.640625 297.074219 106.96875 295.59375 103.53125 C 277.496094 90.328125 253.511719 85.78125 231.691406 85.78125 "/><path style=" stroke:none;fill-rule:nonzero;fill:#7abec2;fill-opacity:1;" d="M 217.046875 105.066406 C 202.265625 105.066406 187.285156 119.03125 183.949219 134.761719 C 180.253906 152.171875 185.445312 165.128906 198.949219 165.128906 C 200.933594 165.128906 203.089844 164.851562 205.429688 164.265625 C 221.976562 160.132812 233.871094 147 236.242188 136.789062 C 236.394531 136.128906 236.542969 135.4375 236.679688 134.722656 C 237.859375 140.289062 241.070312 146.566406 246.757812 152.269531 C 251.839844 157.367188 257.28125 159.679688 262.445312 159.679688 C 269.199219 159.679688 275.480469 155.730469 279.878906 148.902344 C 286.28125 138.964844 281.648438 123.335938 268.824219 115.992188 C 263.65625 113.039062 259.15625 111.875 255.289062 111.875 C 246.347656 111.875 240.746094 118.074219 237.941406 122.683594 C 237.765625 122.976562 237.601562 123.289062 237.449219 123.609375 C 236.800781 114.871094 232.542969 106.390625 219.140625 105.164062 C 218.445312 105.101562 217.746094 105.070312 217.046875 105.066406 "/><path style=" stroke:none;fill-rule:nonzero;fill:#416e80;fill-opacity:1;" d="M 281.113281 138.605469 C 277.015625 124.152344 261.75 118.574219 251.574219 120.15625 C 236.539062 122.503906 235.847656 138.035156 240.726562 148.96875 C 245.726562 160.175781 258.0625 160.957031 268.492188 159.847656 C 277.582031 158.878906 284.09375 149.121094 281.113281 138.605469 "/><path style=" stroke:none;fill-rule:nonzero;fill:#e8e6c5;fill-opacity:1;" d="M 278.492188 138.566406 C 274.847656 124.835938 260.605469 120.128906 251.949219 121.53125 C 239.148438 123.601562 238.003906 137.554688 242.28125 147.953125 C 246.664062 158.617188 258.777344 159.300781 267.660156 158.351562 C 275.402344 157.527344 281.148438 148.550781 278.492188 138.566406 "/><path style=" stroke:none;fill-rule:nonzero;fill:#fefbe1;fill-opacity:1;" d="M 273.828125 137.992188 C 272.445312 129.078125 262.09375 122.835938 253.019531 123.6875 C 241.214844 124.792969 240.523438 135.828125 241.242188 141.457031 C 241.816406 145.996094 247.410156 155.664062 259.949219 154.984375 C 269.0625 154.492188 275.113281 146.296875 273.828125 137.992188 "/><path style=" stroke:none;fill-rule:nonzero;fill:#c3116c;fill-opacity:1;" d="M 242.960938 147.742188 C 246.058594 150.699219 251.125 152.320312 254.582031 149.382812 C 257.777344 146.664062 260.734375 141.546875 256.683594 136.269531 C 253.835938 132.558594 246.726562 133.15625 243.742188 136.09375 C 240.757812 139.03125 239.859375 144.785156 242.960938 147.742188 "/><path style=" stroke:none;fill-rule:nonzero;fill:#e11280;fill-opacity:1;" d="M 245.835938 148.589844 C 249.199219 150.101562 253.109375 149.929688 255.1875 146.429688 C 257.105469 143.191406 258.894531 138.730469 254.117188 135.585938 C 250.757812 133.378906 244.882812 135.617188 243.199219 138.972656 C 241.515625 142.324219 242.46875 147.085938 245.835938 148.589844 "/><path style=" stroke:none;fill-rule:nonzero;fill:#221c1c;fill-opacity:1;" d="M 245.679688 145.773438 C 247.726562 147.722656 251.230469 147.484375 253.511719 145.242188 C 255.789062 142.996094 255.980469 139.597656 253.933594 137.648438 C 251.890625 135.699219 248.386719 135.9375 246.105469 138.179688 C 243.828125 140.425781 243.636719 143.824219 245.679688 145.773438 "/><path style=" stroke:none;fill-rule:nonzero;fill:#ffffff;fill-opacity:1;" d="M 241.953125 139.714844 C 243.195312 140.902344 245.234375 140.855469 246.5 139.605469 C 247.765625 138.363281 247.78125 136.386719 246.539062 135.199219 C 245.292969 134.011719 243.253906 134.058594 241.988281 135.304688 C 240.722656 136.550781 240.707031 138.523438 241.953125 139.714844 "/><path style=" stroke:none;fill-rule:nonzero;fill:#416e80;fill-opacity:1;" d="M 183.804688 138.378906 C 186.582031 124.035156 201.644531 111.800781 216.460938 113.535156 C 236.21875 115.855469 235.9375 132.484375 233.917969 141.851562 C 232 150.738281 221.070312 161.878906 205.378906 164.972656 C 188.050781 168.390625 180.4375 155.765625 183.804688 138.378906 "/><path style=" stroke:none;fill-rule:nonzero;fill:#e8e6c5;fill-opacity:1;" d="M 188.015625 137.976562 C 190.445312 124.757812 203.847656 113.523438 217.074219 115.171875 C 234.714844 117.371094 234.519531 132.707031 232.75 141.339844 C 231.066406 149.527344 221.351562 159.765625 207.359375 162.570312 C 191.902344 165.671875 185.066406 154.003906 188.015625 137.976562 "/><path style=" stroke:none;fill-rule:nonzero;fill:#fefbe1;fill-opacity:1;" d="M 192.699219 136.792969 C 194.550781 125.625 206.078125 117.097656 217.1875 118.050781 C 231.632812 119.292969 231.101562 132.964844 230.515625 140.070312 C 230.046875 145.792969 221.84375 157.601562 206.601562 159.226562 C 193.699219 160.601562 190.671875 148.988281 192.699219 136.792969 "/><path style=" stroke:none;fill-rule:nonzero;fill:#c3116c;fill-opacity:1;" d="M 210.773438 151.078125 C 214.882812 155 220.824219 156.261719 225.40625 152.363281 C 229.644531 148.757812 233.984375 142.519531 228.613281 135.527344 C 224.839844 130.609375 215.417969 131.261719 211.460938 135.15625 C 207.503906 139.054688 206.660156 147.15625 210.773438 151.078125 "/><path style=" stroke:none;fill-rule:nonzero;fill:#e11280;fill-opacity:1;" d="M 214.234375 151.722656 C 218.695312 153.726562 223.875 153.496094 226.628906 148.859375 C 229.171875 144.566406 231.542969 138.652344 225.210938 134.488281 C 220.757812 131.558594 212.96875 134.523438 210.738281 138.972656 C 208.507812 143.417969 209.769531 149.726562 214.234375 151.722656 "/><path style=" stroke:none;fill-rule:nonzero;fill:#221c1c;fill-opacity:1;" d="M 214.992188 147.039062 C 217.457031 149.390625 221.476562 149.308594 223.960938 146.859375 C 226.449219 144.410156 226.46875 140.519531 224.003906 138.167969 C 221.539062 135.816406 217.527344 135.898438 215.039062 138.347656 C 212.550781 140.796875 212.53125 144.6875 214.992188 147.039062 "/><path style=" stroke:none;fill-rule:nonzero;fill:#ffffff;fill-opacity:1;" d="M 208.226562 143.230469 C 210.230469 145.144531 213.507812 145.070312 215.539062 143.0625 C 217.578125 141.058594 217.605469 137.882812 215.601562 135.972656 C 213.597656 134.058594 210.324219 134.136719 208.285156 136.140625 C 206.25 138.148438 206.222656 141.320312 208.226562 143.230469 "/><path style=" stroke:none;fill-rule:nonzero;fill:#78c0c3;fill-opacity:1;" d="M 222.777344 162.730469 C 222.753906 162.882812 222.738281 163.035156 222.742188 163.191406 C 222.765625 166.480469 229.277344 172.347656 235.972656 173.046875 C 243.414062 172.265625 248.230469 166.535156 248.210938 163.242188 C 248.207031 163.089844 248.195312 162.941406 248.171875 162.792969 C 247.710938 165.929688 242.417969 168.945312 235.738281 169.6875 C 229.34375 169.027344 223.328125 165.878906 222.777344 162.730469 "/><path style=" stroke:none;fill-rule:nonzero;fill:#ab193a;fill-opacity:1;" d="M 248.203125 162.332031 C 248.226562 165.628906 242.746094 168.910156 235.738281 169.6875 C 229.042969 168.996094 222.757812 165.574219 222.734375 162.28125 C 222.710938 158.992188 228.394531 156.332031 235.425781 156.347656 C 242.460938 156.363281 248.179688 159.042969 248.203125 162.332031 "/><path style=" stroke:none;fill-rule:nonzero;fill:#d31b47;fill-opacity:1;" d="M 242.675781 160.25 C 242.871094 162.769531 239.054688 165.113281 234.148438 165.484375 C 229.238281 165.855469 225.105469 164.113281 224.910156 161.59375 C 224.714844 159.074219 228.535156 156.730469 233.441406 156.359375 C 238.347656 155.988281 242.480469 157.730469 242.675781 160.25 "/><path style=" stroke:none;fill-rule:nonzero;fill:#f7cadc;fill-opacity:1;" d="M 232.515625 157.007812 C 232.152344 157.007812 231.773438 157.03125 231.386719 157.082031 C 228.761719 157.421875 226.714844 158.882812 226.8125 159.640625 C 226.859375 160.011719 227.414062 160.144531 228.277344 160.144531 C 229.171875 160.144531 230.394531 160 231.730469 159.828125 C 234.355469 159.488281 236.414062 159.171875 236.316406 158.410156 C 236.234375 157.761719 234.617188 157.007812 232.515625 157.007812 "/><path style=" stroke:none;fill-rule:nonzero;fill:#921831;fill-opacity:1;" d="M 245.390625 162.5 C 246.058594 163.335938 245.472656 165.644531 243.328125 166.886719 C 241.265625 168.085938 234.191406 168.488281 238.46875 164.726562 C 240.871094 162.613281 244.726562 161.664062 245.390625 162.5 "/><path style=" stroke:none;fill-rule:nonzero;fill:#591421;fill-opacity:1;" d="M 244.3125 162.640625 C 244.855469 163.316406 244.378906 165.195312 242.640625 166.199219 C 240.964844 167.171875 235.21875 167.503906 238.695312 164.445312 C 240.648438 162.730469 243.773438 161.957031 244.3125 162.640625 "/><path style=" stroke:none;fill-rule:nonzero;fill:#921831;fill-opacity:1;" d="M 226.503906 162.625 C 225.835938 163.472656 226.464844 165.820312 228.660156 167.089844 C 230.773438 168.3125 237.964844 168.75 233.558594 164.914062 C 231.089844 162.757812 227.167969 161.777344 226.503906 162.625 "/><path style=" stroke:none;fill-rule:nonzero;fill:#591421;fill-opacity:1;" d="M 227.597656 162.769531 C 227.054688 163.453125 227.566406 165.367188 229.347656 166.394531 C 231.0625 167.386719 236.902344 167.746094 233.328125 164.628906 C 231.324219 162.878906 228.136719 162.082031 227.597656 162.769531 "/><path style=" stroke:none;fill-rule:nonzero;fill:#96d4cb;fill-opacity:1;" d="M 298.652344 166.796875 C 298.652344 166.867188 298.652344 166.9375 298.652344 167.011719 C 298.652344 167.011719 298.800781 167.992188 298.914062 169.710938 C 299.144531 168.421875 299.230469 167.699219 299.230469 167.699219 C 299.042969 167.363281 298.847656 167.066406 298.652344 166.796875 "/><path style=" stroke:none;fill-rule:nonzero;fill:#4c8295;fill-opacity:1;" d="M 298.730469 169.023438 C 298.730469 169.023438 308.152344 232.796875 235.074219 232.78125 C 171.878906 232.769531 168.886719 168.054688 168.886719 168.054688 C 168.886719 168.054688 167.875 165.253906 169.804688 164.195312 C 172.257812 162.84375 173.847656 164.367188 173.847656 164.367188 C 173.847656 164.367188 199.9375 179.441406 236.402344 177.085938 C 272.871094 174.730469 292.683594 164.671875 292.683594 164.671875 C 292.683594 164.671875 298.765625 162.925781 298.730469 169.023438 "/><path style=" stroke:none;fill-rule:nonzero;fill:#561f23;fill-opacity:1;" d="M 298.652344 167.011719 C 298.652344 167.011719 308.074219 229.691406 235 229.675781 C 171.804688 229.664062 168.808594 166.039062 168.808594 166.039062 C 168.808594 166.039062 167.796875 163.238281 169.726562 162.179688 C 172.179688 160.828125 173.773438 162.351562 173.773438 162.351562 C 173.773438 162.351562 199.859375 177.429688 236.324219 175.070312 C 272.792969 172.714844 292.609375 162.65625 292.609375 162.65625 C 292.609375 162.65625 298.691406 160.910156 298.652344 167.011719 "/><path style=" stroke:none;fill-rule:nonzero;fill:#ce2731;fill-opacity:1;" d="M 239.613281 229.664062 C 217.457031 230.703125 201.523438 225.183594 194.558594 216.96875 C 211.1875 206.628906 228.414062 209.367188 237.320312 212.136719 C 241.933594 209.476562 255.632812 205.179688 267.511719 208.617188 C 276.738281 211.289062 279.683594 213.183594 281.910156 215.347656 C 273.027344 223.066406 259.917969 228.714844 239.613281 229.664062 "/><path style=" stroke:none;fill-rule:nonzero;fill:#d82934;fill-opacity:1;" d="M 222.109375 210.542969 C 227.835938 210.148438 234.359375 211.566406 239.15625 213.539062 C 241.542969 210.796875 248.234375 208.5 256.332031 207.945312 C 266.753906 207.226562 267.878906 211.882812 267.523438 216.035156 C 267.15625 220.285156 258.941406 225.03125 239.191406 226.160156 C 211.234375 227.761719 207.332031 222.160156 206.800781 219.355469 C 206.105469 215.660156 211.691406 211.261719 222.109375 210.542969 "/><path style=" stroke:none;fill-rule:nonzero;fill:#ec2a37;fill-opacity:1;" d="M 225.003906 211.847656 C 229.960938 211.511719 235.585938 212.542969 239.703125 214.011719 C 241.804688 211.914062 247.628906 210.128906 254.640625 209.65625 C 263.664062 209.042969 264.570312 212.566406 264.199219 215.722656 C 263.824219 218.949219 256.648438 222.605469 239.550781 223.589844 C 215.347656 224.984375 212.054688 220.757812 211.636719 218.632812 C 211.089844 215.832031 215.980469 212.457031 225.003906 211.847656 "/><path style=" stroke:none;fill-rule:nonzero;fill:#e04557;fill-opacity:1;" d="M 220.972656 211.363281 C 219.652344 211.363281 218.589844 211.671875 218.480469 212.121094 C 218.425781 212.351562 218.628906 212.582031 219.015625 212.773438 C 220.433594 212.40625 222.039062 212.121094 223.824219 211.945312 C 223.359375 211.667969 222.542969 211.453125 221.578125 211.386719 C 221.371094 211.371094 221.167969 211.363281 220.972656 211.363281 "/><path style=" stroke:none;fill-rule:nonzero;fill:#ef475a;fill-opacity:1;" d="M 223.824219 211.945312 C 222.039062 212.121094 220.433594 212.40625 219.015625 212.773438 C 219.496094 213.015625 220.25 213.195312 221.128906 213.257812 C 221.335938 213.273438 221.542969 213.28125 221.742188 213.28125 C 223.054688 213.28125 224.117188 212.972656 224.222656 212.523438 C 224.273438 212.320312 224.121094 212.121094 223.824219 211.945312 "/><path style=" stroke:none;fill-rule:nonzero;fill:#ef475a;fill-opacity:1;" d="M 227.8125 212.136719 C 226.761719 212.136719 226.042969 212.285156 225.878906 212.554688 C 225.492188 213.191406 228.347656 214.277344 232.019531 215.359375 C 234.707031 216.152344 237.089844 216.726562 238.328125 216.726562 C 238.78125 216.726562 239.078125 216.648438 239.183594 216.476562 C 239.574219 215.835938 237.101562 214.125 233.429688 213.039062 C 231.308594 212.414062 229.246094 212.136719 227.8125 212.136719 "/><path style=" stroke:none;fill-rule:nonzero;fill:#fff8e9;fill-opacity:1;" d="M 278.789062 167.214844 C 279.320312 171.023438 281.113281 175.109375 286.640625 173.144531 C 292.816406 170.945312 295.441406 166.3125 294.707031 162.289062 C 289.703125 164.796875 284.316406 166.238281 278.789062 167.214844 "/><path style=" stroke:none;fill-rule:nonzero;fill:#fdf6ef;fill-opacity:1;" d="M 281.289062 166.738281 C 281.929688 169.089844 283.484375 171.0625 287.117188 169.769531 C 291.152344 168.335938 293.15625 165.613281 293.28125 162.972656 C 289.453125 164.714844 285.421875 165.882812 281.289062 166.738281 "/><path style=" stroke:none;fill-rule:nonzero;fill:#efe6ca;fill-opacity:1;" d="M 224.800781 173.890625 C 219.191406 173.945312 213.566406 174.058594 207.988281 173.484375 C 206.917969 173.375 205.859375 173.246094 204.8125 173.09375 C 198.402344 197.675781 218.886719 207.871094 226.839844 200.597656 C 232.761719 195.167969 231.472656 181.855469 230.078125 174.1875 C 228.292969 174.121094 226.535156 174.023438 224.800781 173.890625 "/><path style=" stroke:none;fill-rule:nonzero;fill:#fdf6ef;fill-opacity:1;" d="M 221.929688 173.917969 C 217.273438 173.964844 212.617188 173.960938 207.988281 173.484375 C 207.15625 173.398438 206.328125 173.300781 205.507812 173.1875 C 200.589844 193.417969 215.460938 202.167969 223.242188 195.566406 C 228.136719 191.414062 226.738281 180.335938 225.503906 174.167969 C 224.398438 174.136719 223.191406 174.050781 221.929688 173.917969 "/><path style=" stroke:none;fill-rule:nonzero;fill:#fff8e9;fill-opacity:1;" d="M 186.65625 167.648438 C 186.574219 167.621094 186.472656 167.582031 186.339844 167.53125 C 184.71875 166.929688 183.085938 166.355469 181.464844 165.753906 C 180.171875 165.273438 178.882812 164.78125 177.605469 164.273438 C 180.652344 165.484375 176.78125 163.992188 175.898438 163.585938 C 174.726562 163.050781 173.589844 162.445312 172.421875 161.90625 C 172.261719 161.832031 172.105469 161.757812 171.949219 161.6875 C 170.492188 168.222656 177.867188 174.484375 182.160156 173.894531 C 184.976562 173.507812 186.253906 170.554688 186.828125 167.71875 C 186.769531 167.695312 186.714844 167.671875 186.65625 167.648438 "/><path style=" stroke:none;fill-rule:nonzero;fill:#fdf6ef;fill-opacity:1;" d="M 181.464844 165.753906 C 180.171875 165.273438 178.882812 164.78125 177.605469 164.273438 C 180.652344 165.484375 176.78125 163.992188 175.898438 163.585938 C 174.761719 163.066406 173.65625 162.484375 172.523438 161.953125 C 171.828125 167.007812 176.933594 171.453125 180.890625 171.058594 C 182.90625 170.863281 183.902344 168.898438 184.390625 166.820312 C 183.414062 166.46875 182.4375 166.113281 181.464844 165.753906 "/><path style=" stroke:none;fill-rule:nonzero;fill:#efe6ca;fill-opacity:1;" d="M 251.566406 173.523438 C 245.238281 174.203125 238.878906 174 232.523438 173.90625 C 231.125 181.429688 229.015625 199.941406 242.464844 198.839844 C 257.394531 197.617188 262.890625 183.015625 257.078125 171.535156 C 255.480469 172.898438 253.707031 173.292969 251.566406 173.523438 "/><path style=" stroke:none;fill-rule:nonzero;fill:#fdf6ef;fill-opacity:1;" d="M 251.566406 173.523438 C 246.554688 174.0625 241.527344 174.046875 236.492188 173.96875 C 235.425781 179.726562 234.121094 193.015625 244.378906 192.179688 C 255.4375 191.273438 259.5 181.070312 255.664062 172.484375 C 254.441406 173.109375 253.097656 173.359375 251.566406 173.523438 "/><path style=" stroke:none;fill-rule:nonzero;fill:#4c8295;fill-opacity:1;" d="M 236.324219 175.070312 C 259.738281 173.558594 276.285156 168.871094 285.132812 165.710938 C 275.433594 168.363281 257.550781 172.109375 232.722656 172.597656 C 205.105469 173.136719 184.90625 166.921875 176.753906 163.890625 C 184.578125 167.664062 207.121094 176.957031 236.324219 175.070312 "/><path style=" stroke:none;fill-rule:evenodd;fill:#7ac9dd;fill-opacity:1;" d="M 155.519531 114.179688 C 158.28125 100.550781 140.667969 92.289062 129.433594 95.578125 C 120.902344 98.078125 124.925781 104.320312 124.0625 110.359375 C 123.21875 116.335938 116.492188 121.15625 110.488281 120.0625 C 104.402344 118.957031 98.375 111.105469 97.125 105.332031 C 95.421875 97.460938 97.324219 91.890625 103.355469 86.53125 C 114.285156 76.832031 128.300781 82.300781 139.835938 86.726562 C 149.765625 90.53125 161.609375 97.101562 171.808594 92.738281 C 171.808594 92.738281 173.816406 106.066406 155.519531 114.179688 "/><path style=" stroke:none;fill-rule:nonzero;fill:#f5f5f9;fill-opacity:1;" d="M 102.011719 114.46875 C 102.796875 116.0625 103.800781 117.515625 105.59375 118.425781 C 106.128906 118.699219 106.796875 118.894531 107.542969 119.023438 C 105.546875 117.992188 103.640625 116.363281 102.011719 114.46875 M 123.90625 103.894531 C 124.046875 105.949219 124.378906 108.167969 124.0625 110.359375 C 123.992188 110.859375 123.882812 111.351562 123.734375 111.828125 C 125.027344 109.238281 125.34375 106.335938 123.90625 103.894531 "/><path style=" stroke:none;fill-rule:nonzero;fill:#73bed7;fill-opacity:1;" d="M 122.460938 102.132812 C 121.902344 109.566406 116.722656 113.003906 111.09375 113.003906 C 105.894531 113.003906 100.3125 110.070312 97.644531 104.636719 L 99.390625 109.1875 C 100.523438 110.753906 101.136719 112.699219 102.011719 114.46875 C 103.640625 116.363281 105.546875 117.992188 107.542969 119.023438 C 108.371094 119.167969 109.296875 119.230469 110.242188 119.230469 C 112.597656 119.230469 115.070312 118.84375 116.488281 118.375 C 119.421875 117.402344 122.234375 114.824219 123.734375 111.828125 C 123.882812 111.351562 123.992188 110.859375 124.0625 110.359375 C 124.378906 108.167969 124.046875 105.949219 123.90625 103.894531 C 123.542969 103.273438 123.0625 102.683594 122.460938 102.132812 "/><g clip-rule="nonzero" clip-path="url(#342c082ff0)"><path style=" stroke:none;fill-rule:evenodd;fill:#6eb5ca;fill-opacity:1;" d="M 161.539062 95.488281 C 149.359375 94.222656 137.597656 86.253906 126.160156 84.269531 C 115.15625 82.359375 107.515625 85.960938 101.191406 95.503906 C 99.011719 98.796875 98.675781 106.972656 101.144531 111.269531 C 106.128906 119.957031 119.40625 121 122.207031 112.011719 C 123.347656 108.359375 122.457031 105.347656 122.070312 101.871094 C 121.507812 100.910156 120.898438 104.03125 120.328125 103.074219 C 121.125 97.789062 125.59375 95.292969 130.652344 94.476562 C 137.140625 93.429688 147.929688 95.578125 152.476562 99.367188 C 154.070312 100.699219 156.8125 104.777344 156.925781 107.109375 C 157.042969 109.59375 156.210938 113.667969 153.757812 114.746094 C 161.613281 98.597656 130.929688 93.300781 123.574219 100.371094 C 126.492188 104.9375 126.269531 114.980469 122.160156 118.304688 C 107.523438 130.140625 94.292969 114.996094 94.941406 103.480469 C 95.414062 95.0625 99.359375 90.195312 103.359375 86.410156 C 108.8125 81.257812 116.753906 79.34375 126.484375 80.945312 C 141.117188 83.339844 158.351562 96.640625 172.300781 92.859375 C 174.058594 92.386719 169.757812 96.339844 161.539062 95.488281 "/></g><path style=" stroke:none;fill-rule:evenodd;fill:#7ac9dd;fill-opacity:1;" d="M 314.921875 117.050781 C 309.507812 104.003906 325.625 92.050781 337.554688 92.988281 C 346.621094 93.703125 343.777344 100.78125 345.8125 106.644531 C 347.824219 112.441406 355.515625 115.851562 361.335938 113.507812 C 367.25 111.121094 371.796875 102.011719 371.9375 95.972656 C 372.125 87.742188 369.136719 82.574219 362.035156 78.480469 C 349.171875 71.066406 336.128906 79.472656 325.386719 86.3125 C 316.136719 92.199219 305.492188 101.253906 294.394531 99.023438 C 294.394531 99.023438 294.949219 112.773438 314.921875 117.050781 "/><path style=" stroke:none;fill-rule:nonzero;fill:#f5f5f9;fill-opacity:1;" d="M 368.996094 105.761719 C 367.089844 109.238281 364.394531 112.273438 361.335938 113.507812 C 360.070312 114.019531 358.714844 114.253906 357.351562 114.253906 C 353.175781 114.253906 348.898438 112.035156 346.746094 108.582031 C 348.257812 112.886719 351.71875 115.683594 356.042969 115.683594 C 358.769531 115.683594 361.839844 114.570312 364.984375 112.023438 C 366.71875 110.613281 368.070312 108.382812 368.996094 105.761719 "/><path style=" stroke:none;fill-rule:nonzero;fill:#73bed7;fill-opacity:1;" d="M 346.328125 96.945312 C 346.308594 97.164062 346.304688 97.382812 346.316406 97.589844 L 346.328125 96.945312 M 365.679688 83.875 C 368.09375 89.617188 367.574219 97.703125 361.886719 101.394531 C 360.492188 102.296875 358.074219 102.808594 355.550781 102.808594 C 351.191406 102.808594 346.523438 101.277344 346.316406 97.589844 L 346.289062 99.78125 C 345.636719 103.054688 345.863281 106.074219 346.746094 108.582031 C 348.898438 112.035156 353.175781 114.253906 357.351562 114.253906 C 358.714844 114.253906 360.070312 114.019531 361.335938 113.507812 C 364.394531 112.273438 367.089844 109.238281 368.996094 105.761719 C 371.628906 98.308594 370.820312 87.695312 365.679688 83.875 "/><g clip-rule="nonzero" clip-path="url(#a9e0683b8e)"><path style=" stroke:none;fill-rule:evenodd;fill:#6eb5ca;fill-opacity:1;" d="M 305.25 99.625 C 317.257812 95.804688 327.542969 85.378906 338.664062 80.992188 C 349.359375 76.777344 357.746094 78.773438 365.941406 86.992188 C 368.773438 89.835938 370.6875 97.9375 369.039062 102.753906 C 365.707031 112.480469 352.558594 116.308594 348.003906 107.90625 C 346.152344 104.496094 346.460938 101.296875 346.175781 97.738281 C 346.5625 96.65625 347.777344 99.65625 348.164062 98.578125 C 346.339844 93.457031 341.367188 91.898438 336.117188 92.144531 C 329.386719 92.457031 318.953125 96.863281 315.117188 101.605469 C 313.773438 103.269531 311.800781 107.925781 312.136719 110.277344 C 312.5 112.789062 314.121094 116.683594 316.800781 117.25 C 305.78125 102.746094 335.613281 91.027344 344.378906 96.554688 C 342.320312 101.734375 344.492188 111.726562 349.265625 114.191406 C 366.269531 122.957031 376.648438 105.042969 373.773438 93.664062 C 371.671875 85.339844 366.765625 81.304688 362.007812 78.359375 C 355.527344 74.347656 347.171875 74.101562 337.691406 77.734375 C 323.441406 83.195312 308.683594 100.109375 293.917969 99.25 C 292.0625 99.148438 297.152344 102.199219 305.25 99.625 "/></g><path style=" stroke:none;fill-rule:nonzero;fill:#d32554;fill-opacity:1;" d="M 187.707031 111.761719 C 188.890625 114.410156 186.28125 117.789062 181.894531 119.308594 C 177.503906 120.832031 172.988281 119.914062 171.8125 117.269531 C 170.632812 114.625 173.238281 111.246094 177.628906 109.722656 C 182.019531 108.203125 186.527344 109.117188 187.707031 111.761719 "/><path style=" stroke:none;fill-rule:nonzero;fill:#ef2a68;fill-opacity:1;" d="M 184.703125 111.835938 C 185.609375 113.863281 183.808594 116.390625 180.679688 117.476562 C 177.550781 118.566406 174.285156 117.796875 173.378906 115.769531 C 172.46875 113.742188 174.269531 111.214844 177.398438 110.125 C 180.527344 109.039062 183.796875 109.804688 184.703125 111.835938 "/><path style=" stroke:none;fill-rule:nonzero;fill:#d32554;fill-opacity:1;" d="M 238.015625 96.789062 C 237.789062 98.882812 234.816406 100.351562 231.378906 100.0625 C 227.933594 99.777344 225.328125 97.84375 225.550781 95.746094 C 225.777344 93.648438 228.746094 92.179688 232.191406 92.46875 C 235.632812 92.757812 238.238281 94.691406 238.015625 96.789062 "/><path style=" stroke:none;fill-rule:nonzero;fill:#ef2a68;fill-opacity:1;" d="M 237.40625 96.164062 C 237.25 97.621094 234.371094 97.90625 231.539062 97.671875 C 228.703125 97.433594 226.984375 96.765625 227.140625 95.308594 C 227.296875 93.855469 229.71875 92.867188 232.558594 93.105469 C 235.390625 93.34375 237.5625 94.714844 237.40625 96.164062 "/><path style=" stroke:none;fill-rule:nonzero;fill:#d32554;fill-opacity:1;" d="M 281.6875 112.5 C 280.050781 114.226562 276.425781 113.933594 273.589844 111.847656 C 270.753906 109.757812 269.78125 106.667969 271.414062 104.9375 C 273.054688 103.207031 276.679688 103.503906 279.515625 105.589844 C 282.351562 107.675781 283.324219 110.769531 281.6875 112.5 "/><path style=" stroke:none;fill-rule:nonzero;fill:#ef2a68;fill-opacity:1;" d="M 281.164062 110.199219 C 279.980469 111.457031 277.347656 111.242188 275.289062 109.730469 C 273.234375 108.214844 272.527344 105.96875 273.714844 104.714844 C 274.902344 103.460938 277.53125 103.675781 279.589844 105.191406 C 281.648438 106.703125 282.355469 108.945312 281.164062 110.199219 "/><path style=" stroke:none;fill-rule:nonzero;fill:#d32554;fill-opacity:1;" d="M 213.125 93.34375 C 214.226562 96.328125 209.335938 98.941406 202.394531 100.921875 C 195.453125 102.90625 189.089844 103.515625 187.992188 100.523438 C 186.894531 97.535156 191.476562 92.089844 198.417969 90.105469 C 205.363281 88.125 212.03125 90.355469 213.125 93.34375 "/><path style=" stroke:none;fill-rule:nonzero;fill:#ef2a68;fill-opacity:1;" d="M 209.574219 92.871094 C 210.441406 95.230469 206.578125 97.292969 201.097656 98.859375 C 195.613281 100.425781 190.585938 100.90625 189.71875 98.542969 C 188.855469 96.183594 192.472656 91.882812 197.957031 90.316406 C 203.441406 88.75 208.707031 90.511719 209.574219 92.871094 "/><path style=" stroke:none;fill-rule:nonzero;fill:#d32554;fill-opacity:1;" d="M 267.257812 97.015625 C 266.113281 99.28125 261.675781 98.535156 256.414062 96.464844 C 251.148438 94.390625 247.050781 91.777344 248.199219 89.515625 C 249.339844 87.25 255.300781 86.1875 260.566406 88.257812 C 265.828125 90.332031 268.40625 94.746094 267.257812 97.015625 "/><path style=" stroke:none;fill-rule:nonzero;fill:#ef2a68;fill-opacity:1;" d="M 266.433594 94.628906 C 265.558594 96.359375 262.171875 95.789062 258.152344 94.207031 C 254.128906 92.621094 251 90.625 251.875 88.898438 C 252.746094 87.167969 257.300781 86.355469 261.320312 87.9375 C 265.34375 89.519531 267.3125 92.894531 266.433594 94.628906 "/><path style=" stroke:none;fill-rule:nonzero;fill:#d32554;fill-opacity:1;" d="M 240.507812 80.226562 C 241.351562 83.421875 235.902344 85.550781 228.347656 86.800781 C 220.785156 88.046875 213.988281 87.949219 213.144531 84.757812 C 212.292969 81.570312 217.722656 76.488281 225.28125 75.238281 C 232.839844 73.984375 239.660156 77.03125 240.507812 80.226562 "/><path style=" stroke:none;fill-rule:nonzero;fill:#ef2a68;fill-opacity:1;" d="M 237.429688 78.207031 C 238.078125 80.640625 233.914062 82.265625 228.140625 83.226562 C 222.367188 84.175781 217.171875 84.101562 216.527344 81.664062 C 215.878906 79.230469 220.027344 75.347656 225.800781 74.394531 C 231.574219 73.4375 236.78125 75.765625 237.429688 78.207031 "/><path style=" stroke:none;fill-rule:nonzero;fill:#d32554;fill-opacity:1;" d="M 170.039062 107.6875 C 172 109.066406 170.328125 112.140625 167.1875 115.503906 C 164.050781 118.867188 160.636719 121.253906 158.675781 119.871094 C 156.71875 118.492188 156.953125 113.878906 160.09375 110.515625 C 163.230469 107.148438 168.082031 106.308594 170.039062 107.6875 "/><path style=" stroke:none;fill-rule:nonzero;fill:#ef2a68;fill-opacity:1;" d="M 167.773438 108.550781 C 169.324219 109.640625 168 112.066406 165.523438 114.722656 C 163.042969 117.382812 160.347656 119.265625 158.800781 118.175781 C 157.25 117.085938 157.4375 113.441406 159.917969 110.78125 C 162.398438 108.125 166.226562 107.460938 167.773438 108.550781 "/><path style=" stroke:none;fill-rule:nonzero;fill:#d32554;fill-opacity:1;" d="M 306.363281 122.742188 C 303.527344 123.65625 300.761719 120.378906 298.5 115.640625 C 296.238281 110.902344 295.332031 106.5 298.171875 105.585938 C 301.003906 104.675781 306.5 107.597656 308.761719 112.335938 C 311.023438 117.074219 309.195312 121.832031 306.363281 122.742188 "/><path style=" stroke:none;fill-rule:nonzero;fill:#ef2a68;fill-opacity:1;" d="M 306.640625 120.242188 C 304.402344 120.964844 302.214844 118.375 300.429688 114.632812 C 298.640625 110.894531 297.925781 107.414062 300.171875 106.691406 C 302.410156 105.972656 306.75 108.28125 308.539062 112.023438 C 310.324219 115.765625 308.878906 119.523438 306.640625 120.242188 "/></g></svg>