<svg xmlns="http://www.w3.org/2000/svg" xmlns:xlink="http://www.w3.org/1999/xlink" width="626" zoomAndPan="magnify" viewBox="0 0 469.5 456.749982" height="609" preserveAspectRatio="xMidYMid meet" version="1.2"><defs><clipPath id="edff2ab44d"><path d="M 0 0.117188 L 469 0.117188 L 469 455.898438 L 0 455.898438 Z M 0 0.117188 "/></clipPath><clipPath id="ddba969e46"><path d="M 56.9375 0.117188 L 411.566406 0.117188 C 443.011719 0.117188 468.503906 25.609375 468.503906 57.058594 L 468.503906 398.960938 C 468.503906 430.40625 443.011719 455.898438 411.566406 455.898438 L 56.9375 455.898438 C 25.492188 455.898438 0 430.40625 0 398.960938 L 0 57.058594 C 0 25.609375 25.492188 0.117188 56.9375 0.117188 Z M 56.9375 0.117188 "/></clipPath><clipPath id="b982f95491"><path d="M 222.851562 390.601562 L 230.375 390.601562 L 230.375 395.542969 L 222.851562 395.542969 Z M 222.851562 390.601562 "/></clipPath><clipPath id="71c1041093"><path d="M 298.394531 230.5625 L 336.464844 230.5625 L 336.464844 363.398438 L 298.394531 363.398438 Z M 298.394531 230.5625 "/></clipPath><clipPath id="16142653d8"><path d="M 288.84375 162.265625 L 336.464844 162.265625 L 336.464844 178.761719 L 288.84375 178.761719 Z M 288.84375 162.265625 "/></clipPath></defs><g id="7e8b69da58"><g clip-rule="nonzero" clip-path="url(#edff2ab44d)"><g clip-rule="nonzero" clip-path="url(#ddba969e46)"><path style=" stroke:none;fill-rule:nonzero;fill:#f48257;fill-opacity:1;" d="M 0 0.117188 L 468.242188 0.117188 L 468.242188 455.898438 L 0 455.898438 Z M 0 0.117188 "/></g></g><path style=" stroke:none;fill-rule:nonzero;fill:#64a7df;fill-opacity:1;" d="M 276.660156 153.6875 C 276.660156 153.6875 311.402344 150.195312 317.15625 137.589844 C 325.171875 120.03125 313.972656 85.417969 305.59375 79.71875 C 297.214844 74.019531 269.453125 69.535156 260.230469 73.144531 C 251.007812 76.757812 248.792969 101.261719 256.859375 104.957031 C 264.921875 108.652344 273.921875 102.054688 268.128906 95.105469 C 268.128906 95.105469 267.683594 100.007812 263.09375 96.132812 C 258.5 92.257812 264.425781 86.867188 269.550781 90.292969 C 274.675781 93.722656 276.152344 110.160156 255.300781 111.238281 C 255.300781 111.238281 236.578125 88.792969 253.054688 65.082031 C 253.054688 65.082031 291.503906 60.65625 320.074219 83.5 C 320.074219 83.5 341.03125 119.492188 331.246094 162.085938 C 331.246094 162.085938 309.15625 182.324219 289.195312 184.46875 L 276.660156 153.6875 "/><path style=" stroke:none;fill-rule:nonzero;fill:#99cff1;fill-opacity:1;" d="M 321.078125 94.132812 C 321.078125 94.132812 332.125 122.207031 330.167969 145.886719 C 330.316406 145.734375 330.457031 145.585938 330.59375 145.441406 C 332.0625 136.234375 333.671875 114.417969 321.078125 94.132812 "/><path style=" stroke:none;fill-rule:nonzero;fill:#d2d2d0;fill-opacity:1;" d="M 326.84375 165.796875 C 324.058594 168.023438 320.117188 170.984375 315.511719 173.894531 C 315.546875 173.960938 315.578125 174.023438 315.613281 174.089844 C 319.375 171.636719 323.457031 168.742188 326.84375 165.796875 M 333.371094 148.941406 C 332.988281 152.9375 332.363281 157.023438 331.453125 161.175781 C 331.859375 160.679688 332.234375 160.183594 332.566406 159.699219 L 332.574219 159.683594 C 332.679688 159.433594 332.789062 159.1875 332.90625 158.945312 L 332.910156 158.929688 C 332.976562 158.765625 333.039062 158.601562 333.101562 158.4375 C 333.238281 158.082031 333.378906 157.726562 333.519531 157.371094 C 333.390625 157.539062 333.3125 157.640625 333.3125 157.640625 C 333.3125 157.640625 333.535156 153.46875 333.371094 148.941406 "/><path style=" stroke:none;fill-rule:nonzero;fill:#4989cf;fill-opacity:1;" d="M 332.839844 142.859375 C 332.839844 142.859375 332.058594 143.882812 330.59375 145.441406 C 330.136719 148.300781 329.695312 149.945312 329.695312 149.945312 C 329.898438 148.609375 330.054688 147.257812 330.167969 145.886719 C 326.128906 150.082031 317.730469 157.4375 306.464844 160.074219 C 309.949219 164.328125 312.945312 168.980469 315.511719 173.894531 C 320.117188 170.984375 324.058594 168.023438 326.84375 165.796875 C 328.617188 164.253906 330.203125 162.695312 331.453125 161.175781 C 332.363281 157.023438 332.988281 152.9375 333.371094 148.941406 C 333.292969 146.867188 333.136719 144.71875 332.839844 142.859375 "/><path style=" stroke:none;fill-rule:nonzero;fill:#75a6d0;fill-opacity:1;" d="M 330.59375 145.441406 C 330.457031 145.585938 330.316406 145.734375 330.167969 145.886719 C 330.054688 147.257812 329.898438 148.609375 329.695312 149.945312 C 329.695312 149.945312 330.136719 148.300781 330.59375 145.441406 "/><path style=" stroke:none;fill-rule:nonzero;fill:#64a7df;fill-opacity:1;" d="M 195.96875 150.640625 C 195.96875 150.640625 164.871094 151.910156 158.210938 141.507812 C 148.941406 127.015625 154.488281 95.074219 161.167969 88.992188 C 167.847656 82.914062 191.78125 75.476562 200.375 77.507812 C 208.964844 79.539062 213.992188 100.886719 207.335938 105.15625 C 200.679688 109.425781 191.914062 104.734375 196.15625 97.878906 C 196.15625 97.878906 197.164062 102.144531 200.730469 98.148438 C 204.296875 94.160156 198.390625 90.136719 194.300781 93.808594 C 190.203125 97.476562 190.960938 112.167969 209.5 110.507812 C 209.5 110.507812 223.207031 88.351562 205.695312 69.496094 C 205.695312 69.496094 171.210938 70.402344 148.859375 94.144531 C 148.859375 94.144531 134.875 128.527344 148.851562 164.890625 C 148.851562 164.890625 170.878906 179.980469 188.765625 179.375 L 195.96875 150.640625 "/><path style=" stroke:none;fill-rule:nonzero;fill:#99cff1;fill-opacity:1;" d="M 150.855469 127.824219 C 150.855469 127.824219 149.238281 154.566406 175.132812 155.402344 C 175.261719 155.234375 175.386719 155.070312 175.511719 154.90625 C 168.472656 153.539062 152.097656 148.183594 150.855469 127.824219 "/><path style=" stroke:none;fill-rule:nonzero;fill:#d2d2d0;fill-opacity:1;" d="M 145.6875 154.992188 C 146.742188 160.449219 147.65625 164.617188 147.65625 164.617188 C 150.304688 166.773438 154.632812 168.976562 159.3125 170.980469 C 153.070312 167.78125 148.851562 164.890625 148.851562 164.890625 C 147.574219 161.566406 146.527344 158.261719 145.6875 154.992188 M 142.644531 130.71875 C 142.367188 132.210938 142.542969 135.0625 142.957031 138.503906 C 142.75 135.839844 142.648438 133.238281 142.644531 130.71875 "/><path style=" stroke:none;fill-rule:nonzero;fill:#4989cf;fill-opacity:1;" d="M 142.6875 130.496094 C 142.671875 130.566406 142.65625 130.640625 142.644531 130.71875 C 142.648438 133.238281 142.75 135.839844 142.957031 138.503906 C 143.566406 143.542969 144.6875 149.84375 145.6875 154.992188 C 146.527344 158.261719 147.574219 161.566406 148.851562 164.890625 C 148.851562 164.890625 153.070312 167.78125 159.3125 170.980469 C 160.933594 171.675781 162.59375 172.34375 164.242188 172.980469 C 166.164062 169.226562 168.214844 165.613281 170.394531 162.207031 C 145.402344 158.957031 142.6875 130.496094 142.6875 130.496094 "/><path style=" stroke:none;fill-rule:nonzero;fill:#de0d91;fill-opacity:1;" d="M 270.746094 303.472656 C 270.746094 303.472656 270.746094 345.417969 253.960938 365.25 C 253.960938 365.25 245.519531 381.351562 263.117188 382.03125 C 282.949219 382.792969 295.152344 350.757812 280.660156 302.707031 C 280.660156 302.707031 273.03125 298.894531 270.746094 303.472656 "/><path style=" stroke:none;fill-rule:nonzero;fill:#b0137b;fill-opacity:1;" d="M 260.160156 380.578125 C 260.160156 381.574219 262.929688 383.039062 264.921875 383.039062 C 266.921875 383.039062 267.390625 381.574219 267.390625 380.578125 C 267.390625 379.578125 266.921875 378.109375 264.921875 378.109375 C 262.929688 378.109375 260.160156 379.578125 260.160156 380.578125 "/><path style=" stroke:none;fill-rule:nonzero;fill:#b0137b;fill-opacity:1;" d="M 250.460938 377.785156 C 250.460938 378.980469 253.421875 380.738281 255.554688 380.738281 C 257.6875 380.738281 258.1875 378.980469 258.1875 377.785156 C 258.1875 376.585938 257.6875 374.824219 255.554688 374.824219 C 253.421875 374.824219 250.460938 376.585938 250.460938 377.785156 "/><path style=" stroke:none;fill-rule:nonzero;fill:#b0137b;fill-opacity:1;" d="M 248.492188 371.207031 C 248.492188 372.40625 249.972656 374 252.109375 374 C 254.242188 374 255.804688 371.417969 255.804688 370.222656 C 255.804688 369.023438 255.714844 368.25 253.582031 368.25 C 251.449219 368.25 248.492188 370.011719 248.492188 371.207031 "/><path style=" stroke:none;fill-rule:nonzero;fill:#d9289d;fill-opacity:1;" d="M 277.523438 338.449219 C 277.386719 338.449219 277.277344 338.65625 277.402344 338.773438 C 279.132812 340.519531 279.804688 343.953125 277.773438 346.085938 C 276.914062 346.980469 275.636719 347.511719 274.414062 347.511719 C 273.699219 347.511719 273.007812 347.332031 272.421875 346.941406 C 271.742188 346.480469 271.136719 345.871094 270.914062 345.035156 C 270.507812 343.527344 271.433594 341.640625 273.15625 341.324219 C 273.386719 341.28125 273.648438 341.253906 273.917969 341.253906 C 274.996094 341.253906 276.175781 341.679688 275.886719 343.0625 C 275.757812 344.011719 275.351562 344.484375 274.667969 344.484375 C 274.4375 344.484375 274.175781 344.429688 273.878906 344.324219 C 273.839844 344.179688 273.800781 344.03125 273.761719 343.894531 C 273.695312 343.613281 273.746094 343.351562 273.925781 343.089844 C 274.128906 342.953125 274.003906 342.703125 273.828125 342.664062 C 273.75 342.648438 273.671875 342.640625 273.601562 342.640625 C 272.53125 342.640625 272.394531 344.480469 272.902344 345.160156 C 273.273438 345.664062 273.746094 345.871094 274.238281 345.871094 C 275.332031 345.871094 276.515625 344.867188 276.90625 343.835938 C 277.828125 341.398438 276.035156 340.167969 273.992188 340.167969 C 272.332031 340.167969 270.503906 340.984375 269.84375 342.617188 C 268.464844 346.019531 271.3125 348.9375 274.484375 348.9375 C 275.003906 348.9375 275.527344 348.859375 276.042969 348.695312 C 278.351562 347.964844 279.746094 346.09375 280 343.71875 C 280.230469 341.53125 279.109375 339.808594 277.625 338.492188 C 277.589844 338.464844 277.554688 338.449219 277.523438 338.449219 "/><path style=" stroke:none;fill-rule:nonzero;fill:#de0d91;fill-opacity:1;" d="M 218.011719 300.640625 C 218.011719 300.640625 218.011719 350.308594 237.878906 373.789062 C 237.878906 373.789062 247.875 392.855469 227.042969 393.652344 C 203.558594 394.554688 189.109375 356.628906 206.269531 299.734375 C 206.269531 299.734375 215.300781 295.222656 218.011719 300.640625 "/><g clip-rule="nonzero" clip-path="url(#b982f95491)"><path style=" stroke:none;fill-rule:nonzero;fill:#b0137b;fill-opacity:1;" d="M 230.109375 393.082031 C 230.109375 394.078125 227.339844 395.542969 225.34375 395.542969 C 223.347656 395.542969 222.878906 394.078125 222.878906 393.082031 C 222.878906 392.082031 223.347656 390.617188 225.34375 390.617188 C 227.339844 390.617188 230.109375 392.082031 230.109375 393.082031 "/></g><path style=" stroke:none;fill-rule:nonzero;fill:#b0137b;fill-opacity:1;" d="M 240.464844 389.628906 C 240.464844 390.828125 237.503906 392.589844 235.371094 392.589844 C 233.238281 392.589844 232.738281 390.828125 232.738281 389.628906 C 232.738281 388.433594 233.238281 386.671875 235.371094 386.671875 C 237.503906 386.671875 240.464844 388.433594 240.464844 389.628906 "/><path style=" stroke:none;fill-rule:nonzero;fill:#b0137b;fill-opacity:1;" d="M 243.75 383.054688 C 243.75 384.253906 242.269531 385.847656 240.136719 385.847656 C 238 385.847656 236.4375 383.269531 236.4375 382.070312 C 236.4375 380.871094 236.527344 380.097656 238.660156 380.097656 C 240.792969 380.097656 243.75 381.859375 243.75 383.054688 "/><path style=" stroke:none;fill-rule:nonzero;fill:#d9289d;fill-opacity:1;" d="M 210.039062 345.964844 C 207.273438 345.964844 204.957031 348.753906 205.371094 351.753906 C 205.699219 354.152344 207.308594 355.84375 209.605469 356.496094 C 210.089844 356.632812 210.566406 356.695312 211.03125 356.695312 C 212.574219 356.695312 213.96875 355.996094 215.160156 355.042969 C 215.300781 354.925781 215.164062 354.738281 215.019531 354.738281 C 214.984375 354.738281 214.949219 354.746094 214.917969 354.769531 C 214.019531 355.398438 212.824219 355.765625 211.617188 355.765625 C 210.128906 355.765625 208.621094 355.207031 207.652344 353.902344 C 206.488281 352.324219 206.390625 349.867188 207.71875 348.484375 C 208.285156 347.890625 208.984375 347.394531 209.847656 347.316406 C 209.929688 347.308594 210.011719 347.304688 210.097656 347.304688 C 211.578125 347.304688 213.105469 348.5 213.125 350.160156 C 213.140625 351.171875 212.734375 352.6875 211.582031 352.6875 C 211.394531 352.6875 211.183594 352.644531 210.949219 352.554688 C 209.730469 352.167969 209.429688 351.4375 210.046875 350.363281 C 210.199219 350.347656 210.347656 350.335938 210.492188 350.320312 C 210.519531 350.320312 210.542969 350.320312 210.570312 350.320312 C 210.820312 350.320312 211.050781 350.417969 211.253906 350.617188 C 211.296875 350.714844 211.371094 350.753906 211.449219 350.753906 C 211.546875 350.753906 211.652344 350.683594 211.691406 350.589844 C 212.070312 349.652344 210.957031 349.117188 210.0625 349.117188 C 209.804688 349.117188 209.566406 349.164062 209.386719 349.253906 C 207.597656 350.15625 208.636719 352.613281 210.015625 353.425781 C 210.59375 353.769531 211.121094 353.917969 211.59375 353.917969 C 214.460938 353.917969 215.277344 348.449219 212.410156 346.675781 C 211.617188 346.179688 210.8125 345.964844 210.039062 345.964844 "/><path style=" stroke:none;fill-rule:nonzero;fill:#aa1577;fill-opacity:1;" d="M 169.097656 344.519531 C 164.453125 341.292969 161.398438 351.675781 155.824219 335.203125 C 155.824219 335.203125 155.300781 334.25 155.386719 333.527344 C 155.308594 333.445312 155.226562 333.375 155.148438 333.277344 C 154.371094 332.292969 153.773438 331.9375 153.316406 332.097656 C 153.078125 332.460938 152.832031 332.820312 152.582031 333.183594 C 152.460938 333.605469 152.378906 334.136719 152.328125 334.773438 C 152.261719 335.703125 152.269531 336.625 152.335938 337.539062 C 153.910156 343.933594 159.910156 352.929688 168.632812 349.980469 C 169.707031 349.621094 173.742188 347.742188 169.097656 344.519531 "/><path style=" stroke:none;fill-rule:nonzero;fill:#de0d91;fill-opacity:1;" d="M 173.597656 354.503906 C 166.433594 348.324219 159.175781 350.542969 154.699219 332.699219 C 154.699219 332.699219 152.148438 326.289062 159.96875 330.191406 C 167.785156 334.09375 170.980469 337.414062 175.773438 332.625 C 180.5625 327.839844 178.804688 322.164062 178.804688 322.164062 C 178.804688 322.164062 177.074219 317.25 172.699219 322.789062 C 168.320312 328.328125 166.988281 333.359375 158.527344 322.96875 C 158.527344 322.96875 157.839844 315.335938 149.964844 309.898438 C 149.964844 309.898438 136.851562 249.890625 154.75 208.574219 L 152.425781 207.898438 C 152.425781 207.898438 127.621094 249.113281 145.722656 328.460938 C 145.722656 328.460938 153.484375 359.945312 171.96875 362.277344 C 173.941406 362.527344 180.757812 360.6875 173.597656 354.503906 "/><path style=" stroke:none;fill-rule:nonzero;fill:#de0d91;fill-opacity:1;" d="M 160.746094 359.5 C 156.210938 348.921875 150.625 351.703125 149.425781 322.832031 C 149.425781 322.832031 149.144531 320.191406 149.527344 318.453125 C 149.460938 318.199219 149.386719 317.980469 149.328125 317.699219 C 148.746094 314.835938 148.128906 313.621094 147.503906 313.75 C 147.0625 314.515625 146.613281 315.269531 146.164062 316.019531 C 145.847656 317 145.539062 318.261719 145.230469 319.804688 C 144.785156 322.058594 144.433594 324.335938 144.160156 326.636719 C 145.613281 342.007812 149.40625 367.796875 158.644531 371.707031 C 160.066406 372.304688 165.28125 370.085938 160.746094 359.5 "/><path style=" stroke:none;fill-rule:nonzero;fill:#aa1577;fill-opacity:1;" d="M 306.011719 348.125 C 310.222656 345.59375 312.277344 354.769531 318.050781 340.804688 C 318.050781 340.804688 318.558594 340.011719 318.523438 339.378906 C 318.597656 339.3125 318.675781 339.253906 318.746094 339.175781 C 319.476562 338.363281 320.015625 338.09375 320.402344 338.253906 C 320.589844 338.585938 320.78125 338.910156 320.976562 339.238281 C 321.054688 339.613281 321.097656 340.078125 321.105469 340.632812 C 321.109375 341.441406 321.050781 342.242188 320.941406 343.03125 C 319.210938 348.480469 313.496094 355.941406 306.101562 352.886719 C 305.191406 352.515625 301.796875 350.660156 306.011719 348.125 "/><g clip-rule="nonzero" clip-path="url(#71c1041093)"><path style=" stroke:none;fill-rule:nonzero;fill:#de0d91;fill-opacity:1;" d="M 301.542969 356.527344 C 308.101562 351.574219 314.265625 353.914062 319.164062 338.699219 C 319.164062 338.699219 321.746094 333.285156 314.746094 336.222656 C 307.746094 339.164062 304.785156 341.855469 300.902344 337.433594 C 297.023438 333.011719 298.871094 328.191406 298.871094 328.191406 C 298.871094 328.191406 300.652344 324.03125 304.128906 329.082031 C 307.609375 334.132812 308.476562 338.570312 316.402344 330.042969 C 316.402344 330.042969 317.433594 323.464844 324.574219 319.203125 C 324.574219 319.203125 339.367188 267.921875 326.207031 231.074219 L 328.261719 230.628906 C 328.261719 230.628906 347.410156 267.769531 327.195312 335.535156 C 327.195312 335.535156 318.667969 362.390625 302.507812 363.359375 C 300.785156 363.464844 294.976562 361.480469 301.542969 356.527344 "/></g><path style=" stroke:none;fill-rule:nonzero;fill:#de0d91;fill-opacity:1;" d="M 312.398438 361.59375 C 316.933594 352.671875 321.617188 355.40625 324.304688 330.445312 C 324.304688 330.445312 324.699219 328.171875 324.464844 326.644531 C 324.535156 326.429688 324.613281 326.238281 324.679688 326 C 325.351562 323.550781 325.949219 322.53125 326.488281 322.683594 C 326.824219 323.371094 327.171875 324.046875 327.519531 324.722656 C 327.734375 325.59375 327.933594 326.703125 328.113281 328.058594 C 328.375 330.042969 328.550781 332.035156 328.652344 334.046875 C 326.515625 347.289062 321.757812 369.429688 313.523438 372.296875 C 312.257812 372.734375 307.859375 370.511719 312.398438 361.59375 "/><path style=" stroke:none;fill-rule:nonzero;fill:#e61494;fill-opacity:1;" d="M 144.632812 261.171875 C 148.628906 286.492188 169.953125 302.039062 233.921875 306.480469 C 297.890625 310.921875 321.878906 281.605469 326.320312 270.058594 C 330.761719 258.507812 336.09375 189.21875 301.886719 155.015625 C 267.683594 120.816406 199.496094 132.640625 186.386719 143.46875 C 155.738281 168.785156 140.632812 235.855469 144.632812 261.171875 "/><path style=" stroke:none;fill-rule:nonzero;fill:#e81897;fill-opacity:1;" d="M 257.554688 197.582031 C 264.660156 195.898438 271.621094 194.402344 277.246094 194.402344 C 281.910156 194.402344 285.65625 195.433594 287.796875 198.25 C 287.796875 198.25 295.808594 201.765625 289.957031 215.914062 C 286.484375 224.308594 278.050781 234.65625 264.53125 241.847656 C 263.667969 240.332031 262.464844 238.972656 260.921875 238.972656 C 260.566406 238.972656 260.191406 239.042969 259.796875 239.207031 C 259.609375 239.28125 259.433594 239.371094 259.269531 239.472656 C 261.503906 241.402344 262.679688 242.808594 262.679688 242.808594 C 260.738281 243.671875 258.84375 244.449219 256.996094 245.15625 C 256.992188 245.207031 256.992188 245.253906 256.992188 245.300781 C 254.097656 246.425781 251.023438 247.402344 247.761719 248.199219 C 240.378906 250.234375 233.863281 251.027344 228.1875 251.027344 C 207.746094 251.027344 198.207031 240.703125 198.207031 240.703125 C 199.453125 239.796875 200.691406 238.953125 201.910156 238.167969 C 201.53125 236.890625 200.808594 235.683594 199.515625 234.835938 C 198.785156 234.355469 198.183594 234.15625 197.691406 234.15625 C 196.078125 234.15625 195.597656 236.28125 195.457031 237.785156 C 183.019531 226.191406 181.347656 212.582031 184.476562 204.507812 C 186.578125 199.082031 190.035156 197 195.6875 197 C 198.773438 197 202.507812 197.617188 207.039062 198.652344 L 205.53125 198.679688 C 205.53125 198.679688 208.949219 213.953125 230.347656 213.953125 C 231.007812 213.953125 231.675781 213.9375 232.367188 213.910156 C 255.582031 212.917969 259.144531 197.546875 259.144531 197.546875 L 257.554688 197.582031 M 237.199219 138.257812 C 216.019531 138.257812 197.253906 143.328125 191.214844 148.175781 C 163.050781 170.769531 149.171875 230.628906 152.84375 253.226562 C 156.519531 275.820312 176.109375 289.695312 234.886719 293.660156 C 238.96875 293.9375 242.878906 294.066406 246.613281 294.066406 C 296.644531 294.066406 315.992188 270.746094 319.789062 261.152344 C 323.871094 250.847656 328.769531 189.007812 297.339844 158.480469 C 281.675781 143.269531 258.246094 138.257812 237.199219 138.257812 "/><path style=" stroke:none;fill-rule:nonzero;fill:#e61494;fill-opacity:1;" d="M 235.230469 148.027344 C 235.207031 146.761719 239.628906 124.164062 250.085938 121.464844 C 261.058594 118.632812 245.972656 134.164062 239.074219 142.71875 C 237.429688 144.753906 236.253906 146.394531 236.003906 147.316406 L 235.230469 148.027344 "/><path style=" stroke:none;fill-rule:nonzero;fill:#e61494;fill-opacity:1;" d="M 235.617188 147.671875 C 235.617188 147.671875 250.640625 124.316406 264.046875 124.117188 C 272.777344 123.988281 243.640625 140.777344 235.617188 147.671875 "/><path style=" stroke:none;fill-rule:nonzero;fill:#aa195c;fill-opacity:1;" d="M 237.382812 164.472656 C 236.1875 177.425781 246.546875 194.222656 259.46875 196.199219 C 272.394531 198.175781 282.652344 188.183594 283.839844 173.878906 C 284.898438 161.113281 273.808594 149.570312 260.886719 147.59375 C 249.703125 145.882812 238.558594 151.71875 237.382812 164.472656 "/><path style=" stroke:none;fill-rule:nonzero;fill:#f9e806;fill-opacity:1;" d="M 237.304688 165.511719 C 236.324219 176.753906 246.257812 191.46875 258.429688 193.332031 C 270.605469 195.191406 280.140625 186.621094 281.101562 174.203125 C 281.957031 163.117188 271.394531 152.960938 259.21875 151.097656 C 248.6875 149.488281 238.269531 154.433594 237.304688 165.511719 "/><path style=" stroke:none;fill-rule:nonzero;fill:#efee0e;fill-opacity:1;" d="M 238.347656 167.996094 C 239.203125 177.953125 249.738281 189.261719 260.238281 189.015625 C 270.738281 188.769531 277.460938 179.832031 276.410156 168.855469 C 275.472656 159.058594 265.09375 151.820312 254.59375 152.066406 C 245.507812 152.277344 237.5 158.1875 238.347656 167.996094 "/><path style=" stroke:none;fill-rule:nonzero;fill:#ffffff;fill-opacity:1;" d="M 242.167969 160.90625 C 242.488281 162.199219 246.441406 159.78125 251.425781 158.546875 C 256.414062 157.3125 260.542969 157.726562 260.222656 156.433594 C 259.902344 155.136719 255.253906 152.625 250.265625 153.859375 C 245.277344 155.09375 241.847656 159.609375 242.167969 160.90625 "/><path style=" stroke:none;fill-rule:nonzero;fill:#2b6a8a;fill-opacity:1;" d="M 247.703125 164.058594 C 243.691406 164.644531 241.257812 167.03125 240.484375 171.222656 C 239.894531 174.40625 241.816406 179.730469 248.335938 180.304688 C 253.210938 180.730469 256.816406 175.058594 256.34375 171.175781 C 255.871094 167.296875 251.710938 163.476562 247.703125 164.058594 "/><path style=" stroke:none;fill-rule:nonzero;fill:#4098c3;fill-opacity:1;" d="M 245.941406 165.027344 C 242.976562 166.566406 241.265625 169.136719 241.703125 172.863281 C 242.0625 175.894531 245.972656 179.945312 250.921875 178.335938 C 254.402344 177.207031 256.328125 171.808594 254.796875 168.695312 C 253.261719 165.585938 248.914062 163.492188 245.941406 165.027344 "/><path style=" stroke:none;fill-rule:nonzero;fill:#49acda;fill-opacity:1;" d="M 247.515625 177.140625 C 247.097656 176.933594 246.136719 176.742188 245.734375 176.453125 C 245.136719 176.027344 244.625 175.261719 243.992188 174.648438 C 242.933594 173.621094 243.273438 173.660156 243.109375 172.242188 C 242.960938 170.972656 243.164062 170.171875 243.957031 169.023438 C 244.425781 168.332031 245.242188 167.300781 245.902344 166.972656 C 246.53125 166.660156 248.472656 166.292969 249.097656 166.242188 C 250.152344 166.160156 250.964844 166.582031 251.65625 167.1875 C 252.398438 167.839844 253.402344 168.394531 253.714844 169.320312 C 254 170.175781 254.257812 171.054688 254 171.964844 C 253.886719 172.375 253.585938 172.90625 253.46875 173.398438 C 253.324219 173.984375 252.898438 174.234375 252.496094 174.789062 C 252.257812 175.117188 250.902344 176.8125 250.675781 177.015625 C 250.382812 177.277344 248.1875 177.472656 247.515625 177.140625 "/><path style=" stroke:none;fill-rule:nonzero;fill:#161b1c;fill-opacity:1;" d="M 248.308594 168.070312 C 246.324219 168.335938 244.9375 170.210938 245.210938 172.261719 C 245.488281 174.308594 247.316406 175.753906 249.300781 175.488281 C 251.28125 175.222656 252.667969 173.347656 252.394531 171.300781 C 252.117188 169.25 250.289062 167.804688 248.308594 168.070312 "/><path style=" stroke:none;fill-rule:nonzero;fill:#ffffff;fill-opacity:1;" d="M 253.132812 166.113281 C 251.269531 166.332031 249.996094 168.085938 250.292969 170.039062 C 250.585938 171.992188 252.339844 173.398438 254.199219 173.179688 C 256.0625 172.964844 257.332031 171.207031 257.039062 169.253906 C 256.742188 167.304688 254.996094 165.898438 253.132812 166.113281 "/><path style=" stroke:none;fill-rule:nonzero;fill:#aa195c;fill-opacity:1;" d="M 229.632812 168.96875 C 230.277344 178.28125 222.519531 190.578125 213.164062 192.238281 C 203.808594 193.902344 196.582031 186.886719 195.964844 176.601562 C 195.417969 167.421875 203.617188 158.894531 212.96875 157.234375 C 221.066406 155.792969 229 159.792969 229.632812 168.96875 "/><path style=" stroke:none;fill-rule:nonzero;fill:#f9e806;fill-opacity:1;" d="M 229.058594 170.800781 C 229.75 178.746094 222.734375 189.144531 214.128906 190.460938 C 205.523438 191.777344 198.785156 185.71875 198.109375 176.945312 C 197.503906 169.109375 204.964844 161.933594 213.570312 160.613281 C 221.015625 159.476562 228.375 162.972656 229.058594 170.800781 "/><path style=" stroke:none;fill-rule:nonzero;fill:#efee0e;fill-opacity:1;" d="M 227.957031 170.921875 C 227.871094 177.734375 220.949219 185.933594 213.441406 186.277344 C 205.933594 186.621094 200.664062 180.867188 200.835938 173.351562 C 200.988281 166.644531 208.015625 161.21875 215.523438 160.878906 C 222.019531 160.582031 228.042969 164.214844 227.957031 170.921875 "/><path style=" stroke:none;fill-rule:nonzero;fill:#ffffff;fill-opacity:1;" d="M 204.089844 169.914062 C 204.425781 171.265625 208.46875 168.761719 213.578125 167.496094 C 218.691406 166.230469 222.929688 166.679688 222.597656 165.332031 C 222.261719 163.980469 217.480469 161.339844 212.367188 162.605469 C 207.257812 163.871094 203.753906 168.566406 204.089844 169.914062 "/><path style=" stroke:none;fill-rule:nonzero;fill:#2b6a8a;fill-opacity:1;" d="M 219.097656 168.4375 C 215.808594 168.917969 213.8125 170.875 213.175781 174.3125 C 212.695312 176.921875 214.269531 181.289062 219.617188 181.757812 C 223.613281 182.109375 226.570312 177.457031 226.183594 174.273438 C 225.796875 171.089844 222.386719 167.957031 219.097656 168.4375 "/><path style=" stroke:none;fill-rule:nonzero;fill:#4098c3;fill-opacity:1;" d="M 217.65625 169.230469 C 215.222656 170.492188 213.816406 172.601562 214.179688 175.65625 C 214.472656 178.140625 217.675781 181.464844 221.738281 180.144531 C 224.589844 179.21875 226.171875 174.789062 224.914062 172.238281 C 223.660156 169.6875 220.089844 167.972656 217.65625 169.230469 "/><path style=" stroke:none;fill-rule:nonzero;fill:#49acda;fill-opacity:1;" d="M 218.945312 179.164062 C 218.605469 178.996094 217.816406 178.835938 217.480469 178.601562 C 216.992188 178.25 216.574219 177.621094 216.054688 177.121094 C 215.1875 176.277344 215.464844 176.308594 215.332031 175.148438 C 215.210938 174.105469 215.375 173.449219 216.023438 172.503906 C 216.414062 171.941406 217.078125 171.09375 217.621094 170.824219 C 218.136719 170.570312 219.726562 170.265625 220.242188 170.226562 C 221.105469 170.15625 221.773438 170.503906 222.339844 171.003906 C 222.949219 171.539062 223.769531 171.992188 224.027344 172.75 C 224.261719 173.453125 224.472656 174.171875 224.261719 174.917969 C 224.167969 175.253906 223.921875 175.691406 223.824219 176.09375 C 223.710938 176.578125 223.359375 176.78125 223.027344 177.234375 C 222.832031 177.503906 221.722656 178.894531 221.535156 179.0625 C 221.296875 179.277344 219.496094 179.433594 218.945312 179.164062 "/><path style=" stroke:none;fill-rule:nonzero;fill:#161b1c;fill-opacity:1;" d="M 219.59375 171.726562 C 217.964844 171.945312 216.832031 173.480469 217.054688 175.160156 C 217.28125 176.84375 218.78125 178.027344 220.40625 177.808594 C 222.035156 177.589844 223.167969 176.050781 222.945312 174.371094 C 222.71875 172.695312 221.21875 171.507812 219.59375 171.726562 "/><path style=" stroke:none;fill-rule:nonzero;fill:#ffffff;fill-opacity:1;" d="M 223.550781 170.121094 C 222.023438 170.300781 220.980469 171.738281 221.222656 173.339844 C 221.464844 174.941406 222.898438 176.09375 224.425781 175.914062 C 225.953125 175.738281 226.996094 174.296875 226.753906 172.695312 C 226.511719 171.097656 225.078125 169.945312 223.550781 170.121094 "/><path style=" stroke:none;fill-rule:nonzero;fill:#b51d54;fill-opacity:1;" d="M 207.320312 252.265625 C 207.320312 252.265625 223.195312 260.890625 259.535156 249.667969 C 259.535156 249.667969 226.441406 264.679688 207.320312 252.265625 "/><path style=" stroke:none;fill-rule:nonzero;fill:#5c1f21;fill-opacity:1;" d="M 184.476562 204.507812 C 187.726562 196.121094 194.203125 195.726562 207.039062 198.652344 L 205.53125 198.679688 C 205.53125 198.679688 209.15625 214.90625 232.367188 213.910156 C 255.582031 212.917969 259.144531 197.546875 259.144531 197.546875 L 257.554688 197.582031 C 270.554688 194.507812 283.082031 192.042969 287.796875 198.25 C 287.796875 198.25 295.808594 201.765625 289.957031 215.914062 C 286.484375 224.308594 278.050781 234.65625 264.53125 241.847656 C 263.46875 239.984375 261.890625 238.351562 259.796875 239.207031 C 257.570312 240.113281 257.023438 242.886719 256.992188 245.300781 C 254.039062 246.445312 250.898438 247.441406 247.5625 248.246094 C 246.105469 245.234375 243.542969 241.058594 240.5625 241.1875 C 237.628906 241.3125 235.910156 246.460938 235.035156 250.246094 C 233.230469 250.394531 231.390625 250.496094 229.503906 250.539062 C 228.667969 250.554688 227.859375 250.535156 227.046875 250.515625 C 226.757812 247.175781 225.695312 242.292969 221.960938 241.207031 C 217.832031 240.011719 214.328125 245.050781 212.65625 248.054688 C 208.796875 246.761719 205.28125 245.03125 202.105469 242.972656 C 202.453125 240.6875 202.515625 236.804688 199.515625 234.835938 C 196.40625 232.792969 195.640625 235.816406 195.457031 237.785156 C 183.019531 226.191406 181.347656 212.582031 184.476562 204.507812 "/><path style=" stroke:none;fill-rule:nonzero;fill:#3b1818;fill-opacity:1;" d="M 249.867188 237.328125 C 249.867188 237.328125 259.625 233.480469 260.921875 225.910156 C 262.222656 218.34375 254.25 217.652344 251.242188 220.472656 C 248.234375 223.296875 253.855469 229.03125 251.007812 230.886719 C 248.160156 232.742188 245.171875 230.28125 247.894531 224.746094 C 250.617188 219.214844 241.191406 215.6875 235.714844 220.035156 C 230.238281 224.378906 232.847656 232.777344 239.765625 236.707031 C 246.683594 240.636719 249.867188 237.328125 249.867188 237.328125 "/><path style=" stroke:none;fill-rule:nonzero;fill:#d32934;fill-opacity:1;" d="M 262.679688 242.808594 C 262.679688 242.808594 237.3125 212.382812 198.207031 240.703125 C 198.207031 240.703125 218.300781 262.460938 262.679688 242.808594 "/><path style=" stroke:none;fill-rule:nonzero;fill:#fcfcea;fill-opacity:1;" d="M 221.960938 241.207031 C 225.695312 242.292969 226.757812 247.175781 227.046875 250.515625 C 221.816406 250.390625 217.015625 249.507812 212.65625 248.054688 C 214.328125 245.050781 217.832031 240.011719 221.960938 241.207031 "/><path style=" stroke:none;fill-rule:nonzero;fill:#fcfcea;fill-opacity:1;" d="M 240.5625 241.1875 C 243.542969 241.058594 246.105469 245.234375 247.5625 248.246094 C 243.652344 249.191406 239.472656 249.875 235.035156 250.246094 C 235.910156 246.460938 237.628906 241.3125 240.5625 241.1875 "/><path style=" stroke:none;fill-rule:nonzero;fill:#fcfcea;fill-opacity:1;" d="M 199.882812 234.828125 C 202.882812 236.800781 203 241.6875 201.8125 243.601562 C 199.398438 242.035156 197.34375 239.589844 195.457031 237.785156 C 195.640625 235.816406 196.773438 232.789062 199.882812 234.828125 "/><path style=" stroke:none;fill-rule:nonzero;fill:#ebe1bd;fill-opacity:1;" d="M 226.378906 246.3125 C 226.378906 246.3125 224.171875 249.503906 219.601562 248.304688 C 215.035156 247.105469 215.417969 244.183594 215.417969 244.183594 C 215.417969 244.183594 212.90625 246.867188 212.390625 248.753906 C 212.390625 248.753906 219.804688 251.519531 227.113281 251.066406 C 227.113281 251.066406 226.597656 247.136719 226.378906 246.3125 "/><path style=" stroke:none;fill-rule:nonzero;fill:#ebe1bd;fill-opacity:1;" d="M 245.695312 244.832031 C 245.695312 244.832031 245.589844 247.535156 241.472656 248.195312 C 237.351562 248.855469 236.464844 245.453125 236.464844 245.453125 C 236.464844 245.453125 235.226562 248.71875 235.101562 250.695312 C 235.101562 250.695312 244.84375 249.847656 247.5625 248.246094 C 247.5625 248.246094 246.085938 245.027344 245.695312 244.832031 "/><path style=" stroke:none;fill-rule:nonzero;fill:#fcfcea;fill-opacity:1;" d="M 256.992188 245.300781 C 257.023438 242.886719 257.570312 240.113281 259.796875 239.207031 C 261.890625 238.351562 263.46875 239.984375 264.53125 241.847656 C 263.917969 242.171875 263.3125 242.5 262.679688 242.808594 C 260.871094 243.703125 258.96875 244.535156 256.992188 245.300781 "/><path style=" stroke:none;fill-rule:nonzero;fill:#fdfefb;fill-opacity:1;" d="M 232.132812 219.410156 C 208.917969 220.402344 205.53125 198.679688 205.53125 198.679688 L 207.039062 198.644531 C 214.609375 199.925781 223.292969 201.320312 232.460938 201.15625 C 239.460938 201.03125 248.617188 199.074219 257.546875 197.34375 L 259.132812 197.300781 C 259.132812 197.300781 255.347656 218.421875 232.132812 219.410156 "/><path style=" stroke:none;fill-rule:nonzero;fill:#f5f5f5;fill-opacity:1;" d="M 254.851562 207.445312 C 254.851562 207.445312 253.285156 200.726562 241.25 201.785156 C 229.214844 202.84375 228.125 210.308594 228.125 210.308594 L 227.214844 207.28125 C 227.214844 207.28125 224.386719 202.789062 216.027344 201.535156 C 207.671875 200.289062 208.984375 207.453125 209.824219 208.515625 C 209.824219 208.515625 206.011719 203.320312 205.53125 198.679688 C 205.53125 198.679688 222.441406 200.886719 228.078125 200.917969 C 228.078125 200.917969 238.011719 201.238281 248.136719 199.152344 C 258.257812 197.066406 259.140625 197.382812 259.140625 197.382812 C 259.140625 197.382812 257.441406 204.738281 254.851562 207.445312 "/><path style=" stroke:none;fill-rule:nonzero;fill:#b7af93;fill-opacity:1;" d="M 226.496094 201.796875 C 226.496094 201.796875 226.070312 209.847656 228.300781 216.347656 C 228.300781 216.347656 227.21875 208.054688 229.019531 201.855469 L 226.496094 201.796875 "/><path style=" stroke:none;fill-rule:nonzero;fill:#b51d54;fill-opacity:1;" d="M 274.03125 195.429688 C 266.78125 196.132812 245.265625 201.597656 228.367188 201.589844 C 213.984375 201.578125 205.160156 197.445312 194.195312 198.394531 C 183.226562 199.339844 184.007812 206.550781 184.007812 206.550781 C 184.007812 206.550781 182.652344 192.902344 208.371094 196.429688 C 232.582031 199.746094 262.984375 195.464844 273.40625 194.25 C 283.824219 193.03125 288.621094 198.699219 288.621094 198.699219 C 288.621094 198.699219 283.121094 194.542969 274.03125 195.429688 "/><path style=" stroke:none;fill-rule:nonzero;fill:#dc4657;fill-opacity:1;" d="M 229.695312 229.441406 C 229.363281 229.441406 229.03125 229.445312 228.691406 229.457031 C 221.394531 229.703125 215.566406 232.570312 215.632812 234.625 C 215.691406 236.34375 219.898438 236.9375 225.574219 236.9375 C 226.648438 236.9375 227.777344 236.914062 228.941406 236.875 C 236.242188 236.632812 242.136719 235.785156 242.066406 233.738281 C 242.003906 231.78125 236.535156 229.441406 229.695312 229.441406 "/><path style=" stroke:none;fill-rule:nonzero;fill:#1a1817;fill-opacity:1;" d="M 314.503906 164.941406 L 301.375 166 C 298.664062 165.527344 294.511719 164.996094 289.480469 164.980469 C 289.410156 164.328125 289.246094 163.714844 289.015625 163.152344 C 288.988281 162.890625 288.945312 162.636719 288.890625 162.386719 L 314.503906 164.941406 "/><path style=" stroke:none;fill-rule:nonzero;fill:#1a1817;fill-opacity:1;" d="M 235.660156 170.714844 C 236.707031 186.28125 250.074219 198.058594 265.511719 197.019531 C 280.953125 195.980469 292.621094 182.519531 291.574219 166.953125 C 290.523438 151.382812 277.160156 139.605469 261.71875 140.644531 C 246.277344 141.683594 234.609375 155.148438 235.660156 170.714844 Z M 240.875 170.789062 C 239.992188 157.714844 249.777344 146.414062 262.726562 145.542969 C 275.675781 144.667969 286.886719 154.558594 287.769531 167.632812 C 288.648438 180.703125 278.863281 192.007812 265.914062 192.878906 C 252.964844 193.75 241.753906 183.859375 240.875 170.789062 "/><path style=" stroke:none;fill-rule:nonzero;fill:#1a1817;fill-opacity:1;" d="M 238.128906 175.273438 C 238.128906 175.273438 234.335938 173.671875 230.183594 176.339844 C 230.183594 176.339844 228.222656 177.984375 229.402344 180.386719 C 231.851562 178.832031 236.285156 178.34375 240 179.671875 C 240 179.671875 241.570312 176.367188 238.128906 175.273438 "/><path style=" stroke:none;fill-rule:nonzero;fill:#2a2928;fill-opacity:1;" d="M 237.328125 169.824219 C 238.332031 184.746094 251.308594 196.023438 266.3125 195.011719 C 281.316406 194.003906 292.667969 181.085938 291.660156 166.167969 C 290.65625 151.246094 277.679688 139.96875 262.675781 140.976562 C 247.671875 141.988281 236.324219 154.902344 237.328125 169.824219 Z M 239.988281 169.363281 C 239.089844 156.039062 249.226562 144.507812 262.628906 143.605469 C 276.027344 142.703125 287.617188 152.773438 288.515625 166.097656 C 289.410156 179.421875 279.277344 190.957031 265.875 191.859375 C 252.476562 192.761719 240.886719 182.6875 239.988281 169.363281 "/><path style=" stroke:none;fill-rule:nonzero;fill:#1a1817;fill-opacity:1;" d="M 202.535156 144.628906 C 187.03125 145.671875 175.316406 159.136719 176.363281 174.703125 C 177.410156 190.273438 190.828125 202.046875 206.328125 201.003906 C 221.832031 199.960938 233.550781 186.496094 232.503906 170.925781 C 231.453125 155.359375 218.039062 143.585938 202.535156 144.628906 Z M 205.710938 196.929688 C 192.757812 197.800781 181.550781 187.960938 180.675781 174.953125 C 179.800781 161.941406 189.585938 150.6875 202.539062 149.816406 C 215.488281 148.945312 226.695312 158.785156 227.570312 171.796875 C 228.449219 184.808594 218.660156 196.058594 205.710938 196.929688 "/><g clip-rule="nonzero" clip-path="url(#16142653d8)"><path style=" stroke:none;fill-rule:nonzero;fill:#2a2928;fill-opacity:1;" d="M 326.820312 165.425781 L 326.839844 165.570312 C 329.660156 165.859375 334.390625 167.097656 335.9375 172.0625 C 337.941406 178.507812 332.835938 180.527344 331.710938 176.644531 C 330.546875 172.636719 328.347656 170.683594 326.960938 169.808594 C 323.023438 168.996094 304.0625 164.257812 289.917969 168.90625 C 289.847656 168.257812 289.246094 163.710938 289.015625 163.152344 C 288.988281 162.890625 288.945312 162.632812 288.890625 162.382812 L 326.820312 165.425781 "/></g><path style=" stroke:none;fill-rule:nonzero;fill:#2a2928;fill-opacity:1;" d="M 141.144531 178.222656 L 141.144531 178.367188 C 138.386719 179.03125 133.863281 180.890625 132.996094 186.015625 C 131.863281 192.671875 137.195312 193.988281 137.792969 189.992188 C 138.414062 185.867188 140.332031 183.636719 141.589844 182.585938 C 145.382812 181.253906 163.542969 174.035156 178.179688 176.757812 C 178.164062 176.105469 178.152344 171.519531 178.304688 170.933594 C 178.300781 170.667969 178.308594 170.410156 178.332031 170.15625 L 141.144531 178.222656 "/><path style=" stroke:none;fill-rule:nonzero;fill:#2a2928;fill-opacity:1;" d="M 201.960938 145.0625 C 186.957031 146.074219 175.609375 158.988281 176.613281 173.90625 C 177.617188 188.828125 190.59375 200.109375 205.597656 199.097656 C 220.601562 198.085938 231.949219 185.171875 230.945312 170.253906 C 229.941406 155.332031 216.964844 144.050781 201.960938 145.0625 Z M 205.609375 195.914062 C 192.210938 196.816406 180.621094 186.746094 179.722656 173.417969 C 178.828125 160.09375 188.960938 148.5625 202.363281 147.660156 C 215.761719 146.757812 227.351562 156.828125 228.25 170.152344 C 229.148438 183.480469 219.011719 195.011719 205.609375 195.914062 "/><path style=" stroke:none;fill-rule:nonzero;fill:#2a2928;fill-opacity:1;" d="M 238.023438 173.703125 C 238.023438 173.703125 234.230469 172.101562 230.082031 174.765625 C 230.082031 174.765625 228.117188 176.410156 229.296875 178.8125 C 231.746094 177.261719 236.179688 176.773438 239.894531 178.101562 C 239.894531 178.101562 241.464844 174.796875 238.023438 173.703125 "/></g></svg>